M48
;GenerationSoftware,Autodesk,EAGLE,9.6.2*%
;CreationDate,2020-12-03T05:17:54Z*%
FMAT,2
ICI,OFF
METRIC,TZ,000.000
T8C0.305
T7C0.400
T6C0.650
T5C1.016
T4C1.100
T3C1.600
T2C3.302
T1C3.800
%
G90
M71
T1
X152908Y94996
X152908Y5080
X152908Y39878
X132588Y39878
X132588Y60198
X125988Y49828
X132588Y5080
X132588Y25400
X125988Y15030
X45470Y15030
X152908Y74676
X72390Y60198
X72390Y39878
X52070Y39878
X52070Y94996
X132588Y74676
X132588Y94996
X125988Y84626
X72390Y94996
X52070Y60198
X52070Y5080
X72390Y25400
X72390Y5080
X72390Y74676
X52070Y74676
X45470Y84626
X152908Y60198
X52070Y25400
X45470Y49828
X152908Y25400
T2
X2540Y31750
X83058Y101346
X157988Y72136
X77470Y31750
X77470Y2540
X2540Y2540
X83058Y72136
X83058Y2540
X157988Y101346
X157988Y31750
X83058Y31750
X157988Y2540
X77470Y66548
X2540Y66548
X77470Y37338
X2540Y37338
X157988Y66548
X83058Y66548
X157988Y37338
X83058Y37338
X77470Y101346
X2540Y101346
X77470Y72136
X2540Y72136
T3
X25400Y98646
X25400Y29050
X105918Y63848
X105918Y29050
X25400Y63848
X105918Y98646
T4
X25400Y9050
X25400Y78646
X105918Y9050
X25400Y43848
X105918Y43848
X105918Y78646
T5
X86868Y42418
X6350Y7620
X84328Y42418
X84328Y77216
X86868Y7620
X84328Y7620
X86868Y77216
X3810Y7620
X3810Y77216
X6350Y77216
X6350Y42418
X3810Y42418
T6
X4905Y16860
X4905Y11080
X85423Y16860
X85423Y11080
X85423Y45878
X85423Y86456
X85423Y80676
X4905Y80676
X4905Y86456
X85423Y51658
X4905Y45878
X4905Y51658
T7
X81773Y18288
X85953Y53086
X1255Y87884
X1255Y79248
X5435Y79248
X5435Y87884
X81773Y44450
X5435Y44450
X1255Y44450
X1255Y53086
X1255Y18288
X1255Y9652
X85953Y44450
X81773Y87884
X81773Y79248
X85953Y79248
X81773Y9652
X81773Y53086
X5435Y9652
X5435Y18288
X85953Y18288
X85953Y9652
X5435Y53086
X85953Y87884
T8
X85090Y60198
X92837Y50406
X85725Y58420
X106807Y46355
X93218Y49657
X93726Y52578
X22860Y73406
X13970Y73406
X7620Y75946
X13970Y78486
X17780Y82296
X15240Y81026
X8509Y88011
X17780Y94996
X12700Y92456
X7620Y96266
X21590Y80264
X9652Y76073
X25273Y80137
X7747Y84071
X18415Y80137
X18415Y79248
X7018Y83312
X3048Y88646
X15240Y77711
X25400Y82169
X14097Y77089
X25400Y81280
X21844Y75311
X28956Y80391
X4572Y94996
X12319Y85204
X5207Y93218
X89027Y18415
X12700Y84455
X13208Y87376
X103378Y73406
X94488Y73406
X88138Y75946
X94488Y78486
X98298Y82296
X95758Y81026
X89027Y88011
X98298Y94996
X93218Y92456
X88138Y96266
X102108Y80264
X90170Y76073
X105791Y80137
X88265Y84071
X98933Y80137
X98933Y79248
X87536Y83312
X83566Y88646
X95758Y77711
X105918Y82169
X94615Y77089
X105918Y81280
X102362Y75311
X109474Y80391
X85090Y94996
X92837Y85204
X85725Y93218
X106807Y81153
X93218Y84455
X93726Y87376
X22860Y3810
X13970Y3810
X7620Y6350
X26289Y81153
X13970Y8890
X17780Y12700
X15240Y11430
X8509Y18415
X17780Y25400
X12700Y22860
X7620Y26670
X21590Y10668
X9652Y6477
X25273Y10541
X7747Y14475
X18415Y10541
X18415Y9652
X7018Y13716
X3048Y19050
X15240Y8115
X25400Y12573
X14097Y7493
X25400Y11684
X21844Y5715
X28956Y10795
X4572Y25400
X12319Y15608
X5207Y23622
X26289Y11557
X12700Y14859
X13208Y17780
X103378Y3810
X94488Y3810
X88138Y6350
X94488Y8890
X98298Y12700
X95758Y11430
X98298Y25400
X93218Y22860
X88138Y26670
X102108Y10668
X90170Y6477
X105791Y10541
X88265Y14475
X98933Y10541
X98933Y9652
X87536Y13716
X83566Y19050
X95758Y8115
X105918Y12573
X94615Y7493
X105918Y11684
X102362Y5715
X109474Y10795
X85090Y25400
X92837Y15608
X85725Y23622
X106807Y11557
X93218Y14859
X93726Y17780
X22860Y38608
X13970Y38608
X7620Y41148
X13970Y43688
X17780Y47498
X15240Y46228
X8509Y53213
X17780Y60198
X12700Y57658
X7620Y61468
X21590Y45466
X9652Y41275
X25273Y45339
X7747Y49273
X18415Y45339
X18415Y44450
X7018Y48514
X105918Y46482
X3048Y53848
X15240Y42913
X25400Y47371
X14097Y42291
X25400Y46482
X21844Y40513
X28956Y45593
X4572Y60198
X12319Y50406
X5207Y58420
X26289Y46355
X12700Y49657
X13208Y52578
X103378Y38608
X94488Y38608
X88138Y41148
X94488Y43688
X98298Y47498
X95758Y46228
X89027Y53213
X98298Y60198
X93218Y57658
X88138Y61468
X102108Y45466
X90170Y41275
X105791Y45339
X88265Y49273
X98933Y45339
X98933Y44450
X87536Y48514
X83566Y53848
X95758Y42913
X105918Y47371
X94615Y42291
X102362Y40513
X109474Y45593
M30