G04 EAGLE Gerber RS-274X export*
G75*
%MOMM*%
%FSLAX34Y34*%
%LPD*%
%INBottom Copper*%
%IPPOS*%
%AMOC8*
5,1,8,0,0,1.08239X$1,22.5*%
G01*
%ADD10C,0.254000*%
%ADD11C,0.755600*%
%ADD12C,0.635000*%
%ADD13C,6.000000*%
%ADD14R,0.660400X1.270000*%
%ADD15R,1.270000X0.635000*%
%ADD16C,1.879600*%
%ADD17R,0.635000X1.270000*%
%ADD18C,1.270000*%
%ADD19C,6.197600*%
%ADD20C,0.660400*%
%ADD21C,0.203200*%
%ADD22C,0.406400*%
%ADD23C,0.736600*%

G36*
X58541Y3311D02*
X58541Y3311D01*
X58600Y3309D01*
X58682Y3331D01*
X58765Y3343D01*
X58818Y3366D01*
X58875Y3381D01*
X58947Y3424D01*
X59024Y3459D01*
X59069Y3497D01*
X59119Y3526D01*
X59177Y3588D01*
X59241Y3642D01*
X59274Y3691D01*
X59314Y3734D01*
X59352Y3809D01*
X59399Y3879D01*
X59417Y3935D01*
X59443Y3987D01*
X59455Y4055D01*
X59485Y4150D01*
X59487Y4250D01*
X59499Y4318D01*
X59499Y6448D01*
X61447Y8396D01*
X61504Y8411D01*
X61587Y8423D01*
X61641Y8446D01*
X61697Y8461D01*
X61770Y8504D01*
X61847Y8539D01*
X61891Y8577D01*
X61942Y8606D01*
X61999Y8668D01*
X62064Y8722D01*
X62096Y8771D01*
X62136Y8814D01*
X62175Y8889D01*
X62221Y8959D01*
X62239Y9015D01*
X62266Y9067D01*
X62277Y9135D01*
X62307Y9230D01*
X62310Y9330D01*
X62321Y9398D01*
X62321Y15001D01*
X62312Y15064D01*
X62315Y15113D01*
X62186Y16269D01*
X62187Y16269D01*
X62243Y16365D01*
X62251Y16396D01*
X62266Y16424D01*
X62278Y16501D01*
X62301Y16588D01*
X63119Y17406D01*
X63158Y17457D01*
X63194Y17490D01*
X63921Y18398D01*
X64029Y18426D01*
X64056Y18442D01*
X64086Y18452D01*
X64150Y18497D01*
X64227Y18543D01*
X65385Y18543D01*
X65448Y18552D01*
X65497Y18549D01*
X66653Y18677D01*
X66749Y18620D01*
X66779Y18613D01*
X66807Y18598D01*
X66885Y18585D01*
X66972Y18563D01*
X67790Y17744D01*
X67841Y17706D01*
X67874Y17670D01*
X70694Y15413D01*
X70772Y15367D01*
X70845Y15313D01*
X70894Y15295D01*
X70939Y15268D01*
X71027Y15246D01*
X71111Y15214D01*
X71164Y15210D01*
X71214Y15197D01*
X71305Y15200D01*
X71395Y15193D01*
X71446Y15204D01*
X71498Y15205D01*
X71584Y15232D01*
X71673Y15251D01*
X71720Y15275D01*
X71769Y15291D01*
X71844Y15342D01*
X71924Y15384D01*
X71962Y15420D01*
X72005Y15449D01*
X72064Y15519D01*
X72129Y15581D01*
X72151Y15622D01*
X72189Y15667D01*
X72252Y15808D01*
X72289Y15877D01*
X72514Y16534D01*
X75326Y18543D01*
X78781Y18543D01*
X81593Y16534D01*
X81994Y15366D01*
X82018Y15318D01*
X82034Y15266D01*
X82082Y15192D01*
X82123Y15113D01*
X82160Y15073D01*
X82189Y15028D01*
X82256Y14970D01*
X82317Y14905D01*
X82363Y14877D01*
X82404Y14842D01*
X82485Y14805D01*
X82561Y14759D01*
X82613Y14745D01*
X82662Y14723D01*
X82750Y14709D01*
X82836Y14687D01*
X82890Y14688D01*
X82944Y14680D01*
X83014Y14691D01*
X83120Y14694D01*
X83210Y14722D01*
X83275Y14732D01*
X85336Y15419D01*
X86887Y14644D01*
X86903Y14639D01*
X86917Y14629D01*
X87038Y14593D01*
X87156Y14554D01*
X87173Y14553D01*
X87190Y14548D01*
X87316Y14547D01*
X87440Y14542D01*
X87457Y14546D01*
X87474Y14546D01*
X87542Y14566D01*
X87717Y14609D01*
X87758Y14633D01*
X87795Y14644D01*
X89345Y15419D01*
X91941Y14554D01*
X93164Y12107D01*
X90929Y5401D01*
X90926Y5386D01*
X90920Y5372D01*
X90901Y5246D01*
X90878Y5121D01*
X90879Y5106D01*
X90877Y5091D01*
X90888Y5023D01*
X90906Y4839D01*
X90909Y4831D01*
X90879Y4772D01*
X90877Y4764D01*
X90872Y4757D01*
X90831Y4629D01*
X90789Y4503D01*
X90789Y4494D01*
X90786Y4486D01*
X90783Y4353D01*
X90777Y4218D01*
X90779Y4210D01*
X90779Y4202D01*
X90812Y4073D01*
X90844Y3942D01*
X90848Y3935D01*
X90851Y3927D01*
X90919Y3812D01*
X90985Y3695D01*
X90991Y3690D01*
X90996Y3682D01*
X91094Y3590D01*
X91189Y3498D01*
X91197Y3494D01*
X91203Y3488D01*
X91322Y3427D01*
X91440Y3364D01*
X91449Y3362D01*
X91456Y3358D01*
X91508Y3350D01*
X91718Y3305D01*
X91757Y3308D01*
X91787Y3303D01*
X766527Y3303D01*
X766634Y3318D01*
X766741Y3326D01*
X766774Y3338D01*
X766808Y3343D01*
X766907Y3387D01*
X767008Y3424D01*
X767036Y3445D01*
X767068Y3459D01*
X767150Y3529D01*
X767237Y3592D01*
X767258Y3620D01*
X767285Y3642D01*
X767345Y3732D01*
X767410Y3818D01*
X767423Y3850D01*
X767442Y3879D01*
X767475Y3982D01*
X767515Y4082D01*
X767518Y4117D01*
X767528Y4150D01*
X767531Y4258D01*
X767541Y4365D01*
X767535Y4400D01*
X767536Y4434D01*
X767508Y4539D01*
X767488Y4645D01*
X767473Y4676D01*
X767464Y4709D01*
X767409Y4802D01*
X767360Y4898D01*
X767336Y4924D01*
X767318Y4954D01*
X767240Y5028D01*
X767166Y5107D01*
X767139Y5122D01*
X767111Y5148D01*
X766920Y5246D01*
X766874Y5272D01*
X763738Y6413D01*
X757905Y11308D01*
X754098Y17902D01*
X752776Y25400D01*
X754098Y32898D01*
X757905Y39492D01*
X763738Y44387D01*
X770893Y46991D01*
X778507Y46991D01*
X785662Y44387D01*
X791495Y39492D01*
X794903Y33589D01*
X794915Y33574D01*
X794923Y33556D01*
X795002Y33462D01*
X795078Y33365D01*
X795094Y33354D01*
X795107Y33339D01*
X795209Y33271D01*
X795308Y33199D01*
X795327Y33192D01*
X795343Y33181D01*
X795460Y33144D01*
X795576Y33103D01*
X795596Y33101D01*
X795614Y33096D01*
X795737Y33092D01*
X795860Y33085D01*
X795879Y33089D01*
X795898Y33088D01*
X796017Y33119D01*
X796137Y33146D01*
X796155Y33155D01*
X796173Y33160D01*
X796279Y33223D01*
X796387Y33282D01*
X796401Y33295D01*
X796418Y33305D01*
X796502Y33395D01*
X796589Y33481D01*
X796599Y33498D01*
X796612Y33513D01*
X796668Y33622D01*
X796728Y33729D01*
X796733Y33748D01*
X796742Y33766D01*
X796754Y33838D01*
X796793Y34006D01*
X796791Y34057D01*
X796797Y34097D01*
X796797Y321503D01*
X796795Y321523D01*
X796797Y321542D01*
X796775Y321663D01*
X796757Y321785D01*
X796749Y321802D01*
X796746Y321822D01*
X796691Y321932D01*
X796641Y322044D01*
X796629Y322059D01*
X796620Y322077D01*
X796537Y322167D01*
X796458Y322261D01*
X796441Y322272D01*
X796428Y322286D01*
X796323Y322351D01*
X796221Y322419D01*
X796202Y322425D01*
X796186Y322435D01*
X796067Y322467D01*
X795950Y322504D01*
X795930Y322505D01*
X795911Y322510D01*
X795789Y322509D01*
X795666Y322512D01*
X795647Y322507D01*
X795627Y322507D01*
X795509Y322471D01*
X795391Y322440D01*
X795374Y322430D01*
X795355Y322424D01*
X795252Y322357D01*
X795146Y322295D01*
X795133Y322280D01*
X795116Y322270D01*
X795070Y322213D01*
X794952Y322087D01*
X794928Y322042D01*
X794903Y322011D01*
X791495Y316108D01*
X785662Y311213D01*
X778507Y308609D01*
X770893Y308609D01*
X763738Y311213D01*
X757905Y316108D01*
X754098Y322702D01*
X752776Y330200D01*
X754098Y337698D01*
X757905Y344292D01*
X763738Y349187D01*
X766874Y350328D01*
X766969Y350379D01*
X767068Y350423D01*
X767094Y350445D01*
X767125Y350462D01*
X767202Y350537D01*
X767285Y350607D01*
X767304Y350635D01*
X767329Y350660D01*
X767383Y350753D01*
X767442Y350843D01*
X767453Y350876D01*
X767470Y350906D01*
X767496Y351011D01*
X767528Y351114D01*
X767529Y351149D01*
X767537Y351183D01*
X767533Y351290D01*
X767536Y351398D01*
X767527Y351432D01*
X767525Y351467D01*
X767491Y351569D01*
X767464Y351673D01*
X767446Y351703D01*
X767435Y351736D01*
X767374Y351825D01*
X767318Y351918D01*
X767293Y351942D01*
X767273Y351970D01*
X767190Y352038D01*
X767111Y352112D01*
X767080Y352128D01*
X767053Y352150D01*
X766954Y352193D01*
X766858Y352242D01*
X766827Y352247D01*
X766792Y352262D01*
X766580Y352288D01*
X766527Y352297D01*
X441019Y352297D01*
X440990Y352293D01*
X440961Y352296D01*
X440850Y352273D01*
X440738Y352257D01*
X440711Y352245D01*
X440682Y352240D01*
X440582Y352187D01*
X440478Y352141D01*
X440456Y352122D01*
X440430Y352109D01*
X440348Y352031D01*
X440261Y351958D01*
X440245Y351933D01*
X440224Y351913D01*
X440167Y351815D01*
X440104Y351721D01*
X440095Y351693D01*
X440080Y351668D01*
X440052Y351558D01*
X440018Y351450D01*
X440017Y351420D01*
X440010Y351392D01*
X440014Y351279D01*
X440011Y351166D01*
X440018Y351137D01*
X440019Y351108D01*
X440054Y351000D01*
X440082Y350891D01*
X440097Y350865D01*
X440106Y350837D01*
X440152Y350773D01*
X440228Y350646D01*
X440273Y350603D01*
X440301Y350564D01*
X441491Y349375D01*
X443231Y345174D01*
X443231Y340626D01*
X441490Y336425D01*
X438275Y333210D01*
X435475Y332050D01*
X435474Y332049D01*
X435473Y332049D01*
X435354Y331978D01*
X435231Y331905D01*
X435230Y331904D01*
X435228Y331903D01*
X435131Y331800D01*
X435035Y331699D01*
X435035Y331697D01*
X435034Y331696D01*
X434969Y331570D01*
X434905Y331446D01*
X434905Y331444D01*
X434904Y331443D01*
X434902Y331428D01*
X434850Y331167D01*
X434853Y331137D01*
X434849Y331112D01*
X434849Y248927D01*
X402583Y216661D01*
X206846Y216661D01*
X206760Y216649D01*
X206672Y216646D01*
X206620Y216629D01*
X206565Y216621D01*
X206485Y216586D01*
X206402Y216559D01*
X206362Y216531D01*
X206305Y216505D01*
X206192Y216409D01*
X206128Y216364D01*
X204952Y215187D01*
X202991Y214375D01*
X200869Y214375D01*
X198908Y215187D01*
X197407Y216688D01*
X196595Y218649D01*
X196595Y220771D01*
X197407Y222732D01*
X198908Y224233D01*
X200869Y225045D01*
X200952Y225045D01*
X201038Y225057D01*
X201123Y225059D01*
X201178Y225077D01*
X201234Y225085D01*
X201312Y225120D01*
X201394Y225146D01*
X201441Y225178D01*
X201493Y225201D01*
X201559Y225256D01*
X201630Y225304D01*
X201667Y225348D01*
X201710Y225384D01*
X201758Y225456D01*
X201813Y225522D01*
X201836Y225574D01*
X201868Y225621D01*
X201894Y225703D01*
X201929Y225782D01*
X201937Y225838D01*
X201954Y225892D01*
X201956Y225978D01*
X201968Y226063D01*
X201960Y226119D01*
X201961Y226176D01*
X201939Y226259D01*
X201927Y226345D01*
X201904Y226396D01*
X201889Y226451D01*
X201845Y226525D01*
X201810Y226604D01*
X201773Y226647D01*
X201744Y226696D01*
X201681Y226755D01*
X201626Y226820D01*
X201584Y226846D01*
X201537Y226890D01*
X201407Y226956D01*
X201341Y226998D01*
X199500Y227760D01*
X197999Y229261D01*
X197187Y231222D01*
X197187Y233344D01*
X197999Y235305D01*
X199500Y236806D01*
X201461Y237618D01*
X203583Y237618D01*
X204081Y237411D01*
X204193Y237383D01*
X204302Y237348D01*
X204330Y237347D01*
X204357Y237340D01*
X204471Y237344D01*
X204586Y237341D01*
X204613Y237348D01*
X204641Y237349D01*
X204750Y237383D01*
X204861Y237413D01*
X204885Y237427D01*
X204912Y237435D01*
X205007Y237499D01*
X205106Y237558D01*
X205125Y237578D01*
X205148Y237593D01*
X205222Y237681D01*
X205300Y237765D01*
X205313Y237790D01*
X205331Y237811D01*
X205378Y237916D01*
X205430Y238018D01*
X205434Y238043D01*
X205446Y238071D01*
X205483Y238335D01*
X205485Y238349D01*
X205485Y239440D01*
X206297Y241401D01*
X207798Y242902D01*
X209759Y243714D01*
X211881Y243714D01*
X213842Y242902D01*
X215018Y241725D01*
X215088Y241673D01*
X215152Y241613D01*
X215201Y241587D01*
X215246Y241554D01*
X215327Y241523D01*
X215405Y241483D01*
X215453Y241475D01*
X215511Y241453D01*
X215659Y241441D01*
X215736Y241428D01*
X339566Y241428D01*
X339652Y241440D01*
X339740Y241443D01*
X339792Y241460D01*
X339847Y241468D01*
X339927Y241503D01*
X340010Y241530D01*
X340049Y241558D01*
X340107Y241584D01*
X340220Y241680D01*
X340284Y241725D01*
X352254Y253695D01*
X352306Y253765D01*
X352366Y253829D01*
X352392Y253879D01*
X352425Y253923D01*
X352456Y254004D01*
X352496Y254082D01*
X352504Y254130D01*
X352526Y254188D01*
X352538Y254336D01*
X352551Y254413D01*
X352551Y331112D01*
X352551Y331113D01*
X352551Y331115D01*
X352531Y331255D01*
X352511Y331393D01*
X352511Y331395D01*
X352511Y331396D01*
X352454Y331522D01*
X352395Y331653D01*
X352394Y331654D01*
X352393Y331655D01*
X352303Y331762D01*
X352212Y331870D01*
X352210Y331871D01*
X352209Y331872D01*
X352196Y331880D01*
X351975Y332027D01*
X351946Y332037D01*
X351925Y332050D01*
X349125Y333210D01*
X345910Y336425D01*
X344169Y340626D01*
X344169Y345174D01*
X345909Y349375D01*
X347099Y350564D01*
X347116Y350588D01*
X347139Y350607D01*
X347201Y350701D01*
X347270Y350791D01*
X347280Y350819D01*
X347296Y350843D01*
X347330Y350951D01*
X347371Y351057D01*
X347373Y351086D01*
X347382Y351114D01*
X347385Y351228D01*
X347394Y351340D01*
X347389Y351369D01*
X347389Y351398D01*
X347361Y351508D01*
X347338Y351619D01*
X347325Y351645D01*
X347318Y351673D01*
X347260Y351771D01*
X347207Y351871D01*
X347187Y351893D01*
X347172Y351918D01*
X347090Y351995D01*
X347012Y352077D01*
X346986Y352092D01*
X346965Y352112D01*
X346864Y352164D01*
X346766Y352221D01*
X346738Y352228D01*
X346712Y352242D01*
X346634Y352255D01*
X346491Y352291D01*
X346428Y352289D01*
X346381Y352297D01*
X339419Y352297D01*
X339390Y352293D01*
X339361Y352296D01*
X339250Y352273D01*
X339138Y352257D01*
X339111Y352245D01*
X339082Y352240D01*
X338982Y352187D01*
X338878Y352141D01*
X338856Y352122D01*
X338830Y352109D01*
X338748Y352031D01*
X338661Y351958D01*
X338645Y351933D01*
X338624Y351913D01*
X338567Y351815D01*
X338504Y351721D01*
X338495Y351693D01*
X338480Y351668D01*
X338452Y351558D01*
X338418Y351450D01*
X338417Y351420D01*
X338410Y351392D01*
X338414Y351279D01*
X338411Y351166D01*
X338418Y351137D01*
X338419Y351108D01*
X338454Y351000D01*
X338482Y350891D01*
X338497Y350865D01*
X338506Y350837D01*
X338552Y350773D01*
X338628Y350646D01*
X338673Y350603D01*
X338701Y350564D01*
X339891Y349375D01*
X341631Y345174D01*
X341631Y340626D01*
X339890Y336425D01*
X336675Y333210D01*
X332474Y331469D01*
X327926Y331469D01*
X323725Y333210D01*
X320510Y336425D01*
X318769Y340626D01*
X318769Y345174D01*
X320509Y349375D01*
X321699Y350564D01*
X321716Y350588D01*
X321739Y350607D01*
X321801Y350701D01*
X321870Y350791D01*
X321880Y350819D01*
X321896Y350843D01*
X321930Y350951D01*
X321971Y351057D01*
X321973Y351086D01*
X321982Y351114D01*
X321985Y351228D01*
X321994Y351340D01*
X321989Y351369D01*
X321989Y351398D01*
X321961Y351508D01*
X321938Y351619D01*
X321925Y351645D01*
X321918Y351673D01*
X321860Y351771D01*
X321807Y351871D01*
X321787Y351893D01*
X321772Y351918D01*
X321690Y351995D01*
X321612Y352077D01*
X321586Y352092D01*
X321565Y352112D01*
X321464Y352164D01*
X321366Y352221D01*
X321338Y352228D01*
X321312Y352242D01*
X321234Y352255D01*
X321091Y352291D01*
X321028Y352289D01*
X320981Y352297D01*
X314019Y352297D01*
X313990Y352293D01*
X313961Y352296D01*
X313850Y352273D01*
X313738Y352257D01*
X313711Y352245D01*
X313682Y352240D01*
X313582Y352187D01*
X313478Y352141D01*
X313456Y352122D01*
X313430Y352109D01*
X313348Y352031D01*
X313261Y351958D01*
X313245Y351933D01*
X313224Y351913D01*
X313167Y351815D01*
X313104Y351721D01*
X313095Y351693D01*
X313080Y351668D01*
X313052Y351558D01*
X313018Y351450D01*
X313017Y351420D01*
X313010Y351392D01*
X313014Y351279D01*
X313011Y351166D01*
X313018Y351137D01*
X313019Y351108D01*
X313054Y351000D01*
X313082Y350891D01*
X313097Y350865D01*
X313106Y350837D01*
X313152Y350773D01*
X313228Y350646D01*
X313273Y350603D01*
X313301Y350564D01*
X314491Y349375D01*
X316231Y345174D01*
X316231Y340626D01*
X314490Y336425D01*
X311275Y333210D01*
X307074Y331469D01*
X302526Y331469D01*
X298325Y333210D01*
X295110Y336425D01*
X293369Y340626D01*
X293369Y345174D01*
X295109Y349375D01*
X296299Y350564D01*
X296316Y350588D01*
X296339Y350607D01*
X296401Y350701D01*
X296470Y350791D01*
X296480Y350819D01*
X296496Y350843D01*
X296530Y350951D01*
X296571Y351057D01*
X296573Y351086D01*
X296582Y351114D01*
X296585Y351228D01*
X296594Y351340D01*
X296589Y351369D01*
X296589Y351398D01*
X296561Y351508D01*
X296538Y351619D01*
X296525Y351645D01*
X296518Y351673D01*
X296460Y351771D01*
X296407Y351871D01*
X296387Y351893D01*
X296372Y351918D01*
X296290Y351995D01*
X296212Y352077D01*
X296186Y352092D01*
X296165Y352112D01*
X296064Y352164D01*
X295966Y352221D01*
X295938Y352228D01*
X295912Y352242D01*
X295834Y352255D01*
X295691Y352291D01*
X295628Y352289D01*
X295581Y352297D01*
X288619Y352297D01*
X288590Y352293D01*
X288561Y352296D01*
X288450Y352273D01*
X288338Y352257D01*
X288311Y352245D01*
X288282Y352240D01*
X288182Y352187D01*
X288078Y352141D01*
X288056Y352122D01*
X288030Y352109D01*
X287948Y352031D01*
X287861Y351958D01*
X287845Y351933D01*
X287824Y351913D01*
X287767Y351815D01*
X287704Y351721D01*
X287695Y351693D01*
X287680Y351668D01*
X287652Y351558D01*
X287618Y351450D01*
X287617Y351420D01*
X287610Y351392D01*
X287614Y351279D01*
X287611Y351166D01*
X287618Y351137D01*
X287619Y351108D01*
X287654Y351000D01*
X287682Y350891D01*
X287697Y350865D01*
X287706Y350837D01*
X287752Y350773D01*
X287828Y350646D01*
X287873Y350603D01*
X287901Y350564D01*
X289091Y349375D01*
X290831Y345174D01*
X290831Y340626D01*
X289090Y336425D01*
X285875Y333210D01*
X281674Y331469D01*
X277126Y331469D01*
X272925Y333210D01*
X269710Y336425D01*
X267969Y340626D01*
X267969Y345174D01*
X269709Y349375D01*
X270899Y350564D01*
X270916Y350588D01*
X270939Y350607D01*
X271001Y350701D01*
X271070Y350791D01*
X271080Y350819D01*
X271096Y350843D01*
X271130Y350951D01*
X271171Y351057D01*
X271173Y351086D01*
X271182Y351114D01*
X271185Y351228D01*
X271194Y351340D01*
X271189Y351369D01*
X271189Y351398D01*
X271161Y351508D01*
X271138Y351619D01*
X271125Y351645D01*
X271118Y351673D01*
X271060Y351771D01*
X271007Y351871D01*
X270987Y351893D01*
X270972Y351918D01*
X270890Y351995D01*
X270812Y352077D01*
X270786Y352092D01*
X270765Y352112D01*
X270664Y352164D01*
X270566Y352221D01*
X270538Y352228D01*
X270512Y352242D01*
X270434Y352255D01*
X270291Y352291D01*
X270228Y352289D01*
X270181Y352297D01*
X263922Y352297D01*
X263831Y352284D01*
X263739Y352281D01*
X263691Y352265D01*
X263641Y352257D01*
X263556Y352220D01*
X263469Y352191D01*
X263428Y352162D01*
X263381Y352141D01*
X263311Y352082D01*
X263235Y352030D01*
X263203Y351990D01*
X263164Y351958D01*
X263113Y351881D01*
X263055Y351810D01*
X263035Y351763D01*
X263007Y351721D01*
X262979Y351633D01*
X262942Y351549D01*
X262936Y351498D01*
X262921Y351450D01*
X262918Y351358D01*
X262907Y351267D01*
X262915Y351216D01*
X262914Y351166D01*
X262937Y351077D01*
X262951Y350986D01*
X262971Y350946D01*
X262985Y350891D01*
X263066Y350754D01*
X263101Y350685D01*
X264211Y349157D01*
X265064Y347483D01*
X265645Y345696D01*
X265766Y344931D01*
X255016Y344931D01*
X254958Y344923D01*
X254900Y344925D01*
X254818Y344903D01*
X254735Y344891D01*
X254681Y344867D01*
X254625Y344853D01*
X254552Y344810D01*
X254475Y344775D01*
X254431Y344737D01*
X254380Y344707D01*
X254323Y344646D01*
X254258Y344591D01*
X254226Y344543D01*
X254186Y344500D01*
X254147Y344425D01*
X254101Y344355D01*
X254083Y344299D01*
X254056Y344247D01*
X254045Y344179D01*
X254015Y344084D01*
X254012Y343984D01*
X254001Y343916D01*
X254001Y342899D01*
X253999Y342899D01*
X253999Y343916D01*
X253991Y343974D01*
X253992Y344032D01*
X253971Y344114D01*
X253959Y344197D01*
X253935Y344251D01*
X253921Y344307D01*
X253878Y344380D01*
X253843Y344457D01*
X253805Y344502D01*
X253775Y344552D01*
X253714Y344610D01*
X253659Y344674D01*
X253611Y344706D01*
X253568Y344746D01*
X253493Y344785D01*
X253423Y344831D01*
X253367Y344849D01*
X253315Y344876D01*
X253247Y344887D01*
X253152Y344917D01*
X253052Y344920D01*
X252984Y344931D01*
X242234Y344931D01*
X242355Y345696D01*
X242936Y347483D01*
X243789Y349157D01*
X244899Y350685D01*
X244942Y350766D01*
X244993Y350843D01*
X245009Y350892D01*
X245033Y350936D01*
X245051Y351026D01*
X245079Y351114D01*
X245081Y351165D01*
X245091Y351215D01*
X245084Y351306D01*
X245086Y351398D01*
X245074Y351447D01*
X245070Y351498D01*
X245038Y351585D01*
X245015Y351673D01*
X244989Y351717D01*
X244971Y351765D01*
X244916Y351839D01*
X244869Y351918D01*
X244832Y351953D01*
X244802Y351993D01*
X244729Y352049D01*
X244662Y352112D01*
X244617Y352135D01*
X244577Y352166D01*
X244491Y352200D01*
X244409Y352242D01*
X244365Y352249D01*
X244312Y352270D01*
X244154Y352285D01*
X244078Y352297D01*
X33573Y352297D01*
X33466Y352282D01*
X33359Y352274D01*
X33326Y352262D01*
X33292Y352257D01*
X33193Y352213D01*
X33092Y352176D01*
X33064Y352155D01*
X33032Y352141D01*
X32950Y352071D01*
X32863Y352008D01*
X32842Y351980D01*
X32815Y351958D01*
X32755Y351868D01*
X32690Y351782D01*
X32677Y351750D01*
X32658Y351721D01*
X32625Y351618D01*
X32585Y351518D01*
X32582Y351483D01*
X32572Y351450D01*
X32569Y351342D01*
X32559Y351235D01*
X32565Y351200D01*
X32564Y351166D01*
X32592Y351061D01*
X32612Y350955D01*
X32627Y350924D01*
X32636Y350891D01*
X32691Y350798D01*
X32740Y350702D01*
X32764Y350676D01*
X32782Y350646D01*
X32860Y350572D01*
X32934Y350493D01*
X32961Y350478D01*
X32989Y350452D01*
X33180Y350354D01*
X33226Y350328D01*
X36362Y349187D01*
X42195Y344292D01*
X46002Y337698D01*
X47324Y330200D01*
X46002Y322702D01*
X42195Y316108D01*
X36362Y311213D01*
X29207Y308609D01*
X21593Y308609D01*
X14438Y311213D01*
X8605Y316108D01*
X5197Y322011D01*
X5185Y322026D01*
X5177Y322044D01*
X5098Y322138D01*
X5022Y322235D01*
X5006Y322246D01*
X4993Y322261D01*
X4891Y322329D01*
X4792Y322401D01*
X4773Y322408D01*
X4757Y322419D01*
X4640Y322456D01*
X4524Y322497D01*
X4504Y322499D01*
X4486Y322504D01*
X4363Y322508D01*
X4240Y322515D01*
X4221Y322511D01*
X4202Y322512D01*
X4083Y322481D01*
X3963Y322454D01*
X3945Y322445D01*
X3927Y322440D01*
X3821Y322377D01*
X3713Y322318D01*
X3699Y322305D01*
X3682Y322295D01*
X3598Y322205D01*
X3511Y322119D01*
X3501Y322102D01*
X3488Y322087D01*
X3432Y321978D01*
X3372Y321871D01*
X3367Y321852D01*
X3358Y321834D01*
X3346Y321762D01*
X3307Y321594D01*
X3309Y321543D01*
X3303Y321503D01*
X3303Y206069D01*
X3307Y206040D01*
X3304Y206011D01*
X3327Y205900D01*
X3343Y205788D01*
X3355Y205761D01*
X3360Y205732D01*
X3413Y205632D01*
X3459Y205528D01*
X3478Y205506D01*
X3491Y205480D01*
X3569Y205398D01*
X3642Y205311D01*
X3667Y205295D01*
X3687Y205274D01*
X3785Y205217D01*
X3879Y205154D01*
X3907Y205145D01*
X3932Y205130D01*
X4042Y205102D01*
X4150Y205068D01*
X4180Y205067D01*
X4208Y205060D01*
X4321Y205064D01*
X4434Y205061D01*
X4463Y205068D01*
X4492Y205069D01*
X4600Y205104D01*
X4709Y205132D01*
X4735Y205147D01*
X4763Y205156D01*
X4827Y205202D01*
X4954Y205278D01*
X4997Y205323D01*
X5036Y205351D01*
X6225Y206541D01*
X8009Y207279D01*
X8010Y207280D01*
X8011Y207280D01*
X8130Y207351D01*
X8253Y207424D01*
X8254Y207425D01*
X8256Y207426D01*
X8353Y207530D01*
X8449Y207630D01*
X8449Y207632D01*
X8450Y207633D01*
X8515Y207759D01*
X8579Y207883D01*
X8579Y207885D01*
X8580Y207886D01*
X8582Y207901D01*
X8634Y208162D01*
X8631Y208193D01*
X8635Y208217D01*
X8635Y260260D01*
X8623Y260346D01*
X8620Y260434D01*
X8603Y260486D01*
X8595Y260541D01*
X8560Y260621D01*
X8533Y260704D01*
X8505Y260744D01*
X8479Y260801D01*
X8383Y260914D01*
X8338Y260978D01*
X8177Y261138D01*
X7365Y263099D01*
X7365Y265221D01*
X8177Y267182D01*
X9678Y268683D01*
X11639Y269495D01*
X13761Y269495D01*
X15722Y268683D01*
X17223Y267182D01*
X18035Y265221D01*
X18035Y263099D01*
X17223Y261138D01*
X17062Y260978D01*
X17010Y260908D01*
X16950Y260844D01*
X16924Y260795D01*
X16891Y260750D01*
X16860Y260669D01*
X16820Y260591D01*
X16812Y260543D01*
X16790Y260485D01*
X16778Y260337D01*
X16765Y260260D01*
X16765Y208217D01*
X16765Y208216D01*
X16765Y208214D01*
X16785Y208074D01*
X16805Y207936D01*
X16805Y207934D01*
X16805Y207933D01*
X16862Y207807D01*
X16921Y207676D01*
X16922Y207675D01*
X16923Y207674D01*
X17014Y207567D01*
X17104Y207459D01*
X17106Y207458D01*
X17107Y207457D01*
X17120Y207449D01*
X17341Y207302D01*
X17370Y207292D01*
X17391Y207279D01*
X19175Y206540D01*
X22390Y203325D01*
X24131Y199124D01*
X24131Y194576D01*
X22390Y190375D01*
X19175Y187160D01*
X14974Y185419D01*
X10426Y185419D01*
X6225Y187159D01*
X5036Y188349D01*
X5012Y188366D01*
X4993Y188389D01*
X4899Y188451D01*
X4809Y188520D01*
X4781Y188530D01*
X4757Y188546D01*
X4649Y188580D01*
X4543Y188621D01*
X4514Y188623D01*
X4486Y188632D01*
X4372Y188635D01*
X4260Y188644D01*
X4231Y188639D01*
X4202Y188639D01*
X4092Y188611D01*
X3981Y188588D01*
X3955Y188575D01*
X3927Y188568D01*
X3829Y188510D01*
X3729Y188457D01*
X3707Y188437D01*
X3682Y188422D01*
X3605Y188340D01*
X3523Y188262D01*
X3508Y188236D01*
X3488Y188215D01*
X3436Y188114D01*
X3379Y188016D01*
X3372Y187988D01*
X3358Y187962D01*
X3345Y187884D01*
X3309Y187741D01*
X3311Y187678D01*
X3303Y187631D01*
X3303Y181372D01*
X3316Y181281D01*
X3319Y181189D01*
X3335Y181141D01*
X3343Y181091D01*
X3380Y181006D01*
X3409Y180919D01*
X3438Y180878D01*
X3459Y180831D01*
X3518Y180761D01*
X3570Y180685D01*
X3610Y180653D01*
X3642Y180614D01*
X3719Y180563D01*
X3790Y180505D01*
X3837Y180485D01*
X3879Y180457D01*
X3967Y180429D01*
X4051Y180392D01*
X4102Y180386D01*
X4150Y180371D01*
X4242Y180368D01*
X4333Y180357D01*
X4384Y180365D01*
X4434Y180364D01*
X4523Y180387D01*
X4614Y180401D01*
X4654Y180421D01*
X4709Y180435D01*
X4846Y180516D01*
X4915Y180551D01*
X6443Y181661D01*
X8117Y182514D01*
X9904Y183095D01*
X10669Y183216D01*
X10669Y172466D01*
X10677Y172408D01*
X10675Y172350D01*
X10697Y172268D01*
X10709Y172185D01*
X10733Y172131D01*
X10747Y172075D01*
X10790Y172002D01*
X10825Y171925D01*
X10863Y171881D01*
X10893Y171830D01*
X10954Y171773D01*
X11009Y171708D01*
X11057Y171676D01*
X11100Y171636D01*
X11175Y171597D01*
X11245Y171551D01*
X11301Y171533D01*
X11353Y171506D01*
X11421Y171495D01*
X11516Y171465D01*
X11616Y171462D01*
X11684Y171451D01*
X12701Y171451D01*
X12701Y171449D01*
X11684Y171449D01*
X11626Y171441D01*
X11568Y171442D01*
X11486Y171421D01*
X11403Y171409D01*
X11349Y171385D01*
X11293Y171371D01*
X11220Y171328D01*
X11143Y171293D01*
X11098Y171255D01*
X11048Y171225D01*
X10990Y171164D01*
X10926Y171109D01*
X10894Y171061D01*
X10854Y171018D01*
X10815Y170943D01*
X10769Y170873D01*
X10751Y170817D01*
X10724Y170765D01*
X10713Y170697D01*
X10683Y170602D01*
X10680Y170502D01*
X10669Y170434D01*
X10669Y159684D01*
X9904Y159805D01*
X8117Y160386D01*
X6443Y161239D01*
X4915Y162349D01*
X4834Y162392D01*
X4757Y162443D01*
X4708Y162459D01*
X4664Y162483D01*
X4574Y162501D01*
X4486Y162529D01*
X4435Y162531D01*
X4385Y162541D01*
X4294Y162534D01*
X4202Y162536D01*
X4153Y162524D01*
X4102Y162520D01*
X4015Y162488D01*
X3927Y162465D01*
X3883Y162439D01*
X3835Y162421D01*
X3761Y162366D01*
X3682Y162319D01*
X3647Y162282D01*
X3607Y162252D01*
X3551Y162179D01*
X3488Y162112D01*
X3465Y162067D01*
X3434Y162027D01*
X3400Y161941D01*
X3358Y161859D01*
X3351Y161815D01*
X3330Y161762D01*
X3315Y161604D01*
X3303Y161528D01*
X3303Y157020D01*
X3315Y156934D01*
X3317Y156847D01*
X3335Y156794D01*
X3343Y156738D01*
X3378Y156659D01*
X3404Y156577D01*
X3436Y156530D01*
X3459Y156479D01*
X3515Y156413D01*
X3563Y156341D01*
X3606Y156305D01*
X3642Y156262D01*
X3715Y156214D01*
X3781Y156158D01*
X3832Y156135D01*
X3879Y156104D01*
X3962Y156078D01*
X4041Y156043D01*
X4097Y156035D01*
X4150Y156018D01*
X4237Y156016D01*
X4322Y156004D01*
X4371Y156013D01*
X4434Y156011D01*
X4576Y156048D01*
X4653Y156061D01*
X5093Y156215D01*
X5226Y156284D01*
X5298Y156314D01*
X5891Y156687D01*
X6587Y156765D01*
X6732Y156802D01*
X6809Y156816D01*
X7315Y156993D01*
X7351Y156987D01*
X7445Y156957D01*
X7546Y156954D01*
X7614Y156943D01*
X8106Y156943D01*
X8170Y156952D01*
X8220Y156949D01*
X8955Y157032D01*
X8976Y157020D01*
X9006Y157012D01*
X9033Y156998D01*
X9110Y156985D01*
X9251Y156949D01*
X9315Y156951D01*
X9364Y156943D01*
X13196Y156943D01*
X13226Y156947D01*
X13257Y156945D01*
X13367Y156967D01*
X13477Y156983D01*
X13505Y156995D01*
X13536Y157001D01*
X13593Y157033D01*
X14340Y156949D01*
X14405Y156951D01*
X14454Y156943D01*
X14946Y156943D01*
X15005Y156951D01*
X15064Y156950D01*
X15130Y156969D01*
X15227Y156983D01*
X15248Y156992D01*
X15751Y156816D01*
X15897Y156787D01*
X15973Y156765D01*
X16669Y156687D01*
X17262Y156314D01*
X17398Y156253D01*
X17467Y156215D01*
X18128Y155984D01*
X18623Y155489D01*
X18742Y155399D01*
X18801Y155347D01*
X19394Y154974D01*
X19767Y154381D01*
X19863Y154267D01*
X19909Y154203D01*
X20404Y153708D01*
X20635Y153047D01*
X20704Y152914D01*
X20734Y152842D01*
X21107Y152249D01*
X21185Y151553D01*
X21222Y151408D01*
X21236Y151331D01*
X21467Y150670D01*
X21389Y149974D01*
X21393Y149824D01*
X21389Y149746D01*
X21467Y149050D01*
X21236Y148389D01*
X21207Y148243D01*
X21185Y148167D01*
X21107Y147471D01*
X20734Y146878D01*
X20673Y146742D01*
X20635Y146673D01*
X20404Y146012D01*
X19909Y145517D01*
X19819Y145397D01*
X19767Y145339D01*
X19394Y144746D01*
X18801Y144373D01*
X18687Y144277D01*
X18623Y144231D01*
X18128Y143736D01*
X17467Y143505D01*
X17334Y143436D01*
X17262Y143406D01*
X17016Y143251D01*
X17015Y143251D01*
X16669Y143033D01*
X15973Y142955D01*
X15828Y142918D01*
X15751Y142904D01*
X15245Y142727D01*
X15209Y142733D01*
X15115Y142763D01*
X15014Y142766D01*
X14946Y142777D01*
X14454Y142777D01*
X14390Y142768D01*
X14340Y142771D01*
X13605Y142688D01*
X13584Y142700D01*
X13554Y142708D01*
X13527Y142722D01*
X13450Y142735D01*
X13309Y142771D01*
X13245Y142769D01*
X13196Y142777D01*
X9364Y142777D01*
X9334Y142773D01*
X9303Y142775D01*
X9193Y142753D01*
X9083Y142737D01*
X9055Y142725D01*
X9024Y142719D01*
X8967Y142687D01*
X8220Y142771D01*
X8155Y142769D01*
X8106Y142777D01*
X7614Y142777D01*
X7555Y142769D01*
X7496Y142770D01*
X7430Y142751D01*
X7333Y142737D01*
X7312Y142728D01*
X6809Y142904D01*
X6663Y142933D01*
X6587Y142955D01*
X5891Y143033D01*
X5298Y143406D01*
X5162Y143467D01*
X5093Y143505D01*
X4653Y143659D01*
X4568Y143675D01*
X4486Y143702D01*
X4430Y143703D01*
X4374Y143714D01*
X4288Y143707D01*
X4202Y143709D01*
X4147Y143695D01*
X4091Y143690D01*
X4010Y143659D01*
X3927Y143637D01*
X3878Y143608D01*
X3826Y143588D01*
X3757Y143536D01*
X3682Y143492D01*
X3644Y143451D01*
X3599Y143417D01*
X3547Y143348D01*
X3488Y143284D01*
X3462Y143234D01*
X3428Y143189D01*
X3398Y143108D01*
X3358Y143031D01*
X3350Y142983D01*
X3328Y142924D01*
X3316Y142778D01*
X3303Y142700D01*
X3303Y70660D01*
X3315Y70574D01*
X3317Y70487D01*
X3335Y70434D01*
X3343Y70378D01*
X3378Y70299D01*
X3404Y70217D01*
X3436Y70170D01*
X3459Y70119D01*
X3515Y70053D01*
X3563Y69981D01*
X3606Y69945D01*
X3642Y69902D01*
X3715Y69854D01*
X3781Y69798D01*
X3832Y69775D01*
X3879Y69744D01*
X3962Y69718D01*
X4041Y69683D01*
X4097Y69675D01*
X4150Y69658D01*
X4237Y69656D01*
X4322Y69644D01*
X4371Y69653D01*
X4434Y69651D01*
X4576Y69688D01*
X4653Y69701D01*
X5093Y69855D01*
X5226Y69924D01*
X5298Y69954D01*
X5891Y70327D01*
X6587Y70405D01*
X6732Y70442D01*
X6809Y70456D01*
X7315Y70633D01*
X7351Y70627D01*
X7445Y70597D01*
X7546Y70594D01*
X7614Y70583D01*
X8106Y70583D01*
X8170Y70592D01*
X8220Y70589D01*
X8955Y70672D01*
X8976Y70660D01*
X9006Y70652D01*
X9033Y70638D01*
X9110Y70625D01*
X9251Y70589D01*
X9315Y70591D01*
X9364Y70583D01*
X13196Y70583D01*
X13226Y70587D01*
X13257Y70585D01*
X13367Y70607D01*
X13477Y70623D01*
X13505Y70635D01*
X13536Y70641D01*
X13593Y70673D01*
X14340Y70589D01*
X14405Y70591D01*
X14454Y70583D01*
X14946Y70583D01*
X15005Y70591D01*
X15064Y70590D01*
X15130Y70609D01*
X15227Y70623D01*
X15248Y70632D01*
X15751Y70456D01*
X15897Y70427D01*
X15973Y70405D01*
X16669Y70327D01*
X17262Y69954D01*
X17398Y69893D01*
X17467Y69855D01*
X18128Y69624D01*
X18623Y69129D01*
X18742Y69039D01*
X18801Y68987D01*
X19394Y68614D01*
X19767Y68021D01*
X19863Y67907D01*
X19909Y67843D01*
X20404Y67348D01*
X20635Y66687D01*
X20704Y66554D01*
X20734Y66482D01*
X21107Y65889D01*
X21185Y65193D01*
X21222Y65048D01*
X21236Y64971D01*
X21467Y64310D01*
X21389Y63614D01*
X21393Y63464D01*
X21389Y63386D01*
X21467Y62690D01*
X21236Y62029D01*
X21207Y61883D01*
X21185Y61807D01*
X21107Y61111D01*
X20734Y60518D01*
X20673Y60382D01*
X20635Y60313D01*
X20404Y59652D01*
X19909Y59157D01*
X19819Y59038D01*
X19767Y58979D01*
X19394Y58386D01*
X18801Y58013D01*
X18687Y57917D01*
X18623Y57871D01*
X18128Y57376D01*
X17467Y57145D01*
X17334Y57076D01*
X17262Y57046D01*
X17117Y56955D01*
X16669Y56673D01*
X15973Y56595D01*
X15828Y56558D01*
X15751Y56544D01*
X15245Y56367D01*
X15209Y56373D01*
X15115Y56403D01*
X15014Y56406D01*
X14946Y56417D01*
X14454Y56417D01*
X14390Y56408D01*
X14340Y56411D01*
X13605Y56328D01*
X13584Y56340D01*
X13554Y56348D01*
X13527Y56362D01*
X13450Y56375D01*
X13309Y56411D01*
X13245Y56409D01*
X13196Y56417D01*
X9364Y56417D01*
X9334Y56413D01*
X9303Y56415D01*
X9193Y56393D01*
X9083Y56377D01*
X9055Y56365D01*
X9024Y56359D01*
X8967Y56327D01*
X8220Y56411D01*
X8155Y56409D01*
X8106Y56417D01*
X7614Y56417D01*
X7555Y56409D01*
X7496Y56410D01*
X7430Y56391D01*
X7333Y56377D01*
X7312Y56368D01*
X6809Y56544D01*
X6663Y56573D01*
X6587Y56595D01*
X5891Y56673D01*
X5298Y57046D01*
X5162Y57107D01*
X5093Y57145D01*
X4653Y57299D01*
X4568Y57315D01*
X4486Y57342D01*
X4430Y57343D01*
X4374Y57354D01*
X4288Y57347D01*
X4202Y57349D01*
X4147Y57335D01*
X4091Y57330D01*
X4010Y57299D01*
X3927Y57277D01*
X3878Y57248D01*
X3826Y57228D01*
X3757Y57176D01*
X3682Y57132D01*
X3644Y57091D01*
X3599Y57057D01*
X3547Y56988D01*
X3488Y56924D01*
X3462Y56874D01*
X3428Y56829D01*
X3398Y56748D01*
X3358Y56671D01*
X3350Y56623D01*
X3328Y56564D01*
X3316Y56418D01*
X3303Y56340D01*
X3303Y34097D01*
X3305Y34077D01*
X3303Y34058D01*
X3325Y33937D01*
X3343Y33815D01*
X3351Y33797D01*
X3354Y33778D01*
X3409Y33668D01*
X3459Y33556D01*
X3471Y33541D01*
X3480Y33523D01*
X3563Y33433D01*
X3642Y33339D01*
X3659Y33328D01*
X3672Y33314D01*
X3777Y33249D01*
X3879Y33181D01*
X3898Y33175D01*
X3914Y33165D01*
X4033Y33133D01*
X4150Y33096D01*
X4170Y33095D01*
X4189Y33090D01*
X4311Y33091D01*
X4434Y33088D01*
X4453Y33093D01*
X4473Y33093D01*
X4591Y33129D01*
X4709Y33160D01*
X4726Y33170D01*
X4745Y33176D01*
X4848Y33243D01*
X4954Y33305D01*
X4967Y33320D01*
X4984Y33330D01*
X5030Y33387D01*
X5148Y33513D01*
X5172Y33558D01*
X5197Y33589D01*
X8605Y39492D01*
X14438Y44387D01*
X21593Y46991D01*
X29207Y46991D01*
X36362Y44387D01*
X42195Y39492D01*
X46002Y32898D01*
X47324Y25400D01*
X46002Y17902D01*
X42195Y11308D01*
X36362Y6413D01*
X33226Y5272D01*
X33131Y5221D01*
X33032Y5177D01*
X33006Y5155D01*
X32975Y5138D01*
X32898Y5063D01*
X32815Y4993D01*
X32796Y4965D01*
X32771Y4940D01*
X32717Y4847D01*
X32658Y4757D01*
X32647Y4724D01*
X32630Y4694D01*
X32604Y4589D01*
X32572Y4486D01*
X32571Y4451D01*
X32563Y4417D01*
X32567Y4310D01*
X32564Y4202D01*
X32573Y4168D01*
X32575Y4133D01*
X32609Y4031D01*
X32636Y3927D01*
X32654Y3897D01*
X32665Y3864D01*
X32726Y3775D01*
X32782Y3682D01*
X32807Y3658D01*
X32827Y3630D01*
X32910Y3562D01*
X32989Y3488D01*
X33020Y3472D01*
X33047Y3450D01*
X33146Y3407D01*
X33242Y3358D01*
X33273Y3353D01*
X33308Y3338D01*
X33520Y3312D01*
X33573Y3303D01*
X58484Y3303D01*
X58541Y3311D01*
G37*
%LPC*%
G36*
X101866Y54609D02*
X101866Y54609D01*
X97665Y56350D01*
X94450Y59565D01*
X92709Y63766D01*
X92709Y68314D01*
X94450Y72515D01*
X95460Y73525D01*
X95512Y73595D01*
X95572Y73659D01*
X95598Y73708D01*
X95631Y73753D01*
X95662Y73834D01*
X95702Y73912D01*
X95710Y73960D01*
X95732Y74018D01*
X95744Y74166D01*
X95757Y74243D01*
X95757Y77677D01*
X96102Y78022D01*
X96137Y78069D01*
X96180Y78109D01*
X96223Y78182D01*
X96273Y78249D01*
X96294Y78304D01*
X96324Y78354D01*
X96345Y78436D01*
X96375Y78515D01*
X96379Y78573D01*
X96394Y78630D01*
X96391Y78714D01*
X96398Y78798D01*
X96387Y78856D01*
X96385Y78914D01*
X96359Y78994D01*
X96342Y79077D01*
X96315Y79129D01*
X96297Y79185D01*
X96257Y79241D01*
X96211Y79329D01*
X96143Y79402D01*
X96102Y79458D01*
X95757Y79803D01*
X95757Y83237D01*
X95745Y83323D01*
X95742Y83411D01*
X95725Y83463D01*
X95717Y83518D01*
X95682Y83598D01*
X95655Y83681D01*
X95627Y83721D01*
X95601Y83778D01*
X95505Y83891D01*
X95460Y83955D01*
X94450Y84965D01*
X92709Y89166D01*
X92709Y93714D01*
X94449Y97915D01*
X95893Y99358D01*
X95910Y99382D01*
X95933Y99401D01*
X95995Y99495D01*
X96064Y99585D01*
X96074Y99613D01*
X96090Y99637D01*
X96124Y99745D01*
X96165Y99851D01*
X96167Y99880D01*
X96176Y99908D01*
X96179Y100022D01*
X96188Y100134D01*
X96183Y100163D01*
X96183Y100192D01*
X96155Y100302D01*
X96132Y100413D01*
X96119Y100439D01*
X96112Y100467D01*
X96054Y100565D01*
X96001Y100665D01*
X95981Y100687D01*
X95966Y100712D01*
X95884Y100789D01*
X95806Y100871D01*
X95780Y100886D01*
X95759Y100906D01*
X95658Y100958D01*
X95560Y101015D01*
X95532Y101022D01*
X95506Y101036D01*
X95428Y101049D01*
X95285Y101085D01*
X95222Y101083D01*
X95175Y101091D01*
X73826Y101091D01*
X73740Y101079D01*
X73652Y101076D01*
X73600Y101059D01*
X73545Y101051D01*
X73465Y101016D01*
X73382Y100989D01*
X73342Y100961D01*
X73285Y100935D01*
X73172Y100839D01*
X73108Y100794D01*
X71932Y99617D01*
X69971Y98805D01*
X67849Y98805D01*
X65888Y99617D01*
X64387Y101118D01*
X63575Y103079D01*
X63575Y105201D01*
X64387Y107162D01*
X65888Y108663D01*
X67849Y109475D01*
X69850Y109475D01*
X69908Y109483D01*
X69966Y109481D01*
X70048Y109503D01*
X70132Y109515D01*
X70185Y109538D01*
X70241Y109553D01*
X70314Y109596D01*
X70391Y109631D01*
X70436Y109669D01*
X70486Y109698D01*
X70544Y109760D01*
X70608Y109814D01*
X70640Y109863D01*
X70680Y109906D01*
X70719Y109981D01*
X70766Y110051D01*
X70783Y110107D01*
X70810Y110159D01*
X70821Y110227D01*
X70851Y110322D01*
X70854Y110422D01*
X70865Y110490D01*
X70865Y112791D01*
X71677Y114752D01*
X73178Y116253D01*
X75139Y117065D01*
X77261Y117065D01*
X79222Y116253D01*
X80398Y115076D01*
X80468Y115024D01*
X80532Y114964D01*
X80581Y114938D01*
X80626Y114905D01*
X80707Y114874D01*
X80785Y114834D01*
X80833Y114826D01*
X80891Y114804D01*
X81039Y114792D01*
X81116Y114779D01*
X105622Y114779D01*
X105651Y114783D01*
X105680Y114780D01*
X105791Y114803D01*
X105903Y114819D01*
X105930Y114831D01*
X105959Y114836D01*
X106060Y114889D01*
X106163Y114935D01*
X106185Y114954D01*
X106211Y114967D01*
X106293Y115045D01*
X106380Y115118D01*
X106396Y115143D01*
X106417Y115163D01*
X106475Y115261D01*
X106537Y115355D01*
X106546Y115383D01*
X106561Y115408D01*
X106589Y115518D01*
X106623Y115626D01*
X106624Y115656D01*
X106631Y115684D01*
X106628Y115797D01*
X106630Y115910D01*
X106623Y115939D01*
X106622Y115968D01*
X106587Y116076D01*
X106559Y116185D01*
X106544Y116211D01*
X106535Y116239D01*
X106489Y116303D01*
X106413Y116430D01*
X106368Y116473D01*
X106340Y116512D01*
X105294Y117558D01*
X105224Y117610D01*
X105160Y117670D01*
X105111Y117696D01*
X105066Y117729D01*
X104985Y117760D01*
X104907Y117800D01*
X104859Y117808D01*
X104801Y117830D01*
X104653Y117842D01*
X104576Y117855D01*
X97376Y117855D01*
X91185Y124046D01*
X91185Y143924D01*
X96201Y148940D01*
X99065Y148940D01*
X99151Y148952D01*
X99239Y148955D01*
X99291Y148972D01*
X99346Y148980D01*
X99426Y149015D01*
X99509Y149042D01*
X99549Y149070D01*
X99606Y149096D01*
X99719Y149192D01*
X99783Y149237D01*
X99943Y149398D01*
X101904Y150210D01*
X104026Y150210D01*
X105987Y149398D01*
X107488Y147897D01*
X108300Y145936D01*
X108300Y143814D01*
X107488Y141853D01*
X105987Y140352D01*
X104026Y139540D01*
X101904Y139540D01*
X100719Y140031D01*
X100607Y140060D01*
X100498Y140095D01*
X100470Y140095D01*
X100443Y140102D01*
X100329Y140099D01*
X100214Y140102D01*
X100187Y140095D01*
X100159Y140094D01*
X100050Y140059D01*
X99939Y140030D01*
X99915Y140016D01*
X99888Y140007D01*
X99793Y139943D01*
X99694Y139885D01*
X99675Y139865D01*
X99652Y139849D01*
X99578Y139761D01*
X99500Y139677D01*
X99487Y139653D01*
X99469Y139632D01*
X99423Y139527D01*
X99370Y139424D01*
X99366Y139400D01*
X99354Y139372D01*
X99317Y139108D01*
X99315Y139093D01*
X99315Y127834D01*
X99327Y127748D01*
X99330Y127660D01*
X99347Y127608D01*
X99355Y127553D01*
X99390Y127473D01*
X99417Y127390D01*
X99445Y127350D01*
X99471Y127293D01*
X99567Y127180D01*
X99612Y127116D01*
X100446Y126282D01*
X100516Y126230D01*
X100580Y126170D01*
X100629Y126144D01*
X100674Y126111D01*
X100755Y126080D01*
X100833Y126040D01*
X100881Y126032D01*
X100939Y126010D01*
X101087Y125998D01*
X101164Y125985D01*
X108364Y125985D01*
X123306Y111042D01*
X123376Y110990D01*
X123440Y110930D01*
X123489Y110904D01*
X123534Y110871D01*
X123615Y110840D01*
X123693Y110800D01*
X123741Y110792D01*
X123799Y110770D01*
X123947Y110758D01*
X124024Y110745D01*
X135800Y110745D01*
X135886Y110757D01*
X135974Y110760D01*
X136026Y110777D01*
X136081Y110785D01*
X136161Y110820D01*
X136244Y110847D01*
X136284Y110875D01*
X136341Y110901D01*
X136454Y110997D01*
X136518Y111042D01*
X136678Y111203D01*
X138639Y112015D01*
X140761Y112015D01*
X142722Y111203D01*
X144223Y109702D01*
X145035Y107741D01*
X145035Y105619D01*
X144223Y103658D01*
X143136Y102572D01*
X143119Y102548D01*
X143096Y102529D01*
X143034Y102435D01*
X142965Y102345D01*
X142955Y102317D01*
X142939Y102293D01*
X142905Y102185D01*
X142864Y102079D01*
X142862Y102050D01*
X142853Y102022D01*
X142850Y101908D01*
X142841Y101796D01*
X142846Y101767D01*
X142846Y101738D01*
X142874Y101628D01*
X142897Y101517D01*
X142910Y101491D01*
X142917Y101463D01*
X142975Y101365D01*
X143027Y101265D01*
X143048Y101243D01*
X143063Y101218D01*
X143145Y101141D01*
X143223Y101059D01*
X143249Y101044D01*
X143270Y101024D01*
X143371Y100972D01*
X143469Y100915D01*
X143497Y100908D01*
X143523Y100894D01*
X143600Y100881D01*
X143744Y100845D01*
X143807Y100847D01*
X143854Y100839D01*
X160184Y100839D01*
X160270Y100851D01*
X160358Y100854D01*
X160410Y100871D01*
X160465Y100879D01*
X160545Y100914D01*
X160628Y100941D01*
X160668Y100969D01*
X160725Y100995D01*
X160838Y101091D01*
X160902Y101136D01*
X162078Y102313D01*
X164039Y103125D01*
X166161Y103125D01*
X168122Y102313D01*
X169623Y100812D01*
X170435Y98851D01*
X170435Y96540D01*
X170431Y96515D01*
X170443Y96433D01*
X170446Y96349D01*
X170463Y96293D01*
X170472Y96234D01*
X170506Y96158D01*
X170532Y96078D01*
X170565Y96029D01*
X170589Y95975D01*
X170643Y95911D01*
X170690Y95842D01*
X170735Y95804D01*
X170773Y95759D01*
X170832Y95722D01*
X170907Y95658D01*
X170999Y95617D01*
X171058Y95581D01*
X173202Y94693D01*
X174703Y93192D01*
X175515Y91231D01*
X175515Y89109D01*
X174703Y87148D01*
X173202Y85647D01*
X171241Y84835D01*
X169119Y84835D01*
X167158Y85647D01*
X165982Y86824D01*
X165912Y86876D01*
X165848Y86936D01*
X165799Y86962D01*
X165754Y86995D01*
X165673Y87026D01*
X165595Y87066D01*
X165547Y87074D01*
X165489Y87096D01*
X165341Y87108D01*
X165264Y87121D01*
X121927Y87121D01*
X117304Y91745D01*
X117280Y91762D01*
X117261Y91785D01*
X117167Y91847D01*
X117077Y91915D01*
X117049Y91926D01*
X117025Y91942D01*
X116917Y91976D01*
X116811Y92017D01*
X116782Y92019D01*
X116754Y92028D01*
X116640Y92031D01*
X116528Y92040D01*
X116499Y92035D01*
X116470Y92035D01*
X116360Y92007D01*
X116249Y91984D01*
X116223Y91971D01*
X116195Y91963D01*
X116097Y91906D01*
X115997Y91853D01*
X115975Y91833D01*
X115950Y91818D01*
X115873Y91736D01*
X115791Y91658D01*
X115776Y91632D01*
X115756Y91611D01*
X115704Y91510D01*
X115647Y91412D01*
X115640Y91384D01*
X115626Y91358D01*
X115613Y91280D01*
X115577Y91137D01*
X115579Y91074D01*
X115571Y91027D01*
X115571Y89166D01*
X113830Y84965D01*
X112820Y83955D01*
X112768Y83885D01*
X112708Y83821D01*
X112682Y83772D01*
X112649Y83727D01*
X112618Y83646D01*
X112578Y83568D01*
X112570Y83520D01*
X112548Y83462D01*
X112536Y83314D01*
X112523Y83237D01*
X112523Y79803D01*
X112178Y79458D01*
X112142Y79411D01*
X112100Y79371D01*
X112057Y79298D01*
X112007Y79231D01*
X111986Y79176D01*
X111956Y79126D01*
X111936Y79044D01*
X111905Y78965D01*
X111901Y78907D01*
X111886Y78850D01*
X111889Y78766D01*
X111882Y78682D01*
X111893Y78624D01*
X111895Y78566D01*
X111921Y78486D01*
X111938Y78403D01*
X111965Y78351D01*
X111983Y78295D01*
X112023Y78239D01*
X112069Y78151D01*
X112138Y78078D01*
X112178Y78022D01*
X112523Y77677D01*
X112523Y74243D01*
X112535Y74157D01*
X112538Y74069D01*
X112555Y74017D01*
X112563Y73962D01*
X112598Y73882D01*
X112625Y73799D01*
X112653Y73759D01*
X112679Y73702D01*
X112775Y73589D01*
X112820Y73525D01*
X113830Y72515D01*
X114569Y70731D01*
X114570Y70730D01*
X114570Y70729D01*
X114641Y70609D01*
X114714Y70487D01*
X114715Y70486D01*
X114716Y70484D01*
X114820Y70387D01*
X114920Y70291D01*
X114922Y70291D01*
X114923Y70290D01*
X115049Y70225D01*
X115173Y70161D01*
X115175Y70161D01*
X115176Y70160D01*
X115191Y70158D01*
X115452Y70106D01*
X115483Y70109D01*
X115507Y70105D01*
X178236Y70105D01*
X178322Y70117D01*
X178410Y70120D01*
X178463Y70137D01*
X178517Y70145D01*
X178597Y70180D01*
X178680Y70207D01*
X178720Y70235D01*
X178777Y70261D01*
X178890Y70357D01*
X178954Y70402D01*
X198838Y90286D01*
X201516Y92965D01*
X215810Y92965D01*
X215839Y92969D01*
X215868Y92966D01*
X215979Y92989D01*
X216091Y93005D01*
X216118Y93017D01*
X216147Y93022D01*
X216248Y93075D01*
X216351Y93121D01*
X216373Y93140D01*
X216399Y93153D01*
X216481Y93231D01*
X216568Y93304D01*
X216584Y93329D01*
X216605Y93349D01*
X216662Y93447D01*
X216725Y93541D01*
X216734Y93569D01*
X216749Y93594D01*
X216777Y93704D01*
X216811Y93812D01*
X216812Y93842D01*
X216819Y93870D01*
X216815Y93983D01*
X216818Y94096D01*
X216811Y94125D01*
X216810Y94154D01*
X216775Y94262D01*
X216747Y94371D01*
X216732Y94397D01*
X216723Y94425D01*
X216677Y94489D01*
X216601Y94616D01*
X216556Y94659D01*
X216528Y94698D01*
X215187Y96038D01*
X214375Y97999D01*
X214375Y100121D01*
X215187Y102082D01*
X216688Y103583D01*
X218649Y104395D01*
X220771Y104395D01*
X222768Y103568D01*
X222772Y103564D01*
X222821Y103539D01*
X222865Y103505D01*
X222947Y103474D01*
X223025Y103434D01*
X223073Y103426D01*
X223131Y103404D01*
X223279Y103392D01*
X223356Y103379D01*
X240694Y103379D01*
X240779Y103391D01*
X240865Y103393D01*
X240919Y103411D01*
X240975Y103419D01*
X241054Y103454D01*
X241136Y103480D01*
X241183Y103512D01*
X241235Y103535D01*
X241300Y103590D01*
X241372Y103638D01*
X241408Y103682D01*
X241452Y103718D01*
X241499Y103790D01*
X241555Y103856D01*
X241578Y103908D01*
X241609Y103955D01*
X241635Y104037D01*
X241670Y104116D01*
X241678Y104172D01*
X241695Y104226D01*
X241697Y104312D01*
X241709Y104397D01*
X241701Y104453D01*
X241702Y104510D01*
X241681Y104593D01*
X241668Y104679D01*
X241645Y104730D01*
X241631Y104785D01*
X241587Y104859D01*
X241551Y104938D01*
X241514Y104981D01*
X241485Y105030D01*
X241423Y105089D01*
X241367Y105154D01*
X241325Y105180D01*
X241278Y105224D01*
X241149Y105290D01*
X241082Y105332D01*
X239548Y105967D01*
X238047Y107468D01*
X237235Y109429D01*
X237235Y111551D01*
X238047Y113512D01*
X239224Y114688D01*
X239276Y114758D01*
X239336Y114822D01*
X239362Y114871D01*
X239395Y114916D01*
X239426Y114997D01*
X239466Y115075D01*
X239474Y115123D01*
X239496Y115181D01*
X239508Y115329D01*
X239521Y115406D01*
X239521Y116427D01*
X239509Y116513D01*
X239506Y116601D01*
X239489Y116653D01*
X239481Y116708D01*
X239446Y116788D01*
X239419Y116871D01*
X239391Y116910D01*
X239365Y116968D01*
X239269Y117081D01*
X239224Y117145D01*
X194615Y161754D01*
X194545Y161806D01*
X194481Y161866D01*
X194431Y161892D01*
X194387Y161925D01*
X194306Y161956D01*
X194228Y161996D01*
X194180Y162004D01*
X194122Y162026D01*
X193974Y162038D01*
X193897Y162051D01*
X175387Y162051D01*
X175329Y162043D01*
X175271Y162045D01*
X175189Y162023D01*
X175105Y162011D01*
X175052Y161988D01*
X174996Y161973D01*
X174923Y161930D01*
X174846Y161895D01*
X174801Y161857D01*
X174751Y161828D01*
X174693Y161766D01*
X174629Y161712D01*
X174597Y161663D01*
X174557Y161620D01*
X174518Y161545D01*
X174471Y161475D01*
X174454Y161419D01*
X174427Y161367D01*
X174416Y161299D01*
X174386Y161204D01*
X174383Y161104D01*
X174372Y161036D01*
X174372Y157908D01*
X173181Y156717D01*
X166116Y156717D01*
X166058Y156709D01*
X166000Y156711D01*
X165918Y156689D01*
X165834Y156677D01*
X165781Y156654D01*
X165725Y156639D01*
X165652Y156596D01*
X165575Y156561D01*
X165530Y156523D01*
X165480Y156494D01*
X165422Y156432D01*
X165358Y156378D01*
X165326Y156329D01*
X165286Y156286D01*
X165247Y156211D01*
X165200Y156141D01*
X165183Y156085D01*
X165156Y156033D01*
X165145Y155965D01*
X165115Y155870D01*
X165112Y155770D01*
X165101Y155702D01*
X165101Y154272D01*
X163112Y152284D01*
X163060Y152214D01*
X163000Y152150D01*
X162974Y152101D01*
X162941Y152056D01*
X162910Y151975D01*
X162870Y151897D01*
X162862Y151849D01*
X162840Y151791D01*
X162833Y151712D01*
X162829Y151697D01*
X162827Y151640D01*
X162815Y151566D01*
X162815Y151339D01*
X162003Y149378D01*
X160502Y147877D01*
X158541Y147065D01*
X156419Y147065D01*
X154458Y147877D01*
X152957Y149378D01*
X152145Y151339D01*
X152145Y153461D01*
X152957Y155422D01*
X154458Y156923D01*
X155202Y157231D01*
X155203Y157231D01*
X155204Y157232D01*
X155322Y157302D01*
X155446Y157375D01*
X155447Y157376D01*
X155449Y157377D01*
X155546Y157481D01*
X155642Y157582D01*
X155642Y157583D01*
X155643Y157584D01*
X155708Y157710D01*
X155772Y157834D01*
X155772Y157836D01*
X155773Y157837D01*
X155775Y157852D01*
X155827Y158113D01*
X155824Y158144D01*
X155828Y158168D01*
X155828Y172292D01*
X157019Y173483D01*
X173181Y173483D01*
X174372Y172292D01*
X174372Y169164D01*
X174380Y169106D01*
X174378Y169048D01*
X174400Y168966D01*
X174412Y168882D01*
X174435Y168829D01*
X174450Y168773D01*
X174493Y168700D01*
X174528Y168623D01*
X174566Y168578D01*
X174595Y168528D01*
X174657Y168470D01*
X174711Y168406D01*
X174760Y168374D01*
X174803Y168334D01*
X174878Y168295D01*
X174948Y168248D01*
X175004Y168231D01*
X175056Y168204D01*
X175124Y168193D01*
X175219Y168163D01*
X175319Y168160D01*
X175387Y168149D01*
X196843Y168149D01*
X245619Y119373D01*
X245619Y115406D01*
X245631Y115320D01*
X245634Y115232D01*
X245651Y115180D01*
X245659Y115125D01*
X245694Y115045D01*
X245721Y114962D01*
X245749Y114922D01*
X245775Y114865D01*
X245871Y114752D01*
X245916Y114688D01*
X247093Y113512D01*
X247905Y111551D01*
X247905Y109429D01*
X247093Y107468D01*
X246183Y106559D01*
X246166Y106536D01*
X246145Y106518D01*
X246114Y106472D01*
X246073Y106428D01*
X246046Y106377D01*
X246012Y106332D01*
X246001Y106302D01*
X245988Y106282D01*
X245972Y106233D01*
X245942Y106175D01*
X245931Y106119D01*
X245911Y106066D01*
X245908Y106031D01*
X245902Y106011D01*
X245901Y105964D01*
X245887Y105896D01*
X245892Y105839D01*
X245888Y105783D01*
X245895Y105745D01*
X245895Y105727D01*
X245906Y105685D01*
X245912Y105613D01*
X245932Y105560D01*
X245943Y105504D01*
X245962Y105468D01*
X245966Y105452D01*
X245987Y105416D01*
X246014Y105347D01*
X246048Y105302D01*
X246074Y105252D01*
X246104Y105221D01*
X246112Y105207D01*
X246140Y105180D01*
X246185Y105121D01*
X246231Y105087D01*
X246270Y105045D01*
X246307Y105024D01*
X246319Y105013D01*
X246354Y104995D01*
X246413Y104951D01*
X246466Y104930D01*
X246515Y104902D01*
X246556Y104891D01*
X246572Y104883D01*
X246607Y104877D01*
X246679Y104850D01*
X246736Y104846D01*
X246791Y104832D01*
X246866Y104834D01*
X246903Y104828D01*
X246906Y104828D01*
X246925Y104830D01*
X246962Y104827D01*
X247011Y104839D01*
X247075Y104841D01*
X247135Y104860D01*
X247188Y104868D01*
X247242Y104892D01*
X247290Y104903D01*
X249129Y105665D01*
X251251Y105665D01*
X253212Y104853D01*
X254713Y103352D01*
X255525Y101391D01*
X255525Y99269D01*
X254713Y97308D01*
X253212Y95807D01*
X251251Y94995D01*
X249129Y94995D01*
X247168Y95807D01*
X245992Y96984D01*
X245922Y97036D01*
X245858Y97096D01*
X245809Y97122D01*
X245764Y97155D01*
X245683Y97186D01*
X245605Y97226D01*
X245557Y97234D01*
X245499Y97256D01*
X245351Y97268D01*
X245274Y97281D01*
X239175Y97281D01*
X239090Y97269D01*
X239004Y97267D01*
X238950Y97249D01*
X238894Y97241D01*
X238815Y97206D01*
X238734Y97180D01*
X238686Y97148D01*
X238634Y97125D01*
X238569Y97070D01*
X238497Y97022D01*
X238461Y96978D01*
X238417Y96942D01*
X238370Y96870D01*
X238314Y96804D01*
X238291Y96752D01*
X238260Y96705D01*
X238234Y96623D01*
X238199Y96544D01*
X238191Y96488D01*
X238174Y96434D01*
X238172Y96348D01*
X238160Y96263D01*
X238168Y96207D01*
X238167Y96150D01*
X238188Y96067D01*
X238201Y95981D01*
X238224Y95930D01*
X238239Y95875D01*
X238282Y95801D01*
X238318Y95722D01*
X238355Y95679D01*
X238384Y95630D01*
X238446Y95571D01*
X238502Y95506D01*
X238544Y95480D01*
X238591Y95436D01*
X238720Y95370D01*
X238787Y95328D01*
X240647Y94558D01*
X242147Y93057D01*
X242960Y91096D01*
X242960Y88974D01*
X242138Y86990D01*
X242097Y86929D01*
X242029Y86839D01*
X242019Y86811D01*
X242003Y86787D01*
X241968Y86679D01*
X241928Y86573D01*
X241926Y86544D01*
X241917Y86516D01*
X241914Y86403D01*
X241904Y86290D01*
X241910Y86261D01*
X241910Y86232D01*
X241938Y86122D01*
X241960Y86011D01*
X241974Y85985D01*
X241981Y85957D01*
X242039Y85860D01*
X242091Y85759D01*
X242112Y85737D01*
X242127Y85712D01*
X242209Y85635D01*
X242287Y85553D01*
X242312Y85538D01*
X242334Y85518D01*
X242435Y85466D01*
X242532Y85409D01*
X242561Y85402D01*
X242587Y85388D01*
X242664Y85375D01*
X242746Y85355D01*
X245567Y84186D01*
X247686Y82067D01*
X248833Y79298D01*
X248833Y76302D01*
X247686Y73533D01*
X245567Y71414D01*
X242798Y70267D01*
X239802Y70267D01*
X237033Y71414D01*
X234914Y73533D01*
X233767Y76302D01*
X233767Y79298D01*
X234914Y82067D01*
X235949Y83102D01*
X235967Y83126D01*
X235989Y83145D01*
X236052Y83239D01*
X236120Y83329D01*
X236131Y83357D01*
X236147Y83381D01*
X236181Y83489D01*
X236221Y83595D01*
X236224Y83624D01*
X236233Y83652D01*
X236236Y83766D01*
X236245Y83878D01*
X236239Y83907D01*
X236240Y83936D01*
X236211Y84046D01*
X236189Y84157D01*
X236175Y84183D01*
X236168Y84211D01*
X236110Y84309D01*
X236058Y84409D01*
X236038Y84431D01*
X236023Y84456D01*
X235940Y84533D01*
X235862Y84615D01*
X235837Y84630D01*
X235816Y84650D01*
X235715Y84702D01*
X235617Y84759D01*
X235589Y84766D01*
X235562Y84780D01*
X235485Y84793D01*
X235341Y84829D01*
X235279Y84827D01*
X235231Y84835D01*
X205304Y84835D01*
X205218Y84823D01*
X205130Y84820D01*
X205077Y84803D01*
X205023Y84795D01*
X204943Y84760D01*
X204860Y84733D01*
X204820Y84705D01*
X204763Y84679D01*
X204650Y84583D01*
X204586Y84538D01*
X184702Y64654D01*
X182024Y61975D01*
X115507Y61975D01*
X115506Y61975D01*
X115504Y61975D01*
X115364Y61955D01*
X115226Y61935D01*
X115224Y61935D01*
X115223Y61935D01*
X115097Y61878D01*
X114966Y61819D01*
X114965Y61818D01*
X114964Y61817D01*
X114853Y61724D01*
X114749Y61636D01*
X114748Y61634D01*
X114747Y61633D01*
X114739Y61620D01*
X114592Y61399D01*
X114582Y61370D01*
X114569Y61349D01*
X113830Y59565D01*
X110615Y56350D01*
X106414Y54609D01*
X101866Y54609D01*
G37*
%LPD*%
%LPC*%
G36*
X719553Y246379D02*
X719553Y246379D01*
X711154Y248630D01*
X703625Y252977D01*
X697477Y259125D01*
X693130Y266654D01*
X690879Y275053D01*
X690879Y283747D01*
X693130Y292146D01*
X697477Y299675D01*
X703625Y305823D01*
X711154Y310170D01*
X719553Y312421D01*
X728247Y312421D01*
X736646Y310170D01*
X744175Y305823D01*
X750323Y299675D01*
X754670Y292146D01*
X756921Y283747D01*
X756921Y275053D01*
X754670Y266654D01*
X750323Y259125D01*
X744175Y252977D01*
X736646Y248630D01*
X728247Y246379D01*
X719553Y246379D01*
G37*
%LPD*%
%LPC*%
G36*
X516353Y246379D02*
X516353Y246379D01*
X507954Y248630D01*
X500425Y252977D01*
X494277Y259125D01*
X489930Y266654D01*
X487679Y275053D01*
X487679Y283747D01*
X489930Y292146D01*
X494277Y299675D01*
X500425Y305823D01*
X507954Y310170D01*
X516353Y312421D01*
X525047Y312421D01*
X533446Y310170D01*
X540975Y305823D01*
X547123Y299675D01*
X551470Y292146D01*
X553721Y283747D01*
X553721Y275053D01*
X551470Y266654D01*
X547123Y259125D01*
X540975Y252977D01*
X533446Y248630D01*
X525047Y246379D01*
X516353Y246379D01*
G37*
%LPD*%
%LPC*%
G36*
X719553Y43179D02*
X719553Y43179D01*
X711154Y45430D01*
X703625Y49777D01*
X697477Y55925D01*
X693130Y63454D01*
X690879Y71853D01*
X690879Y80547D01*
X693130Y88946D01*
X697477Y96475D01*
X703625Y102623D01*
X711154Y106970D01*
X719553Y109221D01*
X728247Y109221D01*
X736646Y106970D01*
X744175Y102623D01*
X750323Y96475D01*
X754670Y88946D01*
X756921Y80547D01*
X756921Y71853D01*
X754670Y63454D01*
X750323Y55925D01*
X744175Y49777D01*
X736646Y45430D01*
X728247Y43179D01*
X719553Y43179D01*
G37*
%LPD*%
%LPC*%
G36*
X516353Y43179D02*
X516353Y43179D01*
X507954Y45430D01*
X500425Y49777D01*
X494277Y55925D01*
X489930Y63454D01*
X487679Y71853D01*
X487679Y80547D01*
X489930Y88946D01*
X494277Y96475D01*
X500425Y102623D01*
X507954Y106970D01*
X516353Y109221D01*
X525047Y109221D01*
X533446Y106970D01*
X540975Y102623D01*
X547123Y96475D01*
X551470Y88946D01*
X553721Y80547D01*
X553721Y71853D01*
X551470Y63454D01*
X547123Y55925D01*
X540975Y49777D01*
X533446Y45430D01*
X525047Y43179D01*
X516353Y43179D01*
G37*
%LPD*%
%LPC*%
G36*
X33229Y185165D02*
X33229Y185165D01*
X31268Y185977D01*
X29767Y187478D01*
X28955Y189439D01*
X28955Y191561D01*
X29767Y193522D01*
X29928Y193682D01*
X29980Y193752D01*
X30040Y193816D01*
X30066Y193865D01*
X30099Y193910D01*
X30130Y193991D01*
X30170Y194069D01*
X30178Y194117D01*
X30200Y194175D01*
X30212Y194323D01*
X30225Y194400D01*
X30225Y209964D01*
X51656Y231395D01*
X81694Y231395D01*
X85206Y227882D01*
X85276Y227830D01*
X85340Y227770D01*
X85389Y227744D01*
X85434Y227711D01*
X85515Y227680D01*
X85593Y227640D01*
X85641Y227632D01*
X85699Y227610D01*
X85847Y227598D01*
X85924Y227585D01*
X114300Y227585D01*
X114358Y227593D01*
X114416Y227591D01*
X114498Y227613D01*
X114582Y227625D01*
X114635Y227648D01*
X114691Y227663D01*
X114764Y227706D01*
X114841Y227741D01*
X114886Y227779D01*
X114936Y227808D01*
X114994Y227870D01*
X115058Y227924D01*
X115090Y227973D01*
X115130Y228016D01*
X115169Y228091D01*
X115216Y228161D01*
X115233Y228217D01*
X115260Y228269D01*
X115271Y228337D01*
X115301Y228432D01*
X115304Y228532D01*
X115315Y228600D01*
X115315Y284916D01*
X115303Y285002D01*
X115300Y285090D01*
X115283Y285142D01*
X115275Y285197D01*
X115240Y285277D01*
X115213Y285360D01*
X115185Y285400D01*
X115159Y285457D01*
X115063Y285570D01*
X115018Y285634D01*
X107834Y292818D01*
X107764Y292870D01*
X107700Y292930D01*
X107651Y292956D01*
X107606Y292989D01*
X107525Y293020D01*
X107447Y293060D01*
X107399Y293068D01*
X107341Y293090D01*
X107193Y293102D01*
X107116Y293115D01*
X106889Y293115D01*
X104928Y293927D01*
X103427Y295428D01*
X102615Y297389D01*
X102615Y299511D01*
X103427Y301472D01*
X104928Y302973D01*
X106889Y303785D01*
X109011Y303785D01*
X110972Y302973D01*
X112473Y301472D01*
X113285Y299511D01*
X113285Y299284D01*
X113297Y299198D01*
X113300Y299110D01*
X113317Y299058D01*
X113325Y299003D01*
X113360Y298923D01*
X113387Y298840D01*
X113415Y298800D01*
X113441Y298743D01*
X113537Y298630D01*
X113582Y298566D01*
X123445Y288704D01*
X123445Y227420D01*
X123457Y227334D01*
X123460Y227246D01*
X123477Y227194D01*
X123485Y227139D01*
X123520Y227059D01*
X123547Y226976D01*
X123575Y226936D01*
X123601Y226879D01*
X123697Y226766D01*
X123742Y226702D01*
X123903Y226542D01*
X124715Y224581D01*
X124715Y222459D01*
X123903Y220498D01*
X122402Y218997D01*
X120441Y218185D01*
X118319Y218185D01*
X116358Y218997D01*
X116198Y219158D01*
X116128Y219210D01*
X116064Y219270D01*
X116015Y219296D01*
X115970Y219329D01*
X115889Y219360D01*
X115811Y219400D01*
X115763Y219408D01*
X115705Y219430D01*
X115557Y219442D01*
X115480Y219455D01*
X82136Y219455D01*
X78624Y222968D01*
X78554Y223020D01*
X78490Y223080D01*
X78441Y223106D01*
X78396Y223139D01*
X78315Y223170D01*
X78237Y223210D01*
X78189Y223218D01*
X78131Y223240D01*
X77983Y223252D01*
X77906Y223265D01*
X75057Y223265D01*
X74999Y223257D01*
X74941Y223259D01*
X74859Y223237D01*
X74775Y223225D01*
X74722Y223202D01*
X74666Y223187D01*
X74593Y223144D01*
X74516Y223109D01*
X74471Y223071D01*
X74421Y223042D01*
X74363Y222980D01*
X74299Y222926D01*
X74267Y222877D01*
X74227Y222834D01*
X74188Y222759D01*
X74141Y222689D01*
X74124Y222633D01*
X74097Y222581D01*
X74086Y222513D01*
X74056Y222418D01*
X74053Y222318D01*
X74042Y222250D01*
X74042Y220417D01*
X74054Y220331D01*
X74057Y220243D01*
X74074Y220191D01*
X74082Y220136D01*
X74117Y220056D01*
X74144Y219973D01*
X74172Y219933D01*
X74198Y219876D01*
X74294Y219763D01*
X74339Y219699D01*
X77586Y216452D01*
X77656Y216400D01*
X77720Y216340D01*
X77769Y216314D01*
X77814Y216281D01*
X77895Y216250D01*
X77973Y216210D01*
X78021Y216202D01*
X78079Y216180D01*
X78227Y216168D01*
X78304Y216155D01*
X78531Y216155D01*
X80492Y215343D01*
X81993Y213842D01*
X82805Y211881D01*
X82805Y209759D01*
X81993Y207798D01*
X80492Y206297D01*
X78531Y205485D01*
X76409Y205485D01*
X74448Y206297D01*
X73526Y207220D01*
X73456Y207272D01*
X73392Y207332D01*
X73343Y207358D01*
X73298Y207391D01*
X73217Y207422D01*
X73139Y207462D01*
X73091Y207470D01*
X73033Y207492D01*
X72885Y207504D01*
X72808Y207517D01*
X56689Y207517D01*
X56059Y208147D01*
X56058Y208148D01*
X56057Y208150D01*
X55943Y208234D01*
X55832Y208318D01*
X55830Y208319D01*
X55829Y208320D01*
X55699Y208369D01*
X55566Y208419D01*
X55565Y208420D01*
X55563Y208420D01*
X55420Y208432D01*
X55283Y208443D01*
X55281Y208443D01*
X55280Y208443D01*
X55264Y208439D01*
X55004Y208387D01*
X54977Y208373D01*
X54953Y208367D01*
X53207Y207644D01*
X50933Y207644D01*
X48832Y208514D01*
X47224Y210122D01*
X46343Y212250D01*
X46330Y212314D01*
X46314Y212426D01*
X46302Y212453D01*
X46297Y212482D01*
X46245Y212582D01*
X46198Y212686D01*
X46179Y212708D01*
X46166Y212734D01*
X46088Y212816D01*
X46015Y212903D01*
X45990Y212919D01*
X45970Y212940D01*
X45872Y212998D01*
X45778Y213060D01*
X45750Y213069D01*
X45725Y213084D01*
X45615Y213112D01*
X45507Y213146D01*
X45477Y213147D01*
X45449Y213154D01*
X45336Y213151D01*
X45223Y213153D01*
X45194Y213146D01*
X45165Y213145D01*
X45057Y213110D01*
X44948Y213082D01*
X44922Y213067D01*
X44894Y213058D01*
X44831Y213012D01*
X44703Y212936D01*
X44660Y212891D01*
X44621Y212863D01*
X38652Y206894D01*
X38600Y206824D01*
X38540Y206760D01*
X38514Y206711D01*
X38481Y206666D01*
X38450Y206585D01*
X38410Y206507D01*
X38402Y206459D01*
X38380Y206401D01*
X38368Y206253D01*
X38355Y206176D01*
X38355Y194400D01*
X38367Y194314D01*
X38370Y194226D01*
X38387Y194174D01*
X38395Y194119D01*
X38430Y194039D01*
X38457Y193956D01*
X38485Y193916D01*
X38511Y193859D01*
X38607Y193746D01*
X38652Y193682D01*
X38813Y193522D01*
X39625Y191561D01*
X39625Y189439D01*
X38813Y187478D01*
X37312Y185977D01*
X35351Y185165D01*
X33229Y185165D01*
G37*
%LPD*%
%LPC*%
G36*
X234016Y255142D02*
X234016Y255142D01*
X232055Y255954D01*
X231895Y256115D01*
X231825Y256167D01*
X231761Y256227D01*
X231712Y256253D01*
X231667Y256286D01*
X231586Y256317D01*
X231508Y256357D01*
X231460Y256365D01*
X231402Y256387D01*
X231254Y256399D01*
X231177Y256412D01*
X224997Y256412D01*
X219075Y262334D01*
X219075Y290376D01*
X219063Y290462D01*
X219060Y290550D01*
X219043Y290602D01*
X219035Y290657D01*
X219000Y290737D01*
X218973Y290820D01*
X218945Y290860D01*
X218919Y290917D01*
X218823Y291030D01*
X218778Y291094D01*
X201814Y308058D01*
X201744Y308110D01*
X201680Y308170D01*
X201631Y308196D01*
X201586Y308229D01*
X201505Y308260D01*
X201427Y308300D01*
X201379Y308308D01*
X201321Y308330D01*
X201173Y308342D01*
X201096Y308355D01*
X157066Y308355D01*
X143128Y322293D01*
X143128Y327667D01*
X143116Y327754D01*
X143113Y327842D01*
X143096Y327894D01*
X143088Y327949D01*
X143053Y328029D01*
X143026Y328112D01*
X142998Y328151D01*
X142972Y328208D01*
X142876Y328322D01*
X142831Y328385D01*
X141858Y329358D01*
X141858Y343742D01*
X143049Y344933D01*
X151337Y344933D01*
X151682Y344588D01*
X151729Y344553D01*
X151769Y344510D01*
X151842Y344467D01*
X151909Y344417D01*
X151964Y344396D01*
X152014Y344366D01*
X152096Y344345D01*
X152175Y344315D01*
X152233Y344311D01*
X152290Y344296D01*
X152374Y344299D01*
X152458Y344292D01*
X152516Y344303D01*
X152574Y344305D01*
X152654Y344331D01*
X152737Y344348D01*
X152789Y344375D01*
X152845Y344393D01*
X152901Y344433D01*
X152989Y344479D01*
X153062Y344547D01*
X153118Y344588D01*
X153463Y344933D01*
X161751Y344933D01*
X162942Y343742D01*
X162942Y340614D01*
X162950Y340556D01*
X162948Y340498D01*
X162970Y340416D01*
X162982Y340332D01*
X163005Y340279D01*
X163020Y340223D01*
X163063Y340150D01*
X163098Y340073D01*
X163136Y340028D01*
X163165Y339978D01*
X163227Y339920D01*
X163281Y339856D01*
X163330Y339824D01*
X163373Y339784D01*
X163448Y339745D01*
X163518Y339698D01*
X163574Y339681D01*
X163626Y339654D01*
X163694Y339643D01*
X163789Y339613D01*
X163889Y339610D01*
X163957Y339599D01*
X171570Y339599D01*
X179579Y331590D01*
X179579Y328766D01*
X179591Y328680D01*
X179594Y328592D01*
X179611Y328540D01*
X179619Y328485D01*
X179654Y328405D01*
X179681Y328322D01*
X179709Y328282D01*
X179735Y328225D01*
X179831Y328112D01*
X179876Y328048D01*
X181053Y326872D01*
X181865Y324911D01*
X181865Y322789D01*
X181053Y320828D01*
X179552Y319327D01*
X177591Y318515D01*
X175469Y318515D01*
X173508Y319327D01*
X172007Y320828D01*
X171195Y322789D01*
X171195Y324911D01*
X172007Y326872D01*
X173123Y327987D01*
X173158Y328034D01*
X173200Y328074D01*
X173243Y328147D01*
X173294Y328214D01*
X173314Y328269D01*
X173344Y328319D01*
X173365Y328401D01*
X173395Y328480D01*
X173400Y328538D01*
X173414Y328595D01*
X173411Y328679D01*
X173418Y328763D01*
X173407Y328820D01*
X173405Y328879D01*
X173379Y328959D01*
X173362Y329042D01*
X173335Y329094D01*
X173317Y329149D01*
X173277Y329206D01*
X173231Y329294D01*
X173163Y329367D01*
X173123Y329423D01*
X169342Y333204D01*
X169272Y333256D01*
X169208Y333316D01*
X169158Y333342D01*
X169114Y333375D01*
X169033Y333406D01*
X168955Y333446D01*
X168907Y333454D01*
X168849Y333476D01*
X168701Y333488D01*
X168624Y333501D01*
X163957Y333501D01*
X163899Y333493D01*
X163841Y333495D01*
X163759Y333473D01*
X163675Y333461D01*
X163622Y333438D01*
X163566Y333423D01*
X163493Y333380D01*
X163416Y333345D01*
X163371Y333307D01*
X163321Y333278D01*
X163263Y333216D01*
X163199Y333162D01*
X163167Y333113D01*
X163127Y333070D01*
X163088Y332995D01*
X163041Y332925D01*
X163024Y332869D01*
X162997Y332817D01*
X162986Y332749D01*
X162956Y332654D01*
X162953Y332554D01*
X162942Y332486D01*
X162942Y329358D01*
X161751Y328167D01*
X153463Y328167D01*
X153118Y328512D01*
X153071Y328548D01*
X153031Y328590D01*
X152958Y328633D01*
X152891Y328683D01*
X152836Y328704D01*
X152786Y328734D01*
X152704Y328754D01*
X152625Y328785D01*
X152567Y328789D01*
X152510Y328804D01*
X152426Y328801D01*
X152342Y328808D01*
X152284Y328797D01*
X152226Y328795D01*
X152146Y328769D01*
X152063Y328752D01*
X152011Y328725D01*
X151955Y328707D01*
X151899Y328667D01*
X151811Y328621D01*
X151738Y328552D01*
X151682Y328512D01*
X151555Y328385D01*
X151503Y328316D01*
X151443Y328252D01*
X151417Y328202D01*
X151384Y328158D01*
X151353Y328076D01*
X151313Y327999D01*
X151305Y327951D01*
X151283Y327893D01*
X151271Y327745D01*
X151258Y327667D01*
X151258Y326081D01*
X151270Y325995D01*
X151273Y325907D01*
X151290Y325855D01*
X151298Y325800D01*
X151333Y325720D01*
X151360Y325637D01*
X151388Y325597D01*
X151414Y325540D01*
X151510Y325427D01*
X151555Y325363D01*
X160136Y316782D01*
X160206Y316730D01*
X160270Y316670D01*
X160319Y316644D01*
X160364Y316611D01*
X160445Y316580D01*
X160523Y316540D01*
X160571Y316532D01*
X160629Y316510D01*
X160777Y316498D01*
X160854Y316485D01*
X204884Y316485D01*
X227205Y294164D01*
X227205Y266122D01*
X227217Y266036D01*
X227220Y265948D01*
X227237Y265896D01*
X227245Y265841D01*
X227280Y265761D01*
X227307Y265678D01*
X227335Y265639D01*
X227361Y265581D01*
X227457Y265468D01*
X227502Y265404D01*
X228067Y264839D01*
X228137Y264787D01*
X228201Y264727D01*
X228251Y264701D01*
X228295Y264668D01*
X228376Y264637D01*
X228454Y264597D01*
X228502Y264589D01*
X228560Y264567D01*
X228708Y264555D01*
X228785Y264542D01*
X231177Y264542D01*
X231263Y264554D01*
X231351Y264557D01*
X231403Y264574D01*
X231458Y264582D01*
X231538Y264617D01*
X231621Y264644D01*
X231661Y264672D01*
X231718Y264698D01*
X231831Y264794D01*
X231895Y264839D01*
X232055Y265000D01*
X234016Y265812D01*
X236138Y265812D01*
X238099Y265000D01*
X239600Y263499D01*
X240412Y261538D01*
X240412Y259416D01*
X239600Y257455D01*
X238099Y255954D01*
X236138Y255142D01*
X234016Y255142D01*
G37*
%LPD*%
%LPC*%
G36*
X466223Y17144D02*
X466223Y17144D01*
X464122Y18014D01*
X463639Y18498D01*
X463569Y18550D01*
X463505Y18610D01*
X463456Y18636D01*
X463412Y18669D01*
X463330Y18700D01*
X463252Y18740D01*
X463204Y18748D01*
X463146Y18770D01*
X462998Y18782D01*
X462921Y18795D01*
X385666Y18795D01*
X376185Y28277D01*
X376115Y28329D01*
X376051Y28389D01*
X376002Y28415D01*
X375957Y28448D01*
X375876Y28479D01*
X375798Y28519D01*
X375750Y28527D01*
X375692Y28549D01*
X375544Y28561D01*
X375467Y28574D01*
X374783Y28574D01*
X372682Y29444D01*
X371074Y31052D01*
X370204Y33153D01*
X370204Y35427D01*
X371074Y37528D01*
X372682Y39136D01*
X374783Y40006D01*
X377057Y40006D01*
X379158Y39136D01*
X380766Y37528D01*
X381636Y35427D01*
X381636Y34743D01*
X381643Y34690D01*
X381642Y34659D01*
X381649Y34635D01*
X381651Y34569D01*
X381668Y34517D01*
X381676Y34462D01*
X381711Y34382D01*
X381738Y34299D01*
X381766Y34259D01*
X381792Y34202D01*
X381888Y34089D01*
X381933Y34025D01*
X388736Y27222D01*
X388806Y27170D01*
X388870Y27110D01*
X388919Y27084D01*
X388964Y27051D01*
X389045Y27020D01*
X389123Y26980D01*
X389171Y26972D01*
X389229Y26950D01*
X389377Y26938D01*
X389454Y26925D01*
X462921Y26925D01*
X463008Y26937D01*
X463095Y26940D01*
X463148Y26957D01*
X463202Y26965D01*
X463282Y27000D01*
X463365Y27027D01*
X463405Y27055D01*
X463462Y27081D01*
X463575Y27177D01*
X463639Y27222D01*
X464122Y27706D01*
X466223Y28576D01*
X468497Y28576D01*
X470598Y27706D01*
X472206Y26098D01*
X473076Y23997D01*
X473076Y21723D01*
X472206Y19622D01*
X470598Y18014D01*
X468497Y17144D01*
X466223Y17144D01*
G37*
%LPD*%
%LPC*%
G36*
X442761Y139631D02*
X442761Y139631D01*
X442761Y170098D01*
X445511Y169827D01*
X448646Y169204D01*
X451706Y168276D01*
X454660Y167052D01*
X457480Y165545D01*
X460138Y163769D01*
X462610Y161740D01*
X464870Y159480D01*
X466899Y157008D01*
X468675Y154350D01*
X470182Y151530D01*
X471406Y148576D01*
X472334Y145516D01*
X472957Y142381D01*
X473228Y139631D01*
X442761Y139631D01*
G37*
%LPD*%
%LPC*%
G36*
X408232Y139631D02*
X408232Y139631D01*
X408503Y142381D01*
X409126Y145516D01*
X410054Y148576D01*
X411278Y151530D01*
X412785Y154350D01*
X414561Y157008D01*
X416590Y159480D01*
X418850Y161740D01*
X421322Y163769D01*
X423980Y165545D01*
X426800Y167052D01*
X429754Y168276D01*
X432814Y169204D01*
X435949Y169827D01*
X438699Y170098D01*
X438699Y139631D01*
X408232Y139631D01*
G37*
%LPD*%
%LPC*%
G36*
X442761Y135569D02*
X442761Y135569D01*
X473228Y135569D01*
X472957Y132819D01*
X472334Y129684D01*
X471406Y126624D01*
X470182Y123670D01*
X468675Y120850D01*
X466899Y118192D01*
X464870Y115720D01*
X462610Y113460D01*
X460138Y111431D01*
X457480Y109655D01*
X454660Y108148D01*
X451706Y106924D01*
X448646Y105996D01*
X445511Y105373D01*
X442761Y105102D01*
X442761Y135569D01*
G37*
%LPD*%
%LPC*%
G36*
X435949Y105373D02*
X435949Y105373D01*
X432814Y105996D01*
X429754Y106924D01*
X426800Y108148D01*
X423980Y109655D01*
X421322Y111431D01*
X418850Y113460D01*
X416590Y115720D01*
X414561Y118192D01*
X412785Y120850D01*
X411278Y123670D01*
X410054Y126624D01*
X409126Y129684D01*
X408503Y132819D01*
X408232Y135569D01*
X438699Y135569D01*
X438699Y105102D01*
X435949Y105373D01*
G37*
%LPD*%
%LPC*%
G36*
X384939Y73405D02*
X384939Y73405D01*
X382978Y74217D01*
X381477Y75718D01*
X380665Y77679D01*
X380665Y79343D01*
X380653Y79429D01*
X380650Y79517D01*
X380633Y79569D01*
X380625Y79624D01*
X380590Y79704D01*
X380563Y79787D01*
X380535Y79826D01*
X380509Y79884D01*
X380413Y79997D01*
X380368Y80061D01*
X376560Y83869D01*
X376513Y83904D01*
X376473Y83946D01*
X376400Y83989D01*
X376332Y84040D01*
X376278Y84061D01*
X376227Y84090D01*
X376146Y84111D01*
X376067Y84141D01*
X376008Y84146D01*
X375952Y84160D01*
X375867Y84158D01*
X375783Y84165D01*
X375726Y84153D01*
X375668Y84151D01*
X375587Y84125D01*
X375505Y84109D01*
X375453Y84082D01*
X375397Y84064D01*
X375341Y84024D01*
X375252Y83978D01*
X375180Y83909D01*
X375124Y83869D01*
X373048Y81793D01*
X369967Y80517D01*
X366633Y80517D01*
X363551Y81793D01*
X361193Y84151D01*
X359917Y87233D01*
X359917Y90567D01*
X361193Y93649D01*
X363551Y96007D01*
X366633Y97283D01*
X369967Y97283D01*
X373049Y96007D01*
X375407Y93648D01*
X375851Y92575D01*
X375852Y92574D01*
X375852Y92573D01*
X375924Y92452D01*
X375995Y92331D01*
X375997Y92330D01*
X375997Y92328D01*
X376101Y92231D01*
X376202Y92135D01*
X376204Y92135D01*
X376205Y92134D01*
X376333Y92068D01*
X376455Y92005D01*
X376456Y92005D01*
X376458Y92004D01*
X376473Y92002D01*
X376734Y91950D01*
X376764Y91953D01*
X376789Y91949D01*
X377103Y91949D01*
X384679Y84372D01*
X384749Y84320D01*
X384813Y84260D01*
X384863Y84234D01*
X384907Y84201D01*
X384988Y84170D01*
X385066Y84130D01*
X385114Y84122D01*
X385172Y84100D01*
X385320Y84088D01*
X385397Y84075D01*
X387061Y84075D01*
X389022Y83263D01*
X390198Y82086D01*
X390268Y82034D01*
X390332Y81974D01*
X390381Y81948D01*
X390426Y81915D01*
X390507Y81884D01*
X390585Y81844D01*
X390633Y81836D01*
X390691Y81814D01*
X390839Y81802D01*
X390916Y81789D01*
X410374Y81789D01*
X410460Y81801D01*
X410548Y81804D01*
X410600Y81821D01*
X410655Y81829D01*
X410735Y81864D01*
X410818Y81891D01*
X410858Y81919D01*
X410915Y81945D01*
X411028Y82041D01*
X411092Y82086D01*
X412268Y83263D01*
X414229Y84075D01*
X416351Y84075D01*
X418312Y83263D01*
X419813Y81762D01*
X420625Y79801D01*
X420625Y77679D01*
X419813Y75718D01*
X418312Y74217D01*
X416351Y73405D01*
X414229Y73405D01*
X412268Y74217D01*
X411092Y75394D01*
X411022Y75446D01*
X410958Y75506D01*
X410909Y75532D01*
X410864Y75565D01*
X410783Y75596D01*
X410705Y75636D01*
X410657Y75644D01*
X410599Y75666D01*
X410451Y75678D01*
X410374Y75691D01*
X390916Y75691D01*
X390830Y75679D01*
X390742Y75676D01*
X390690Y75659D01*
X390635Y75651D01*
X390555Y75616D01*
X390472Y75589D01*
X390432Y75561D01*
X390375Y75535D01*
X390262Y75439D01*
X390198Y75394D01*
X389022Y74217D01*
X387061Y73405D01*
X384939Y73405D01*
G37*
%LPD*%
%LPC*%
G36*
X46729Y130297D02*
X46729Y130297D01*
X44788Y131102D01*
X43302Y132588D01*
X42497Y134529D01*
X42497Y136631D01*
X43302Y138572D01*
X44788Y140058D01*
X46660Y140834D01*
X46709Y140863D01*
X46763Y140884D01*
X46831Y140935D01*
X46905Y140978D01*
X46944Y141020D01*
X46990Y141055D01*
X47041Y141123D01*
X47100Y141185D01*
X47126Y141237D01*
X47161Y141283D01*
X47191Y141362D01*
X47230Y141438D01*
X47241Y141495D01*
X47262Y141549D01*
X47268Y141633D01*
X47285Y141717D01*
X47280Y141774D01*
X47285Y141832D01*
X47268Y141915D01*
X47260Y142000D01*
X47240Y142054D01*
X47228Y142111D01*
X47189Y142186D01*
X47158Y142265D01*
X47124Y142311D01*
X47097Y142363D01*
X47038Y142424D01*
X46987Y142492D01*
X46941Y142527D01*
X46901Y142568D01*
X46840Y142602D01*
X46759Y142662D01*
X46667Y142697D01*
X46607Y142730D01*
X46109Y142904D01*
X45963Y142933D01*
X45887Y142955D01*
X45191Y143033D01*
X44598Y143406D01*
X44462Y143467D01*
X44393Y143505D01*
X43732Y143736D01*
X43237Y144231D01*
X43118Y144321D01*
X43059Y144373D01*
X42466Y144746D01*
X42093Y145339D01*
X41997Y145453D01*
X41951Y145517D01*
X41456Y146012D01*
X41225Y146673D01*
X41156Y146806D01*
X41126Y146878D01*
X40753Y147471D01*
X40675Y148167D01*
X40638Y148312D01*
X40624Y148389D01*
X40393Y149050D01*
X40471Y149746D01*
X40467Y149896D01*
X40471Y149974D01*
X40393Y150670D01*
X40624Y151331D01*
X40653Y151477D01*
X40675Y151553D01*
X40753Y152249D01*
X41126Y152842D01*
X41187Y152978D01*
X41225Y153047D01*
X41456Y153708D01*
X41951Y154203D01*
X42041Y154322D01*
X42093Y154381D01*
X42466Y154974D01*
X43059Y155347D01*
X43173Y155443D01*
X43237Y155489D01*
X43732Y155984D01*
X44393Y156215D01*
X44526Y156284D01*
X44598Y156314D01*
X45191Y156687D01*
X45887Y156765D01*
X46032Y156802D01*
X46109Y156816D01*
X46615Y156993D01*
X46651Y156987D01*
X46745Y156957D01*
X46846Y156954D01*
X46914Y156943D01*
X47406Y156943D01*
X47470Y156952D01*
X47520Y156949D01*
X48255Y157032D01*
X48276Y157020D01*
X48306Y157012D01*
X48333Y156998D01*
X48410Y156985D01*
X48551Y156949D01*
X48615Y156951D01*
X48664Y156943D01*
X57496Y156943D01*
X57526Y156947D01*
X57557Y156945D01*
X57667Y156967D01*
X57777Y156983D01*
X57805Y156995D01*
X57836Y157001D01*
X57893Y157033D01*
X58640Y156949D01*
X58705Y156951D01*
X58754Y156943D01*
X59246Y156943D01*
X59305Y156951D01*
X59364Y156950D01*
X59430Y156969D01*
X59527Y156983D01*
X59548Y156992D01*
X60051Y156816D01*
X60197Y156787D01*
X60273Y156765D01*
X60969Y156687D01*
X61562Y156314D01*
X61698Y156253D01*
X61767Y156215D01*
X62428Y155984D01*
X62923Y155489D01*
X63042Y155399D01*
X63101Y155347D01*
X63694Y154974D01*
X64067Y154381D01*
X64163Y154267D01*
X64209Y154203D01*
X64704Y153708D01*
X64935Y153047D01*
X65004Y152914D01*
X65034Y152842D01*
X65407Y152249D01*
X65485Y151553D01*
X65522Y151408D01*
X65536Y151331D01*
X65767Y150670D01*
X65689Y149974D01*
X65693Y149824D01*
X65689Y149746D01*
X65767Y149050D01*
X65536Y148389D01*
X65507Y148243D01*
X65485Y148167D01*
X65407Y147471D01*
X65034Y146878D01*
X64973Y146742D01*
X64935Y146673D01*
X64704Y146012D01*
X64209Y145517D01*
X64119Y145398D01*
X64067Y145339D01*
X63694Y144746D01*
X63101Y144373D01*
X62987Y144277D01*
X62923Y144231D01*
X62428Y143736D01*
X61767Y143505D01*
X61634Y143436D01*
X61562Y143406D01*
X61316Y143251D01*
X61315Y143251D01*
X60969Y143033D01*
X60273Y142955D01*
X60128Y142918D01*
X60051Y142904D01*
X59545Y142727D01*
X59509Y142733D01*
X59415Y142763D01*
X59314Y142766D01*
X59246Y142777D01*
X58754Y142777D01*
X58690Y142768D01*
X58640Y142771D01*
X57905Y142688D01*
X57884Y142700D01*
X57854Y142708D01*
X57827Y142722D01*
X57750Y142735D01*
X57609Y142771D01*
X57545Y142769D01*
X57496Y142777D01*
X49313Y142777D01*
X49228Y142765D01*
X49142Y142763D01*
X49088Y142745D01*
X49031Y142737D01*
X48953Y142702D01*
X48871Y142676D01*
X48824Y142644D01*
X48772Y142621D01*
X48706Y142566D01*
X48635Y142518D01*
X48598Y142474D01*
X48555Y142438D01*
X48507Y142366D01*
X48452Y142300D01*
X48429Y142248D01*
X48397Y142201D01*
X48371Y142119D01*
X48336Y142040D01*
X48329Y141984D01*
X48311Y141930D01*
X48309Y141844D01*
X48297Y141759D01*
X48306Y141703D01*
X48304Y141646D01*
X48326Y141563D01*
X48338Y141478D01*
X48362Y141426D01*
X48376Y141371D01*
X48420Y141297D01*
X48455Y141218D01*
X48492Y141175D01*
X48521Y141126D01*
X48584Y141067D01*
X48640Y141002D01*
X48681Y140976D01*
X48728Y140932D01*
X48858Y140866D01*
X48924Y140824D01*
X50772Y140058D01*
X52258Y138572D01*
X53063Y136631D01*
X53063Y134529D01*
X52258Y132588D01*
X50772Y131102D01*
X48831Y130297D01*
X46729Y130297D01*
G37*
%LPD*%
%LPC*%
G36*
X47520Y56411D02*
X47520Y56411D01*
X47455Y56409D01*
X47406Y56417D01*
X46914Y56417D01*
X46855Y56409D01*
X46796Y56410D01*
X46730Y56391D01*
X46633Y56377D01*
X46612Y56368D01*
X46109Y56544D01*
X45963Y56573D01*
X45887Y56595D01*
X45191Y56673D01*
X44598Y57046D01*
X44462Y57107D01*
X44393Y57145D01*
X43732Y57376D01*
X43237Y57871D01*
X43153Y57934D01*
X43145Y57941D01*
X43140Y57944D01*
X43118Y57961D01*
X43059Y58013D01*
X42466Y58386D01*
X42093Y58979D01*
X41997Y59093D01*
X41951Y59157D01*
X41456Y59652D01*
X41225Y60313D01*
X41156Y60446D01*
X41126Y60518D01*
X40753Y61111D01*
X40675Y61807D01*
X40638Y61952D01*
X40624Y62029D01*
X40393Y62690D01*
X40471Y63386D01*
X40467Y63536D01*
X40471Y63614D01*
X40393Y64310D01*
X40624Y64971D01*
X40653Y65117D01*
X40675Y65193D01*
X40753Y65889D01*
X41126Y66482D01*
X41187Y66618D01*
X41225Y66687D01*
X41456Y67348D01*
X41951Y67843D01*
X42041Y67962D01*
X42093Y68021D01*
X42466Y68614D01*
X43059Y68987D01*
X43173Y69083D01*
X43237Y69129D01*
X43732Y69624D01*
X44393Y69855D01*
X44526Y69924D01*
X44598Y69954D01*
X45191Y70327D01*
X45887Y70405D01*
X46032Y70443D01*
X46109Y70456D01*
X46607Y70630D01*
X46658Y70656D01*
X46713Y70674D01*
X46784Y70721D01*
X46859Y70760D01*
X46901Y70800D01*
X46949Y70832D01*
X47004Y70897D01*
X47066Y70956D01*
X47095Y71006D01*
X47132Y71050D01*
X47167Y71128D01*
X47210Y71201D01*
X47224Y71257D01*
X47247Y71310D01*
X47259Y71394D01*
X47280Y71476D01*
X47279Y71534D01*
X47286Y71591D01*
X47274Y71675D01*
X47272Y71760D01*
X47254Y71816D01*
X47246Y71873D01*
X47211Y71950D01*
X47185Y72031D01*
X47152Y72079D01*
X47129Y72132D01*
X47074Y72196D01*
X47026Y72267D01*
X46982Y72304D01*
X46944Y72348D01*
X46885Y72385D01*
X46808Y72450D01*
X46718Y72490D01*
X46660Y72526D01*
X44788Y73302D01*
X43302Y74788D01*
X42497Y76729D01*
X42497Y78831D01*
X43302Y80772D01*
X44788Y82258D01*
X46729Y83063D01*
X48831Y83063D01*
X50772Y82258D01*
X52258Y80772D01*
X53063Y78831D01*
X53063Y76729D01*
X52258Y74788D01*
X50772Y73302D01*
X48924Y72536D01*
X48850Y72492D01*
X48772Y72457D01*
X48728Y72420D01*
X48679Y72391D01*
X48620Y72329D01*
X48555Y72273D01*
X48523Y72226D01*
X48484Y72185D01*
X48445Y72108D01*
X48397Y72037D01*
X48380Y71983D01*
X48354Y71932D01*
X48337Y71848D01*
X48311Y71766D01*
X48310Y71709D01*
X48299Y71653D01*
X48306Y71568D01*
X48304Y71482D01*
X48318Y71427D01*
X48323Y71370D01*
X48354Y71290D01*
X48376Y71207D01*
X48405Y71158D01*
X48425Y71105D01*
X48477Y71036D01*
X48521Y70962D01*
X48563Y70923D01*
X48597Y70878D01*
X48666Y70826D01*
X48728Y70768D01*
X48779Y70742D01*
X48825Y70708D01*
X48905Y70677D01*
X48982Y70638D01*
X49030Y70630D01*
X49091Y70607D01*
X49235Y70596D01*
X49313Y70583D01*
X57496Y70583D01*
X57526Y70587D01*
X57557Y70585D01*
X57667Y70607D01*
X57777Y70623D01*
X57805Y70635D01*
X57835Y70641D01*
X57893Y70673D01*
X58640Y70589D01*
X58705Y70591D01*
X58754Y70583D01*
X59246Y70583D01*
X59305Y70591D01*
X59364Y70590D01*
X59430Y70609D01*
X59527Y70623D01*
X59548Y70632D01*
X60051Y70456D01*
X60197Y70427D01*
X60273Y70405D01*
X60969Y70327D01*
X61562Y69954D01*
X61698Y69893D01*
X61767Y69855D01*
X62428Y69624D01*
X62923Y69129D01*
X63043Y69039D01*
X63101Y68987D01*
X63694Y68614D01*
X64067Y68021D01*
X64163Y67907D01*
X64209Y67843D01*
X64704Y67348D01*
X64935Y66687D01*
X65004Y66554D01*
X65034Y66482D01*
X65407Y65889D01*
X65485Y65193D01*
X65523Y65048D01*
X65536Y64971D01*
X65767Y64310D01*
X65689Y63614D01*
X65693Y63464D01*
X65689Y63386D01*
X65767Y62690D01*
X65536Y62029D01*
X65507Y61883D01*
X65485Y61807D01*
X65407Y61111D01*
X65034Y60518D01*
X64973Y60382D01*
X64935Y60313D01*
X64704Y59652D01*
X64209Y59157D01*
X64119Y59038D01*
X64067Y58979D01*
X63694Y58386D01*
X63101Y58013D01*
X62987Y57917D01*
X62923Y57871D01*
X62428Y57376D01*
X61767Y57145D01*
X61634Y57076D01*
X61562Y57046D01*
X61417Y56955D01*
X60969Y56673D01*
X60273Y56595D01*
X60128Y56558D01*
X60051Y56544D01*
X59545Y56367D01*
X59509Y56373D01*
X59415Y56403D01*
X59314Y56406D01*
X59246Y56417D01*
X58754Y56417D01*
X58690Y56408D01*
X58640Y56411D01*
X57905Y56328D01*
X57884Y56340D01*
X57854Y56348D01*
X57827Y56362D01*
X57750Y56375D01*
X57609Y56411D01*
X57545Y56409D01*
X57496Y56417D01*
X48664Y56417D01*
X48634Y56413D01*
X48603Y56415D01*
X48493Y56393D01*
X48383Y56377D01*
X48355Y56365D01*
X48324Y56359D01*
X48267Y56327D01*
X47520Y56411D01*
G37*
%LPD*%
%LPC*%
G36*
X376053Y104774D02*
X376053Y104774D01*
X373952Y105644D01*
X372344Y107252D01*
X371474Y109353D01*
X371474Y111627D01*
X372344Y113728D01*
X373952Y115336D01*
X376053Y116206D01*
X378174Y116206D01*
X378260Y116218D01*
X378348Y116221D01*
X378400Y116238D01*
X378455Y116246D01*
X378535Y116281D01*
X378618Y116308D01*
X378657Y116336D01*
X378715Y116362D01*
X378828Y116458D01*
X378892Y116503D01*
X385542Y123153D01*
X385543Y123154D01*
X385544Y123155D01*
X385630Y123270D01*
X385713Y123380D01*
X385713Y123382D01*
X385714Y123383D01*
X385764Y123517D01*
X385814Y123646D01*
X385814Y123648D01*
X385814Y123649D01*
X385826Y123794D01*
X385837Y123929D01*
X385837Y123931D01*
X385837Y123932D01*
X385834Y123948D01*
X385781Y124208D01*
X385767Y124235D01*
X385762Y124260D01*
X385317Y125333D01*
X385317Y128667D01*
X386593Y131749D01*
X388951Y134107D01*
X392033Y135383D01*
X395367Y135383D01*
X398449Y134107D01*
X400807Y131749D01*
X402083Y128667D01*
X402083Y125333D01*
X400807Y122251D01*
X398449Y119893D01*
X395367Y118617D01*
X392033Y118617D01*
X390960Y119062D01*
X390958Y119062D01*
X390957Y119063D01*
X390822Y119097D01*
X390684Y119133D01*
X390683Y119133D01*
X390681Y119133D01*
X390541Y119129D01*
X390400Y119124D01*
X390399Y119124D01*
X390397Y119124D01*
X390263Y119081D01*
X390129Y119038D01*
X390128Y119037D01*
X390127Y119036D01*
X390115Y119028D01*
X389893Y118880D01*
X389873Y118856D01*
X389853Y118842D01*
X383203Y112192D01*
X383151Y112122D01*
X383091Y112058D01*
X383065Y112008D01*
X383032Y111964D01*
X383001Y111883D01*
X382961Y111805D01*
X382953Y111757D01*
X382931Y111699D01*
X382919Y111551D01*
X382906Y111474D01*
X382906Y109353D01*
X382036Y107252D01*
X380428Y105644D01*
X378327Y104774D01*
X376053Y104774D01*
G37*
%LPD*%
%LPC*%
G36*
X293579Y101345D02*
X293579Y101345D01*
X291618Y102157D01*
X290117Y103658D01*
X289305Y105619D01*
X289305Y107741D01*
X290117Y109702D01*
X291618Y111203D01*
X293579Y112015D01*
X295243Y112015D01*
X295329Y112027D01*
X295417Y112030D01*
X295469Y112047D01*
X295524Y112055D01*
X295604Y112090D01*
X295687Y112117D01*
X295726Y112145D01*
X295784Y112171D01*
X295897Y112267D01*
X295961Y112312D01*
X301454Y117805D01*
X301506Y117875D01*
X301566Y117939D01*
X301592Y117989D01*
X301625Y118033D01*
X301656Y118114D01*
X301696Y118192D01*
X301704Y118240D01*
X301726Y118298D01*
X301738Y118446D01*
X301751Y118523D01*
X301751Y132244D01*
X301743Y132301D01*
X301745Y132356D01*
X301737Y132384D01*
X301736Y132418D01*
X301719Y132471D01*
X301711Y132525D01*
X301685Y132585D01*
X301673Y132631D01*
X301661Y132651D01*
X301649Y132688D01*
X301621Y132728D01*
X301595Y132785D01*
X301549Y132839D01*
X301528Y132875D01*
X301491Y132909D01*
X301454Y132962D01*
X300277Y134138D01*
X299465Y136099D01*
X299465Y138221D01*
X300277Y140182D01*
X301778Y141683D01*
X303739Y142495D01*
X305861Y142495D01*
X307822Y141683D01*
X309323Y140182D01*
X310135Y138221D01*
X310135Y136099D01*
X309323Y134138D01*
X308146Y132962D01*
X308120Y132926D01*
X308106Y132915D01*
X308084Y132881D01*
X308034Y132828D01*
X308008Y132779D01*
X307975Y132734D01*
X307961Y132697D01*
X307948Y132678D01*
X307934Y132634D01*
X307904Y132575D01*
X307896Y132527D01*
X307874Y132469D01*
X307871Y132434D01*
X307863Y132407D01*
X307860Y132313D01*
X307849Y132244D01*
X307849Y115577D01*
X300272Y108001D01*
X300220Y107931D01*
X300160Y107867D01*
X300134Y107817D01*
X300101Y107773D01*
X300070Y107692D01*
X300030Y107614D01*
X300022Y107566D01*
X300000Y107508D01*
X299988Y107360D01*
X299975Y107283D01*
X299975Y105619D01*
X299163Y103658D01*
X297662Y102157D01*
X295701Y101345D01*
X293579Y101345D01*
G37*
%LPD*%
%LPC*%
G36*
X239304Y267767D02*
X239304Y267767D01*
X235617Y269295D01*
X232795Y272117D01*
X231267Y275804D01*
X231267Y279796D01*
X232795Y283483D01*
X235617Y286305D01*
X239304Y287833D01*
X243296Y287833D01*
X246983Y286305D01*
X249805Y283483D01*
X251333Y279796D01*
X251333Y275804D01*
X249805Y272117D01*
X246983Y269295D01*
X243296Y267767D01*
X239304Y267767D01*
G37*
%LPD*%
G36*
X58583Y144813D02*
X58583Y144813D01*
X58586Y144811D01*
X59698Y144936D01*
X59704Y144942D01*
X59709Y144939D01*
X60766Y145309D01*
X60770Y145316D01*
X60776Y145313D01*
X61724Y145909D01*
X61727Y145917D01*
X61732Y145916D01*
X62524Y146708D01*
X62525Y146716D01*
X62531Y146716D01*
X63127Y147664D01*
X63126Y147673D01*
X63131Y147674D01*
X63501Y148731D01*
X63500Y148735D01*
X63502Y148737D01*
X63500Y148740D01*
X63504Y148742D01*
X63629Y149855D01*
X63625Y149862D01*
X63629Y149866D01*
X63504Y150978D01*
X63498Y150984D01*
X63501Y150989D01*
X63131Y152046D01*
X63125Y152050D01*
X63127Y152056D01*
X62531Y153004D01*
X62523Y153007D01*
X62524Y153012D01*
X61732Y153804D01*
X61724Y153805D01*
X61724Y153811D01*
X60776Y154407D01*
X60767Y154406D01*
X60766Y154411D01*
X59709Y154781D01*
X59701Y154779D01*
X59698Y154784D01*
X58586Y154909D01*
X58582Y154907D01*
X58580Y154909D01*
X47580Y154909D01*
X47577Y154907D01*
X47576Y154907D01*
X47575Y154909D01*
X46462Y154784D01*
X46456Y154778D01*
X46451Y154781D01*
X45394Y154411D01*
X45390Y154405D01*
X45384Y154407D01*
X44436Y153811D01*
X44433Y153803D01*
X44428Y153804D01*
X43636Y153012D01*
X43635Y153004D01*
X43629Y153004D01*
X43033Y152056D01*
X43034Y152047D01*
X43029Y152046D01*
X42659Y150989D01*
X42661Y150983D01*
X42657Y150980D01*
X42658Y150979D01*
X42656Y150978D01*
X42531Y149866D01*
X42535Y149858D01*
X42531Y149855D01*
X42656Y148742D01*
X42662Y148736D01*
X42659Y148731D01*
X43029Y147674D01*
X43036Y147670D01*
X43033Y147664D01*
X43629Y146716D01*
X43637Y146713D01*
X43636Y146708D01*
X44428Y145916D01*
X44436Y145915D01*
X44436Y145909D01*
X45384Y145313D01*
X45393Y145314D01*
X45394Y145309D01*
X46451Y144939D01*
X46459Y144941D01*
X46462Y144936D01*
X47575Y144811D01*
X47578Y144813D01*
X47580Y144811D01*
X58580Y144811D01*
X58583Y144813D01*
G37*
G36*
X58583Y58453D02*
X58583Y58453D01*
X58586Y58451D01*
X59698Y58576D01*
X59704Y58582D01*
X59709Y58579D01*
X60766Y58949D01*
X60770Y58956D01*
X60776Y58953D01*
X61724Y59549D01*
X61727Y59557D01*
X61732Y59556D01*
X62524Y60348D01*
X62525Y60356D01*
X62531Y60356D01*
X63127Y61304D01*
X63126Y61313D01*
X63131Y61314D01*
X63501Y62371D01*
X63500Y62375D01*
X63502Y62377D01*
X63500Y62380D01*
X63504Y62382D01*
X63629Y63495D01*
X63625Y63502D01*
X63629Y63506D01*
X63504Y64618D01*
X63498Y64624D01*
X63501Y64629D01*
X63131Y65686D01*
X63125Y65690D01*
X63127Y65696D01*
X62531Y66644D01*
X62523Y66647D01*
X62524Y66652D01*
X61732Y67444D01*
X61724Y67445D01*
X61724Y67451D01*
X60776Y68047D01*
X60767Y68046D01*
X60766Y68051D01*
X59709Y68421D01*
X59701Y68419D01*
X59698Y68424D01*
X58586Y68549D01*
X58582Y68547D01*
X58580Y68549D01*
X47580Y68549D01*
X47577Y68547D01*
X47576Y68547D01*
X47575Y68549D01*
X46462Y68424D01*
X46456Y68418D01*
X46451Y68421D01*
X45394Y68051D01*
X45390Y68045D01*
X45384Y68047D01*
X44436Y67451D01*
X44433Y67443D01*
X44428Y67444D01*
X43636Y66652D01*
X43635Y66644D01*
X43629Y66644D01*
X43033Y65696D01*
X43034Y65687D01*
X43029Y65686D01*
X42659Y64629D01*
X42661Y64623D01*
X42657Y64620D01*
X42658Y64619D01*
X42656Y64618D01*
X42531Y63506D01*
X42535Y63498D01*
X42531Y63495D01*
X42656Y62382D01*
X42662Y62376D01*
X42659Y62371D01*
X43029Y61314D01*
X43036Y61310D01*
X43033Y61304D01*
X43629Y60356D01*
X43637Y60353D01*
X43636Y60348D01*
X44428Y59556D01*
X44436Y59555D01*
X44436Y59549D01*
X45384Y58953D01*
X45393Y58954D01*
X45394Y58949D01*
X46451Y58579D01*
X46459Y58581D01*
X46462Y58576D01*
X47575Y58451D01*
X47578Y58453D01*
X47580Y58451D01*
X58580Y58451D01*
X58583Y58453D01*
G37*
G36*
X14283Y144813D02*
X14283Y144813D01*
X14286Y144811D01*
X15398Y144936D01*
X15404Y144942D01*
X15409Y144939D01*
X16466Y145309D01*
X16470Y145316D01*
X16476Y145313D01*
X17424Y145909D01*
X17427Y145917D01*
X17432Y145916D01*
X18224Y146708D01*
X18225Y146716D01*
X18231Y146716D01*
X18827Y147664D01*
X18826Y147673D01*
X18831Y147674D01*
X19201Y148731D01*
X19200Y148735D01*
X19202Y148737D01*
X19200Y148740D01*
X19204Y148742D01*
X19329Y149855D01*
X19325Y149862D01*
X19329Y149866D01*
X19204Y150978D01*
X19198Y150984D01*
X19201Y150989D01*
X18831Y152046D01*
X18825Y152050D01*
X18827Y152056D01*
X18231Y153004D01*
X18223Y153007D01*
X18224Y153012D01*
X17432Y153804D01*
X17424Y153805D01*
X17424Y153811D01*
X16476Y154407D01*
X16467Y154406D01*
X16466Y154411D01*
X15409Y154781D01*
X15401Y154779D01*
X15398Y154784D01*
X14286Y154909D01*
X14282Y154907D01*
X14280Y154909D01*
X8280Y154909D01*
X8277Y154907D01*
X8276Y154907D01*
X8275Y154909D01*
X7162Y154784D01*
X7156Y154778D01*
X7151Y154781D01*
X6094Y154411D01*
X6090Y154405D01*
X6084Y154407D01*
X5136Y153811D01*
X5133Y153803D01*
X5128Y153804D01*
X4336Y153012D01*
X4335Y153004D01*
X4329Y153004D01*
X3733Y152056D01*
X3734Y152047D01*
X3729Y152046D01*
X3359Y150989D01*
X3361Y150983D01*
X3357Y150980D01*
X3358Y150979D01*
X3356Y150978D01*
X3231Y149866D01*
X3235Y149858D01*
X3231Y149855D01*
X3356Y148742D01*
X3362Y148736D01*
X3359Y148731D01*
X3729Y147674D01*
X3736Y147670D01*
X3733Y147664D01*
X4329Y146716D01*
X4337Y146713D01*
X4336Y146708D01*
X5128Y145916D01*
X5136Y145915D01*
X5136Y145909D01*
X6084Y145313D01*
X6093Y145314D01*
X6094Y145309D01*
X7151Y144939D01*
X7159Y144941D01*
X7162Y144936D01*
X8275Y144811D01*
X8278Y144813D01*
X8280Y144811D01*
X14280Y144811D01*
X14283Y144813D01*
G37*
G36*
X14283Y58453D02*
X14283Y58453D01*
X14286Y58451D01*
X15398Y58576D01*
X15404Y58582D01*
X15409Y58579D01*
X16466Y58949D01*
X16470Y58956D01*
X16476Y58953D01*
X17424Y59549D01*
X17427Y59557D01*
X17432Y59556D01*
X18224Y60348D01*
X18225Y60356D01*
X18231Y60356D01*
X18827Y61304D01*
X18826Y61313D01*
X18831Y61314D01*
X19201Y62371D01*
X19200Y62375D01*
X19202Y62377D01*
X19200Y62380D01*
X19204Y62382D01*
X19329Y63495D01*
X19325Y63502D01*
X19329Y63506D01*
X19204Y64618D01*
X19198Y64624D01*
X19201Y64629D01*
X18831Y65686D01*
X18825Y65690D01*
X18827Y65696D01*
X18231Y66644D01*
X18223Y66647D01*
X18224Y66652D01*
X17432Y67444D01*
X17424Y67445D01*
X17424Y67451D01*
X16476Y68047D01*
X16467Y68046D01*
X16466Y68051D01*
X15409Y68421D01*
X15401Y68419D01*
X15398Y68424D01*
X14286Y68549D01*
X14282Y68547D01*
X14280Y68549D01*
X8280Y68549D01*
X8277Y68547D01*
X8276Y68547D01*
X8275Y68549D01*
X7162Y68424D01*
X7156Y68418D01*
X7151Y68421D01*
X6094Y68051D01*
X6090Y68045D01*
X6084Y68047D01*
X5136Y67451D01*
X5133Y67443D01*
X5128Y67444D01*
X4336Y66652D01*
X4335Y66644D01*
X4329Y66644D01*
X3733Y65696D01*
X3734Y65687D01*
X3729Y65686D01*
X3359Y64629D01*
X3361Y64623D01*
X3357Y64620D01*
X3358Y64619D01*
X3356Y64618D01*
X3231Y63506D01*
X3235Y63498D01*
X3231Y63495D01*
X3356Y62382D01*
X3362Y62376D01*
X3359Y62371D01*
X3729Y61314D01*
X3736Y61310D01*
X3733Y61304D01*
X4329Y60356D01*
X4337Y60353D01*
X4336Y60348D01*
X5128Y59556D01*
X5136Y59555D01*
X5136Y59549D01*
X6084Y58953D01*
X6093Y58954D01*
X6094Y58949D01*
X7151Y58579D01*
X7159Y58581D01*
X7162Y58576D01*
X8275Y58451D01*
X8278Y58453D01*
X8280Y58451D01*
X14280Y58451D01*
X14283Y58453D01*
G37*
%LPC*%
G36*
X14731Y173481D02*
X14731Y173481D01*
X14731Y183216D01*
X15496Y183095D01*
X17283Y182514D01*
X18957Y181661D01*
X20478Y180556D01*
X21806Y179228D01*
X22911Y177707D01*
X23764Y176033D01*
X24345Y174246D01*
X24466Y173481D01*
X14731Y173481D01*
G37*
%LPD*%
%LPC*%
G36*
X256031Y340869D02*
X256031Y340869D01*
X265766Y340869D01*
X265645Y340104D01*
X265064Y338317D01*
X264211Y336643D01*
X263106Y335122D01*
X261778Y333794D01*
X260257Y332689D01*
X258583Y331836D01*
X256796Y331255D01*
X256031Y331134D01*
X256031Y340869D01*
G37*
%LPD*%
%LPC*%
G36*
X14731Y169419D02*
X14731Y169419D01*
X24466Y169419D01*
X24345Y168654D01*
X23764Y166867D01*
X22911Y165193D01*
X21806Y163672D01*
X20478Y162344D01*
X18957Y161239D01*
X17283Y160386D01*
X15496Y159805D01*
X14731Y159684D01*
X14731Y169419D01*
G37*
%LPD*%
%LPC*%
G36*
X251204Y331255D02*
X251204Y331255D01*
X249417Y331836D01*
X247743Y332689D01*
X246222Y333794D01*
X244894Y335122D01*
X243789Y336643D01*
X242936Y338317D01*
X242355Y340104D01*
X242234Y340869D01*
X251969Y340869D01*
X251969Y331134D01*
X251204Y331255D01*
G37*
%LPD*%
G36*
X106953Y76848D02*
X106953Y76848D01*
X106975Y76851D01*
X106982Y76867D01*
X106991Y76873D01*
X106990Y76883D01*
X106997Y76899D01*
X106997Y85725D01*
X106985Y85744D01*
X106981Y85766D01*
X106966Y85773D01*
X106960Y85782D01*
X106950Y85781D01*
X106934Y85788D01*
X101346Y85788D01*
X101327Y85776D01*
X101305Y85772D01*
X101298Y85757D01*
X101289Y85751D01*
X101290Y85741D01*
X101283Y85725D01*
X101283Y76899D01*
X101295Y76880D01*
X101299Y76857D01*
X101314Y76850D01*
X101320Y76841D01*
X101330Y76843D01*
X101346Y76836D01*
X106934Y76836D01*
X106953Y76848D01*
G37*
G36*
X159404Y335229D02*
X159404Y335229D01*
X159426Y335233D01*
X159433Y335248D01*
X159442Y335254D01*
X159441Y335264D01*
X159448Y335280D01*
X159448Y337820D01*
X159436Y337839D01*
X159432Y337861D01*
X159417Y337868D01*
X159411Y337877D01*
X159401Y337876D01*
X159385Y337883D01*
X150559Y337883D01*
X150540Y337871D01*
X150517Y337867D01*
X150510Y337852D01*
X150501Y337846D01*
X150503Y337836D01*
X150496Y337820D01*
X150496Y335280D01*
X150508Y335261D01*
X150511Y335239D01*
X150527Y335232D01*
X150533Y335223D01*
X150543Y335224D01*
X150559Y335217D01*
X159385Y335217D01*
X159404Y335229D01*
G37*
%LPC*%
G36*
X440729Y137599D02*
X440729Y137599D01*
X440729Y137601D01*
X440731Y137601D01*
X440731Y137599D01*
X440729Y137599D01*
G37*
%LPD*%
D10*
X89599Y11853D02*
X87341Y5080D01*
X85083Y11853D01*
X79876Y10160D02*
X79874Y10360D01*
X79866Y10560D01*
X79855Y10759D01*
X79838Y10958D01*
X79816Y11157D01*
X79790Y11355D01*
X79759Y11553D01*
X79724Y11749D01*
X79683Y11945D01*
X79639Y12140D01*
X79589Y12334D01*
X79535Y12526D01*
X79476Y12717D01*
X79413Y12907D01*
X79345Y13095D01*
X79273Y13281D01*
X79196Y13466D01*
X79115Y13648D01*
X79029Y13829D01*
X78998Y13913D01*
X78964Y13995D01*
X78926Y14076D01*
X78885Y14156D01*
X78840Y14233D01*
X78793Y14308D01*
X78742Y14382D01*
X78687Y14453D01*
X78630Y14521D01*
X78570Y14588D01*
X78507Y14651D01*
X78442Y14712D01*
X78374Y14770D01*
X78304Y14825D01*
X78231Y14877D01*
X78156Y14925D01*
X78079Y14971D01*
X78001Y15013D01*
X77920Y15052D01*
X77838Y15087D01*
X77755Y15119D01*
X77670Y15147D01*
X77584Y15172D01*
X77497Y15192D01*
X77410Y15210D01*
X77321Y15223D01*
X77232Y15232D01*
X77143Y15238D01*
X77054Y15240D01*
X76965Y15238D01*
X76876Y15232D01*
X76787Y15223D01*
X76698Y15210D01*
X76611Y15192D01*
X76524Y15172D01*
X76438Y15147D01*
X76353Y15119D01*
X76270Y15087D01*
X76188Y15052D01*
X76107Y15013D01*
X76029Y14971D01*
X75952Y14925D01*
X75877Y14877D01*
X75804Y14825D01*
X75734Y14770D01*
X75666Y14712D01*
X75601Y14651D01*
X75538Y14588D01*
X75478Y14521D01*
X75421Y14453D01*
X75366Y14382D01*
X75315Y14308D01*
X75268Y14233D01*
X75223Y14156D01*
X75182Y14076D01*
X75144Y13995D01*
X75110Y13913D01*
X75079Y13829D01*
X74993Y13648D01*
X74912Y13465D01*
X74835Y13281D01*
X74763Y13094D01*
X74695Y12906D01*
X74632Y12717D01*
X74573Y12526D01*
X74519Y12333D01*
X74469Y12140D01*
X74425Y11945D01*
X74384Y11749D01*
X74349Y11553D01*
X74318Y11355D01*
X74292Y11157D01*
X74270Y10958D01*
X74253Y10759D01*
X74242Y10560D01*
X74234Y10360D01*
X74232Y10160D01*
X79876Y10160D02*
X79874Y9960D01*
X79866Y9760D01*
X79855Y9561D01*
X79838Y9362D01*
X79816Y9163D01*
X79790Y8965D01*
X79759Y8767D01*
X79724Y8571D01*
X79683Y8375D01*
X79639Y8180D01*
X79589Y7986D01*
X79535Y7794D01*
X79476Y7603D01*
X79413Y7413D01*
X79345Y7225D01*
X79273Y7039D01*
X79196Y6854D01*
X79115Y6672D01*
X79029Y6491D01*
X78998Y6407D01*
X78964Y6325D01*
X78926Y6244D01*
X78885Y6164D01*
X78840Y6087D01*
X78793Y6012D01*
X78741Y5938D01*
X78687Y5867D01*
X78630Y5799D01*
X78570Y5732D01*
X78507Y5669D01*
X78442Y5608D01*
X78374Y5550D01*
X78304Y5495D01*
X78231Y5443D01*
X78156Y5395D01*
X78079Y5349D01*
X78001Y5307D01*
X77920Y5268D01*
X77838Y5233D01*
X77755Y5201D01*
X77670Y5173D01*
X77584Y5148D01*
X77497Y5128D01*
X77410Y5110D01*
X77321Y5097D01*
X77232Y5088D01*
X77143Y5082D01*
X77054Y5080D01*
X75078Y6491D02*
X74992Y6672D01*
X74911Y6854D01*
X74834Y7039D01*
X74762Y7225D01*
X74694Y7413D01*
X74631Y7603D01*
X74572Y7794D01*
X74518Y7986D01*
X74468Y8180D01*
X74424Y8375D01*
X74383Y8571D01*
X74348Y8767D01*
X74317Y8965D01*
X74291Y9163D01*
X74269Y9362D01*
X74252Y9561D01*
X74241Y9760D01*
X74233Y9960D01*
X74231Y10160D01*
X75079Y6491D02*
X75110Y6407D01*
X75144Y6325D01*
X75182Y6244D01*
X75223Y6164D01*
X75268Y6087D01*
X75315Y6012D01*
X75367Y5938D01*
X75421Y5867D01*
X75478Y5799D01*
X75538Y5732D01*
X75601Y5669D01*
X75666Y5608D01*
X75734Y5550D01*
X75804Y5495D01*
X75877Y5443D01*
X75952Y5395D01*
X76029Y5349D01*
X76107Y5307D01*
X76188Y5268D01*
X76270Y5233D01*
X76353Y5201D01*
X76438Y5173D01*
X76524Y5148D01*
X76611Y5128D01*
X76698Y5110D01*
X76787Y5097D01*
X76876Y5088D01*
X76965Y5082D01*
X77054Y5080D01*
X79312Y7338D02*
X74796Y12982D01*
X68446Y12982D02*
X65624Y15240D01*
X65624Y5080D01*
X68446Y5080D02*
X62802Y5080D01*
D11*
X15058Y149860D02*
X7502Y149860D01*
X7502Y63500D02*
X15058Y63500D01*
X49302Y63500D02*
X56858Y63500D01*
X56858Y149860D02*
X49302Y149860D01*
D12*
X7620Y7620D03*
X792480Y349250D03*
D13*
X440730Y137600D03*
D14*
X157607Y336550D03*
X147193Y336550D03*
D15*
X104140Y83820D03*
X104140Y73660D03*
D16*
X104140Y91440D03*
X104140Y66040D03*
D17*
X169164Y165100D03*
X161036Y165100D03*
X60706Y215900D03*
X68834Y215900D03*
D18*
X368300Y88900D03*
X393700Y127000D03*
D16*
X12700Y196850D03*
X12700Y171450D03*
X254000Y342900D03*
X279400Y342900D03*
X304800Y342900D03*
X330200Y342900D03*
X355600Y342900D03*
X381000Y342900D03*
X406400Y342900D03*
X431800Y342900D03*
D19*
X520700Y279400D03*
X723900Y279400D03*
X520700Y76200D03*
X723900Y76200D03*
D20*
X175260Y279400D03*
X38100Y241300D03*
X165100Y215900D03*
X148590Y190500D03*
X88900Y152400D03*
X88900Y72390D03*
X158750Y12700D03*
X171450Y76200D03*
X203200Y101600D03*
X365760Y35560D03*
X204470Y166370D03*
X246380Y172720D03*
D21*
X104140Y73660D02*
X104140Y66040D01*
D22*
X180340Y66040D01*
X203200Y88900D01*
D20*
X237625Y90035D03*
D21*
X236490Y88900D01*
D22*
X203200Y88900D01*
X147193Y323977D02*
X147193Y336550D01*
X147193Y323977D02*
X158750Y312420D01*
X203200Y312420D01*
D20*
X235077Y260477D03*
D22*
X226681Y260477D01*
X223140Y264018D01*
X223140Y292480D02*
X203200Y312420D01*
X223140Y292480D02*
X223140Y264018D01*
D23*
X375920Y34290D03*
D22*
X387350Y22860D01*
D23*
X467360Y22860D03*
D22*
X387350Y22860D01*
D20*
X76200Y111730D03*
D21*
X107950Y111730D01*
X121890Y97790D01*
X165100Y97790D01*
D20*
X165100Y97790D03*
X170180Y90170D03*
D21*
X123190Y90170D01*
X109220Y104140D01*
X68910Y104140D01*
D20*
X68910Y104140D03*
X34290Y190500D03*
D22*
X34290Y208280D01*
X53340Y227330D01*
X83820Y223520D02*
X119380Y223520D01*
X83820Y223520D02*
X80010Y227330D01*
X53340Y227330D01*
D20*
X119380Y223520D03*
X107950Y298450D03*
D22*
X119380Y287020D01*
X119380Y223520D01*
D20*
X250190Y100330D03*
X219710Y99060D03*
D21*
X220980Y100330D01*
X250190Y100330D01*
D20*
X176530Y323850D03*
D21*
X176530Y330327D01*
X170307Y336550D01*
X157607Y336550D01*
D20*
X77470Y210820D03*
D22*
X72390Y215900D01*
X68834Y215900D01*
D20*
X139700Y106680D03*
D22*
X121920Y106680D01*
X106680Y121920D02*
X99060Y121920D01*
X95250Y125730D01*
X95250Y142240D01*
X97885Y144875D02*
X102965Y144875D01*
X97885Y144875D02*
X95250Y142240D01*
D20*
X102965Y144875D03*
D22*
X106680Y121920D02*
X121920Y106680D01*
D21*
X104140Y91440D02*
X104140Y83820D01*
D20*
X242570Y110490D03*
D21*
X242570Y118110D01*
X195580Y165100D01*
X169164Y165100D01*
D20*
X157480Y152400D03*
D22*
X161036Y155956D01*
X161036Y165100D01*
D20*
X12700Y264160D03*
D22*
X12700Y196850D01*
D20*
X415290Y78740D03*
D21*
X386000Y78740D01*
D20*
X386000Y78740D03*
D21*
X375840Y88900D01*
X368300Y88900D01*
X377190Y110490D02*
X393700Y127000D01*
D23*
X377190Y110490D03*
D20*
X304800Y137160D03*
D21*
X304800Y116840D01*
X294640Y106680D01*
D20*
X294640Y106680D03*
D21*
X208280Y226060D02*
X387350Y226060D01*
X208280Y226060D02*
X208280Y226187D01*
D20*
X208280Y226187D03*
D21*
X406400Y245110D02*
X406400Y342900D01*
X406400Y245110D02*
X387350Y226060D01*
X431800Y250190D02*
X431800Y342900D01*
X401320Y219710D02*
X201930Y219710D01*
D20*
X201930Y219710D03*
D21*
X401320Y219710D02*
X431800Y250190D01*
X381000Y250190D02*
X381000Y342900D01*
X381000Y250190D02*
X363093Y232283D01*
X202522Y232283D01*
D20*
X202522Y232283D03*
D21*
X355600Y252730D02*
X355600Y342900D01*
X341249Y238379D02*
X210820Y238379D01*
D20*
X210820Y238379D03*
D21*
X341249Y238379D02*
X355600Y252730D01*
D23*
X52070Y213360D03*
D22*
X54610Y215900D01*
X60706Y215900D01*
M02*
