G04 EAGLE Gerber RS-274X export*
G75*
%MOMM*%
%FSLAX34Y34*%
%LPD*%
%INSoldermask Bottom*%
%IPPOS*%
%AMOC8*
5,1,8,0,0,1.08239X$1,22.5*%
G01*
%ADD10C,0.853200*%
%ADD11C,0.838200*%
%ADD12C,3.505200*%
%ADD13C,6.203200*%
%ADD14R,0.863600X1.473200*%
%ADD15C,1.303200*%
%ADD16C,1.803200*%
%ADD17R,0.838200X1.473200*%
%ADD18C,2.082800*%
%ADD19C,1.203200*%
%ADD20C,1.270000*%
%ADD21C,1.703200*%

G36*
X857950Y768743D02*
X857950Y768743D01*
X858016Y768745D01*
X858059Y768763D01*
X858106Y768771D01*
X858163Y768805D01*
X858223Y768830D01*
X858258Y768861D01*
X858299Y768886D01*
X858341Y768937D01*
X858389Y768981D01*
X858411Y769023D01*
X858440Y769060D01*
X858461Y769122D01*
X858492Y769181D01*
X858500Y769235D01*
X858512Y769272D01*
X858511Y769312D01*
X858519Y769366D01*
X858519Y774954D01*
X858508Y775019D01*
X858506Y775085D01*
X858488Y775128D01*
X858480Y775175D01*
X858446Y775232D01*
X858421Y775292D01*
X858390Y775327D01*
X858365Y775368D01*
X858314Y775410D01*
X858270Y775458D01*
X858228Y775480D01*
X858191Y775509D01*
X858129Y775530D01*
X858070Y775561D01*
X858016Y775569D01*
X857979Y775581D01*
X857939Y775580D01*
X857885Y775588D01*
X854075Y775588D01*
X854010Y775577D01*
X853944Y775575D01*
X853901Y775557D01*
X853854Y775549D01*
X853797Y775515D01*
X853737Y775490D01*
X853702Y775459D01*
X853661Y775434D01*
X853620Y775383D01*
X853571Y775339D01*
X853549Y775297D01*
X853520Y775260D01*
X853499Y775198D01*
X853468Y775139D01*
X853460Y775085D01*
X853448Y775048D01*
X853449Y775008D01*
X853441Y774954D01*
X853441Y769366D01*
X853452Y769301D01*
X853454Y769235D01*
X853472Y769192D01*
X853480Y769145D01*
X853514Y769088D01*
X853539Y769028D01*
X853570Y768993D01*
X853595Y768952D01*
X853646Y768911D01*
X853690Y768862D01*
X853732Y768840D01*
X853769Y768811D01*
X853831Y768790D01*
X853890Y768759D01*
X853944Y768751D01*
X853981Y768739D01*
X854021Y768740D01*
X854075Y768732D01*
X857885Y768732D01*
X857950Y768743D01*
G37*
G36*
X52770Y768743D02*
X52770Y768743D01*
X52836Y768745D01*
X52879Y768763D01*
X52926Y768771D01*
X52983Y768805D01*
X53043Y768830D01*
X53078Y768861D01*
X53119Y768886D01*
X53161Y768937D01*
X53209Y768981D01*
X53231Y769023D01*
X53260Y769060D01*
X53281Y769122D01*
X53312Y769181D01*
X53320Y769235D01*
X53332Y769272D01*
X53331Y769312D01*
X53339Y769366D01*
X53339Y774954D01*
X53328Y775019D01*
X53326Y775085D01*
X53308Y775128D01*
X53300Y775175D01*
X53266Y775232D01*
X53241Y775292D01*
X53210Y775327D01*
X53185Y775368D01*
X53134Y775410D01*
X53090Y775458D01*
X53048Y775480D01*
X53011Y775509D01*
X52949Y775530D01*
X52890Y775561D01*
X52836Y775569D01*
X52799Y775581D01*
X52759Y775580D01*
X52705Y775588D01*
X48895Y775588D01*
X48830Y775577D01*
X48764Y775575D01*
X48721Y775557D01*
X48674Y775549D01*
X48617Y775515D01*
X48557Y775490D01*
X48522Y775459D01*
X48481Y775434D01*
X48440Y775383D01*
X48391Y775339D01*
X48369Y775297D01*
X48340Y775260D01*
X48319Y775198D01*
X48288Y775139D01*
X48280Y775085D01*
X48268Y775048D01*
X48269Y775008D01*
X48261Y774954D01*
X48261Y769366D01*
X48272Y769301D01*
X48274Y769235D01*
X48292Y769192D01*
X48300Y769145D01*
X48334Y769088D01*
X48359Y769028D01*
X48390Y768993D01*
X48415Y768952D01*
X48466Y768911D01*
X48510Y768862D01*
X48552Y768840D01*
X48589Y768811D01*
X48651Y768790D01*
X48710Y768759D01*
X48764Y768751D01*
X48801Y768739D01*
X48841Y768740D01*
X48895Y768732D01*
X52705Y768732D01*
X52770Y768743D01*
G37*
G36*
X857950Y420763D02*
X857950Y420763D01*
X858016Y420765D01*
X858059Y420783D01*
X858106Y420791D01*
X858163Y420825D01*
X858223Y420850D01*
X858258Y420881D01*
X858299Y420906D01*
X858341Y420957D01*
X858389Y421001D01*
X858411Y421043D01*
X858440Y421080D01*
X858461Y421142D01*
X858492Y421201D01*
X858500Y421255D01*
X858512Y421292D01*
X858511Y421332D01*
X858519Y421386D01*
X858519Y426974D01*
X858508Y427039D01*
X858506Y427105D01*
X858488Y427148D01*
X858480Y427195D01*
X858446Y427252D01*
X858421Y427312D01*
X858390Y427347D01*
X858365Y427388D01*
X858314Y427430D01*
X858270Y427478D01*
X858228Y427500D01*
X858191Y427529D01*
X858129Y427550D01*
X858070Y427581D01*
X858016Y427589D01*
X857979Y427601D01*
X857939Y427600D01*
X857885Y427608D01*
X854075Y427608D01*
X854010Y427597D01*
X853944Y427595D01*
X853901Y427577D01*
X853854Y427569D01*
X853797Y427535D01*
X853737Y427510D01*
X853702Y427479D01*
X853661Y427454D01*
X853620Y427403D01*
X853571Y427359D01*
X853549Y427317D01*
X853520Y427280D01*
X853499Y427218D01*
X853468Y427159D01*
X853460Y427105D01*
X853448Y427068D01*
X853449Y427028D01*
X853441Y426974D01*
X853441Y421386D01*
X853452Y421321D01*
X853454Y421255D01*
X853472Y421212D01*
X853480Y421165D01*
X853514Y421108D01*
X853539Y421048D01*
X853570Y421013D01*
X853595Y420972D01*
X853646Y420931D01*
X853690Y420882D01*
X853732Y420860D01*
X853769Y420831D01*
X853831Y420810D01*
X853890Y420779D01*
X853944Y420771D01*
X853981Y420759D01*
X854021Y420760D01*
X854075Y420752D01*
X857885Y420752D01*
X857950Y420763D01*
G37*
G36*
X52770Y420763D02*
X52770Y420763D01*
X52836Y420765D01*
X52879Y420783D01*
X52926Y420791D01*
X52983Y420825D01*
X53043Y420850D01*
X53078Y420881D01*
X53119Y420906D01*
X53161Y420957D01*
X53209Y421001D01*
X53231Y421043D01*
X53260Y421080D01*
X53281Y421142D01*
X53312Y421201D01*
X53320Y421255D01*
X53332Y421292D01*
X53331Y421332D01*
X53339Y421386D01*
X53339Y426974D01*
X53328Y427039D01*
X53326Y427105D01*
X53308Y427148D01*
X53300Y427195D01*
X53266Y427252D01*
X53241Y427312D01*
X53210Y427347D01*
X53185Y427388D01*
X53134Y427430D01*
X53090Y427478D01*
X53048Y427500D01*
X53011Y427529D01*
X52949Y427550D01*
X52890Y427581D01*
X52836Y427589D01*
X52799Y427601D01*
X52759Y427600D01*
X52705Y427608D01*
X48895Y427608D01*
X48830Y427597D01*
X48764Y427595D01*
X48721Y427577D01*
X48674Y427569D01*
X48617Y427535D01*
X48557Y427510D01*
X48522Y427479D01*
X48481Y427454D01*
X48440Y427403D01*
X48391Y427359D01*
X48369Y427317D01*
X48340Y427280D01*
X48319Y427218D01*
X48288Y427159D01*
X48280Y427105D01*
X48268Y427068D01*
X48269Y427028D01*
X48261Y426974D01*
X48261Y421386D01*
X48272Y421321D01*
X48274Y421255D01*
X48292Y421212D01*
X48300Y421165D01*
X48334Y421108D01*
X48359Y421048D01*
X48390Y421013D01*
X48415Y420972D01*
X48466Y420931D01*
X48510Y420882D01*
X48552Y420860D01*
X48589Y420831D01*
X48651Y420810D01*
X48710Y420779D01*
X48764Y420771D01*
X48801Y420759D01*
X48841Y420760D01*
X48895Y420752D01*
X52705Y420752D01*
X52770Y420763D01*
G37*
G36*
X857950Y72783D02*
X857950Y72783D01*
X858016Y72785D01*
X858059Y72803D01*
X858106Y72811D01*
X858163Y72845D01*
X858223Y72870D01*
X858258Y72901D01*
X858299Y72926D01*
X858341Y72977D01*
X858389Y73021D01*
X858411Y73063D01*
X858440Y73100D01*
X858461Y73162D01*
X858492Y73221D01*
X858500Y73275D01*
X858512Y73312D01*
X858511Y73352D01*
X858519Y73406D01*
X858519Y78994D01*
X858508Y79059D01*
X858506Y79125D01*
X858488Y79168D01*
X858480Y79215D01*
X858446Y79272D01*
X858421Y79332D01*
X858390Y79367D01*
X858365Y79408D01*
X858314Y79450D01*
X858270Y79498D01*
X858228Y79520D01*
X858191Y79549D01*
X858129Y79570D01*
X858070Y79601D01*
X858016Y79609D01*
X857979Y79621D01*
X857939Y79620D01*
X857885Y79628D01*
X854075Y79628D01*
X854010Y79617D01*
X853944Y79615D01*
X853901Y79597D01*
X853854Y79589D01*
X853797Y79555D01*
X853737Y79530D01*
X853702Y79499D01*
X853661Y79474D01*
X853620Y79423D01*
X853571Y79379D01*
X853549Y79337D01*
X853520Y79300D01*
X853499Y79238D01*
X853468Y79179D01*
X853460Y79125D01*
X853448Y79088D01*
X853449Y79048D01*
X853441Y78994D01*
X853441Y73406D01*
X853452Y73341D01*
X853454Y73275D01*
X853472Y73232D01*
X853480Y73185D01*
X853514Y73128D01*
X853539Y73068D01*
X853570Y73033D01*
X853595Y72992D01*
X853646Y72951D01*
X853690Y72902D01*
X853732Y72880D01*
X853769Y72851D01*
X853831Y72830D01*
X853890Y72799D01*
X853944Y72791D01*
X853981Y72779D01*
X854021Y72780D01*
X854075Y72772D01*
X857885Y72772D01*
X857950Y72783D01*
G37*
G36*
X52770Y72783D02*
X52770Y72783D01*
X52836Y72785D01*
X52879Y72803D01*
X52926Y72811D01*
X52983Y72845D01*
X53043Y72870D01*
X53078Y72901D01*
X53119Y72926D01*
X53161Y72977D01*
X53209Y73021D01*
X53231Y73063D01*
X53260Y73100D01*
X53281Y73162D01*
X53312Y73221D01*
X53320Y73275D01*
X53332Y73312D01*
X53331Y73352D01*
X53339Y73406D01*
X53339Y78994D01*
X53328Y79059D01*
X53326Y79125D01*
X53308Y79168D01*
X53300Y79215D01*
X53266Y79272D01*
X53241Y79332D01*
X53210Y79367D01*
X53185Y79408D01*
X53134Y79450D01*
X53090Y79498D01*
X53048Y79520D01*
X53011Y79549D01*
X52949Y79570D01*
X52890Y79601D01*
X52836Y79609D01*
X52799Y79621D01*
X52759Y79620D01*
X52705Y79628D01*
X48895Y79628D01*
X48830Y79617D01*
X48764Y79615D01*
X48721Y79597D01*
X48674Y79589D01*
X48617Y79555D01*
X48557Y79530D01*
X48522Y79499D01*
X48481Y79474D01*
X48440Y79423D01*
X48391Y79379D01*
X48369Y79337D01*
X48340Y79300D01*
X48319Y79238D01*
X48288Y79179D01*
X48280Y79125D01*
X48268Y79088D01*
X48269Y79048D01*
X48261Y78994D01*
X48261Y73406D01*
X48272Y73341D01*
X48274Y73275D01*
X48292Y73232D01*
X48300Y73185D01*
X48334Y73128D01*
X48359Y73068D01*
X48390Y73033D01*
X48415Y72992D01*
X48466Y72951D01*
X48510Y72902D01*
X48552Y72880D01*
X48589Y72851D01*
X48651Y72830D01*
X48710Y72799D01*
X48764Y72791D01*
X48801Y72779D01*
X48841Y72780D01*
X48895Y72772D01*
X52705Y72772D01*
X52770Y72783D01*
G37*
G36*
X832550Y252107D02*
X832550Y252107D01*
X832616Y252109D01*
X832659Y252127D01*
X832706Y252135D01*
X832763Y252169D01*
X832823Y252194D01*
X832858Y252225D01*
X832899Y252250D01*
X832941Y252301D01*
X832989Y252345D01*
X833011Y252387D01*
X833040Y252424D01*
X833061Y252486D01*
X833092Y252545D01*
X833100Y252599D01*
X833112Y252636D01*
X833111Y252676D01*
X833119Y252730D01*
X833119Y255270D01*
X833108Y255335D01*
X833106Y255401D01*
X833088Y255444D01*
X833080Y255491D01*
X833046Y255548D01*
X833021Y255608D01*
X832990Y255643D01*
X832965Y255684D01*
X832914Y255726D01*
X832870Y255774D01*
X832828Y255796D01*
X832791Y255825D01*
X832729Y255846D01*
X832670Y255877D01*
X832616Y255885D01*
X832579Y255897D01*
X832539Y255896D01*
X832485Y255904D01*
X828675Y255904D01*
X828610Y255893D01*
X828544Y255891D01*
X828501Y255873D01*
X828454Y255865D01*
X828397Y255831D01*
X828337Y255806D01*
X828302Y255775D01*
X828261Y255750D01*
X828220Y255699D01*
X828171Y255655D01*
X828149Y255613D01*
X828120Y255576D01*
X828099Y255514D01*
X828068Y255455D01*
X828060Y255401D01*
X828048Y255364D01*
X828048Y255361D01*
X828049Y255324D01*
X828041Y255270D01*
X828041Y252730D01*
X828052Y252665D01*
X828054Y252599D01*
X828072Y252556D01*
X828080Y252509D01*
X828114Y252452D01*
X828139Y252392D01*
X828170Y252357D01*
X828195Y252316D01*
X828246Y252275D01*
X828290Y252226D01*
X828332Y252204D01*
X828369Y252175D01*
X828431Y252154D01*
X828490Y252123D01*
X828544Y252115D01*
X828581Y252103D01*
X828621Y252104D01*
X828675Y252096D01*
X832485Y252096D01*
X832550Y252107D01*
G37*
G36*
X27370Y252107D02*
X27370Y252107D01*
X27436Y252109D01*
X27479Y252127D01*
X27526Y252135D01*
X27583Y252169D01*
X27643Y252194D01*
X27678Y252225D01*
X27719Y252250D01*
X27761Y252301D01*
X27809Y252345D01*
X27831Y252387D01*
X27860Y252424D01*
X27881Y252486D01*
X27912Y252545D01*
X27920Y252599D01*
X27932Y252636D01*
X27931Y252676D01*
X27939Y252730D01*
X27939Y255270D01*
X27928Y255335D01*
X27926Y255401D01*
X27908Y255444D01*
X27900Y255491D01*
X27866Y255548D01*
X27841Y255608D01*
X27810Y255643D01*
X27785Y255684D01*
X27734Y255726D01*
X27690Y255774D01*
X27648Y255796D01*
X27611Y255825D01*
X27549Y255846D01*
X27490Y255877D01*
X27436Y255885D01*
X27399Y255897D01*
X27359Y255896D01*
X27305Y255904D01*
X23495Y255904D01*
X23430Y255893D01*
X23364Y255891D01*
X23321Y255873D01*
X23274Y255865D01*
X23217Y255831D01*
X23157Y255806D01*
X23122Y255775D01*
X23081Y255750D01*
X23040Y255699D01*
X22991Y255655D01*
X22969Y255613D01*
X22940Y255576D01*
X22919Y255514D01*
X22888Y255455D01*
X22880Y255401D01*
X22868Y255364D01*
X22868Y255361D01*
X22869Y255324D01*
X22861Y255270D01*
X22861Y252730D01*
X22872Y252665D01*
X22874Y252599D01*
X22892Y252556D01*
X22900Y252509D01*
X22934Y252452D01*
X22959Y252392D01*
X22990Y252357D01*
X23015Y252316D01*
X23066Y252275D01*
X23110Y252226D01*
X23152Y252204D01*
X23189Y252175D01*
X23251Y252154D01*
X23310Y252123D01*
X23364Y252115D01*
X23401Y252103D01*
X23441Y252104D01*
X23495Y252096D01*
X27305Y252096D01*
X27370Y252107D01*
G37*
G36*
X832550Y948067D02*
X832550Y948067D01*
X832616Y948069D01*
X832659Y948087D01*
X832706Y948095D01*
X832763Y948129D01*
X832823Y948154D01*
X832858Y948185D01*
X832899Y948210D01*
X832941Y948261D01*
X832989Y948305D01*
X833011Y948347D01*
X833040Y948384D01*
X833061Y948446D01*
X833092Y948505D01*
X833100Y948559D01*
X833112Y948596D01*
X833111Y948636D01*
X833119Y948690D01*
X833119Y951230D01*
X833108Y951295D01*
X833106Y951361D01*
X833088Y951404D01*
X833080Y951451D01*
X833046Y951508D01*
X833021Y951568D01*
X832990Y951603D01*
X832965Y951644D01*
X832914Y951686D01*
X832870Y951734D01*
X832828Y951756D01*
X832791Y951785D01*
X832729Y951806D01*
X832670Y951837D01*
X832616Y951845D01*
X832579Y951857D01*
X832539Y951856D01*
X832485Y951864D01*
X828675Y951864D01*
X828610Y951853D01*
X828544Y951851D01*
X828501Y951833D01*
X828454Y951825D01*
X828397Y951791D01*
X828337Y951766D01*
X828302Y951735D01*
X828261Y951710D01*
X828220Y951659D01*
X828171Y951615D01*
X828149Y951573D01*
X828120Y951536D01*
X828099Y951474D01*
X828068Y951415D01*
X828060Y951361D01*
X828048Y951324D01*
X828048Y951321D01*
X828049Y951284D01*
X828041Y951230D01*
X828041Y948690D01*
X828052Y948625D01*
X828054Y948559D01*
X828072Y948516D01*
X828080Y948469D01*
X828114Y948412D01*
X828139Y948352D01*
X828170Y948317D01*
X828195Y948276D01*
X828246Y948235D01*
X828290Y948186D01*
X828332Y948164D01*
X828369Y948135D01*
X828431Y948114D01*
X828490Y948083D01*
X828544Y948075D01*
X828581Y948063D01*
X828621Y948064D01*
X828675Y948056D01*
X832485Y948056D01*
X832550Y948067D01*
G37*
G36*
X27370Y948067D02*
X27370Y948067D01*
X27436Y948069D01*
X27479Y948087D01*
X27526Y948095D01*
X27583Y948129D01*
X27643Y948154D01*
X27678Y948185D01*
X27719Y948210D01*
X27761Y948261D01*
X27809Y948305D01*
X27831Y948347D01*
X27860Y948384D01*
X27881Y948446D01*
X27912Y948505D01*
X27920Y948559D01*
X27932Y948596D01*
X27931Y948636D01*
X27939Y948690D01*
X27939Y951230D01*
X27928Y951295D01*
X27926Y951361D01*
X27908Y951404D01*
X27900Y951451D01*
X27866Y951508D01*
X27841Y951568D01*
X27810Y951603D01*
X27785Y951644D01*
X27734Y951686D01*
X27690Y951734D01*
X27648Y951756D01*
X27611Y951785D01*
X27549Y951806D01*
X27490Y951837D01*
X27436Y951845D01*
X27399Y951857D01*
X27359Y951856D01*
X27305Y951864D01*
X23495Y951864D01*
X23430Y951853D01*
X23364Y951851D01*
X23321Y951833D01*
X23274Y951825D01*
X23217Y951791D01*
X23157Y951766D01*
X23122Y951735D01*
X23081Y951710D01*
X23040Y951659D01*
X22991Y951615D01*
X22969Y951573D01*
X22940Y951536D01*
X22919Y951474D01*
X22888Y951415D01*
X22880Y951361D01*
X22868Y951324D01*
X22868Y951321D01*
X22869Y951284D01*
X22861Y951230D01*
X22861Y948690D01*
X22872Y948625D01*
X22874Y948559D01*
X22892Y948516D01*
X22900Y948469D01*
X22934Y948412D01*
X22959Y948352D01*
X22990Y948317D01*
X23015Y948276D01*
X23066Y948235D01*
X23110Y948186D01*
X23152Y948164D01*
X23189Y948135D01*
X23251Y948114D01*
X23310Y948083D01*
X23364Y948075D01*
X23401Y948063D01*
X23441Y948064D01*
X23495Y948056D01*
X27305Y948056D01*
X27370Y948067D01*
G37*
G36*
X959550Y871867D02*
X959550Y871867D01*
X959616Y871869D01*
X959659Y871887D01*
X959706Y871895D01*
X959763Y871929D01*
X959823Y871954D01*
X959858Y871985D01*
X959899Y872010D01*
X959941Y872061D01*
X959989Y872105D01*
X960011Y872147D01*
X960040Y872184D01*
X960061Y872246D01*
X960092Y872305D01*
X960100Y872359D01*
X960112Y872396D01*
X960111Y872436D01*
X960119Y872490D01*
X960119Y875030D01*
X960108Y875095D01*
X960106Y875161D01*
X960088Y875204D01*
X960080Y875251D01*
X960046Y875308D01*
X960021Y875368D01*
X959990Y875403D01*
X959965Y875444D01*
X959914Y875486D01*
X959870Y875534D01*
X959828Y875556D01*
X959791Y875585D01*
X959729Y875606D01*
X959670Y875637D01*
X959616Y875645D01*
X959579Y875657D01*
X959539Y875656D01*
X959485Y875664D01*
X955675Y875664D01*
X955610Y875653D01*
X955544Y875651D01*
X955501Y875633D01*
X955454Y875625D01*
X955397Y875591D01*
X955337Y875566D01*
X955302Y875535D01*
X955261Y875510D01*
X955220Y875459D01*
X955171Y875415D01*
X955149Y875373D01*
X955120Y875336D01*
X955099Y875274D01*
X955068Y875215D01*
X955060Y875161D01*
X955048Y875124D01*
X955048Y875121D01*
X955049Y875084D01*
X955041Y875030D01*
X955041Y872490D01*
X955052Y872425D01*
X955054Y872359D01*
X955072Y872316D01*
X955080Y872269D01*
X955114Y872212D01*
X955139Y872152D01*
X955170Y872117D01*
X955195Y872076D01*
X955246Y872035D01*
X955290Y871986D01*
X955332Y871964D01*
X955369Y871935D01*
X955431Y871914D01*
X955490Y871883D01*
X955544Y871875D01*
X955581Y871863D01*
X955621Y871864D01*
X955675Y871856D01*
X959485Y871856D01*
X959550Y871867D01*
G37*
G36*
X154370Y871867D02*
X154370Y871867D01*
X154436Y871869D01*
X154479Y871887D01*
X154526Y871895D01*
X154583Y871929D01*
X154643Y871954D01*
X154678Y871985D01*
X154719Y872010D01*
X154761Y872061D01*
X154809Y872105D01*
X154831Y872147D01*
X154860Y872184D01*
X154881Y872246D01*
X154912Y872305D01*
X154920Y872359D01*
X154932Y872396D01*
X154931Y872436D01*
X154939Y872490D01*
X154939Y875030D01*
X154928Y875095D01*
X154926Y875161D01*
X154908Y875204D01*
X154900Y875251D01*
X154866Y875308D01*
X154841Y875368D01*
X154810Y875403D01*
X154785Y875444D01*
X154734Y875486D01*
X154690Y875534D01*
X154648Y875556D01*
X154611Y875585D01*
X154549Y875606D01*
X154490Y875637D01*
X154436Y875645D01*
X154399Y875657D01*
X154359Y875656D01*
X154305Y875664D01*
X150495Y875664D01*
X150430Y875653D01*
X150364Y875651D01*
X150321Y875633D01*
X150274Y875625D01*
X150217Y875591D01*
X150157Y875566D01*
X150122Y875535D01*
X150081Y875510D01*
X150040Y875459D01*
X149991Y875415D01*
X149969Y875373D01*
X149940Y875336D01*
X149919Y875274D01*
X149888Y875215D01*
X149880Y875161D01*
X149868Y875124D01*
X149868Y875121D01*
X149869Y875084D01*
X149861Y875030D01*
X149861Y872490D01*
X149872Y872425D01*
X149874Y872359D01*
X149892Y872316D01*
X149900Y872269D01*
X149934Y872212D01*
X149959Y872152D01*
X149990Y872117D01*
X150015Y872076D01*
X150066Y872035D01*
X150110Y871986D01*
X150152Y871964D01*
X150189Y871935D01*
X150251Y871914D01*
X150310Y871883D01*
X150364Y871875D01*
X150401Y871863D01*
X150441Y871864D01*
X150495Y871856D01*
X154305Y871856D01*
X154370Y871867D01*
G37*
G36*
X832550Y600087D02*
X832550Y600087D01*
X832616Y600089D01*
X832659Y600107D01*
X832706Y600115D01*
X832763Y600149D01*
X832823Y600174D01*
X832858Y600205D01*
X832899Y600230D01*
X832941Y600281D01*
X832989Y600325D01*
X833011Y600367D01*
X833040Y600404D01*
X833061Y600466D01*
X833092Y600525D01*
X833100Y600579D01*
X833112Y600616D01*
X833111Y600656D01*
X833119Y600710D01*
X833119Y603250D01*
X833108Y603315D01*
X833106Y603381D01*
X833088Y603424D01*
X833080Y603471D01*
X833046Y603528D01*
X833021Y603588D01*
X832990Y603623D01*
X832965Y603664D01*
X832914Y603706D01*
X832870Y603754D01*
X832828Y603776D01*
X832791Y603805D01*
X832729Y603826D01*
X832670Y603857D01*
X832616Y603865D01*
X832579Y603877D01*
X832539Y603876D01*
X832485Y603884D01*
X828675Y603884D01*
X828610Y603873D01*
X828544Y603871D01*
X828501Y603853D01*
X828454Y603845D01*
X828397Y603811D01*
X828337Y603786D01*
X828302Y603755D01*
X828261Y603730D01*
X828220Y603679D01*
X828171Y603635D01*
X828149Y603593D01*
X828120Y603556D01*
X828099Y603494D01*
X828068Y603435D01*
X828060Y603381D01*
X828048Y603344D01*
X828048Y603341D01*
X828049Y603304D01*
X828041Y603250D01*
X828041Y600710D01*
X828052Y600645D01*
X828054Y600579D01*
X828072Y600536D01*
X828080Y600489D01*
X828114Y600432D01*
X828139Y600372D01*
X828170Y600337D01*
X828195Y600296D01*
X828246Y600255D01*
X828290Y600206D01*
X828332Y600184D01*
X828369Y600155D01*
X828431Y600134D01*
X828490Y600103D01*
X828544Y600095D01*
X828581Y600083D01*
X828621Y600084D01*
X828675Y600076D01*
X832485Y600076D01*
X832550Y600087D01*
G37*
G36*
X27370Y600087D02*
X27370Y600087D01*
X27436Y600089D01*
X27479Y600107D01*
X27526Y600115D01*
X27583Y600149D01*
X27643Y600174D01*
X27678Y600205D01*
X27719Y600230D01*
X27761Y600281D01*
X27809Y600325D01*
X27831Y600367D01*
X27860Y600404D01*
X27881Y600466D01*
X27912Y600525D01*
X27920Y600579D01*
X27932Y600616D01*
X27931Y600656D01*
X27939Y600710D01*
X27939Y603250D01*
X27928Y603315D01*
X27926Y603381D01*
X27908Y603424D01*
X27900Y603471D01*
X27866Y603528D01*
X27841Y603588D01*
X27810Y603623D01*
X27785Y603664D01*
X27734Y603706D01*
X27690Y603754D01*
X27648Y603776D01*
X27611Y603805D01*
X27549Y603826D01*
X27490Y603857D01*
X27436Y603865D01*
X27399Y603877D01*
X27359Y603876D01*
X27305Y603884D01*
X23495Y603884D01*
X23430Y603873D01*
X23364Y603871D01*
X23321Y603853D01*
X23274Y603845D01*
X23217Y603811D01*
X23157Y603786D01*
X23122Y603755D01*
X23081Y603730D01*
X23040Y603679D01*
X22991Y603635D01*
X22969Y603593D01*
X22940Y603556D01*
X22919Y603494D01*
X22888Y603435D01*
X22880Y603381D01*
X22868Y603344D01*
X22868Y603341D01*
X22869Y603304D01*
X22861Y603250D01*
X22861Y600710D01*
X22872Y600645D01*
X22874Y600579D01*
X22892Y600536D01*
X22900Y600489D01*
X22934Y600432D01*
X22959Y600372D01*
X22990Y600337D01*
X23015Y600296D01*
X23066Y600255D01*
X23110Y600206D01*
X23152Y600184D01*
X23189Y600155D01*
X23251Y600134D01*
X23310Y600103D01*
X23364Y600095D01*
X23401Y600083D01*
X23441Y600084D01*
X23495Y600076D01*
X27305Y600076D01*
X27370Y600087D01*
G37*
G36*
X154370Y523887D02*
X154370Y523887D01*
X154436Y523889D01*
X154479Y523907D01*
X154526Y523915D01*
X154583Y523949D01*
X154643Y523974D01*
X154678Y524005D01*
X154719Y524030D01*
X154761Y524081D01*
X154809Y524125D01*
X154831Y524167D01*
X154860Y524204D01*
X154881Y524266D01*
X154912Y524325D01*
X154920Y524379D01*
X154932Y524416D01*
X154931Y524456D01*
X154939Y524510D01*
X154939Y527050D01*
X154928Y527115D01*
X154926Y527181D01*
X154908Y527224D01*
X154900Y527271D01*
X154866Y527328D01*
X154841Y527388D01*
X154810Y527423D01*
X154785Y527464D01*
X154734Y527506D01*
X154690Y527554D01*
X154648Y527576D01*
X154611Y527605D01*
X154549Y527626D01*
X154490Y527657D01*
X154436Y527665D01*
X154399Y527677D01*
X154359Y527676D01*
X154305Y527684D01*
X150495Y527684D01*
X150430Y527673D01*
X150364Y527671D01*
X150321Y527653D01*
X150274Y527645D01*
X150217Y527611D01*
X150157Y527586D01*
X150122Y527555D01*
X150081Y527530D01*
X150040Y527479D01*
X149991Y527435D01*
X149969Y527393D01*
X149940Y527356D01*
X149919Y527294D01*
X149888Y527235D01*
X149880Y527181D01*
X149868Y527144D01*
X149868Y527141D01*
X149869Y527104D01*
X149861Y527050D01*
X149861Y524510D01*
X149872Y524445D01*
X149874Y524379D01*
X149892Y524336D01*
X149900Y524289D01*
X149934Y524232D01*
X149959Y524172D01*
X149990Y524137D01*
X150015Y524096D01*
X150066Y524055D01*
X150110Y524006D01*
X150152Y523984D01*
X150189Y523955D01*
X150251Y523934D01*
X150310Y523903D01*
X150364Y523895D01*
X150401Y523883D01*
X150441Y523884D01*
X150495Y523876D01*
X154305Y523876D01*
X154370Y523887D01*
G37*
G36*
X959550Y523887D02*
X959550Y523887D01*
X959616Y523889D01*
X959659Y523907D01*
X959706Y523915D01*
X959763Y523949D01*
X959823Y523974D01*
X959858Y524005D01*
X959899Y524030D01*
X959941Y524081D01*
X959989Y524125D01*
X960011Y524167D01*
X960040Y524204D01*
X960061Y524266D01*
X960092Y524325D01*
X960100Y524379D01*
X960112Y524416D01*
X960111Y524456D01*
X960119Y524510D01*
X960119Y527050D01*
X960108Y527115D01*
X960106Y527181D01*
X960088Y527224D01*
X960080Y527271D01*
X960046Y527328D01*
X960021Y527388D01*
X959990Y527423D01*
X959965Y527464D01*
X959914Y527506D01*
X959870Y527554D01*
X959828Y527576D01*
X959791Y527605D01*
X959729Y527626D01*
X959670Y527657D01*
X959616Y527665D01*
X959579Y527677D01*
X959539Y527676D01*
X959485Y527684D01*
X955675Y527684D01*
X955610Y527673D01*
X955544Y527671D01*
X955501Y527653D01*
X955454Y527645D01*
X955397Y527611D01*
X955337Y527586D01*
X955302Y527555D01*
X955261Y527530D01*
X955220Y527479D01*
X955171Y527435D01*
X955149Y527393D01*
X955120Y527356D01*
X955099Y527294D01*
X955068Y527235D01*
X955060Y527181D01*
X955048Y527144D01*
X955048Y527141D01*
X955049Y527104D01*
X955041Y527050D01*
X955041Y524510D01*
X955052Y524445D01*
X955054Y524379D01*
X955072Y524336D01*
X955080Y524289D01*
X955114Y524232D01*
X955139Y524172D01*
X955170Y524137D01*
X955195Y524096D01*
X955246Y524055D01*
X955290Y524006D01*
X955332Y523984D01*
X955369Y523955D01*
X955431Y523934D01*
X955490Y523903D01*
X955544Y523895D01*
X955581Y523883D01*
X955621Y523884D01*
X955675Y523876D01*
X959485Y523876D01*
X959550Y523887D01*
G37*
G36*
X959550Y175907D02*
X959550Y175907D01*
X959616Y175909D01*
X959659Y175927D01*
X959706Y175935D01*
X959763Y175969D01*
X959823Y175994D01*
X959858Y176025D01*
X959899Y176050D01*
X959941Y176101D01*
X959989Y176145D01*
X960011Y176187D01*
X960040Y176224D01*
X960061Y176286D01*
X960092Y176345D01*
X960100Y176399D01*
X960112Y176436D01*
X960111Y176476D01*
X960119Y176530D01*
X960119Y179070D01*
X960108Y179135D01*
X960106Y179201D01*
X960088Y179244D01*
X960080Y179291D01*
X960046Y179348D01*
X960021Y179408D01*
X959990Y179443D01*
X959965Y179484D01*
X959914Y179526D01*
X959870Y179574D01*
X959828Y179596D01*
X959791Y179625D01*
X959729Y179646D01*
X959670Y179677D01*
X959616Y179685D01*
X959579Y179697D01*
X959539Y179696D01*
X959485Y179704D01*
X955675Y179704D01*
X955610Y179693D01*
X955544Y179691D01*
X955501Y179673D01*
X955454Y179665D01*
X955397Y179631D01*
X955337Y179606D01*
X955302Y179575D01*
X955261Y179550D01*
X955220Y179499D01*
X955171Y179455D01*
X955149Y179413D01*
X955120Y179376D01*
X955099Y179314D01*
X955068Y179255D01*
X955060Y179201D01*
X955048Y179164D01*
X955048Y179161D01*
X955049Y179124D01*
X955041Y179070D01*
X955041Y176530D01*
X955052Y176465D01*
X955054Y176399D01*
X955072Y176356D01*
X955080Y176309D01*
X955114Y176252D01*
X955139Y176192D01*
X955170Y176157D01*
X955195Y176116D01*
X955246Y176075D01*
X955290Y176026D01*
X955332Y176004D01*
X955369Y175975D01*
X955431Y175954D01*
X955490Y175923D01*
X955544Y175915D01*
X955581Y175903D01*
X955621Y175904D01*
X955675Y175896D01*
X959485Y175896D01*
X959550Y175907D01*
G37*
G36*
X154370Y175907D02*
X154370Y175907D01*
X154436Y175909D01*
X154479Y175927D01*
X154526Y175935D01*
X154583Y175969D01*
X154643Y175994D01*
X154678Y176025D01*
X154719Y176050D01*
X154761Y176101D01*
X154809Y176145D01*
X154831Y176187D01*
X154860Y176224D01*
X154881Y176286D01*
X154912Y176345D01*
X154920Y176399D01*
X154932Y176436D01*
X154931Y176476D01*
X154939Y176530D01*
X154939Y179070D01*
X154928Y179135D01*
X154926Y179201D01*
X154908Y179244D01*
X154900Y179291D01*
X154866Y179348D01*
X154841Y179408D01*
X154810Y179443D01*
X154785Y179484D01*
X154734Y179526D01*
X154690Y179574D01*
X154648Y179596D01*
X154611Y179625D01*
X154549Y179646D01*
X154490Y179677D01*
X154436Y179685D01*
X154399Y179697D01*
X154359Y179696D01*
X154305Y179704D01*
X150495Y179704D01*
X150430Y179693D01*
X150364Y179691D01*
X150321Y179673D01*
X150274Y179665D01*
X150217Y179631D01*
X150157Y179606D01*
X150122Y179575D01*
X150081Y179550D01*
X150040Y179499D01*
X149991Y179455D01*
X149969Y179413D01*
X149940Y179376D01*
X149919Y179314D01*
X149888Y179255D01*
X149880Y179201D01*
X149868Y179164D01*
X149868Y179161D01*
X149869Y179124D01*
X149861Y179070D01*
X149861Y176530D01*
X149872Y176465D01*
X149874Y176399D01*
X149892Y176356D01*
X149900Y176309D01*
X149934Y176252D01*
X149959Y176192D01*
X149990Y176157D01*
X150015Y176116D01*
X150066Y176075D01*
X150110Y176026D01*
X150152Y176004D01*
X150189Y175975D01*
X150251Y175954D01*
X150310Y175923D01*
X150364Y175915D01*
X150401Y175903D01*
X150441Y175904D01*
X150495Y175896D01*
X154305Y175896D01*
X154370Y175907D01*
G37*
D10*
X49050Y168600D03*
X49050Y110800D03*
D11*
X7620Y7620D03*
X792480Y336550D03*
D12*
X774700Y317500D03*
X25400Y317500D03*
X774700Y25400D03*
X25400Y25400D03*
D13*
X454700Y150300D03*
D14*
X30607Y254000D03*
X20193Y254000D03*
D15*
X254000Y90500D03*
D16*
X254000Y290500D03*
D17*
X55880Y76200D03*
X45720Y76200D03*
D18*
X63500Y76200D03*
X38100Y76200D03*
D17*
X143764Y152400D03*
X135636Y152400D03*
X34036Y215900D03*
X42164Y215900D03*
D14*
X157607Y177800D03*
X147193Y177800D03*
D13*
X520700Y254000D03*
X520700Y50800D03*
X723900Y50800D03*
X723900Y254000D03*
D10*
X854230Y168600D03*
X854230Y110800D03*
D11*
X812800Y7620D03*
X1597660Y336550D03*
D12*
X1579880Y317500D03*
X830580Y317500D03*
X1579880Y25400D03*
X830580Y25400D03*
D13*
X1259880Y150300D03*
D14*
X835787Y254000D03*
X825373Y254000D03*
D15*
X1059180Y90500D03*
D16*
X1059180Y290500D03*
D17*
X861060Y76200D03*
X850900Y76200D03*
D18*
X868680Y76200D03*
X843280Y76200D03*
D17*
X948944Y152400D03*
X940816Y152400D03*
X839216Y215900D03*
X847344Y215900D03*
D14*
X962787Y177800D03*
X952373Y177800D03*
D13*
X1325880Y254000D03*
X1325880Y50800D03*
X1529080Y50800D03*
X1529080Y254000D03*
D10*
X49050Y516580D03*
X49050Y458780D03*
D11*
X7620Y355600D03*
X792480Y684530D03*
D12*
X774700Y665480D03*
X25400Y665480D03*
X774700Y373380D03*
X25400Y373380D03*
D13*
X454700Y498280D03*
D14*
X30607Y601980D03*
X20193Y601980D03*
D15*
X254000Y438480D03*
D16*
X254000Y638480D03*
D17*
X55880Y424180D03*
X45720Y424180D03*
D18*
X63500Y424180D03*
X38100Y424180D03*
D17*
X143764Y500380D03*
X135636Y500380D03*
X34036Y563880D03*
X42164Y563880D03*
D14*
X157607Y525780D03*
X147193Y525780D03*
D13*
X520700Y601980D03*
X520700Y398780D03*
X723900Y398780D03*
X723900Y601980D03*
D10*
X854230Y516580D03*
X854230Y458780D03*
D11*
X812800Y355600D03*
X1597660Y684530D03*
D12*
X1579880Y665480D03*
X830580Y665480D03*
X1579880Y373380D03*
X830580Y373380D03*
D13*
X1259880Y498280D03*
D14*
X835787Y601980D03*
X825373Y601980D03*
D15*
X1059180Y438480D03*
D16*
X1059180Y638480D03*
D17*
X861060Y424180D03*
X850900Y424180D03*
D18*
X868680Y424180D03*
X843280Y424180D03*
D17*
X948944Y500380D03*
X940816Y500380D03*
X839216Y563880D03*
X847344Y563880D03*
D14*
X962787Y525780D03*
X952373Y525780D03*
D13*
X1325880Y601980D03*
X1325880Y398780D03*
X1529080Y398780D03*
X1529080Y601980D03*
D10*
X49050Y864560D03*
X49050Y806760D03*
D11*
X7620Y703580D03*
X792480Y1032510D03*
D12*
X774700Y1013460D03*
X25400Y1013460D03*
X774700Y721360D03*
X25400Y721360D03*
D13*
X454700Y846260D03*
D14*
X30607Y949960D03*
X20193Y949960D03*
D15*
X254000Y786460D03*
D16*
X254000Y986460D03*
D17*
X55880Y772160D03*
X45720Y772160D03*
D18*
X63500Y772160D03*
X38100Y772160D03*
D17*
X143764Y848360D03*
X135636Y848360D03*
X34036Y911860D03*
X42164Y911860D03*
D14*
X157607Y873760D03*
X147193Y873760D03*
D13*
X520700Y949960D03*
X520700Y746760D03*
X723900Y746760D03*
X723900Y949960D03*
D10*
X854230Y864560D03*
X854230Y806760D03*
D11*
X812800Y703580D03*
X1597660Y1032510D03*
D12*
X1579880Y1013460D03*
X830580Y1013460D03*
X1579880Y721360D03*
X830580Y721360D03*
D13*
X1259880Y846260D03*
D14*
X835787Y949960D03*
X825373Y949960D03*
D15*
X1059180Y786460D03*
D16*
X1059180Y986460D03*
D17*
X861060Y772160D03*
X850900Y772160D03*
D18*
X868680Y772160D03*
X843280Y772160D03*
D17*
X948944Y848360D03*
X940816Y848360D03*
X839216Y911860D03*
X847344Y911860D03*
D14*
X962787Y873760D03*
X952373Y873760D03*
D13*
X1325880Y949960D03*
X1325880Y746760D03*
X1529080Y746760D03*
X1529080Y949960D03*
D19*
X-26238Y1012190D03*
X1631518Y1012190D03*
D20*
X-35293Y63500D02*
X-35290Y63722D01*
X-35282Y63944D01*
X-35268Y64166D01*
X-35249Y64388D01*
X-35225Y64608D01*
X-35195Y64829D01*
X-35160Y65048D01*
X-35119Y65267D01*
X-35073Y65484D01*
X-35022Y65700D01*
X-34965Y65915D01*
X-34903Y66129D01*
X-34836Y66340D01*
X-34764Y66551D01*
X-34686Y66759D01*
X-34604Y66965D01*
X-34516Y67169D01*
X-34424Y67372D01*
X-34326Y67571D01*
X-34224Y67768D01*
X-34117Y67963D01*
X-34005Y68155D01*
X-33888Y68344D01*
X-33767Y68531D01*
X-33641Y68714D01*
X-33511Y68894D01*
X-33376Y69071D01*
X-33238Y69244D01*
X-33095Y69414D01*
X-32947Y69581D01*
X-32796Y69744D01*
X-32641Y69903D01*
X-32482Y70058D01*
X-32319Y70209D01*
X-32152Y70357D01*
X-31982Y70500D01*
X-31809Y70638D01*
X-31632Y70773D01*
X-31452Y70903D01*
X-31269Y71029D01*
X-31082Y71150D01*
X-30893Y71267D01*
X-30701Y71379D01*
X-30506Y71486D01*
X-30309Y71588D01*
X-30110Y71686D01*
X-29907Y71778D01*
X-29703Y71866D01*
X-29497Y71948D01*
X-29289Y72026D01*
X-29078Y72098D01*
X-28867Y72165D01*
X-28653Y72227D01*
X-28438Y72284D01*
X-28222Y72335D01*
X-28005Y72381D01*
X-27786Y72422D01*
X-27567Y72457D01*
X-27346Y72487D01*
X-27126Y72511D01*
X-26904Y72530D01*
X-26682Y72544D01*
X-26460Y72552D01*
X-26238Y72555D01*
X-26016Y72552D01*
X-25794Y72544D01*
X-25572Y72530D01*
X-25350Y72511D01*
X-25130Y72487D01*
X-24909Y72457D01*
X-24690Y72422D01*
X-24471Y72381D01*
X-24254Y72335D01*
X-24038Y72284D01*
X-23823Y72227D01*
X-23609Y72165D01*
X-23398Y72098D01*
X-23187Y72026D01*
X-22979Y71948D01*
X-22773Y71866D01*
X-22569Y71778D01*
X-22366Y71686D01*
X-22167Y71588D01*
X-21970Y71486D01*
X-21775Y71379D01*
X-21583Y71267D01*
X-21394Y71150D01*
X-21207Y71029D01*
X-21024Y70903D01*
X-20844Y70773D01*
X-20667Y70638D01*
X-20494Y70500D01*
X-20324Y70357D01*
X-20157Y70209D01*
X-19994Y70058D01*
X-19835Y69903D01*
X-19680Y69744D01*
X-19529Y69581D01*
X-19381Y69414D01*
X-19238Y69244D01*
X-19100Y69071D01*
X-18965Y68894D01*
X-18835Y68714D01*
X-18709Y68531D01*
X-18588Y68344D01*
X-18471Y68155D01*
X-18359Y67963D01*
X-18252Y67768D01*
X-18150Y67571D01*
X-18052Y67372D01*
X-17960Y67169D01*
X-17872Y66965D01*
X-17790Y66759D01*
X-17712Y66551D01*
X-17640Y66340D01*
X-17573Y66129D01*
X-17511Y65915D01*
X-17454Y65700D01*
X-17403Y65484D01*
X-17357Y65267D01*
X-17316Y65048D01*
X-17281Y64829D01*
X-17251Y64608D01*
X-17227Y64388D01*
X-17208Y64166D01*
X-17194Y63944D01*
X-17186Y63722D01*
X-17183Y63500D01*
X-17186Y63278D01*
X-17194Y63056D01*
X-17208Y62834D01*
X-17227Y62612D01*
X-17251Y62392D01*
X-17281Y62171D01*
X-17316Y61952D01*
X-17357Y61733D01*
X-17403Y61516D01*
X-17454Y61300D01*
X-17511Y61085D01*
X-17573Y60871D01*
X-17640Y60660D01*
X-17712Y60449D01*
X-17790Y60241D01*
X-17872Y60035D01*
X-17960Y59831D01*
X-18052Y59628D01*
X-18150Y59429D01*
X-18252Y59232D01*
X-18359Y59037D01*
X-18471Y58845D01*
X-18588Y58656D01*
X-18709Y58469D01*
X-18835Y58286D01*
X-18965Y58106D01*
X-19100Y57929D01*
X-19238Y57756D01*
X-19381Y57586D01*
X-19529Y57419D01*
X-19680Y57256D01*
X-19835Y57097D01*
X-19994Y56942D01*
X-20157Y56791D01*
X-20324Y56643D01*
X-20494Y56500D01*
X-20667Y56362D01*
X-20844Y56227D01*
X-21024Y56097D01*
X-21207Y55971D01*
X-21394Y55850D01*
X-21583Y55733D01*
X-21775Y55621D01*
X-21970Y55514D01*
X-22167Y55412D01*
X-22366Y55314D01*
X-22569Y55222D01*
X-22773Y55134D01*
X-22979Y55052D01*
X-23187Y54974D01*
X-23398Y54902D01*
X-23609Y54835D01*
X-23823Y54773D01*
X-24038Y54716D01*
X-24254Y54665D01*
X-24471Y54619D01*
X-24690Y54578D01*
X-24909Y54543D01*
X-25130Y54513D01*
X-25350Y54489D01*
X-25572Y54470D01*
X-25794Y54456D01*
X-26016Y54448D01*
X-26238Y54445D01*
X-26460Y54448D01*
X-26682Y54456D01*
X-26904Y54470D01*
X-27126Y54489D01*
X-27346Y54513D01*
X-27567Y54543D01*
X-27786Y54578D01*
X-28005Y54619D01*
X-28222Y54665D01*
X-28438Y54716D01*
X-28653Y54773D01*
X-28867Y54835D01*
X-29078Y54902D01*
X-29289Y54974D01*
X-29497Y55052D01*
X-29703Y55134D01*
X-29907Y55222D01*
X-30110Y55314D01*
X-30309Y55412D01*
X-30506Y55514D01*
X-30701Y55621D01*
X-30893Y55733D01*
X-31082Y55850D01*
X-31269Y55971D01*
X-31452Y56097D01*
X-31632Y56227D01*
X-31809Y56362D01*
X-31982Y56500D01*
X-32152Y56643D01*
X-32319Y56791D01*
X-32482Y56942D01*
X-32641Y57097D01*
X-32796Y57256D01*
X-32947Y57419D01*
X-33095Y57586D01*
X-33238Y57756D01*
X-33376Y57929D01*
X-33511Y58106D01*
X-33641Y58286D01*
X-33767Y58469D01*
X-33888Y58656D01*
X-34005Y58845D01*
X-34117Y59037D01*
X-34224Y59232D01*
X-34326Y59429D01*
X-34424Y59628D01*
X-34516Y59831D01*
X-34604Y60035D01*
X-34686Y60241D01*
X-34764Y60449D01*
X-34836Y60660D01*
X-34903Y60871D01*
X-34965Y61085D01*
X-35022Y61300D01*
X-35073Y61516D01*
X-35119Y61733D01*
X-35160Y61952D01*
X-35195Y62171D01*
X-35225Y62392D01*
X-35249Y62612D01*
X-35268Y62834D01*
X-35282Y63056D01*
X-35290Y63278D01*
X-35293Y63500D01*
D21*
X-26238Y63500D03*
M02*
