G04 EAGLE Gerber RS-274X export*
G75*
%MOMM*%
%FSLAX34Y34*%
%LPD*%
%INSoldermask Top*%
%IPPOS*%
%AMOC8*
5,1,8,0,0,1.08239X$1,22.5*%
G01*
%ADD10R,1.203200X0.503200*%
%ADD11R,1.203200X0.803200*%
%ADD12C,0.853200*%
%ADD13R,1.203200X1.303200*%
%ADD14C,0.838200*%
%ADD15C,3.505200*%
%ADD16R,1.727200X0.965200*%
%ADD17C,6.203200*%
%ADD18R,1.303200X1.203200*%
%ADD19C,0.505344*%
%ADD20C,1.303200*%
%ADD21C,1.803200*%
%ADD22R,1.753200X0.503200*%
%ADD23R,2.953200X1.403200*%
%ADD24R,1.403200X2.203200*%
%ADD25R,0.803200X1.553200*%
%ADD26R,1.203200X4.803200*%
%ADD27R,1.803200X3.603200*%
%ADD28R,0.503200X0.853200*%
%ADD29R,2.553200X1.803200*%
%ADD30R,1.603200X1.803200*%
%ADD31C,2.082800*%
%ADD32R,1.033200X0.833200*%
%ADD33R,1.203200X3.003200*%
%ADD34R,1.403200X0.753200*%
%ADD35R,0.833200X1.033200*%
%ADD36C,1.203200*%
%ADD37C,1.270000*%
%ADD38C,1.703200*%

G36*
X865484Y872814D02*
X865484Y872814D01*
X865487Y872811D01*
X866609Y872966D01*
X866614Y872971D01*
X866618Y872968D01*
X867689Y873339D01*
X867693Y873345D01*
X867698Y873343D01*
X868675Y873916D01*
X868678Y873922D01*
X868683Y873921D01*
X869530Y874674D01*
X869532Y874681D01*
X869537Y874681D01*
X870221Y875584D01*
X870221Y875591D01*
X870226Y875592D01*
X870721Y876611D01*
X870719Y876618D01*
X870724Y876620D01*
X871011Y877717D01*
X871009Y877721D01*
X871011Y877722D01*
X871009Y877724D01*
X871012Y877726D01*
X871079Y878857D01*
X871077Y878861D01*
X871079Y878863D01*
X871012Y879994D01*
X871007Y879999D01*
X871011Y880003D01*
X870724Y881100D01*
X870718Y881104D01*
X870721Y881109D01*
X870226Y882128D01*
X870220Y882131D01*
X870221Y882136D01*
X869537Y883039D01*
X869530Y883041D01*
X869530Y883046D01*
X868683Y883799D01*
X868676Y883799D01*
X868675Y883804D01*
X867698Y884377D01*
X867691Y884376D01*
X867689Y884381D01*
X866618Y884752D01*
X866612Y884749D01*
X866609Y884754D01*
X865487Y884909D01*
X865482Y884906D01*
X865480Y884909D01*
X853480Y884909D01*
X853475Y884906D01*
X853472Y884909D01*
X852205Y884704D01*
X852199Y884698D01*
X852195Y884701D01*
X851005Y884219D01*
X851001Y884212D01*
X850995Y884214D01*
X849942Y883480D01*
X849940Y883472D01*
X849934Y883473D01*
X849071Y882523D01*
X849070Y882514D01*
X849065Y882514D01*
X848435Y881395D01*
X848436Y881387D01*
X848430Y881385D01*
X848065Y880155D01*
X848068Y880147D01*
X848063Y880144D01*
X847981Y878863D01*
X847984Y878859D01*
X847981Y878857D01*
X848063Y877576D01*
X848069Y877570D01*
X848065Y877565D01*
X848430Y876335D01*
X848437Y876330D01*
X848435Y876325D01*
X849065Y875206D01*
X849072Y875203D01*
X849071Y875197D01*
X849934Y874247D01*
X849942Y874246D01*
X849942Y874240D01*
X850995Y873506D01*
X851003Y873506D01*
X851005Y873501D01*
X852195Y873019D01*
X852202Y873021D01*
X852205Y873016D01*
X853472Y872811D01*
X853477Y872814D01*
X853480Y872811D01*
X865480Y872811D01*
X865484Y872814D01*
G37*
G36*
X60304Y872814D02*
X60304Y872814D01*
X60307Y872811D01*
X61429Y872966D01*
X61434Y872971D01*
X61438Y872968D01*
X62509Y873339D01*
X62513Y873345D01*
X62518Y873343D01*
X63495Y873916D01*
X63498Y873922D01*
X63503Y873921D01*
X64350Y874674D01*
X64352Y874681D01*
X64357Y874681D01*
X65041Y875584D01*
X65041Y875591D01*
X65046Y875592D01*
X65541Y876611D01*
X65539Y876618D01*
X65544Y876620D01*
X65831Y877717D01*
X65829Y877721D01*
X65831Y877722D01*
X65829Y877724D01*
X65832Y877726D01*
X65899Y878857D01*
X65897Y878861D01*
X65899Y878863D01*
X65832Y879994D01*
X65827Y879999D01*
X65831Y880003D01*
X65544Y881100D01*
X65538Y881104D01*
X65541Y881109D01*
X65046Y882128D01*
X65040Y882131D01*
X65041Y882136D01*
X64357Y883039D01*
X64350Y883041D01*
X64350Y883046D01*
X63503Y883799D01*
X63496Y883799D01*
X63495Y883804D01*
X62518Y884377D01*
X62511Y884376D01*
X62509Y884381D01*
X61438Y884752D01*
X61432Y884749D01*
X61429Y884754D01*
X60307Y884909D01*
X60302Y884906D01*
X60300Y884909D01*
X48300Y884909D01*
X48295Y884906D01*
X48292Y884909D01*
X47025Y884704D01*
X47019Y884698D01*
X47015Y884701D01*
X45825Y884219D01*
X45821Y884212D01*
X45815Y884214D01*
X44762Y883480D01*
X44760Y883472D01*
X44754Y883473D01*
X43891Y882523D01*
X43890Y882514D01*
X43885Y882514D01*
X43255Y881395D01*
X43256Y881387D01*
X43250Y881385D01*
X42885Y880155D01*
X42888Y880147D01*
X42883Y880144D01*
X42801Y878863D01*
X42804Y878859D01*
X42801Y878857D01*
X42883Y877576D01*
X42889Y877570D01*
X42885Y877565D01*
X43250Y876335D01*
X43257Y876330D01*
X43255Y876325D01*
X43885Y875206D01*
X43892Y875203D01*
X43891Y875197D01*
X44754Y874247D01*
X44762Y874246D01*
X44762Y874240D01*
X45815Y873506D01*
X45823Y873506D01*
X45825Y873501D01*
X47015Y873019D01*
X47022Y873021D01*
X47025Y873016D01*
X48292Y872811D01*
X48297Y872814D01*
X48300Y872811D01*
X60300Y872811D01*
X60304Y872814D01*
G37*
G36*
X865484Y786414D02*
X865484Y786414D01*
X865487Y786411D01*
X866609Y786566D01*
X866614Y786571D01*
X866618Y786568D01*
X867689Y786939D01*
X867693Y786945D01*
X867698Y786943D01*
X868675Y787516D01*
X868678Y787522D01*
X868683Y787521D01*
X869530Y788274D01*
X869532Y788281D01*
X869537Y788281D01*
X870221Y789184D01*
X870221Y789191D01*
X870226Y789192D01*
X870721Y790211D01*
X870719Y790218D01*
X870724Y790220D01*
X871011Y791317D01*
X871009Y791321D01*
X871011Y791322D01*
X871009Y791324D01*
X871012Y791326D01*
X871079Y792457D01*
X871077Y792461D01*
X871079Y792463D01*
X871012Y793594D01*
X871007Y793599D01*
X871011Y793603D01*
X870724Y794700D01*
X870718Y794704D01*
X870721Y794709D01*
X870226Y795728D01*
X870220Y795731D01*
X870221Y795736D01*
X869537Y796639D01*
X869530Y796641D01*
X869530Y796646D01*
X868683Y797399D01*
X868676Y797399D01*
X868675Y797404D01*
X867698Y797977D01*
X867691Y797976D01*
X867689Y797981D01*
X866618Y798352D01*
X866612Y798349D01*
X866609Y798354D01*
X865487Y798509D01*
X865482Y798506D01*
X865480Y798509D01*
X853480Y798509D01*
X853475Y798506D01*
X853472Y798509D01*
X852205Y798304D01*
X852199Y798298D01*
X852195Y798301D01*
X851005Y797819D01*
X851001Y797812D01*
X850995Y797814D01*
X849942Y797080D01*
X849940Y797072D01*
X849934Y797073D01*
X849071Y796123D01*
X849070Y796114D01*
X849065Y796114D01*
X848435Y794995D01*
X848436Y794987D01*
X848430Y794985D01*
X848065Y793755D01*
X848068Y793747D01*
X848063Y793744D01*
X847981Y792463D01*
X847984Y792459D01*
X847981Y792457D01*
X848063Y791176D01*
X848069Y791170D01*
X848065Y791165D01*
X848430Y789935D01*
X848437Y789930D01*
X848435Y789925D01*
X849065Y788806D01*
X849072Y788803D01*
X849071Y788797D01*
X849934Y787847D01*
X849942Y787846D01*
X849942Y787840D01*
X850995Y787106D01*
X851003Y787106D01*
X851005Y787101D01*
X852195Y786619D01*
X852202Y786621D01*
X852205Y786616D01*
X853472Y786411D01*
X853477Y786414D01*
X853480Y786411D01*
X865480Y786411D01*
X865484Y786414D01*
G37*
G36*
X60304Y786414D02*
X60304Y786414D01*
X60307Y786411D01*
X61429Y786566D01*
X61434Y786571D01*
X61438Y786568D01*
X62509Y786939D01*
X62513Y786945D01*
X62518Y786943D01*
X63495Y787516D01*
X63498Y787522D01*
X63503Y787521D01*
X64350Y788274D01*
X64352Y788281D01*
X64357Y788281D01*
X65041Y789184D01*
X65041Y789191D01*
X65046Y789192D01*
X65541Y790211D01*
X65539Y790218D01*
X65544Y790220D01*
X65831Y791317D01*
X65829Y791321D01*
X65831Y791322D01*
X65829Y791324D01*
X65832Y791326D01*
X65899Y792457D01*
X65897Y792461D01*
X65899Y792463D01*
X65832Y793594D01*
X65827Y793599D01*
X65831Y793603D01*
X65544Y794700D01*
X65538Y794704D01*
X65541Y794709D01*
X65046Y795728D01*
X65040Y795731D01*
X65041Y795736D01*
X64357Y796639D01*
X64350Y796641D01*
X64350Y796646D01*
X63503Y797399D01*
X63496Y797399D01*
X63495Y797404D01*
X62518Y797977D01*
X62511Y797976D01*
X62509Y797981D01*
X61438Y798352D01*
X61432Y798349D01*
X61429Y798354D01*
X60307Y798509D01*
X60302Y798506D01*
X60300Y798509D01*
X48300Y798509D01*
X48295Y798506D01*
X48292Y798509D01*
X47025Y798304D01*
X47019Y798298D01*
X47015Y798301D01*
X45825Y797819D01*
X45821Y797812D01*
X45815Y797814D01*
X44762Y797080D01*
X44760Y797072D01*
X44754Y797073D01*
X43891Y796123D01*
X43890Y796114D01*
X43885Y796114D01*
X43255Y794995D01*
X43256Y794987D01*
X43250Y794985D01*
X42885Y793755D01*
X42888Y793747D01*
X42883Y793744D01*
X42801Y792463D01*
X42804Y792459D01*
X42801Y792457D01*
X42883Y791176D01*
X42889Y791170D01*
X42885Y791165D01*
X43250Y789935D01*
X43257Y789930D01*
X43255Y789925D01*
X43885Y788806D01*
X43892Y788803D01*
X43891Y788797D01*
X44754Y787847D01*
X44762Y787846D01*
X44762Y787840D01*
X45815Y787106D01*
X45823Y787106D01*
X45825Y787101D01*
X47015Y786619D01*
X47022Y786621D01*
X47025Y786616D01*
X48292Y786411D01*
X48297Y786414D01*
X48300Y786411D01*
X60300Y786411D01*
X60304Y786414D01*
G37*
G36*
X60304Y524834D02*
X60304Y524834D01*
X60307Y524831D01*
X61429Y524986D01*
X61434Y524991D01*
X61438Y524988D01*
X62509Y525359D01*
X62513Y525365D01*
X62518Y525363D01*
X63495Y525936D01*
X63498Y525942D01*
X63503Y525941D01*
X64350Y526694D01*
X64352Y526701D01*
X64357Y526701D01*
X65041Y527604D01*
X65041Y527611D01*
X65046Y527612D01*
X65541Y528631D01*
X65539Y528638D01*
X65544Y528640D01*
X65831Y529737D01*
X65829Y529741D01*
X65831Y529742D01*
X65829Y529744D01*
X65832Y529746D01*
X65899Y530877D01*
X65897Y530881D01*
X65899Y530883D01*
X65832Y532014D01*
X65827Y532019D01*
X65831Y532023D01*
X65544Y533120D01*
X65538Y533124D01*
X65541Y533129D01*
X65046Y534148D01*
X65040Y534151D01*
X65041Y534156D01*
X64357Y535059D01*
X64350Y535061D01*
X64350Y535066D01*
X63503Y535819D01*
X63496Y535819D01*
X63495Y535824D01*
X62518Y536397D01*
X62511Y536396D01*
X62509Y536401D01*
X61438Y536772D01*
X61432Y536769D01*
X61429Y536774D01*
X60307Y536929D01*
X60302Y536926D01*
X60300Y536929D01*
X48300Y536929D01*
X48295Y536926D01*
X48292Y536929D01*
X47025Y536724D01*
X47019Y536718D01*
X47015Y536721D01*
X45825Y536239D01*
X45821Y536232D01*
X45815Y536234D01*
X44762Y535500D01*
X44760Y535492D01*
X44754Y535493D01*
X43891Y534543D01*
X43890Y534534D01*
X43885Y534534D01*
X43255Y533415D01*
X43256Y533407D01*
X43250Y533405D01*
X42885Y532175D01*
X42888Y532167D01*
X42883Y532164D01*
X42801Y530883D01*
X42804Y530879D01*
X42801Y530877D01*
X42883Y529596D01*
X42889Y529590D01*
X42885Y529585D01*
X43250Y528355D01*
X43257Y528350D01*
X43255Y528345D01*
X43885Y527226D01*
X43892Y527223D01*
X43891Y527217D01*
X44754Y526267D01*
X44762Y526266D01*
X44762Y526260D01*
X45815Y525526D01*
X45823Y525526D01*
X45825Y525521D01*
X47015Y525039D01*
X47022Y525041D01*
X47025Y525036D01*
X48292Y524831D01*
X48297Y524834D01*
X48300Y524831D01*
X60300Y524831D01*
X60304Y524834D01*
G37*
G36*
X865484Y524834D02*
X865484Y524834D01*
X865487Y524831D01*
X866609Y524986D01*
X866614Y524991D01*
X866618Y524988D01*
X867689Y525359D01*
X867693Y525365D01*
X867698Y525363D01*
X868675Y525936D01*
X868678Y525942D01*
X868683Y525941D01*
X869530Y526694D01*
X869532Y526701D01*
X869537Y526701D01*
X870221Y527604D01*
X870221Y527611D01*
X870226Y527612D01*
X870721Y528631D01*
X870719Y528638D01*
X870724Y528640D01*
X871011Y529737D01*
X871009Y529741D01*
X871011Y529742D01*
X871009Y529744D01*
X871012Y529746D01*
X871079Y530877D01*
X871077Y530881D01*
X871079Y530883D01*
X871012Y532014D01*
X871007Y532019D01*
X871011Y532023D01*
X870724Y533120D01*
X870718Y533124D01*
X870721Y533129D01*
X870226Y534148D01*
X870220Y534151D01*
X870221Y534156D01*
X869537Y535059D01*
X869530Y535061D01*
X869530Y535066D01*
X868683Y535819D01*
X868676Y535819D01*
X868675Y535824D01*
X867698Y536397D01*
X867691Y536396D01*
X867689Y536401D01*
X866618Y536772D01*
X866612Y536769D01*
X866609Y536774D01*
X865487Y536929D01*
X865482Y536926D01*
X865480Y536929D01*
X853480Y536929D01*
X853475Y536926D01*
X853472Y536929D01*
X852205Y536724D01*
X852199Y536718D01*
X852195Y536721D01*
X851005Y536239D01*
X851001Y536232D01*
X850995Y536234D01*
X849942Y535500D01*
X849940Y535492D01*
X849934Y535493D01*
X849071Y534543D01*
X849070Y534534D01*
X849065Y534534D01*
X848435Y533415D01*
X848436Y533407D01*
X848430Y533405D01*
X848065Y532175D01*
X848068Y532167D01*
X848063Y532164D01*
X847981Y530883D01*
X847984Y530879D01*
X847981Y530877D01*
X848063Y529596D01*
X848069Y529590D01*
X848065Y529585D01*
X848430Y528355D01*
X848437Y528350D01*
X848435Y528345D01*
X849065Y527226D01*
X849072Y527223D01*
X849071Y527217D01*
X849934Y526267D01*
X849942Y526266D01*
X849942Y526260D01*
X850995Y525526D01*
X851003Y525526D01*
X851005Y525521D01*
X852195Y525039D01*
X852202Y525041D01*
X852205Y525036D01*
X853472Y524831D01*
X853477Y524834D01*
X853480Y524831D01*
X865480Y524831D01*
X865484Y524834D01*
G37*
G36*
X865484Y438434D02*
X865484Y438434D01*
X865487Y438431D01*
X866609Y438586D01*
X866614Y438591D01*
X866618Y438588D01*
X867689Y438959D01*
X867693Y438965D01*
X867698Y438963D01*
X868675Y439536D01*
X868678Y439542D01*
X868683Y439541D01*
X869530Y440294D01*
X869532Y440301D01*
X869537Y440301D01*
X870221Y441204D01*
X870221Y441211D01*
X870226Y441212D01*
X870721Y442231D01*
X870719Y442238D01*
X870724Y442240D01*
X871011Y443337D01*
X871009Y443341D01*
X871011Y443342D01*
X871009Y443344D01*
X871012Y443346D01*
X871079Y444477D01*
X871077Y444481D01*
X871079Y444483D01*
X871012Y445614D01*
X871007Y445619D01*
X871011Y445623D01*
X870724Y446720D01*
X870718Y446724D01*
X870721Y446729D01*
X870226Y447748D01*
X870220Y447751D01*
X870221Y447756D01*
X869537Y448659D01*
X869530Y448661D01*
X869530Y448666D01*
X868683Y449419D01*
X868676Y449419D01*
X868675Y449424D01*
X867698Y449997D01*
X867691Y449996D01*
X867689Y450001D01*
X866618Y450372D01*
X866612Y450369D01*
X866609Y450374D01*
X865487Y450529D01*
X865482Y450526D01*
X865480Y450529D01*
X853480Y450529D01*
X853475Y450526D01*
X853472Y450529D01*
X852205Y450324D01*
X852199Y450318D01*
X852195Y450321D01*
X851005Y449839D01*
X851001Y449832D01*
X850995Y449834D01*
X849942Y449100D01*
X849940Y449092D01*
X849934Y449093D01*
X849071Y448143D01*
X849070Y448134D01*
X849065Y448134D01*
X848435Y447015D01*
X848436Y447007D01*
X848430Y447005D01*
X848065Y445775D01*
X848068Y445767D01*
X848063Y445764D01*
X847981Y444483D01*
X847984Y444479D01*
X847981Y444477D01*
X848063Y443196D01*
X848069Y443190D01*
X848065Y443185D01*
X848430Y441955D01*
X848437Y441950D01*
X848435Y441945D01*
X849065Y440826D01*
X849072Y440823D01*
X849071Y440817D01*
X849934Y439867D01*
X849942Y439866D01*
X849942Y439860D01*
X850995Y439126D01*
X851003Y439126D01*
X851005Y439121D01*
X852195Y438639D01*
X852202Y438641D01*
X852205Y438636D01*
X853472Y438431D01*
X853477Y438434D01*
X853480Y438431D01*
X865480Y438431D01*
X865484Y438434D01*
G37*
G36*
X60304Y438434D02*
X60304Y438434D01*
X60307Y438431D01*
X61429Y438586D01*
X61434Y438591D01*
X61438Y438588D01*
X62509Y438959D01*
X62513Y438965D01*
X62518Y438963D01*
X63495Y439536D01*
X63498Y439542D01*
X63503Y439541D01*
X64350Y440294D01*
X64352Y440301D01*
X64357Y440301D01*
X65041Y441204D01*
X65041Y441211D01*
X65046Y441212D01*
X65541Y442231D01*
X65539Y442238D01*
X65544Y442240D01*
X65831Y443337D01*
X65829Y443341D01*
X65831Y443342D01*
X65829Y443344D01*
X65832Y443346D01*
X65899Y444477D01*
X65897Y444481D01*
X65899Y444483D01*
X65832Y445614D01*
X65827Y445619D01*
X65831Y445623D01*
X65544Y446720D01*
X65538Y446724D01*
X65541Y446729D01*
X65046Y447748D01*
X65040Y447751D01*
X65041Y447756D01*
X64357Y448659D01*
X64350Y448661D01*
X64350Y448666D01*
X63503Y449419D01*
X63496Y449419D01*
X63495Y449424D01*
X62518Y449997D01*
X62511Y449996D01*
X62509Y450001D01*
X61438Y450372D01*
X61432Y450369D01*
X61429Y450374D01*
X60307Y450529D01*
X60302Y450526D01*
X60300Y450529D01*
X48300Y450529D01*
X48295Y450526D01*
X48292Y450529D01*
X47025Y450324D01*
X47019Y450318D01*
X47015Y450321D01*
X45825Y449839D01*
X45821Y449832D01*
X45815Y449834D01*
X44762Y449100D01*
X44760Y449092D01*
X44754Y449093D01*
X43891Y448143D01*
X43890Y448134D01*
X43885Y448134D01*
X43255Y447015D01*
X43256Y447007D01*
X43250Y447005D01*
X42885Y445775D01*
X42888Y445767D01*
X42883Y445764D01*
X42801Y444483D01*
X42804Y444479D01*
X42801Y444477D01*
X42883Y443196D01*
X42889Y443190D01*
X42885Y443185D01*
X43250Y441955D01*
X43257Y441950D01*
X43255Y441945D01*
X43885Y440826D01*
X43892Y440823D01*
X43891Y440817D01*
X44754Y439867D01*
X44762Y439866D01*
X44762Y439860D01*
X45815Y439126D01*
X45823Y439126D01*
X45825Y439121D01*
X47015Y438639D01*
X47022Y438641D01*
X47025Y438636D01*
X48292Y438431D01*
X48297Y438434D01*
X48300Y438431D01*
X60300Y438431D01*
X60304Y438434D01*
G37*
G36*
X60304Y176854D02*
X60304Y176854D01*
X60307Y176851D01*
X61429Y177006D01*
X61434Y177011D01*
X61438Y177008D01*
X62509Y177379D01*
X62513Y177385D01*
X62518Y177383D01*
X63495Y177956D01*
X63498Y177962D01*
X63503Y177961D01*
X64350Y178714D01*
X64352Y178721D01*
X64357Y178721D01*
X65041Y179624D01*
X65041Y179631D01*
X65046Y179632D01*
X65541Y180651D01*
X65539Y180658D01*
X65544Y180660D01*
X65831Y181757D01*
X65829Y181761D01*
X65831Y181762D01*
X65829Y181764D01*
X65832Y181766D01*
X65899Y182897D01*
X65897Y182901D01*
X65899Y182903D01*
X65832Y184034D01*
X65827Y184039D01*
X65831Y184043D01*
X65544Y185140D01*
X65538Y185144D01*
X65541Y185149D01*
X65046Y186168D01*
X65040Y186171D01*
X65041Y186176D01*
X64357Y187079D01*
X64350Y187081D01*
X64350Y187086D01*
X63503Y187839D01*
X63496Y187839D01*
X63495Y187844D01*
X62518Y188417D01*
X62511Y188416D01*
X62509Y188421D01*
X61438Y188792D01*
X61432Y188789D01*
X61429Y188794D01*
X60307Y188949D01*
X60302Y188946D01*
X60300Y188949D01*
X48300Y188949D01*
X48295Y188946D01*
X48292Y188949D01*
X47025Y188744D01*
X47019Y188738D01*
X47015Y188741D01*
X45825Y188259D01*
X45821Y188252D01*
X45815Y188254D01*
X44762Y187520D01*
X44760Y187512D01*
X44754Y187513D01*
X43891Y186563D01*
X43890Y186554D01*
X43885Y186554D01*
X43255Y185435D01*
X43256Y185427D01*
X43250Y185425D01*
X42885Y184195D01*
X42888Y184187D01*
X42883Y184184D01*
X42801Y182903D01*
X42804Y182899D01*
X42801Y182897D01*
X42883Y181616D01*
X42889Y181610D01*
X42885Y181605D01*
X43250Y180375D01*
X43257Y180370D01*
X43255Y180365D01*
X43885Y179246D01*
X43892Y179243D01*
X43891Y179237D01*
X44754Y178287D01*
X44762Y178286D01*
X44762Y178280D01*
X45815Y177546D01*
X45823Y177546D01*
X45825Y177541D01*
X47015Y177059D01*
X47022Y177061D01*
X47025Y177056D01*
X48292Y176851D01*
X48297Y176854D01*
X48300Y176851D01*
X60300Y176851D01*
X60304Y176854D01*
G37*
G36*
X865484Y176854D02*
X865484Y176854D01*
X865487Y176851D01*
X866609Y177006D01*
X866614Y177011D01*
X866618Y177008D01*
X867689Y177379D01*
X867693Y177385D01*
X867698Y177383D01*
X868675Y177956D01*
X868678Y177962D01*
X868683Y177961D01*
X869530Y178714D01*
X869532Y178721D01*
X869537Y178721D01*
X870221Y179624D01*
X870221Y179631D01*
X870226Y179632D01*
X870721Y180651D01*
X870719Y180658D01*
X870724Y180660D01*
X871011Y181757D01*
X871009Y181761D01*
X871011Y181762D01*
X871009Y181764D01*
X871012Y181766D01*
X871079Y182897D01*
X871077Y182901D01*
X871079Y182903D01*
X871012Y184034D01*
X871007Y184039D01*
X871011Y184043D01*
X870724Y185140D01*
X870718Y185144D01*
X870721Y185149D01*
X870226Y186168D01*
X870220Y186171D01*
X870221Y186176D01*
X869537Y187079D01*
X869530Y187081D01*
X869530Y187086D01*
X868683Y187839D01*
X868676Y187839D01*
X868675Y187844D01*
X867698Y188417D01*
X867691Y188416D01*
X867689Y188421D01*
X866618Y188792D01*
X866612Y188789D01*
X866609Y188794D01*
X865487Y188949D01*
X865482Y188946D01*
X865480Y188949D01*
X853480Y188949D01*
X853475Y188946D01*
X853472Y188949D01*
X852205Y188744D01*
X852199Y188738D01*
X852195Y188741D01*
X851005Y188259D01*
X851001Y188252D01*
X850995Y188254D01*
X849942Y187520D01*
X849940Y187512D01*
X849934Y187513D01*
X849071Y186563D01*
X849070Y186554D01*
X849065Y186554D01*
X848435Y185435D01*
X848436Y185427D01*
X848430Y185425D01*
X848065Y184195D01*
X848068Y184187D01*
X848063Y184184D01*
X847981Y182903D01*
X847984Y182899D01*
X847981Y182897D01*
X848063Y181616D01*
X848069Y181610D01*
X848065Y181605D01*
X848430Y180375D01*
X848437Y180370D01*
X848435Y180365D01*
X849065Y179246D01*
X849072Y179243D01*
X849071Y179237D01*
X849934Y178287D01*
X849942Y178286D01*
X849942Y178280D01*
X850995Y177546D01*
X851003Y177546D01*
X851005Y177541D01*
X852195Y177059D01*
X852202Y177061D01*
X852205Y177056D01*
X853472Y176851D01*
X853477Y176854D01*
X853480Y176851D01*
X865480Y176851D01*
X865484Y176854D01*
G37*
G36*
X60304Y90454D02*
X60304Y90454D01*
X60307Y90451D01*
X61429Y90606D01*
X61434Y90611D01*
X61438Y90608D01*
X62509Y90979D01*
X62513Y90985D01*
X62518Y90983D01*
X63495Y91556D01*
X63498Y91562D01*
X63503Y91561D01*
X64350Y92314D01*
X64352Y92321D01*
X64357Y92321D01*
X65041Y93224D01*
X65041Y93231D01*
X65046Y93232D01*
X65541Y94251D01*
X65539Y94258D01*
X65544Y94260D01*
X65831Y95357D01*
X65829Y95361D01*
X65831Y95362D01*
X65829Y95364D01*
X65832Y95366D01*
X65899Y96497D01*
X65897Y96501D01*
X65899Y96503D01*
X65832Y97634D01*
X65827Y97639D01*
X65831Y97643D01*
X65544Y98740D01*
X65538Y98744D01*
X65541Y98749D01*
X65046Y99768D01*
X65040Y99771D01*
X65041Y99776D01*
X64357Y100679D01*
X64350Y100681D01*
X64350Y100686D01*
X63503Y101439D01*
X63496Y101439D01*
X63495Y101444D01*
X62518Y102017D01*
X62511Y102016D01*
X62509Y102021D01*
X61438Y102392D01*
X61432Y102389D01*
X61429Y102394D01*
X60307Y102549D01*
X60302Y102546D01*
X60300Y102549D01*
X48300Y102549D01*
X48295Y102546D01*
X48292Y102549D01*
X47025Y102344D01*
X47019Y102338D01*
X47015Y102341D01*
X45825Y101859D01*
X45821Y101852D01*
X45815Y101854D01*
X44762Y101120D01*
X44760Y101112D01*
X44754Y101113D01*
X43891Y100163D01*
X43890Y100154D01*
X43885Y100154D01*
X43255Y99035D01*
X43256Y99027D01*
X43250Y99025D01*
X42885Y97795D01*
X42888Y97787D01*
X42883Y97784D01*
X42801Y96503D01*
X42804Y96499D01*
X42801Y96497D01*
X42883Y95216D01*
X42889Y95210D01*
X42885Y95205D01*
X43250Y93975D01*
X43257Y93970D01*
X43255Y93965D01*
X43885Y92846D01*
X43892Y92843D01*
X43891Y92837D01*
X44754Y91887D01*
X44762Y91886D01*
X44762Y91880D01*
X45815Y91146D01*
X45823Y91146D01*
X45825Y91141D01*
X47015Y90659D01*
X47022Y90661D01*
X47025Y90656D01*
X48292Y90451D01*
X48297Y90454D01*
X48300Y90451D01*
X60300Y90451D01*
X60304Y90454D01*
G37*
G36*
X865484Y90454D02*
X865484Y90454D01*
X865487Y90451D01*
X866609Y90606D01*
X866614Y90611D01*
X866618Y90608D01*
X867689Y90979D01*
X867693Y90985D01*
X867698Y90983D01*
X868675Y91556D01*
X868678Y91562D01*
X868683Y91561D01*
X869530Y92314D01*
X869532Y92321D01*
X869537Y92321D01*
X870221Y93224D01*
X870221Y93231D01*
X870226Y93232D01*
X870721Y94251D01*
X870719Y94258D01*
X870724Y94260D01*
X871011Y95357D01*
X871009Y95361D01*
X871011Y95362D01*
X871009Y95364D01*
X871012Y95366D01*
X871079Y96497D01*
X871077Y96501D01*
X871079Y96503D01*
X871012Y97634D01*
X871007Y97639D01*
X871011Y97643D01*
X870724Y98740D01*
X870718Y98744D01*
X870721Y98749D01*
X870226Y99768D01*
X870220Y99771D01*
X870221Y99776D01*
X869537Y100679D01*
X869530Y100681D01*
X869530Y100686D01*
X868683Y101439D01*
X868676Y101439D01*
X868675Y101444D01*
X867698Y102017D01*
X867691Y102016D01*
X867689Y102021D01*
X866618Y102392D01*
X866612Y102389D01*
X866609Y102394D01*
X865487Y102549D01*
X865482Y102546D01*
X865480Y102549D01*
X853480Y102549D01*
X853475Y102546D01*
X853472Y102549D01*
X852205Y102344D01*
X852199Y102338D01*
X852195Y102341D01*
X851005Y101859D01*
X851001Y101852D01*
X850995Y101854D01*
X849942Y101120D01*
X849940Y101112D01*
X849934Y101113D01*
X849071Y100163D01*
X849070Y100154D01*
X849065Y100154D01*
X848435Y99035D01*
X848436Y99027D01*
X848430Y99025D01*
X848065Y97795D01*
X848068Y97787D01*
X848063Y97784D01*
X847981Y96503D01*
X847984Y96499D01*
X847981Y96497D01*
X848063Y95216D01*
X848069Y95210D01*
X848065Y95205D01*
X848430Y93975D01*
X848437Y93970D01*
X848435Y93965D01*
X849065Y92846D01*
X849072Y92843D01*
X849071Y92837D01*
X849934Y91887D01*
X849942Y91886D01*
X849942Y91880D01*
X850995Y91146D01*
X851003Y91146D01*
X851005Y91141D01*
X852195Y90659D01*
X852202Y90661D01*
X852205Y90656D01*
X853472Y90451D01*
X853477Y90454D01*
X853480Y90451D01*
X865480Y90451D01*
X865484Y90454D01*
G37*
G36*
X15503Y872813D02*
X15503Y872813D01*
X15505Y872811D01*
X16681Y872922D01*
X16686Y872927D01*
X16690Y872924D01*
X17822Y873262D01*
X17826Y873268D01*
X17831Y873266D01*
X18875Y873818D01*
X18878Y873825D01*
X18883Y873823D01*
X19799Y874569D01*
X19800Y874576D01*
X19806Y874576D01*
X20559Y875486D01*
X20559Y875493D01*
X20564Y875494D01*
X21125Y876533D01*
X21124Y876538D01*
X21128Y876540D01*
X21127Y876541D01*
X21129Y876542D01*
X21476Y877671D01*
X21476Y877672D01*
X21477Y877673D01*
X21474Y877677D01*
X21478Y877680D01*
X21599Y878855D01*
X21595Y878862D01*
X21599Y878866D01*
X21442Y880206D01*
X21437Y880212D01*
X21440Y880217D01*
X20989Y881488D01*
X20982Y881493D01*
X20984Y881498D01*
X20262Y882637D01*
X20254Y882640D01*
X20255Y882646D01*
X19297Y883596D01*
X19289Y883597D01*
X19288Y883603D01*
X18143Y884316D01*
X18135Y884315D01*
X18133Y884321D01*
X16857Y884761D01*
X16850Y884759D01*
X16847Y884763D01*
X15505Y884909D01*
X15502Y884907D01*
X15500Y884909D01*
X9500Y884909D01*
X9497Y884907D01*
X9494Y884909D01*
X8165Y884754D01*
X8159Y884748D01*
X8155Y884751D01*
X6894Y884304D01*
X6889Y884297D01*
X6884Y884299D01*
X5754Y883582D01*
X5751Y883575D01*
X5745Y883576D01*
X4803Y882626D01*
X4802Y882617D01*
X4796Y882617D01*
X4089Y881481D01*
X4090Y881473D01*
X4084Y881471D01*
X3648Y880206D01*
X3650Y880198D01*
X3645Y880196D01*
X3501Y878865D01*
X3505Y878859D01*
X3501Y878855D01*
X3611Y877689D01*
X3616Y877684D01*
X3613Y877680D01*
X3948Y876557D01*
X3954Y876553D01*
X3952Y876549D01*
X4500Y875513D01*
X4506Y875510D01*
X4505Y875505D01*
X5244Y874597D01*
X5251Y874595D01*
X5251Y874590D01*
X6153Y873843D01*
X6161Y873843D01*
X6161Y873838D01*
X7192Y873281D01*
X7199Y873282D01*
X7201Y873277D01*
X8320Y872933D01*
X8327Y872935D01*
X8330Y872931D01*
X9495Y872811D01*
X9498Y872813D01*
X9500Y872811D01*
X15500Y872811D01*
X15503Y872813D01*
G37*
G36*
X820683Y872813D02*
X820683Y872813D01*
X820685Y872811D01*
X821861Y872922D01*
X821866Y872927D01*
X821870Y872924D01*
X823002Y873262D01*
X823006Y873268D01*
X823011Y873266D01*
X824055Y873818D01*
X824058Y873825D01*
X824063Y873823D01*
X824979Y874569D01*
X824980Y874576D01*
X824986Y874576D01*
X825739Y875486D01*
X825739Y875493D01*
X825744Y875494D01*
X826305Y876533D01*
X826304Y876538D01*
X826308Y876540D01*
X826307Y876541D01*
X826309Y876542D01*
X826656Y877671D01*
X826656Y877672D01*
X826657Y877673D01*
X826654Y877677D01*
X826658Y877680D01*
X826779Y878855D01*
X826775Y878862D01*
X826779Y878866D01*
X826622Y880206D01*
X826617Y880212D01*
X826620Y880217D01*
X826169Y881488D01*
X826162Y881493D01*
X826164Y881498D01*
X825442Y882637D01*
X825434Y882640D01*
X825435Y882646D01*
X824477Y883596D01*
X824469Y883597D01*
X824468Y883603D01*
X823323Y884316D01*
X823315Y884315D01*
X823313Y884321D01*
X822037Y884761D01*
X822030Y884759D01*
X822027Y884763D01*
X820685Y884909D01*
X820682Y884907D01*
X820680Y884909D01*
X814680Y884909D01*
X814677Y884907D01*
X814674Y884909D01*
X813345Y884754D01*
X813339Y884748D01*
X813335Y884751D01*
X812074Y884304D01*
X812069Y884297D01*
X812064Y884299D01*
X810934Y883582D01*
X810931Y883575D01*
X810925Y883576D01*
X809983Y882626D01*
X809982Y882617D01*
X809976Y882617D01*
X809269Y881481D01*
X809270Y881473D01*
X809264Y881471D01*
X808828Y880206D01*
X808830Y880198D01*
X808825Y880196D01*
X808681Y878865D01*
X808685Y878859D01*
X808681Y878855D01*
X808791Y877689D01*
X808796Y877684D01*
X808793Y877680D01*
X809128Y876557D01*
X809134Y876553D01*
X809132Y876549D01*
X809680Y875513D01*
X809686Y875510D01*
X809685Y875505D01*
X810424Y874597D01*
X810431Y874595D01*
X810431Y874590D01*
X811333Y873843D01*
X811341Y873843D01*
X811341Y873838D01*
X812372Y873281D01*
X812379Y873282D01*
X812381Y873277D01*
X813500Y872933D01*
X813507Y872935D01*
X813510Y872931D01*
X814675Y872811D01*
X814678Y872813D01*
X814680Y872811D01*
X820680Y872811D01*
X820683Y872813D01*
G37*
G36*
X15503Y786413D02*
X15503Y786413D01*
X15505Y786411D01*
X16681Y786522D01*
X16686Y786527D01*
X16690Y786524D01*
X17822Y786862D01*
X17826Y786868D01*
X17831Y786866D01*
X18875Y787418D01*
X18878Y787425D01*
X18883Y787423D01*
X19799Y788169D01*
X19800Y788176D01*
X19806Y788176D01*
X20559Y789086D01*
X20559Y789093D01*
X20564Y789094D01*
X21125Y790133D01*
X21124Y790138D01*
X21128Y790140D01*
X21127Y790141D01*
X21129Y790142D01*
X21476Y791271D01*
X21476Y791272D01*
X21477Y791273D01*
X21474Y791277D01*
X21478Y791280D01*
X21599Y792455D01*
X21595Y792462D01*
X21599Y792466D01*
X21442Y793806D01*
X21437Y793812D01*
X21440Y793817D01*
X20989Y795088D01*
X20982Y795093D01*
X20984Y795098D01*
X20262Y796237D01*
X20254Y796240D01*
X20255Y796246D01*
X19297Y797196D01*
X19289Y797197D01*
X19288Y797203D01*
X18143Y797916D01*
X18135Y797915D01*
X18133Y797921D01*
X16857Y798361D01*
X16850Y798359D01*
X16847Y798363D01*
X15505Y798509D01*
X15502Y798507D01*
X15500Y798509D01*
X9500Y798509D01*
X9497Y798507D01*
X9494Y798509D01*
X8165Y798354D01*
X8159Y798348D01*
X8155Y798351D01*
X6894Y797904D01*
X6889Y797897D01*
X6884Y797899D01*
X5754Y797182D01*
X5751Y797175D01*
X5745Y797176D01*
X4803Y796226D01*
X4802Y796217D01*
X4796Y796217D01*
X4089Y795081D01*
X4090Y795073D01*
X4084Y795071D01*
X3648Y793806D01*
X3650Y793798D01*
X3645Y793796D01*
X3501Y792465D01*
X3505Y792459D01*
X3501Y792455D01*
X3611Y791289D01*
X3616Y791284D01*
X3613Y791280D01*
X3948Y790157D01*
X3954Y790153D01*
X3952Y790149D01*
X4500Y789113D01*
X4506Y789110D01*
X4505Y789105D01*
X5244Y788197D01*
X5251Y788195D01*
X5251Y788190D01*
X6153Y787443D01*
X6161Y787443D01*
X6161Y787438D01*
X7192Y786881D01*
X7199Y786882D01*
X7201Y786877D01*
X8320Y786533D01*
X8327Y786535D01*
X8330Y786531D01*
X9495Y786411D01*
X9498Y786413D01*
X9500Y786411D01*
X15500Y786411D01*
X15503Y786413D01*
G37*
G36*
X820683Y786413D02*
X820683Y786413D01*
X820685Y786411D01*
X821861Y786522D01*
X821866Y786527D01*
X821870Y786524D01*
X823002Y786862D01*
X823006Y786868D01*
X823011Y786866D01*
X824055Y787418D01*
X824058Y787425D01*
X824063Y787423D01*
X824979Y788169D01*
X824980Y788176D01*
X824986Y788176D01*
X825739Y789086D01*
X825739Y789093D01*
X825744Y789094D01*
X826305Y790133D01*
X826304Y790138D01*
X826308Y790140D01*
X826307Y790141D01*
X826309Y790142D01*
X826656Y791271D01*
X826656Y791272D01*
X826657Y791273D01*
X826654Y791277D01*
X826658Y791280D01*
X826779Y792455D01*
X826775Y792462D01*
X826779Y792466D01*
X826622Y793806D01*
X826617Y793812D01*
X826620Y793817D01*
X826169Y795088D01*
X826162Y795093D01*
X826164Y795098D01*
X825442Y796237D01*
X825434Y796240D01*
X825435Y796246D01*
X824477Y797196D01*
X824469Y797197D01*
X824468Y797203D01*
X823323Y797916D01*
X823315Y797915D01*
X823313Y797921D01*
X822037Y798361D01*
X822030Y798359D01*
X822027Y798363D01*
X820685Y798509D01*
X820682Y798507D01*
X820680Y798509D01*
X814680Y798509D01*
X814677Y798507D01*
X814674Y798509D01*
X813345Y798354D01*
X813339Y798348D01*
X813335Y798351D01*
X812074Y797904D01*
X812069Y797897D01*
X812064Y797899D01*
X810934Y797182D01*
X810931Y797175D01*
X810925Y797176D01*
X809983Y796226D01*
X809982Y796217D01*
X809976Y796217D01*
X809269Y795081D01*
X809270Y795073D01*
X809264Y795071D01*
X808828Y793806D01*
X808830Y793798D01*
X808825Y793796D01*
X808681Y792465D01*
X808685Y792459D01*
X808681Y792455D01*
X808791Y791289D01*
X808796Y791284D01*
X808793Y791280D01*
X809128Y790157D01*
X809134Y790153D01*
X809132Y790149D01*
X809680Y789113D01*
X809686Y789110D01*
X809685Y789105D01*
X810424Y788197D01*
X810431Y788195D01*
X810431Y788190D01*
X811333Y787443D01*
X811341Y787443D01*
X811341Y787438D01*
X812372Y786881D01*
X812379Y786882D01*
X812381Y786877D01*
X813500Y786533D01*
X813507Y786535D01*
X813510Y786531D01*
X814675Y786411D01*
X814678Y786413D01*
X814680Y786411D01*
X820680Y786411D01*
X820683Y786413D01*
G37*
G36*
X15503Y524833D02*
X15503Y524833D01*
X15505Y524831D01*
X16681Y524942D01*
X16686Y524947D01*
X16690Y524944D01*
X17822Y525282D01*
X17826Y525288D01*
X17831Y525286D01*
X18875Y525838D01*
X18878Y525845D01*
X18883Y525843D01*
X19799Y526589D01*
X19800Y526596D01*
X19806Y526596D01*
X20559Y527506D01*
X20559Y527513D01*
X20564Y527514D01*
X21125Y528553D01*
X21124Y528558D01*
X21128Y528560D01*
X21127Y528561D01*
X21129Y528562D01*
X21476Y529691D01*
X21476Y529692D01*
X21477Y529693D01*
X21474Y529697D01*
X21478Y529700D01*
X21599Y530875D01*
X21595Y530882D01*
X21599Y530886D01*
X21442Y532226D01*
X21437Y532232D01*
X21440Y532237D01*
X20989Y533508D01*
X20982Y533513D01*
X20984Y533518D01*
X20262Y534657D01*
X20254Y534660D01*
X20255Y534666D01*
X19297Y535616D01*
X19289Y535617D01*
X19288Y535623D01*
X18143Y536336D01*
X18135Y536335D01*
X18133Y536341D01*
X16857Y536781D01*
X16850Y536779D01*
X16847Y536783D01*
X15505Y536929D01*
X15502Y536927D01*
X15500Y536929D01*
X9500Y536929D01*
X9497Y536927D01*
X9494Y536929D01*
X8165Y536774D01*
X8159Y536768D01*
X8155Y536771D01*
X6894Y536324D01*
X6889Y536317D01*
X6884Y536319D01*
X5754Y535602D01*
X5751Y535595D01*
X5745Y535596D01*
X4803Y534646D01*
X4802Y534637D01*
X4796Y534637D01*
X4089Y533501D01*
X4090Y533493D01*
X4084Y533491D01*
X3648Y532226D01*
X3650Y532218D01*
X3645Y532216D01*
X3501Y530885D01*
X3505Y530879D01*
X3501Y530875D01*
X3611Y529709D01*
X3616Y529704D01*
X3613Y529700D01*
X3948Y528577D01*
X3954Y528573D01*
X3952Y528569D01*
X4500Y527533D01*
X4506Y527530D01*
X4505Y527525D01*
X5244Y526617D01*
X5251Y526615D01*
X5251Y526610D01*
X6153Y525863D01*
X6161Y525863D01*
X6161Y525858D01*
X7192Y525301D01*
X7199Y525302D01*
X7201Y525297D01*
X8320Y524953D01*
X8327Y524955D01*
X8330Y524951D01*
X9495Y524831D01*
X9498Y524833D01*
X9500Y524831D01*
X15500Y524831D01*
X15503Y524833D01*
G37*
G36*
X820683Y524833D02*
X820683Y524833D01*
X820685Y524831D01*
X821861Y524942D01*
X821866Y524947D01*
X821870Y524944D01*
X823002Y525282D01*
X823006Y525288D01*
X823011Y525286D01*
X824055Y525838D01*
X824058Y525845D01*
X824063Y525843D01*
X824979Y526589D01*
X824980Y526596D01*
X824986Y526596D01*
X825739Y527506D01*
X825739Y527513D01*
X825744Y527514D01*
X826305Y528553D01*
X826304Y528558D01*
X826308Y528560D01*
X826307Y528561D01*
X826309Y528562D01*
X826656Y529691D01*
X826656Y529692D01*
X826657Y529693D01*
X826654Y529697D01*
X826658Y529700D01*
X826779Y530875D01*
X826775Y530882D01*
X826779Y530886D01*
X826622Y532226D01*
X826617Y532232D01*
X826620Y532237D01*
X826169Y533508D01*
X826162Y533513D01*
X826164Y533518D01*
X825442Y534657D01*
X825434Y534660D01*
X825435Y534666D01*
X824477Y535616D01*
X824469Y535617D01*
X824468Y535623D01*
X823323Y536336D01*
X823315Y536335D01*
X823313Y536341D01*
X822037Y536781D01*
X822030Y536779D01*
X822027Y536783D01*
X820685Y536929D01*
X820682Y536927D01*
X820680Y536929D01*
X814680Y536929D01*
X814677Y536927D01*
X814674Y536929D01*
X813345Y536774D01*
X813339Y536768D01*
X813335Y536771D01*
X812074Y536324D01*
X812069Y536317D01*
X812064Y536319D01*
X810934Y535602D01*
X810931Y535595D01*
X810925Y535596D01*
X809983Y534646D01*
X809982Y534637D01*
X809976Y534637D01*
X809269Y533501D01*
X809270Y533493D01*
X809264Y533491D01*
X808828Y532226D01*
X808830Y532218D01*
X808825Y532216D01*
X808681Y530885D01*
X808685Y530879D01*
X808681Y530875D01*
X808791Y529709D01*
X808796Y529704D01*
X808793Y529700D01*
X809128Y528577D01*
X809134Y528573D01*
X809132Y528569D01*
X809680Y527533D01*
X809686Y527530D01*
X809685Y527525D01*
X810424Y526617D01*
X810431Y526615D01*
X810431Y526610D01*
X811333Y525863D01*
X811341Y525863D01*
X811341Y525858D01*
X812372Y525301D01*
X812379Y525302D01*
X812381Y525297D01*
X813500Y524953D01*
X813507Y524955D01*
X813510Y524951D01*
X814675Y524831D01*
X814678Y524833D01*
X814680Y524831D01*
X820680Y524831D01*
X820683Y524833D01*
G37*
G36*
X820683Y438433D02*
X820683Y438433D01*
X820685Y438431D01*
X821861Y438542D01*
X821866Y438547D01*
X821870Y438544D01*
X823002Y438882D01*
X823006Y438888D01*
X823011Y438886D01*
X824055Y439438D01*
X824058Y439445D01*
X824063Y439443D01*
X824979Y440189D01*
X824980Y440196D01*
X824986Y440196D01*
X825739Y441106D01*
X825739Y441113D01*
X825744Y441114D01*
X826305Y442153D01*
X826304Y442158D01*
X826308Y442160D01*
X826307Y442161D01*
X826309Y442162D01*
X826656Y443291D01*
X826656Y443292D01*
X826657Y443293D01*
X826654Y443297D01*
X826658Y443300D01*
X826779Y444475D01*
X826775Y444482D01*
X826779Y444486D01*
X826622Y445826D01*
X826617Y445832D01*
X826620Y445837D01*
X826169Y447108D01*
X826162Y447113D01*
X826164Y447118D01*
X825442Y448257D01*
X825434Y448260D01*
X825435Y448266D01*
X824477Y449216D01*
X824469Y449217D01*
X824468Y449223D01*
X823323Y449936D01*
X823315Y449935D01*
X823313Y449941D01*
X822037Y450381D01*
X822030Y450379D01*
X822027Y450383D01*
X820685Y450529D01*
X820682Y450527D01*
X820680Y450529D01*
X814680Y450529D01*
X814677Y450527D01*
X814674Y450529D01*
X813345Y450374D01*
X813339Y450368D01*
X813335Y450371D01*
X812074Y449924D01*
X812069Y449917D01*
X812064Y449919D01*
X810934Y449202D01*
X810931Y449195D01*
X810925Y449196D01*
X809983Y448246D01*
X809982Y448237D01*
X809976Y448237D01*
X809269Y447101D01*
X809270Y447093D01*
X809264Y447091D01*
X808828Y445826D01*
X808830Y445818D01*
X808825Y445816D01*
X808681Y444485D01*
X808685Y444479D01*
X808681Y444475D01*
X808791Y443309D01*
X808796Y443304D01*
X808793Y443300D01*
X809128Y442177D01*
X809134Y442173D01*
X809132Y442169D01*
X809680Y441133D01*
X809686Y441130D01*
X809685Y441125D01*
X810424Y440217D01*
X810431Y440215D01*
X810431Y440210D01*
X811333Y439463D01*
X811341Y439463D01*
X811341Y439458D01*
X812372Y438901D01*
X812379Y438902D01*
X812381Y438897D01*
X813500Y438553D01*
X813507Y438555D01*
X813510Y438551D01*
X814675Y438431D01*
X814678Y438433D01*
X814680Y438431D01*
X820680Y438431D01*
X820683Y438433D01*
G37*
G36*
X15503Y438433D02*
X15503Y438433D01*
X15505Y438431D01*
X16681Y438542D01*
X16686Y438547D01*
X16690Y438544D01*
X17822Y438882D01*
X17826Y438888D01*
X17831Y438886D01*
X18875Y439438D01*
X18878Y439445D01*
X18883Y439443D01*
X19799Y440189D01*
X19800Y440196D01*
X19806Y440196D01*
X20559Y441106D01*
X20559Y441113D01*
X20564Y441114D01*
X21125Y442153D01*
X21124Y442158D01*
X21128Y442160D01*
X21127Y442161D01*
X21129Y442162D01*
X21476Y443291D01*
X21476Y443292D01*
X21477Y443293D01*
X21474Y443297D01*
X21478Y443300D01*
X21599Y444475D01*
X21595Y444482D01*
X21599Y444486D01*
X21442Y445826D01*
X21437Y445832D01*
X21440Y445837D01*
X20989Y447108D01*
X20982Y447113D01*
X20984Y447118D01*
X20262Y448257D01*
X20254Y448260D01*
X20255Y448266D01*
X19297Y449216D01*
X19289Y449217D01*
X19288Y449223D01*
X18143Y449936D01*
X18135Y449935D01*
X18133Y449941D01*
X16857Y450381D01*
X16850Y450379D01*
X16847Y450383D01*
X15505Y450529D01*
X15502Y450527D01*
X15500Y450529D01*
X9500Y450529D01*
X9497Y450527D01*
X9494Y450529D01*
X8165Y450374D01*
X8159Y450368D01*
X8155Y450371D01*
X6894Y449924D01*
X6889Y449917D01*
X6884Y449919D01*
X5754Y449202D01*
X5751Y449195D01*
X5745Y449196D01*
X4803Y448246D01*
X4802Y448237D01*
X4796Y448237D01*
X4089Y447101D01*
X4090Y447093D01*
X4084Y447091D01*
X3648Y445826D01*
X3650Y445818D01*
X3645Y445816D01*
X3501Y444485D01*
X3505Y444479D01*
X3501Y444475D01*
X3611Y443309D01*
X3616Y443304D01*
X3613Y443300D01*
X3948Y442177D01*
X3954Y442173D01*
X3952Y442169D01*
X4500Y441133D01*
X4506Y441130D01*
X4505Y441125D01*
X5244Y440217D01*
X5251Y440215D01*
X5251Y440210D01*
X6153Y439463D01*
X6161Y439463D01*
X6161Y439458D01*
X7192Y438901D01*
X7199Y438902D01*
X7201Y438897D01*
X8320Y438553D01*
X8327Y438555D01*
X8330Y438551D01*
X9495Y438431D01*
X9498Y438433D01*
X9500Y438431D01*
X15500Y438431D01*
X15503Y438433D01*
G37*
G36*
X820683Y176853D02*
X820683Y176853D01*
X820685Y176851D01*
X821861Y176962D01*
X821866Y176967D01*
X821870Y176964D01*
X823002Y177302D01*
X823006Y177308D01*
X823011Y177306D01*
X824055Y177858D01*
X824058Y177865D01*
X824063Y177863D01*
X824979Y178609D01*
X824980Y178616D01*
X824986Y178616D01*
X825739Y179526D01*
X825739Y179533D01*
X825744Y179534D01*
X826305Y180573D01*
X826304Y180578D01*
X826308Y180580D01*
X826307Y180581D01*
X826309Y180582D01*
X826656Y181711D01*
X826656Y181712D01*
X826657Y181713D01*
X826654Y181717D01*
X826658Y181720D01*
X826779Y182895D01*
X826775Y182902D01*
X826779Y182906D01*
X826622Y184246D01*
X826617Y184252D01*
X826620Y184257D01*
X826169Y185528D01*
X826162Y185533D01*
X826164Y185538D01*
X825442Y186677D01*
X825434Y186680D01*
X825435Y186686D01*
X824477Y187636D01*
X824469Y187637D01*
X824468Y187643D01*
X823323Y188356D01*
X823315Y188355D01*
X823313Y188361D01*
X822037Y188801D01*
X822030Y188799D01*
X822027Y188803D01*
X820685Y188949D01*
X820682Y188947D01*
X820680Y188949D01*
X814680Y188949D01*
X814677Y188947D01*
X814674Y188949D01*
X813345Y188794D01*
X813339Y188788D01*
X813335Y188791D01*
X812074Y188344D01*
X812069Y188337D01*
X812064Y188339D01*
X810934Y187622D01*
X810931Y187615D01*
X810925Y187616D01*
X809983Y186666D01*
X809982Y186657D01*
X809976Y186657D01*
X809269Y185521D01*
X809270Y185513D01*
X809264Y185511D01*
X808828Y184246D01*
X808830Y184238D01*
X808825Y184236D01*
X808681Y182905D01*
X808685Y182899D01*
X808681Y182895D01*
X808791Y181729D01*
X808796Y181724D01*
X808793Y181720D01*
X809128Y180597D01*
X809134Y180593D01*
X809132Y180589D01*
X809680Y179553D01*
X809686Y179550D01*
X809685Y179545D01*
X810424Y178637D01*
X810431Y178635D01*
X810431Y178630D01*
X811333Y177883D01*
X811341Y177883D01*
X811341Y177878D01*
X812372Y177321D01*
X812379Y177322D01*
X812381Y177317D01*
X813500Y176973D01*
X813507Y176975D01*
X813510Y176971D01*
X814675Y176851D01*
X814678Y176853D01*
X814680Y176851D01*
X820680Y176851D01*
X820683Y176853D01*
G37*
G36*
X15503Y176853D02*
X15503Y176853D01*
X15505Y176851D01*
X16681Y176962D01*
X16686Y176967D01*
X16690Y176964D01*
X17822Y177302D01*
X17826Y177308D01*
X17831Y177306D01*
X18875Y177858D01*
X18878Y177865D01*
X18883Y177863D01*
X19799Y178609D01*
X19800Y178616D01*
X19806Y178616D01*
X20559Y179526D01*
X20559Y179533D01*
X20564Y179534D01*
X21125Y180573D01*
X21124Y180578D01*
X21128Y180580D01*
X21127Y180581D01*
X21129Y180582D01*
X21476Y181711D01*
X21476Y181712D01*
X21477Y181713D01*
X21474Y181717D01*
X21478Y181720D01*
X21599Y182895D01*
X21595Y182902D01*
X21599Y182906D01*
X21442Y184246D01*
X21437Y184252D01*
X21440Y184257D01*
X20989Y185528D01*
X20982Y185533D01*
X20984Y185538D01*
X20262Y186677D01*
X20254Y186680D01*
X20255Y186686D01*
X19297Y187636D01*
X19289Y187637D01*
X19288Y187643D01*
X18143Y188356D01*
X18135Y188355D01*
X18133Y188361D01*
X16857Y188801D01*
X16850Y188799D01*
X16847Y188803D01*
X15505Y188949D01*
X15502Y188947D01*
X15500Y188949D01*
X9500Y188949D01*
X9497Y188947D01*
X9494Y188949D01*
X8165Y188794D01*
X8159Y188788D01*
X8155Y188791D01*
X6894Y188344D01*
X6889Y188337D01*
X6884Y188339D01*
X5754Y187622D01*
X5751Y187615D01*
X5745Y187616D01*
X4803Y186666D01*
X4802Y186657D01*
X4796Y186657D01*
X4089Y185521D01*
X4090Y185513D01*
X4084Y185511D01*
X3648Y184246D01*
X3650Y184238D01*
X3645Y184236D01*
X3501Y182905D01*
X3505Y182899D01*
X3501Y182895D01*
X3611Y181729D01*
X3616Y181724D01*
X3613Y181720D01*
X3948Y180597D01*
X3954Y180593D01*
X3952Y180589D01*
X4500Y179553D01*
X4506Y179550D01*
X4505Y179545D01*
X5244Y178637D01*
X5251Y178635D01*
X5251Y178630D01*
X6153Y177883D01*
X6161Y177883D01*
X6161Y177878D01*
X7192Y177321D01*
X7199Y177322D01*
X7201Y177317D01*
X8320Y176973D01*
X8327Y176975D01*
X8330Y176971D01*
X9495Y176851D01*
X9498Y176853D01*
X9500Y176851D01*
X15500Y176851D01*
X15503Y176853D01*
G37*
G36*
X15503Y90453D02*
X15503Y90453D01*
X15505Y90451D01*
X16681Y90562D01*
X16686Y90567D01*
X16690Y90564D01*
X17822Y90902D01*
X17826Y90908D01*
X17831Y90906D01*
X18875Y91458D01*
X18878Y91465D01*
X18883Y91463D01*
X19799Y92209D01*
X19800Y92216D01*
X19806Y92216D01*
X20559Y93126D01*
X20559Y93133D01*
X20564Y93134D01*
X21125Y94173D01*
X21124Y94178D01*
X21128Y94180D01*
X21127Y94181D01*
X21129Y94182D01*
X21476Y95311D01*
X21476Y95312D01*
X21477Y95313D01*
X21474Y95317D01*
X21478Y95320D01*
X21599Y96495D01*
X21595Y96502D01*
X21599Y96506D01*
X21442Y97846D01*
X21437Y97852D01*
X21440Y97857D01*
X20989Y99128D01*
X20982Y99133D01*
X20984Y99138D01*
X20262Y100277D01*
X20254Y100280D01*
X20255Y100286D01*
X19297Y101236D01*
X19289Y101237D01*
X19288Y101243D01*
X18143Y101956D01*
X18135Y101955D01*
X18133Y101961D01*
X16857Y102401D01*
X16850Y102399D01*
X16847Y102403D01*
X15505Y102549D01*
X15502Y102547D01*
X15500Y102549D01*
X9500Y102549D01*
X9497Y102547D01*
X9494Y102549D01*
X8165Y102394D01*
X8159Y102388D01*
X8155Y102391D01*
X6894Y101944D01*
X6889Y101937D01*
X6884Y101939D01*
X5754Y101222D01*
X5751Y101215D01*
X5745Y101216D01*
X4803Y100266D01*
X4802Y100257D01*
X4796Y100257D01*
X4089Y99121D01*
X4090Y99113D01*
X4084Y99111D01*
X3648Y97846D01*
X3650Y97838D01*
X3645Y97836D01*
X3501Y96505D01*
X3505Y96499D01*
X3501Y96495D01*
X3611Y95329D01*
X3616Y95324D01*
X3613Y95320D01*
X3948Y94197D01*
X3954Y94193D01*
X3952Y94189D01*
X4500Y93153D01*
X4506Y93150D01*
X4505Y93145D01*
X5244Y92237D01*
X5251Y92235D01*
X5251Y92230D01*
X6153Y91483D01*
X6161Y91483D01*
X6161Y91478D01*
X7192Y90921D01*
X7199Y90922D01*
X7201Y90917D01*
X8320Y90573D01*
X8327Y90575D01*
X8330Y90571D01*
X9495Y90451D01*
X9498Y90453D01*
X9500Y90451D01*
X15500Y90451D01*
X15503Y90453D01*
G37*
G36*
X820683Y90453D02*
X820683Y90453D01*
X820685Y90451D01*
X821861Y90562D01*
X821866Y90567D01*
X821870Y90564D01*
X823002Y90902D01*
X823006Y90908D01*
X823011Y90906D01*
X824055Y91458D01*
X824058Y91465D01*
X824063Y91463D01*
X824979Y92209D01*
X824980Y92216D01*
X824986Y92216D01*
X825739Y93126D01*
X825739Y93133D01*
X825744Y93134D01*
X826305Y94173D01*
X826304Y94178D01*
X826308Y94180D01*
X826307Y94181D01*
X826309Y94182D01*
X826656Y95311D01*
X826656Y95312D01*
X826657Y95313D01*
X826654Y95317D01*
X826658Y95320D01*
X826779Y96495D01*
X826775Y96502D01*
X826779Y96506D01*
X826622Y97846D01*
X826617Y97852D01*
X826620Y97857D01*
X826169Y99128D01*
X826162Y99133D01*
X826164Y99138D01*
X825442Y100277D01*
X825434Y100280D01*
X825435Y100286D01*
X824477Y101236D01*
X824469Y101237D01*
X824468Y101243D01*
X823323Y101956D01*
X823315Y101955D01*
X823313Y101961D01*
X822037Y102401D01*
X822030Y102399D01*
X822027Y102403D01*
X820685Y102549D01*
X820682Y102547D01*
X820680Y102549D01*
X814680Y102549D01*
X814677Y102547D01*
X814674Y102549D01*
X813345Y102394D01*
X813339Y102388D01*
X813335Y102391D01*
X812074Y101944D01*
X812069Y101937D01*
X812064Y101939D01*
X810934Y101222D01*
X810931Y101215D01*
X810925Y101216D01*
X809983Y100266D01*
X809982Y100257D01*
X809976Y100257D01*
X809269Y99121D01*
X809270Y99113D01*
X809264Y99111D01*
X808828Y97846D01*
X808830Y97838D01*
X808825Y97836D01*
X808681Y96505D01*
X808685Y96499D01*
X808681Y96495D01*
X808791Y95329D01*
X808796Y95324D01*
X808793Y95320D01*
X809128Y94197D01*
X809134Y94193D01*
X809132Y94189D01*
X809680Y93153D01*
X809686Y93150D01*
X809685Y93145D01*
X810424Y92237D01*
X810431Y92235D01*
X810431Y92230D01*
X811333Y91483D01*
X811341Y91483D01*
X811341Y91478D01*
X812372Y90921D01*
X812379Y90922D01*
X812381Y90917D01*
X813500Y90573D01*
X813507Y90575D01*
X813510Y90571D01*
X814675Y90451D01*
X814678Y90453D01*
X814680Y90451D01*
X820680Y90451D01*
X820683Y90453D01*
G37*
D10*
X60100Y132200D03*
X60100Y137200D03*
D11*
X60100Y107450D03*
X60100Y115200D03*
D10*
X60100Y122200D03*
X60100Y127200D03*
X60100Y147200D03*
X60100Y142200D03*
D11*
X60100Y171950D03*
X60100Y164200D03*
D10*
X60100Y157200D03*
X60100Y152200D03*
D12*
X49050Y168600D03*
X49050Y110800D03*
D13*
X76200Y173600D03*
X76200Y156600D03*
X76200Y105800D03*
X76200Y122800D03*
D14*
X7620Y7620D03*
X792480Y336550D03*
D15*
X774700Y317500D03*
X25400Y317500D03*
X774700Y25400D03*
X25400Y25400D03*
D16*
X205740Y19050D03*
X149860Y19050D03*
X205740Y57150D03*
X149860Y57150D03*
X294640Y19050D03*
X238760Y19050D03*
X294640Y57150D03*
X238760Y57150D03*
D17*
X454700Y150300D03*
D18*
X16900Y254000D03*
X33900Y254000D03*
D19*
X30680Y263210D02*
X30680Y270190D01*
X37660Y270190D01*
X37660Y263210D01*
X30680Y263210D01*
X30680Y268010D02*
X37660Y268010D01*
X13140Y270190D02*
X13140Y263210D01*
X13140Y270190D02*
X20120Y270190D01*
X20120Y263210D01*
X13140Y263210D01*
X13140Y268010D02*
X20120Y268010D01*
D20*
X254000Y90500D03*
D21*
X254000Y290500D03*
D22*
X201250Y98000D03*
D23*
X209000Y87000D03*
X209000Y294000D03*
D22*
X276750Y100500D03*
X201250Y103000D03*
X276750Y105500D03*
X201250Y108000D03*
X276750Y110500D03*
X201250Y113000D03*
X276750Y115500D03*
X201250Y118000D03*
X276750Y120500D03*
X201250Y123000D03*
X276750Y125500D03*
X201250Y128000D03*
X276750Y130500D03*
X201250Y133000D03*
X276750Y135500D03*
X201250Y138000D03*
X276750Y140500D03*
X201250Y143000D03*
X276750Y145500D03*
X201250Y148000D03*
X276750Y150500D03*
X201250Y153000D03*
X276750Y175500D03*
X201250Y178000D03*
X276750Y180500D03*
X201250Y183000D03*
X276750Y185500D03*
X201250Y188000D03*
X276750Y190500D03*
X201250Y193000D03*
X276750Y195500D03*
X201250Y198000D03*
X276750Y200500D03*
X201250Y203000D03*
X276750Y205500D03*
X201250Y208000D03*
X276750Y210500D03*
X201250Y213000D03*
X276750Y215500D03*
X201250Y218000D03*
X276750Y220500D03*
X201250Y223000D03*
X276750Y225500D03*
X201250Y228000D03*
X276750Y230500D03*
X201250Y233000D03*
X276750Y235500D03*
X201250Y238000D03*
X276750Y240500D03*
X201250Y243000D03*
X276750Y245500D03*
X201250Y248000D03*
X276750Y250500D03*
X201250Y253000D03*
X276750Y255500D03*
X201250Y258000D03*
X276750Y260500D03*
X201250Y263000D03*
X276750Y265500D03*
X201250Y268000D03*
X276750Y270500D03*
X201250Y273000D03*
X276750Y275500D03*
X201250Y278000D03*
X276750Y280500D03*
X201250Y283000D03*
D24*
X73600Y14050D03*
X129600Y14050D03*
D25*
X86600Y50800D03*
X96600Y50800D03*
X106600Y50800D03*
X116600Y50800D03*
D26*
X91600Y267800D03*
X111600Y267800D03*
D27*
X67600Y319800D03*
X135600Y319800D03*
D28*
X91850Y113250D03*
X98350Y113250D03*
X104850Y113250D03*
X111350Y113250D03*
X111350Y140750D03*
X104850Y140750D03*
X98350Y140750D03*
X91850Y140750D03*
D29*
X101600Y127000D03*
D18*
X97300Y177800D03*
X114300Y177800D03*
X97300Y165100D03*
X114300Y165100D03*
D30*
X102900Y203200D03*
X74900Y203200D03*
D31*
X63500Y76200D03*
X38100Y76200D03*
D13*
X127000Y135500D03*
X127000Y118500D03*
D32*
X139700Y138500D03*
X139700Y115500D03*
D13*
X88900Y93200D03*
X88900Y76200D03*
X107950Y93200D03*
X107950Y76200D03*
X127000Y93200D03*
X127000Y76200D03*
D33*
X23100Y215900D03*
X53100Y215900D03*
D34*
X165401Y193700D03*
X165401Y203200D03*
X165401Y212700D03*
X139399Y212700D03*
X139399Y193700D03*
D13*
X120650Y211700D03*
X120650Y194700D03*
X184150Y220100D03*
X184150Y237100D03*
D18*
X143900Y177800D03*
X160900Y177800D03*
D35*
X140900Y228600D03*
X163900Y228600D03*
D19*
X170380Y155890D02*
X170380Y148910D01*
X170380Y155890D02*
X177360Y155890D01*
X177360Y148910D01*
X170380Y148910D01*
X170380Y153710D02*
X177360Y153710D01*
X152840Y155890D02*
X152840Y148910D01*
X152840Y155890D02*
X159820Y155890D01*
X159820Y148910D01*
X152840Y148910D01*
X152840Y153710D02*
X159820Y153710D01*
D13*
X184150Y186300D03*
X184150Y169300D03*
D17*
X520700Y254000D03*
X520700Y50800D03*
X723900Y50800D03*
X723900Y254000D03*
D10*
X865280Y132200D03*
X865280Y137200D03*
D11*
X865280Y107450D03*
X865280Y115200D03*
D10*
X865280Y122200D03*
X865280Y127200D03*
X865280Y147200D03*
X865280Y142200D03*
D11*
X865280Y171950D03*
X865280Y164200D03*
D10*
X865280Y157200D03*
X865280Y152200D03*
D12*
X854230Y168600D03*
X854230Y110800D03*
D13*
X881380Y173600D03*
X881380Y156600D03*
X881380Y105800D03*
X881380Y122800D03*
D14*
X812800Y7620D03*
X1597660Y336550D03*
D15*
X1579880Y317500D03*
X830580Y317500D03*
X1579880Y25400D03*
X830580Y25400D03*
D16*
X1010920Y19050D03*
X955040Y19050D03*
X1010920Y57150D03*
X955040Y57150D03*
X1099820Y19050D03*
X1043940Y19050D03*
X1099820Y57150D03*
X1043940Y57150D03*
D17*
X1259880Y150300D03*
D18*
X822080Y254000D03*
X839080Y254000D03*
D19*
X835860Y263210D02*
X835860Y270190D01*
X842840Y270190D01*
X842840Y263210D01*
X835860Y263210D01*
X835860Y268010D02*
X842840Y268010D01*
X818320Y270190D02*
X818320Y263210D01*
X818320Y270190D02*
X825300Y270190D01*
X825300Y263210D01*
X818320Y263210D01*
X818320Y268010D02*
X825300Y268010D01*
D20*
X1059180Y90500D03*
D21*
X1059180Y290500D03*
D22*
X1006430Y98000D03*
D23*
X1014180Y87000D03*
X1014180Y294000D03*
D22*
X1081930Y100500D03*
X1006430Y103000D03*
X1081930Y105500D03*
X1006430Y108000D03*
X1081930Y110500D03*
X1006430Y113000D03*
X1081930Y115500D03*
X1006430Y118000D03*
X1081930Y120500D03*
X1006430Y123000D03*
X1081930Y125500D03*
X1006430Y128000D03*
X1081930Y130500D03*
X1006430Y133000D03*
X1081930Y135500D03*
X1006430Y138000D03*
X1081930Y140500D03*
X1006430Y143000D03*
X1081930Y145500D03*
X1006430Y148000D03*
X1081930Y150500D03*
X1006430Y153000D03*
X1081930Y175500D03*
X1006430Y178000D03*
X1081930Y180500D03*
X1006430Y183000D03*
X1081930Y185500D03*
X1006430Y188000D03*
X1081930Y190500D03*
X1006430Y193000D03*
X1081930Y195500D03*
X1006430Y198000D03*
X1081930Y200500D03*
X1006430Y203000D03*
X1081930Y205500D03*
X1006430Y208000D03*
X1081930Y210500D03*
X1006430Y213000D03*
X1081930Y215500D03*
X1006430Y218000D03*
X1081930Y220500D03*
X1006430Y223000D03*
X1081930Y225500D03*
X1006430Y228000D03*
X1081930Y230500D03*
X1006430Y233000D03*
X1081930Y235500D03*
X1006430Y238000D03*
X1081930Y240500D03*
X1006430Y243000D03*
X1081930Y245500D03*
X1006430Y248000D03*
X1081930Y250500D03*
X1006430Y253000D03*
X1081930Y255500D03*
X1006430Y258000D03*
X1081930Y260500D03*
X1006430Y263000D03*
X1081930Y265500D03*
X1006430Y268000D03*
X1081930Y270500D03*
X1006430Y273000D03*
X1081930Y275500D03*
X1006430Y278000D03*
X1081930Y280500D03*
X1006430Y283000D03*
D24*
X878780Y14050D03*
X934780Y14050D03*
D25*
X891780Y50800D03*
X901780Y50800D03*
X911780Y50800D03*
X921780Y50800D03*
D26*
X896780Y267800D03*
X916780Y267800D03*
D27*
X872780Y319800D03*
X940780Y319800D03*
D28*
X897030Y113250D03*
X903530Y113250D03*
X910030Y113250D03*
X916530Y113250D03*
X916530Y140750D03*
X910030Y140750D03*
X903530Y140750D03*
X897030Y140750D03*
D29*
X906780Y127000D03*
D18*
X902480Y177800D03*
X919480Y177800D03*
X902480Y165100D03*
X919480Y165100D03*
D30*
X908080Y203200D03*
X880080Y203200D03*
D31*
X868680Y76200D03*
X843280Y76200D03*
D13*
X932180Y135500D03*
X932180Y118500D03*
D32*
X944880Y138500D03*
X944880Y115500D03*
D13*
X894080Y93200D03*
X894080Y76200D03*
X913130Y93200D03*
X913130Y76200D03*
X932180Y93200D03*
X932180Y76200D03*
D33*
X828280Y215900D03*
X858280Y215900D03*
D34*
X970581Y193700D03*
X970581Y203200D03*
X970581Y212700D03*
X944579Y212700D03*
X944579Y193700D03*
D13*
X925830Y211700D03*
X925830Y194700D03*
X989330Y220100D03*
X989330Y237100D03*
D18*
X949080Y177800D03*
X966080Y177800D03*
D35*
X946080Y228600D03*
X969080Y228600D03*
D19*
X975560Y155890D02*
X975560Y148910D01*
X975560Y155890D02*
X982540Y155890D01*
X982540Y148910D01*
X975560Y148910D01*
X975560Y153710D02*
X982540Y153710D01*
X958020Y155890D02*
X958020Y148910D01*
X958020Y155890D02*
X965000Y155890D01*
X965000Y148910D01*
X958020Y148910D01*
X958020Y153710D02*
X965000Y153710D01*
D13*
X989330Y186300D03*
X989330Y169300D03*
D17*
X1325880Y254000D03*
X1325880Y50800D03*
X1529080Y50800D03*
X1529080Y254000D03*
D10*
X60100Y480180D03*
X60100Y485180D03*
D11*
X60100Y455430D03*
X60100Y463180D03*
D10*
X60100Y470180D03*
X60100Y475180D03*
X60100Y495180D03*
X60100Y490180D03*
D11*
X60100Y519930D03*
X60100Y512180D03*
D10*
X60100Y505180D03*
X60100Y500180D03*
D12*
X49050Y516580D03*
X49050Y458780D03*
D13*
X76200Y521580D03*
X76200Y504580D03*
X76200Y453780D03*
X76200Y470780D03*
D14*
X7620Y355600D03*
X792480Y684530D03*
D15*
X774700Y665480D03*
X25400Y665480D03*
X774700Y373380D03*
X25400Y373380D03*
D16*
X205740Y367030D03*
X149860Y367030D03*
X205740Y405130D03*
X149860Y405130D03*
X294640Y367030D03*
X238760Y367030D03*
X294640Y405130D03*
X238760Y405130D03*
D17*
X454700Y498280D03*
D18*
X16900Y601980D03*
X33900Y601980D03*
D19*
X30680Y611190D02*
X30680Y618170D01*
X37660Y618170D01*
X37660Y611190D01*
X30680Y611190D01*
X30680Y615990D02*
X37660Y615990D01*
X13140Y618170D02*
X13140Y611190D01*
X13140Y618170D02*
X20120Y618170D01*
X20120Y611190D01*
X13140Y611190D01*
X13140Y615990D02*
X20120Y615990D01*
D20*
X254000Y438480D03*
D21*
X254000Y638480D03*
D22*
X201250Y445980D03*
D23*
X209000Y434980D03*
X209000Y641980D03*
D22*
X276750Y448480D03*
X201250Y450980D03*
X276750Y453480D03*
X201250Y455980D03*
X276750Y458480D03*
X201250Y460980D03*
X276750Y463480D03*
X201250Y465980D03*
X276750Y468480D03*
X201250Y470980D03*
X276750Y473480D03*
X201250Y475980D03*
X276750Y478480D03*
X201250Y480980D03*
X276750Y483480D03*
X201250Y485980D03*
X276750Y488480D03*
X201250Y490980D03*
X276750Y493480D03*
X201250Y495980D03*
X276750Y498480D03*
X201250Y500980D03*
X276750Y523480D03*
X201250Y525980D03*
X276750Y528480D03*
X201250Y530980D03*
X276750Y533480D03*
X201250Y535980D03*
X276750Y538480D03*
X201250Y540980D03*
X276750Y543480D03*
X201250Y545980D03*
X276750Y548480D03*
X201250Y550980D03*
X276750Y553480D03*
X201250Y555980D03*
X276750Y558480D03*
X201250Y560980D03*
X276750Y563480D03*
X201250Y565980D03*
X276750Y568480D03*
X201250Y570980D03*
X276750Y573480D03*
X201250Y575980D03*
X276750Y578480D03*
X201250Y580980D03*
X276750Y583480D03*
X201250Y585980D03*
X276750Y588480D03*
X201250Y590980D03*
X276750Y593480D03*
X201250Y595980D03*
X276750Y598480D03*
X201250Y600980D03*
X276750Y603480D03*
X201250Y605980D03*
X276750Y608480D03*
X201250Y610980D03*
X276750Y613480D03*
X201250Y615980D03*
X276750Y618480D03*
X201250Y620980D03*
X276750Y623480D03*
X201250Y625980D03*
X276750Y628480D03*
X201250Y630980D03*
D24*
X73600Y362030D03*
X129600Y362030D03*
D25*
X86600Y398780D03*
X96600Y398780D03*
X106600Y398780D03*
X116600Y398780D03*
D26*
X91600Y615780D03*
X111600Y615780D03*
D27*
X67600Y667780D03*
X135600Y667780D03*
D28*
X91850Y461230D03*
X98350Y461230D03*
X104850Y461230D03*
X111350Y461230D03*
X111350Y488730D03*
X104850Y488730D03*
X98350Y488730D03*
X91850Y488730D03*
D29*
X101600Y474980D03*
D18*
X97300Y525780D03*
X114300Y525780D03*
X97300Y513080D03*
X114300Y513080D03*
D30*
X102900Y551180D03*
X74900Y551180D03*
D31*
X63500Y424180D03*
X38100Y424180D03*
D13*
X127000Y483480D03*
X127000Y466480D03*
D32*
X139700Y486480D03*
X139700Y463480D03*
D13*
X88900Y441180D03*
X88900Y424180D03*
X107950Y441180D03*
X107950Y424180D03*
X127000Y441180D03*
X127000Y424180D03*
D33*
X23100Y563880D03*
X53100Y563880D03*
D34*
X165401Y541680D03*
X165401Y551180D03*
X165401Y560680D03*
X139399Y560680D03*
X139399Y541680D03*
D13*
X120650Y559680D03*
X120650Y542680D03*
X184150Y568080D03*
X184150Y585080D03*
D18*
X143900Y525780D03*
X160900Y525780D03*
D35*
X140900Y576580D03*
X163900Y576580D03*
D19*
X170380Y503870D02*
X170380Y496890D01*
X170380Y503870D02*
X177360Y503870D01*
X177360Y496890D01*
X170380Y496890D01*
X170380Y501690D02*
X177360Y501690D01*
X152840Y503870D02*
X152840Y496890D01*
X152840Y503870D02*
X159820Y503870D01*
X159820Y496890D01*
X152840Y496890D01*
X152840Y501690D02*
X159820Y501690D01*
D13*
X184150Y534280D03*
X184150Y517280D03*
D17*
X520700Y601980D03*
X520700Y398780D03*
X723900Y398780D03*
X723900Y601980D03*
D10*
X865280Y480180D03*
X865280Y485180D03*
D11*
X865280Y455430D03*
X865280Y463180D03*
D10*
X865280Y470180D03*
X865280Y475180D03*
X865280Y495180D03*
X865280Y490180D03*
D11*
X865280Y519930D03*
X865280Y512180D03*
D10*
X865280Y505180D03*
X865280Y500180D03*
D12*
X854230Y516580D03*
X854230Y458780D03*
D13*
X881380Y521580D03*
X881380Y504580D03*
X881380Y453780D03*
X881380Y470780D03*
D14*
X812800Y355600D03*
X1597660Y684530D03*
D15*
X1579880Y665480D03*
X830580Y665480D03*
X1579880Y373380D03*
X830580Y373380D03*
D16*
X1010920Y367030D03*
X955040Y367030D03*
X1010920Y405130D03*
X955040Y405130D03*
X1099820Y367030D03*
X1043940Y367030D03*
X1099820Y405130D03*
X1043940Y405130D03*
D17*
X1259880Y498280D03*
D18*
X822080Y601980D03*
X839080Y601980D03*
D19*
X835860Y611190D02*
X835860Y618170D01*
X842840Y618170D01*
X842840Y611190D01*
X835860Y611190D01*
X835860Y615990D02*
X842840Y615990D01*
X818320Y618170D02*
X818320Y611190D01*
X818320Y618170D02*
X825300Y618170D01*
X825300Y611190D01*
X818320Y611190D01*
X818320Y615990D02*
X825300Y615990D01*
D20*
X1059180Y438480D03*
D21*
X1059180Y638480D03*
D22*
X1006430Y445980D03*
D23*
X1014180Y434980D03*
X1014180Y641980D03*
D22*
X1081930Y448480D03*
X1006430Y450980D03*
X1081930Y453480D03*
X1006430Y455980D03*
X1081930Y458480D03*
X1006430Y460980D03*
X1081930Y463480D03*
X1006430Y465980D03*
X1081930Y468480D03*
X1006430Y470980D03*
X1081930Y473480D03*
X1006430Y475980D03*
X1081930Y478480D03*
X1006430Y480980D03*
X1081930Y483480D03*
X1006430Y485980D03*
X1081930Y488480D03*
X1006430Y490980D03*
X1081930Y493480D03*
X1006430Y495980D03*
X1081930Y498480D03*
X1006430Y500980D03*
X1081930Y523480D03*
X1006430Y525980D03*
X1081930Y528480D03*
X1006430Y530980D03*
X1081930Y533480D03*
X1006430Y535980D03*
X1081930Y538480D03*
X1006430Y540980D03*
X1081930Y543480D03*
X1006430Y545980D03*
X1081930Y548480D03*
X1006430Y550980D03*
X1081930Y553480D03*
X1006430Y555980D03*
X1081930Y558480D03*
X1006430Y560980D03*
X1081930Y563480D03*
X1006430Y565980D03*
X1081930Y568480D03*
X1006430Y570980D03*
X1081930Y573480D03*
X1006430Y575980D03*
X1081930Y578480D03*
X1006430Y580980D03*
X1081930Y583480D03*
X1006430Y585980D03*
X1081930Y588480D03*
X1006430Y590980D03*
X1081930Y593480D03*
X1006430Y595980D03*
X1081930Y598480D03*
X1006430Y600980D03*
X1081930Y603480D03*
X1006430Y605980D03*
X1081930Y608480D03*
X1006430Y610980D03*
X1081930Y613480D03*
X1006430Y615980D03*
X1081930Y618480D03*
X1006430Y620980D03*
X1081930Y623480D03*
X1006430Y625980D03*
X1081930Y628480D03*
X1006430Y630980D03*
D24*
X878780Y362030D03*
X934780Y362030D03*
D25*
X891780Y398780D03*
X901780Y398780D03*
X911780Y398780D03*
X921780Y398780D03*
D26*
X896780Y615780D03*
X916780Y615780D03*
D27*
X872780Y667780D03*
X940780Y667780D03*
D28*
X897030Y461230D03*
X903530Y461230D03*
X910030Y461230D03*
X916530Y461230D03*
X916530Y488730D03*
X910030Y488730D03*
X903530Y488730D03*
X897030Y488730D03*
D29*
X906780Y474980D03*
D18*
X902480Y525780D03*
X919480Y525780D03*
X902480Y513080D03*
X919480Y513080D03*
D30*
X908080Y551180D03*
X880080Y551180D03*
D31*
X868680Y424180D03*
X843280Y424180D03*
D13*
X932180Y483480D03*
X932180Y466480D03*
D32*
X944880Y486480D03*
X944880Y463480D03*
D13*
X894080Y441180D03*
X894080Y424180D03*
X913130Y441180D03*
X913130Y424180D03*
X932180Y441180D03*
X932180Y424180D03*
D33*
X828280Y563880D03*
X858280Y563880D03*
D34*
X970581Y541680D03*
X970581Y551180D03*
X970581Y560680D03*
X944579Y560680D03*
X944579Y541680D03*
D13*
X925830Y559680D03*
X925830Y542680D03*
X989330Y568080D03*
X989330Y585080D03*
D18*
X949080Y525780D03*
X966080Y525780D03*
D35*
X946080Y576580D03*
X969080Y576580D03*
D19*
X975560Y503870D02*
X975560Y496890D01*
X975560Y503870D02*
X982540Y503870D01*
X982540Y496890D01*
X975560Y496890D01*
X975560Y501690D02*
X982540Y501690D01*
X958020Y503870D02*
X958020Y496890D01*
X958020Y503870D02*
X965000Y503870D01*
X965000Y496890D01*
X958020Y496890D01*
X958020Y501690D02*
X965000Y501690D01*
D13*
X989330Y534280D03*
X989330Y517280D03*
D17*
X1325880Y601980D03*
X1325880Y398780D03*
X1529080Y398780D03*
X1529080Y601980D03*
D10*
X60100Y828160D03*
X60100Y833160D03*
D11*
X60100Y803410D03*
X60100Y811160D03*
D10*
X60100Y818160D03*
X60100Y823160D03*
X60100Y843160D03*
X60100Y838160D03*
D11*
X60100Y867910D03*
X60100Y860160D03*
D10*
X60100Y853160D03*
X60100Y848160D03*
D12*
X49050Y864560D03*
X49050Y806760D03*
D13*
X76200Y869560D03*
X76200Y852560D03*
X76200Y801760D03*
X76200Y818760D03*
D14*
X7620Y703580D03*
X792480Y1032510D03*
D15*
X774700Y1013460D03*
X25400Y1013460D03*
X774700Y721360D03*
X25400Y721360D03*
D16*
X205740Y715010D03*
X149860Y715010D03*
X205740Y753110D03*
X149860Y753110D03*
X294640Y715010D03*
X238760Y715010D03*
X294640Y753110D03*
X238760Y753110D03*
D17*
X454700Y846260D03*
D18*
X16900Y949960D03*
X33900Y949960D03*
D19*
X30680Y959170D02*
X30680Y966150D01*
X37660Y966150D01*
X37660Y959170D01*
X30680Y959170D01*
X30680Y963970D02*
X37660Y963970D01*
X13140Y966150D02*
X13140Y959170D01*
X13140Y966150D02*
X20120Y966150D01*
X20120Y959170D01*
X13140Y959170D01*
X13140Y963970D02*
X20120Y963970D01*
D20*
X254000Y786460D03*
D21*
X254000Y986460D03*
D22*
X201250Y793960D03*
D23*
X209000Y782960D03*
X209000Y989960D03*
D22*
X276750Y796460D03*
X201250Y798960D03*
X276750Y801460D03*
X201250Y803960D03*
X276750Y806460D03*
X201250Y808960D03*
X276750Y811460D03*
X201250Y813960D03*
X276750Y816460D03*
X201250Y818960D03*
X276750Y821460D03*
X201250Y823960D03*
X276750Y826460D03*
X201250Y828960D03*
X276750Y831460D03*
X201250Y833960D03*
X276750Y836460D03*
X201250Y838960D03*
X276750Y841460D03*
X201250Y843960D03*
X276750Y846460D03*
X201250Y848960D03*
X276750Y871460D03*
X201250Y873960D03*
X276750Y876460D03*
X201250Y878960D03*
X276750Y881460D03*
X201250Y883960D03*
X276750Y886460D03*
X201250Y888960D03*
X276750Y891460D03*
X201250Y893960D03*
X276750Y896460D03*
X201250Y898960D03*
X276750Y901460D03*
X201250Y903960D03*
X276750Y906460D03*
X201250Y908960D03*
X276750Y911460D03*
X201250Y913960D03*
X276750Y916460D03*
X201250Y918960D03*
X276750Y921460D03*
X201250Y923960D03*
X276750Y926460D03*
X201250Y928960D03*
X276750Y931460D03*
X201250Y933960D03*
X276750Y936460D03*
X201250Y938960D03*
X276750Y941460D03*
X201250Y943960D03*
X276750Y946460D03*
X201250Y948960D03*
X276750Y951460D03*
X201250Y953960D03*
X276750Y956460D03*
X201250Y958960D03*
X276750Y961460D03*
X201250Y963960D03*
X276750Y966460D03*
X201250Y968960D03*
X276750Y971460D03*
X201250Y973960D03*
X276750Y976460D03*
X201250Y978960D03*
D24*
X73600Y710010D03*
X129600Y710010D03*
D25*
X86600Y746760D03*
X96600Y746760D03*
X106600Y746760D03*
X116600Y746760D03*
D26*
X91600Y963760D03*
X111600Y963760D03*
D27*
X67600Y1015760D03*
X135600Y1015760D03*
D28*
X91850Y809210D03*
X98350Y809210D03*
X104850Y809210D03*
X111350Y809210D03*
X111350Y836710D03*
X104850Y836710D03*
X98350Y836710D03*
X91850Y836710D03*
D29*
X101600Y822960D03*
D18*
X97300Y873760D03*
X114300Y873760D03*
X97300Y861060D03*
X114300Y861060D03*
D30*
X102900Y899160D03*
X74900Y899160D03*
D31*
X63500Y772160D03*
X38100Y772160D03*
D13*
X127000Y831460D03*
X127000Y814460D03*
D32*
X139700Y834460D03*
X139700Y811460D03*
D13*
X88900Y789160D03*
X88900Y772160D03*
X107950Y789160D03*
X107950Y772160D03*
X127000Y789160D03*
X127000Y772160D03*
D33*
X23100Y911860D03*
X53100Y911860D03*
D34*
X165401Y889660D03*
X165401Y899160D03*
X165401Y908660D03*
X139399Y908660D03*
X139399Y889660D03*
D13*
X120650Y907660D03*
X120650Y890660D03*
X184150Y916060D03*
X184150Y933060D03*
D18*
X143900Y873760D03*
X160900Y873760D03*
D35*
X140900Y924560D03*
X163900Y924560D03*
D19*
X170380Y851850D02*
X170380Y844870D01*
X170380Y851850D02*
X177360Y851850D01*
X177360Y844870D01*
X170380Y844870D01*
X170380Y849670D02*
X177360Y849670D01*
X152840Y851850D02*
X152840Y844870D01*
X152840Y851850D02*
X159820Y851850D01*
X159820Y844870D01*
X152840Y844870D01*
X152840Y849670D02*
X159820Y849670D01*
D13*
X184150Y882260D03*
X184150Y865260D03*
D17*
X520700Y949960D03*
X520700Y746760D03*
X723900Y746760D03*
X723900Y949960D03*
D10*
X865280Y828160D03*
X865280Y833160D03*
D11*
X865280Y803410D03*
X865280Y811160D03*
D10*
X865280Y818160D03*
X865280Y823160D03*
X865280Y843160D03*
X865280Y838160D03*
D11*
X865280Y867910D03*
X865280Y860160D03*
D10*
X865280Y853160D03*
X865280Y848160D03*
D12*
X854230Y864560D03*
X854230Y806760D03*
D13*
X881380Y869560D03*
X881380Y852560D03*
X881380Y801760D03*
X881380Y818760D03*
D14*
X812800Y703580D03*
X1597660Y1032510D03*
D15*
X1579880Y1013460D03*
X830580Y1013460D03*
X1579880Y721360D03*
X830580Y721360D03*
D16*
X1010920Y715010D03*
X955040Y715010D03*
X1010920Y753110D03*
X955040Y753110D03*
X1099820Y715010D03*
X1043940Y715010D03*
X1099820Y753110D03*
X1043940Y753110D03*
D17*
X1259880Y846260D03*
D18*
X822080Y949960D03*
X839080Y949960D03*
D19*
X835860Y959170D02*
X835860Y966150D01*
X842840Y966150D01*
X842840Y959170D01*
X835860Y959170D01*
X835860Y963970D02*
X842840Y963970D01*
X818320Y966150D02*
X818320Y959170D01*
X818320Y966150D02*
X825300Y966150D01*
X825300Y959170D01*
X818320Y959170D01*
X818320Y963970D02*
X825300Y963970D01*
D20*
X1059180Y786460D03*
D21*
X1059180Y986460D03*
D22*
X1006430Y793960D03*
D23*
X1014180Y782960D03*
X1014180Y989960D03*
D22*
X1081930Y796460D03*
X1006430Y798960D03*
X1081930Y801460D03*
X1006430Y803960D03*
X1081930Y806460D03*
X1006430Y808960D03*
X1081930Y811460D03*
X1006430Y813960D03*
X1081930Y816460D03*
X1006430Y818960D03*
X1081930Y821460D03*
X1006430Y823960D03*
X1081930Y826460D03*
X1006430Y828960D03*
X1081930Y831460D03*
X1006430Y833960D03*
X1081930Y836460D03*
X1006430Y838960D03*
X1081930Y841460D03*
X1006430Y843960D03*
X1081930Y846460D03*
X1006430Y848960D03*
X1081930Y871460D03*
X1006430Y873960D03*
X1081930Y876460D03*
X1006430Y878960D03*
X1081930Y881460D03*
X1006430Y883960D03*
X1081930Y886460D03*
X1006430Y888960D03*
X1081930Y891460D03*
X1006430Y893960D03*
X1081930Y896460D03*
X1006430Y898960D03*
X1081930Y901460D03*
X1006430Y903960D03*
X1081930Y906460D03*
X1006430Y908960D03*
X1081930Y911460D03*
X1006430Y913960D03*
X1081930Y916460D03*
X1006430Y918960D03*
X1081930Y921460D03*
X1006430Y923960D03*
X1081930Y926460D03*
X1006430Y928960D03*
X1081930Y931460D03*
X1006430Y933960D03*
X1081930Y936460D03*
X1006430Y938960D03*
X1081930Y941460D03*
X1006430Y943960D03*
X1081930Y946460D03*
X1006430Y948960D03*
X1081930Y951460D03*
X1006430Y953960D03*
X1081930Y956460D03*
X1006430Y958960D03*
X1081930Y961460D03*
X1006430Y963960D03*
X1081930Y966460D03*
X1006430Y968960D03*
X1081930Y971460D03*
X1006430Y973960D03*
X1081930Y976460D03*
X1006430Y978960D03*
D24*
X878780Y710010D03*
X934780Y710010D03*
D25*
X891780Y746760D03*
X901780Y746760D03*
X911780Y746760D03*
X921780Y746760D03*
D26*
X896780Y963760D03*
X916780Y963760D03*
D27*
X872780Y1015760D03*
X940780Y1015760D03*
D28*
X897030Y809210D03*
X903530Y809210D03*
X910030Y809210D03*
X916530Y809210D03*
X916530Y836710D03*
X910030Y836710D03*
X903530Y836710D03*
X897030Y836710D03*
D29*
X906780Y822960D03*
D18*
X902480Y873760D03*
X919480Y873760D03*
X902480Y861060D03*
X919480Y861060D03*
D30*
X908080Y899160D03*
X880080Y899160D03*
D31*
X868680Y772160D03*
X843280Y772160D03*
D13*
X932180Y831460D03*
X932180Y814460D03*
D32*
X944880Y834460D03*
X944880Y811460D03*
D13*
X894080Y789160D03*
X894080Y772160D03*
X913130Y789160D03*
X913130Y772160D03*
X932180Y789160D03*
X932180Y772160D03*
D33*
X828280Y911860D03*
X858280Y911860D03*
D34*
X970581Y889660D03*
X970581Y899160D03*
X970581Y908660D03*
X944579Y908660D03*
X944579Y889660D03*
D13*
X925830Y907660D03*
X925830Y890660D03*
X989330Y916060D03*
X989330Y933060D03*
D18*
X949080Y873760D03*
X966080Y873760D03*
D35*
X946080Y924560D03*
X969080Y924560D03*
D19*
X975560Y851850D02*
X975560Y844870D01*
X975560Y851850D02*
X982540Y851850D01*
X982540Y844870D01*
X975560Y844870D01*
X975560Y849670D02*
X982540Y849670D01*
X958020Y851850D02*
X958020Y844870D01*
X958020Y851850D02*
X965000Y851850D01*
X965000Y844870D01*
X958020Y844870D01*
X958020Y849670D02*
X965000Y849670D01*
D13*
X989330Y882260D03*
X989330Y865260D03*
D17*
X1325880Y949960D03*
X1325880Y746760D03*
X1529080Y746760D03*
X1529080Y949960D03*
D36*
X-26238Y1012190D03*
X1631518Y1012190D03*
D37*
X-35293Y63500D02*
X-35290Y63722D01*
X-35282Y63944D01*
X-35268Y64166D01*
X-35249Y64388D01*
X-35225Y64608D01*
X-35195Y64829D01*
X-35160Y65048D01*
X-35119Y65267D01*
X-35073Y65484D01*
X-35022Y65700D01*
X-34965Y65915D01*
X-34903Y66129D01*
X-34836Y66340D01*
X-34764Y66551D01*
X-34686Y66759D01*
X-34604Y66965D01*
X-34516Y67169D01*
X-34424Y67372D01*
X-34326Y67571D01*
X-34224Y67768D01*
X-34117Y67963D01*
X-34005Y68155D01*
X-33888Y68344D01*
X-33767Y68531D01*
X-33641Y68714D01*
X-33511Y68894D01*
X-33376Y69071D01*
X-33238Y69244D01*
X-33095Y69414D01*
X-32947Y69581D01*
X-32796Y69744D01*
X-32641Y69903D01*
X-32482Y70058D01*
X-32319Y70209D01*
X-32152Y70357D01*
X-31982Y70500D01*
X-31809Y70638D01*
X-31632Y70773D01*
X-31452Y70903D01*
X-31269Y71029D01*
X-31082Y71150D01*
X-30893Y71267D01*
X-30701Y71379D01*
X-30506Y71486D01*
X-30309Y71588D01*
X-30110Y71686D01*
X-29907Y71778D01*
X-29703Y71866D01*
X-29497Y71948D01*
X-29289Y72026D01*
X-29078Y72098D01*
X-28867Y72165D01*
X-28653Y72227D01*
X-28438Y72284D01*
X-28222Y72335D01*
X-28005Y72381D01*
X-27786Y72422D01*
X-27567Y72457D01*
X-27346Y72487D01*
X-27126Y72511D01*
X-26904Y72530D01*
X-26682Y72544D01*
X-26460Y72552D01*
X-26238Y72555D01*
X-26016Y72552D01*
X-25794Y72544D01*
X-25572Y72530D01*
X-25350Y72511D01*
X-25130Y72487D01*
X-24909Y72457D01*
X-24690Y72422D01*
X-24471Y72381D01*
X-24254Y72335D01*
X-24038Y72284D01*
X-23823Y72227D01*
X-23609Y72165D01*
X-23398Y72098D01*
X-23187Y72026D01*
X-22979Y71948D01*
X-22773Y71866D01*
X-22569Y71778D01*
X-22366Y71686D01*
X-22167Y71588D01*
X-21970Y71486D01*
X-21775Y71379D01*
X-21583Y71267D01*
X-21394Y71150D01*
X-21207Y71029D01*
X-21024Y70903D01*
X-20844Y70773D01*
X-20667Y70638D01*
X-20494Y70500D01*
X-20324Y70357D01*
X-20157Y70209D01*
X-19994Y70058D01*
X-19835Y69903D01*
X-19680Y69744D01*
X-19529Y69581D01*
X-19381Y69414D01*
X-19238Y69244D01*
X-19100Y69071D01*
X-18965Y68894D01*
X-18835Y68714D01*
X-18709Y68531D01*
X-18588Y68344D01*
X-18471Y68155D01*
X-18359Y67963D01*
X-18252Y67768D01*
X-18150Y67571D01*
X-18052Y67372D01*
X-17960Y67169D01*
X-17872Y66965D01*
X-17790Y66759D01*
X-17712Y66551D01*
X-17640Y66340D01*
X-17573Y66129D01*
X-17511Y65915D01*
X-17454Y65700D01*
X-17403Y65484D01*
X-17357Y65267D01*
X-17316Y65048D01*
X-17281Y64829D01*
X-17251Y64608D01*
X-17227Y64388D01*
X-17208Y64166D01*
X-17194Y63944D01*
X-17186Y63722D01*
X-17183Y63500D01*
X-17186Y63278D01*
X-17194Y63056D01*
X-17208Y62834D01*
X-17227Y62612D01*
X-17251Y62392D01*
X-17281Y62171D01*
X-17316Y61952D01*
X-17357Y61733D01*
X-17403Y61516D01*
X-17454Y61300D01*
X-17511Y61085D01*
X-17573Y60871D01*
X-17640Y60660D01*
X-17712Y60449D01*
X-17790Y60241D01*
X-17872Y60035D01*
X-17960Y59831D01*
X-18052Y59628D01*
X-18150Y59429D01*
X-18252Y59232D01*
X-18359Y59037D01*
X-18471Y58845D01*
X-18588Y58656D01*
X-18709Y58469D01*
X-18835Y58286D01*
X-18965Y58106D01*
X-19100Y57929D01*
X-19238Y57756D01*
X-19381Y57586D01*
X-19529Y57419D01*
X-19680Y57256D01*
X-19835Y57097D01*
X-19994Y56942D01*
X-20157Y56791D01*
X-20324Y56643D01*
X-20494Y56500D01*
X-20667Y56362D01*
X-20844Y56227D01*
X-21024Y56097D01*
X-21207Y55971D01*
X-21394Y55850D01*
X-21583Y55733D01*
X-21775Y55621D01*
X-21970Y55514D01*
X-22167Y55412D01*
X-22366Y55314D01*
X-22569Y55222D01*
X-22773Y55134D01*
X-22979Y55052D01*
X-23187Y54974D01*
X-23398Y54902D01*
X-23609Y54835D01*
X-23823Y54773D01*
X-24038Y54716D01*
X-24254Y54665D01*
X-24471Y54619D01*
X-24690Y54578D01*
X-24909Y54543D01*
X-25130Y54513D01*
X-25350Y54489D01*
X-25572Y54470D01*
X-25794Y54456D01*
X-26016Y54448D01*
X-26238Y54445D01*
X-26460Y54448D01*
X-26682Y54456D01*
X-26904Y54470D01*
X-27126Y54489D01*
X-27346Y54513D01*
X-27567Y54543D01*
X-27786Y54578D01*
X-28005Y54619D01*
X-28222Y54665D01*
X-28438Y54716D01*
X-28653Y54773D01*
X-28867Y54835D01*
X-29078Y54902D01*
X-29289Y54974D01*
X-29497Y55052D01*
X-29703Y55134D01*
X-29907Y55222D01*
X-30110Y55314D01*
X-30309Y55412D01*
X-30506Y55514D01*
X-30701Y55621D01*
X-30893Y55733D01*
X-31082Y55850D01*
X-31269Y55971D01*
X-31452Y56097D01*
X-31632Y56227D01*
X-31809Y56362D01*
X-31982Y56500D01*
X-32152Y56643D01*
X-32319Y56791D01*
X-32482Y56942D01*
X-32641Y57097D01*
X-32796Y57256D01*
X-32947Y57419D01*
X-33095Y57586D01*
X-33238Y57756D01*
X-33376Y57929D01*
X-33511Y58106D01*
X-33641Y58286D01*
X-33767Y58469D01*
X-33888Y58656D01*
X-34005Y58845D01*
X-34117Y59037D01*
X-34224Y59232D01*
X-34326Y59429D01*
X-34424Y59628D01*
X-34516Y59831D01*
X-34604Y60035D01*
X-34686Y60241D01*
X-34764Y60449D01*
X-34836Y60660D01*
X-34903Y60871D01*
X-34965Y61085D01*
X-35022Y61300D01*
X-35073Y61516D01*
X-35119Y61733D01*
X-35160Y61952D01*
X-35195Y62171D01*
X-35225Y62392D01*
X-35249Y62612D01*
X-35268Y62834D01*
X-35282Y63056D01*
X-35290Y63278D01*
X-35293Y63500D01*
D38*
X-26238Y63500D03*
M02*
