M48
;GenerationSoftware,Autodesk,EAGLE,9.6.2*%
;CreationDate,2021-01-22T02:09:10Z*%
FMAT,2
ICI,OFF
METRIC,TZ,000.000
T10C0.305
T9C0.381
T8C0.400
T7C0.650
T6C1.016
T5C1.100
T4C1.600
T3C3.302
T2C3.800
T1C4.216
%
G90
M71
T1
X132588Y64008
X52070Y136144
X152908Y43688
X132588Y43688
X72390Y136144
X152908Y100076
X132588Y79756
X72390Y79756
X52070Y79756
X132588Y100076
X152908Y64008
X72390Y7620
X72390Y100076
X72390Y43688
X52070Y100076
X132588Y27940
X152908Y27940
X132588Y7620
X152908Y7620
X52070Y27940
X72390Y27940
X52070Y7620
X152908Y79756
X52070Y43688
X72390Y64008
X52070Y64008
X152908Y115824
X132588Y115824
X152908Y136144
X132588Y136144
X72390Y115824
X52070Y115824
T2
X44073Y121964
X124591Y85896
X124591Y49828
X44073Y13760
X124591Y121964
X124591Y13760
X44073Y49828
X44073Y85896
T3
X77470Y33020
X2540Y33020
X77470Y2540
X2540Y2540
X157988Y33020
X83058Y33020
X157988Y2540
X83058Y2540
X77470Y69088
X2540Y69088
X77470Y38608
X2540Y38608
X157988Y69088
X83058Y69088
X157988Y38608
X83058Y38608
X77470Y105156
X157988Y141224
X77470Y74676
X2540Y74676
X83058Y141224
X157988Y110744
X157988Y105156
X83058Y105156
X157988Y74676
X83058Y74676
X83058Y110744
X2540Y105156
X77470Y141224
X2540Y141224
X77470Y110744
X2540Y110744
T4
X24130Y99916
X104648Y27780
X24130Y27780
X104648Y63848
X104648Y99916
X24130Y135984
X24130Y63848
X104648Y135984
T5
X24130Y7780
X104648Y43848
X104648Y115984
X104648Y79916
X24130Y43848
X104648Y7780
X24130Y79916
X24130Y115984
T6
X10414Y114808
X1270Y127889
X1270Y125349
X22860Y142494
X25400Y142494
X27940Y142494
X30480Y142494
X33020Y142494
X35560Y142494
X38100Y142494
X40640Y142494
X43180Y142494
X90932Y117348
X90932Y114808
X81788Y127889
X81788Y125349
X103378Y142494
X105918Y142494
X108458Y142494
X27940Y106426
X110998Y142494
X113538Y142494
X116078Y142494
X118618Y142494
X121158Y142494
X123698Y142494
X113538Y34290
X10414Y9144
X10414Y6604
X1270Y19685
X1270Y17145
X22860Y34290
X25400Y34290
X27940Y34290
X30480Y34290
X33020Y34290
X35560Y34290
X38100Y34290
X40640Y34290
X43180Y34290
X90932Y9144
X90932Y6604
X81788Y19685
X81788Y17145
X103378Y34290
X105918Y34290
X108458Y34290
X110998Y34290
X38100Y106426
X116078Y34290
X118618Y34290
X121158Y34290
X123698Y34290
X10414Y45212
X10414Y42672
X1270Y55753
X1270Y53213
X22860Y70358
X25400Y70358
X27940Y70358
X30480Y70358
X33020Y70358
X35560Y70358
X38100Y70358
X40640Y70358
X43180Y70358
X90932Y45212
X90932Y42672
X81788Y55753
X81788Y53213
X103378Y70358
X105918Y70358
X108458Y70358
X110998Y70358
X113538Y70358
X116078Y70358
X118618Y70358
X121158Y70358
X123698Y70358
X10414Y81280
X10414Y78740
X1270Y91821
X1270Y89281
X22860Y106426
X25400Y106426
X30480Y106426
X33020Y106426
X35560Y106426
X40640Y106426
X43180Y106426
X90932Y81280
X90932Y78740
X81788Y91821
X81788Y89281
X103378Y106426
X105918Y106426
X108458Y106426
X110998Y106426
X113538Y106426
X116078Y106426
X118618Y106426
X121158Y106426
X123698Y106426
X10414Y117348
T7
X4778Y43846
X4778Y79914
X85296Y49626
X85296Y121762
X85296Y115982
X85296Y79914
X4778Y7778
X4778Y13558
X4778Y121762
X4778Y49626
X85296Y85694
X85296Y7778
X4778Y115982
X85296Y13558
X85296Y43846
X4778Y85694
T8
X81646Y123190
X85826Y114554
X85826Y123190
X5308Y51054
X85826Y6350
X81646Y87122
X81646Y78486
X85826Y78486
X85826Y87122
X81646Y6350
X81646Y14986
X5308Y14986
X81646Y51054
X81646Y42418
X85826Y42418
X85826Y51054
X1128Y78486
X5308Y78486
X5308Y87122
X5308Y6350
X1128Y123190
X1128Y114554
X5308Y114554
X5308Y123190
X81646Y114554
X85826Y14986
X1128Y51054
X1128Y42418
X1128Y87122
X5308Y42418
X1128Y6350
X1128Y14986
T9
X127254Y2286
X85725Y57404
X37719Y83185
X85725Y21336
X37719Y11049
X85725Y93472
X118110Y39497
X127254Y38354
X5207Y57404
X37592Y75565
X5207Y21336
X46736Y110490
X37592Y3429
X46736Y38354
X127254Y110490
X118110Y3429
X37592Y39497
X118237Y11049
X85725Y129540
X118110Y111633
X5207Y129540
X46736Y74422
X37719Y47117
X5207Y93472
X118110Y75565
X118237Y83185
X37719Y119253
X118237Y119253
X118237Y47117
X127254Y74422
X46736Y2286
X37592Y111633
T10
X6891Y118618
X3429Y127254
X11938Y130556
X10795Y138049
X25019Y118237
X21971Y118110
X17653Y140589
X7747Y129286
X13970Y118872
X10297Y122691
X24257Y119253
X15748Y123444
X1270Y134620
X41529Y116078
X38600Y116078
X30480Y121920
X96266Y15240
X20828Y130823
X20193Y130175
X20252Y131432
X21082Y132042
X17526Y27940
X98044Y136144
X84328Y132334
X97028Y129794
X95377Y127254
X89408Y123444
X89408Y115443
X96393Y109474
X97663Y115824
X100838Y118364
X117094Y111760
X100965Y124841
X105156Y125476
X104280Y117208
X104026Y134252
X3810Y24130
X16510Y21590
X88138Y119377
X97028Y117983
X97536Y117221
X87409Y118618
X83947Y127254
X92456Y130556
X91313Y138049
X105537Y118237
X102489Y118110
X98171Y140589
X88265Y129286
X94488Y118872
X90814Y122691
X104775Y119253
X96266Y123444
X81788Y134620
X122047Y116078
X119118Y116078
X14859Y19050
X110998Y121920
X109982Y118872
X101346Y130823
X100711Y130175
X100770Y131432
X101600Y132042
X8890Y15240
X8890Y7239
X15875Y1270
X17145Y7620
X20320Y10160
X36576Y3556
X20447Y16637
X24638Y17272
X23762Y9004
X23508Y26048
X7620Y11173
X16510Y9779
X17018Y9017
X6891Y10414
X3429Y19050
X11938Y22352
X10795Y29845
X25019Y10033
X21971Y9906
X17653Y32385
X7747Y21082
X13970Y10668
X10297Y14487
X24257Y11049
X15748Y15240
X29464Y118872
X1270Y26416
X41529Y7874
X38600Y7874
X30480Y13716
X29464Y10668
X20828Y22619
X20193Y21971
X20252Y23228
X21082Y23838
X98044Y27940
X84328Y24130
X97028Y21590
X95377Y19050
X89408Y15240
X89408Y7239
X96393Y1270
X97663Y7620
X100838Y10160
X117094Y3556
X100965Y16637
X105156Y17272
X104280Y9004
X104026Y26048
X88138Y11173
X97028Y9779
X97536Y9017
X87409Y10414
X83947Y19050
X92456Y22352
X91313Y29845
X105537Y10033
X102489Y9906
X98171Y32385
X88265Y21082
X94488Y10668
X90814Y14487
X104775Y11049
X81788Y26416
X122047Y7874
X119118Y7874
X110998Y13716
X109982Y10668
X101346Y22619
X100711Y21971
X100770Y23228
X101600Y23838
X17526Y64008
X3810Y60198
X16510Y57658
X14859Y55118
X8890Y51308
X8890Y43307
X15875Y37338
X17145Y43688
X20320Y46228
X36576Y39624
X20447Y52705
X24638Y53340
X23762Y45072
X23508Y62116
X7620Y47241
X16510Y45847
X17018Y45085
X6891Y46482
X3429Y55118
X11938Y58420
X10795Y65913
X25019Y46101
X21971Y45974
X17653Y68453
X7747Y57150
X13970Y46736
X10297Y50555
X24257Y47117
X15748Y51308
X1270Y62484
X41529Y43942
X38600Y43942
X30480Y49784
X29464Y46736
X20828Y58687
X20193Y58039
X20252Y59296
X21082Y59906
X98044Y64008
X84328Y60198
X97028Y57658
X95377Y55118
X89408Y51308
X89408Y43307
X96393Y37338
X97663Y43688
X100838Y46228
X117094Y39624
X100965Y52705
X105156Y53340
X104280Y45072
X104026Y62116
X88138Y47241
X97028Y45847
X97536Y45085
X87409Y46482
X83947Y55118
X92456Y58420
X91313Y65913
X105537Y46101
X102489Y45974
X98171Y68453
X88265Y57150
X94488Y46736
X90814Y50555
X104775Y47117
X96266Y51308
X81788Y62484
X122047Y43942
X119118Y43942
X110998Y49784
X109982Y46736
X101346Y58687
X100711Y58039
X100770Y59296
X101600Y59906
X17526Y100076
X3810Y96266
X16510Y93726
X14859Y91186
X8890Y87376
X8890Y79375
X15875Y73406
X17145Y79756
X20320Y82296
X36576Y75692
X20447Y88773
X24638Y89408
X23762Y81140
X23508Y98184
X7620Y83309
X16510Y81915
X17018Y81153
X6891Y82550
X3429Y91186
X11938Y94488
X96393Y73406
X10795Y101981
X25019Y82169
X21971Y82042
X17653Y104521
X7747Y93218
X13970Y82804
X10297Y86624
X24257Y83185
X15748Y87376
X1270Y98552
X41529Y80010
X38600Y80010
X30480Y85852
X29464Y82804
X20828Y94755
X20193Y94107
X20252Y95364
X21082Y95974
X98044Y100076
X84328Y96266
X97028Y93726
X95377Y91186
X89408Y87376
X89408Y79375
X97663Y79756
X100838Y82296
X117094Y75692
X100965Y88773
X105156Y89408
X104280Y81140
X104026Y98184
X88138Y83309
X97028Y81915
X97536Y81153
X87409Y82550
X83947Y91186
X92456Y94488
X91313Y101981
X105537Y82169
X102489Y82042
X98171Y104521
X88265Y93218
X94488Y82804
X90814Y86624
X104775Y83185
X96266Y87376
X81788Y98552
X122047Y80010
X119118Y80010
X110998Y85852
X109982Y82804
X101346Y94755
X100711Y94107
X100770Y95364
X101600Y95974
X17526Y136144
X3810Y132334
X16510Y129794
X14859Y127254
X8890Y123444
X8890Y115443
X15875Y109474
X17145Y115824
X20320Y118364
X36576Y111760
X20447Y124841
X24638Y125476
X23762Y117208
X23508Y134252
X7620Y119377
X16510Y117983
X17018Y117221
M30