M48
;GenerationSoftware,Autodesk,EAGLE,9.6.2*%
;CreationDate,2020-12-03T05:15:38Z*%
FMAT,2
ICI,OFF
METRIC,TZ,000.000
T8C0.305
T7C0.400
T6C0.650
T5C1.016
T4C1.100
T3C1.600
T2C3.302
T1C3.800
%
G90
M71
T1
X182118Y25400
X191008Y74676
X52070Y94996
X45470Y84626
X72390Y25400
X81280Y25400
X101600Y25400
X101600Y5080
X191008Y39878
X182118Y60198
X211328Y39878
X211328Y60198
X81280Y5080
X52070Y74676
X72390Y74676
X72390Y94996
X191008Y60198
X101600Y94996
X81280Y94996
X182118Y39878
X101600Y74676
X81280Y74676
X155198Y84626
X161798Y39878
X182118Y5080
X161798Y60198
X155198Y49828
X161798Y94996
X161798Y74676
X182118Y74676
X81280Y60198
X81280Y39878
X161798Y5080
X101600Y39878
X101600Y60198
X182118Y94996
X191008Y94996
X211328Y94996
X211328Y74676
X155198Y15030
X161798Y25400
X72390Y60198
X72390Y39878
X52070Y39878
X45470Y49828
X191008Y5080
X211328Y5080
X52070Y60198
X45470Y15030
X211328Y25400
X191008Y25400
X52070Y25400
X52070Y5080
X72390Y5080
T2
X106680Y31750
X2540Y31750
X106680Y2540
X2540Y2540
X216408Y31750
X112268Y31750
X216408Y2540
X112268Y2540
X106680Y66548
X2540Y66548
X106680Y37338
X2540Y37338
X216408Y66548
X112268Y66548
X216408Y37338
X106680Y101346
X2540Y101346
X106680Y72136
X2540Y72136
X112268Y37338
X112268Y101346
X216408Y72136
X112268Y72136
X216408Y101346
T3
X135128Y63848
X25400Y98646
X135128Y98646
X135128Y29050
X25400Y29050
X25400Y63848
T4
X25400Y78646
X135128Y78646
X135128Y43848
X135128Y9050
X25400Y9050
X25400Y43848
T5
X3810Y42418
X6350Y42418
X113538Y42418
X6350Y77216
X3810Y77216
X113538Y7620
X116078Y7620
X3810Y7620
X116078Y42418
X6350Y7620
X116078Y77216
X113538Y77216
T6
X4905Y51658
X114633Y80676
X114633Y86456
X4905Y80676
X4905Y86456
X114633Y11080
X114633Y16860
X114633Y45878
X114633Y51658
X4905Y45878
X4905Y11080
X4905Y16860
T7
X110983Y44450
X115163Y44450
X115163Y53086
X115163Y18288
X115163Y9652
X110983Y9652
X1255Y87884
X110983Y18288
X1255Y79248
X110983Y87884
X110983Y79248
X5435Y79248
X115163Y87884
X5435Y87884
X5435Y18288
X110983Y53086
X5435Y9652
X115163Y79248
X1255Y53086
X1255Y44450
X5435Y44450
X5435Y53086
X1255Y18288
X1255Y9652
T8
X15240Y77711
X25400Y82169
X14097Y77089
X25400Y81280
X21844Y75311
X28956Y80391
X4572Y94996
X12319Y85204
X5207Y93218
X26289Y81153
X12700Y84455
X13208Y87376
X132588Y73406
X123698Y73406
X117348Y75946
X123698Y78486
X127508Y82296
X124968Y81026
X118237Y88011
X127508Y94996
X122428Y92456
X117348Y26670
X131318Y80264
X119380Y76073
X135001Y80137
X117475Y84071
X128143Y80137
X128143Y79248
X116746Y83312
X112776Y88646
X124968Y77711
X135128Y82169
X123825Y77089
X135128Y81280
X131572Y75311
X138684Y80391
X114300Y94996
X122047Y85204
X114935Y93218
X136017Y81153
X122428Y84455
X122936Y87376
X22860Y3810
X13970Y3810
X7620Y6350
X13970Y8890
X17780Y12700
X15240Y11430
X8509Y18415
X17780Y25400
X12700Y22860
X7620Y26670
X21590Y10668
X9652Y6477
X25273Y10541
X7747Y14475
X18415Y10541
X18415Y9652
X7018Y13716
X3048Y19050
X117348Y96266
X15240Y8115
X25400Y12573
X14097Y7493
X25400Y11684
X21844Y5715
X28956Y10795
X4572Y25400
X12319Y15608
X5207Y23622
X26289Y11557
X12700Y14859
X13208Y17780
X132588Y3810
X123698Y3810
X117348Y6350
X123698Y8890
X127508Y12700
X124968Y11430
X118237Y18415
X127508Y25400
X122428Y22860
X131318Y10668
X119380Y6477
X135001Y10541
X117475Y14475
X128143Y10541
X128143Y9652
X116746Y13716
X112776Y19050
X124968Y8115
X135128Y12573
X123825Y7493
X135128Y11684
X131572Y5715
X138684Y10795
X114300Y25400
X122047Y15608
X114935Y23622
X136017Y11557
X122428Y14859
X122936Y17780
X22860Y38608
X13970Y38608
X7620Y41148
X13970Y43688
X17780Y47498
X15240Y46228
X8509Y53213
X17780Y60198
X12700Y57658
X7620Y61468
X21590Y45466
X9652Y41275
X25273Y45339
X7747Y49273
X18415Y45339
X18415Y44450
X7018Y48514
X3048Y53848
X15240Y42913
X25400Y47371
X14097Y42291
X25400Y46482
X21844Y40513
X28956Y45593
X4572Y60198
X12319Y50406
X5207Y58420
X26289Y46355
X12700Y49657
X13208Y52578
X132588Y38608
X123698Y38608
X117348Y41148
X123698Y43688
X127508Y47498
X124968Y46228
X118237Y53213
X127508Y60198
X22860Y73406
X122428Y57658
X117348Y61468
X131318Y45466
X119380Y41275
X135001Y45339
X117475Y49273
X128143Y45339
X128143Y44450
X116746Y48514
X112776Y53848
X124968Y42913
X135128Y47371
X123825Y42291
X135128Y46482
X131572Y40513
X138684Y45593
X114300Y60198
X122047Y50406
X114935Y58420
X136017Y46355
X122428Y49657
X122936Y52578
X13970Y73406
X7620Y75946
X13970Y78486
X17780Y82296
X15240Y81026
X8509Y88011
X17780Y94996
X12700Y92456
X7620Y96266
X21590Y80264
X9652Y76073
X25273Y80137
X7747Y84071
X18415Y80137
X18415Y79248
X7018Y83312
X3048Y88646
M30