G04 EAGLE Gerber RS-274X export*
G75*
%MOMM*%
%FSLAX34Y34*%
%LPD*%
%INSoldermask Bottom*%
%IPPOS*%
%AMOC8*
5,1,8,0,0,1.08239X$1,22.5*%
G01*
%ADD10C,0.853200*%
%ADD11C,0.838200*%
%ADD12C,3.505200*%
%ADD13C,6.203200*%
%ADD14R,0.863600X1.473200*%
%ADD15C,1.303200*%
%ADD16C,1.803200*%
%ADD17R,1.473200X0.838200*%
%ADD18C,2.082800*%
%ADD19R,0.838200X1.473200*%
%ADD20C,1.473200*%
%ADD21C,6.400800*%

G36*
X106999Y76212D02*
X106999Y76212D01*
X107065Y76214D01*
X107108Y76232D01*
X107155Y76240D01*
X107212Y76274D01*
X107272Y76299D01*
X107307Y76330D01*
X107348Y76355D01*
X107390Y76406D01*
X107438Y76450D01*
X107460Y76492D01*
X107489Y76529D01*
X107510Y76591D01*
X107541Y76650D01*
X107549Y76704D01*
X107561Y76741D01*
X107560Y76781D01*
X107568Y76835D01*
X107568Y80645D01*
X107557Y80710D01*
X107555Y80776D01*
X107537Y80819D01*
X107529Y80866D01*
X107495Y80923D01*
X107470Y80983D01*
X107439Y81018D01*
X107414Y81059D01*
X107363Y81101D01*
X107319Y81149D01*
X107277Y81171D01*
X107240Y81200D01*
X107178Y81221D01*
X107119Y81252D01*
X107065Y81260D01*
X107028Y81272D01*
X106988Y81271D01*
X106934Y81279D01*
X101346Y81279D01*
X101281Y81268D01*
X101215Y81266D01*
X101172Y81248D01*
X101125Y81240D01*
X101068Y81206D01*
X101008Y81181D01*
X100973Y81150D01*
X100932Y81125D01*
X100891Y81074D01*
X100842Y81030D01*
X100820Y80988D01*
X100791Y80951D01*
X100770Y80889D01*
X100739Y80830D01*
X100731Y80776D01*
X100719Y80739D01*
X100719Y80735D01*
X100719Y80734D01*
X100720Y80699D01*
X100712Y80645D01*
X100712Y76835D01*
X100723Y76770D01*
X100725Y76704D01*
X100743Y76661D01*
X100751Y76614D01*
X100785Y76557D01*
X100810Y76497D01*
X100841Y76462D01*
X100866Y76421D01*
X100917Y76380D01*
X100961Y76331D01*
X101003Y76309D01*
X101040Y76280D01*
X101102Y76259D01*
X101161Y76228D01*
X101215Y76220D01*
X101252Y76208D01*
X101292Y76209D01*
X101346Y76201D01*
X106934Y76201D01*
X106999Y76212D01*
G37*
G36*
X154370Y334657D02*
X154370Y334657D01*
X154436Y334659D01*
X154479Y334677D01*
X154526Y334685D01*
X154583Y334719D01*
X154643Y334744D01*
X154678Y334775D01*
X154719Y334800D01*
X154761Y334851D01*
X154809Y334895D01*
X154831Y334937D01*
X154860Y334974D01*
X154881Y335036D01*
X154912Y335095D01*
X154920Y335149D01*
X154932Y335186D01*
X154931Y335226D01*
X154939Y335280D01*
X154939Y337820D01*
X154928Y337885D01*
X154926Y337951D01*
X154908Y337994D01*
X154900Y338041D01*
X154866Y338098D01*
X154841Y338158D01*
X154810Y338193D01*
X154785Y338234D01*
X154734Y338276D01*
X154690Y338324D01*
X154648Y338346D01*
X154611Y338375D01*
X154549Y338396D01*
X154490Y338427D01*
X154436Y338435D01*
X154399Y338447D01*
X154359Y338446D01*
X154305Y338454D01*
X150495Y338454D01*
X150430Y338443D01*
X150364Y338441D01*
X150321Y338423D01*
X150274Y338415D01*
X150217Y338381D01*
X150157Y338356D01*
X150122Y338325D01*
X150081Y338300D01*
X150040Y338249D01*
X149991Y338205D01*
X149969Y338163D01*
X149940Y338126D01*
X149919Y338064D01*
X149888Y338005D01*
X149880Y337951D01*
X149868Y337914D01*
X149868Y337911D01*
X149869Y337874D01*
X149861Y337820D01*
X149861Y335280D01*
X149872Y335215D01*
X149874Y335149D01*
X149892Y335106D01*
X149900Y335059D01*
X149934Y335002D01*
X149959Y334942D01*
X149990Y334907D01*
X150015Y334866D01*
X150066Y334825D01*
X150110Y334776D01*
X150152Y334754D01*
X150189Y334725D01*
X150251Y334704D01*
X150310Y334673D01*
X150364Y334665D01*
X150401Y334653D01*
X150441Y334654D01*
X150495Y334646D01*
X154305Y334646D01*
X154370Y334657D01*
G37*
D10*
X47780Y135580D03*
X47780Y77780D03*
D11*
X7620Y7620D03*
X1059180Y349250D03*
D12*
X1041400Y330200D03*
X25400Y330200D03*
X1041400Y25400D03*
X25400Y25400D03*
D13*
X440730Y137600D03*
D14*
X157607Y336550D03*
X147193Y336550D03*
D15*
X241300Y77800D03*
D16*
X241300Y277800D03*
D17*
X104140Y83820D03*
X104140Y73660D03*
D18*
X104140Y91440D03*
X104140Y66040D03*
D19*
X169164Y165100D03*
X161036Y165100D03*
X60706Y215900D03*
X68834Y215900D03*
D20*
X368300Y88900D03*
X393700Y127000D03*
D18*
X12700Y196850D03*
X12700Y171450D03*
X254000Y342900D03*
X279400Y342900D03*
X304800Y342900D03*
X330200Y342900D03*
X355600Y342900D03*
X381000Y342900D03*
X406400Y342900D03*
X431800Y342900D03*
D21*
X520700Y279400D03*
X723900Y279400D03*
X520700Y76200D03*
X723900Y76200D03*
X812800Y279400D03*
X1016000Y279400D03*
X812800Y76200D03*
X1016000Y76200D03*
M02*
