G04 EAGLE Gerber RS-274X export*
G75*
%MOMM*%
%FSLAX34Y34*%
%LPD*%
%INSoldermask Top*%
%IPPOS*%
%AMOC8*
5,1,8,0,0,1.08239X$1,22.5*%
G01*
%ADD10R,1.203200X0.503200*%
%ADD11R,1.203200X0.803200*%
%ADD12C,0.853200*%
%ADD13R,1.203200X1.303200*%
%ADD14C,0.838200*%
%ADD15C,3.505200*%
%ADD16R,1.727200X0.965200*%
%ADD17C,6.203200*%
%ADD18R,1.303200X1.203200*%
%ADD19C,0.505344*%
%ADD20C,1.303200*%
%ADD21C,1.803200*%
%ADD22R,1.753200X0.503200*%
%ADD23R,2.953200X1.403200*%
%ADD24R,1.403200X2.203200*%
%ADD25R,0.803200X1.553200*%
%ADD26R,4.803200X1.203200*%
%ADD27R,3.603200X1.803200*%
%ADD28R,0.503200X0.853200*%
%ADD29R,2.553200X1.803200*%
%ADD30R,1.603200X1.803200*%
%ADD31C,2.082800*%
%ADD32R,1.033200X0.833200*%
%ADD33R,1.203200X3.003200*%
%ADD34R,0.753200X1.403200*%
%ADD35R,0.833200X1.033200*%
%ADD36R,0.803200X1.753200*%
%ADD37C,6.400800*%

G36*
X59034Y143834D02*
X59034Y143834D01*
X59037Y143831D01*
X60159Y143986D01*
X60164Y143991D01*
X60168Y143988D01*
X61239Y144359D01*
X61243Y144365D01*
X61248Y144363D01*
X62225Y144936D01*
X62228Y144942D01*
X62233Y144941D01*
X63080Y145694D01*
X63082Y145701D01*
X63087Y145701D01*
X63771Y146604D01*
X63771Y146611D01*
X63776Y146612D01*
X64271Y147631D01*
X64269Y147638D01*
X64274Y147640D01*
X64561Y148737D01*
X64559Y148741D01*
X64561Y148742D01*
X64559Y148744D01*
X64562Y148746D01*
X64629Y149877D01*
X64627Y149881D01*
X64629Y149883D01*
X64562Y151014D01*
X64557Y151019D01*
X64561Y151023D01*
X64274Y152120D01*
X64268Y152124D01*
X64271Y152129D01*
X63776Y153148D01*
X63770Y153151D01*
X63771Y153156D01*
X63087Y154059D01*
X63080Y154061D01*
X63080Y154066D01*
X62233Y154819D01*
X62226Y154819D01*
X62225Y154824D01*
X61248Y155397D01*
X61241Y155396D01*
X61239Y155401D01*
X60168Y155772D01*
X60162Y155769D01*
X60159Y155774D01*
X59037Y155929D01*
X59032Y155926D01*
X59030Y155929D01*
X47030Y155929D01*
X47025Y155926D01*
X47022Y155929D01*
X45755Y155724D01*
X45749Y155718D01*
X45745Y155721D01*
X44555Y155239D01*
X44551Y155232D01*
X44545Y155234D01*
X43492Y154500D01*
X43490Y154492D01*
X43484Y154493D01*
X42621Y153543D01*
X42620Y153534D01*
X42615Y153534D01*
X41985Y152415D01*
X41986Y152407D01*
X41980Y152405D01*
X41615Y151175D01*
X41618Y151167D01*
X41613Y151164D01*
X41531Y149883D01*
X41534Y149879D01*
X41531Y149877D01*
X41613Y148596D01*
X41619Y148590D01*
X41615Y148585D01*
X41980Y147355D01*
X41987Y147350D01*
X41985Y147345D01*
X42615Y146226D01*
X42622Y146223D01*
X42621Y146217D01*
X43484Y145267D01*
X43492Y145266D01*
X43492Y145260D01*
X44545Y144526D01*
X44553Y144526D01*
X44555Y144521D01*
X45745Y144039D01*
X45752Y144041D01*
X45755Y144036D01*
X47022Y143831D01*
X47027Y143834D01*
X47030Y143831D01*
X59030Y143831D01*
X59034Y143834D01*
G37*
G36*
X59034Y57434D02*
X59034Y57434D01*
X59037Y57431D01*
X60159Y57586D01*
X60164Y57591D01*
X60168Y57588D01*
X61239Y57959D01*
X61243Y57965D01*
X61248Y57963D01*
X62225Y58536D01*
X62228Y58542D01*
X62233Y58541D01*
X63080Y59294D01*
X63082Y59301D01*
X63087Y59301D01*
X63771Y60204D01*
X63771Y60211D01*
X63776Y60212D01*
X64271Y61231D01*
X64269Y61238D01*
X64274Y61240D01*
X64561Y62337D01*
X64559Y62341D01*
X64561Y62342D01*
X64559Y62344D01*
X64562Y62346D01*
X64629Y63477D01*
X64627Y63481D01*
X64629Y63483D01*
X64562Y64614D01*
X64557Y64619D01*
X64561Y64623D01*
X64274Y65720D01*
X64268Y65724D01*
X64271Y65729D01*
X63776Y66748D01*
X63770Y66751D01*
X63771Y66756D01*
X63087Y67659D01*
X63080Y67661D01*
X63080Y67666D01*
X62233Y68419D01*
X62226Y68419D01*
X62225Y68424D01*
X61248Y68997D01*
X61241Y68996D01*
X61239Y69001D01*
X60168Y69372D01*
X60162Y69369D01*
X60159Y69374D01*
X59037Y69529D01*
X59032Y69526D01*
X59030Y69529D01*
X47030Y69529D01*
X47025Y69526D01*
X47022Y69529D01*
X45755Y69324D01*
X45749Y69318D01*
X45745Y69321D01*
X44555Y68839D01*
X44551Y68832D01*
X44545Y68834D01*
X43492Y68100D01*
X43490Y68092D01*
X43484Y68093D01*
X42621Y67143D01*
X42620Y67134D01*
X42615Y67134D01*
X41985Y66015D01*
X41986Y66007D01*
X41980Y66005D01*
X41615Y64775D01*
X41618Y64767D01*
X41613Y64764D01*
X41531Y63483D01*
X41534Y63479D01*
X41531Y63477D01*
X41613Y62196D01*
X41619Y62190D01*
X41615Y62185D01*
X41980Y60955D01*
X41987Y60950D01*
X41985Y60945D01*
X42615Y59826D01*
X42622Y59823D01*
X42621Y59817D01*
X43484Y58867D01*
X43492Y58866D01*
X43492Y58860D01*
X44545Y58126D01*
X44553Y58126D01*
X44555Y58121D01*
X45745Y57639D01*
X45752Y57641D01*
X45755Y57636D01*
X47022Y57431D01*
X47027Y57434D01*
X47030Y57431D01*
X59030Y57431D01*
X59034Y57434D01*
G37*
G36*
X14233Y143833D02*
X14233Y143833D01*
X14235Y143831D01*
X15411Y143942D01*
X15416Y143947D01*
X15420Y143944D01*
X16552Y144282D01*
X16556Y144288D01*
X16561Y144286D01*
X17605Y144838D01*
X17608Y144845D01*
X17613Y144843D01*
X18529Y145589D01*
X18530Y145596D01*
X18536Y145596D01*
X19289Y146506D01*
X19289Y146513D01*
X19294Y146514D01*
X19855Y147553D01*
X19854Y147558D01*
X19858Y147560D01*
X19857Y147561D01*
X19859Y147562D01*
X20206Y148691D01*
X20206Y148692D01*
X20207Y148693D01*
X20204Y148697D01*
X20208Y148700D01*
X20329Y149875D01*
X20325Y149882D01*
X20329Y149886D01*
X20172Y151226D01*
X20167Y151232D01*
X20170Y151237D01*
X19719Y152508D01*
X19712Y152513D01*
X19714Y152518D01*
X18992Y153657D01*
X18984Y153660D01*
X18985Y153666D01*
X18027Y154616D01*
X18019Y154617D01*
X18018Y154623D01*
X16873Y155336D01*
X16865Y155335D01*
X16863Y155341D01*
X15587Y155781D01*
X15580Y155779D01*
X15577Y155783D01*
X14235Y155929D01*
X14232Y155927D01*
X14230Y155929D01*
X8230Y155929D01*
X8227Y155927D01*
X8224Y155929D01*
X6895Y155774D01*
X6889Y155768D01*
X6885Y155771D01*
X5624Y155324D01*
X5619Y155317D01*
X5614Y155319D01*
X4484Y154602D01*
X4481Y154595D01*
X4475Y154596D01*
X3533Y153646D01*
X3532Y153637D01*
X3526Y153637D01*
X2819Y152501D01*
X2820Y152493D01*
X2814Y152491D01*
X2378Y151226D01*
X2380Y151218D01*
X2375Y151216D01*
X2231Y149885D01*
X2235Y149879D01*
X2231Y149875D01*
X2341Y148709D01*
X2346Y148704D01*
X2343Y148700D01*
X2678Y147577D01*
X2684Y147573D01*
X2682Y147569D01*
X3230Y146533D01*
X3236Y146530D01*
X3235Y146525D01*
X3974Y145617D01*
X3981Y145615D01*
X3981Y145610D01*
X4883Y144863D01*
X4891Y144863D01*
X4891Y144858D01*
X5922Y144301D01*
X5929Y144302D01*
X5931Y144297D01*
X7050Y143953D01*
X7057Y143955D01*
X7060Y143951D01*
X8225Y143831D01*
X8228Y143833D01*
X8230Y143831D01*
X14230Y143831D01*
X14233Y143833D01*
G37*
G36*
X14233Y57433D02*
X14233Y57433D01*
X14235Y57431D01*
X15411Y57542D01*
X15416Y57547D01*
X15420Y57544D01*
X16552Y57882D01*
X16556Y57888D01*
X16561Y57886D01*
X17605Y58438D01*
X17608Y58445D01*
X17613Y58443D01*
X18529Y59189D01*
X18530Y59196D01*
X18536Y59196D01*
X19289Y60106D01*
X19289Y60113D01*
X19294Y60114D01*
X19855Y61153D01*
X19854Y61158D01*
X19858Y61160D01*
X19857Y61161D01*
X19859Y61162D01*
X20206Y62291D01*
X20206Y62292D01*
X20207Y62293D01*
X20204Y62297D01*
X20208Y62300D01*
X20329Y63475D01*
X20325Y63482D01*
X20329Y63486D01*
X20172Y64826D01*
X20167Y64832D01*
X20170Y64837D01*
X19719Y66108D01*
X19712Y66113D01*
X19714Y66118D01*
X18992Y67257D01*
X18984Y67260D01*
X18985Y67266D01*
X18027Y68216D01*
X18019Y68217D01*
X18018Y68223D01*
X16873Y68936D01*
X16865Y68935D01*
X16863Y68941D01*
X15587Y69381D01*
X15580Y69379D01*
X15577Y69383D01*
X14235Y69529D01*
X14232Y69527D01*
X14230Y69529D01*
X8230Y69529D01*
X8227Y69527D01*
X8224Y69529D01*
X6895Y69374D01*
X6889Y69368D01*
X6885Y69371D01*
X5624Y68924D01*
X5619Y68917D01*
X5614Y68919D01*
X4484Y68202D01*
X4481Y68195D01*
X4475Y68196D01*
X3533Y67246D01*
X3532Y67237D01*
X3526Y67237D01*
X2819Y66101D01*
X2820Y66093D01*
X2814Y66091D01*
X2378Y64826D01*
X2380Y64818D01*
X2375Y64816D01*
X2231Y63485D01*
X2235Y63479D01*
X2231Y63475D01*
X2341Y62309D01*
X2346Y62304D01*
X2343Y62300D01*
X2678Y61177D01*
X2684Y61173D01*
X2682Y61169D01*
X3230Y60133D01*
X3236Y60130D01*
X3235Y60125D01*
X3974Y59217D01*
X3981Y59215D01*
X3981Y59210D01*
X4883Y58463D01*
X4891Y58463D01*
X4891Y58458D01*
X5922Y57901D01*
X5929Y57902D01*
X5931Y57897D01*
X7050Y57553D01*
X7057Y57555D01*
X7060Y57551D01*
X8225Y57431D01*
X8228Y57433D01*
X8230Y57431D01*
X14230Y57431D01*
X14233Y57433D01*
G37*
D10*
X58830Y99180D03*
X58830Y104180D03*
D11*
X58830Y74430D03*
X58830Y82180D03*
D10*
X58830Y89180D03*
X58830Y94180D03*
X58830Y114180D03*
X58830Y109180D03*
D11*
X58830Y138930D03*
X58830Y131180D03*
D10*
X58830Y124180D03*
X58830Y119180D03*
D12*
X47780Y135580D03*
X47780Y77780D03*
D13*
X74930Y140580D03*
X74930Y123580D03*
X74930Y72780D03*
X74930Y89780D03*
D14*
X7620Y7620D03*
X1059180Y349250D03*
D15*
X1041400Y330200D03*
X25400Y330200D03*
X1041400Y25400D03*
X25400Y25400D03*
D16*
X180340Y13970D03*
X124460Y13970D03*
X180340Y52070D03*
X124460Y52070D03*
X269240Y13970D03*
X213360Y13970D03*
X269240Y52070D03*
X213360Y52070D03*
D17*
X440730Y137600D03*
D18*
X143900Y336550D03*
X160900Y336550D03*
D19*
X109020Y340040D02*
X109020Y333060D01*
X102040Y333060D01*
X102040Y340040D01*
X109020Y340040D01*
X109020Y337860D02*
X102040Y337860D01*
X126560Y340040D02*
X126560Y333060D01*
X119580Y333060D01*
X119580Y340040D01*
X126560Y340040D01*
X126560Y337860D02*
X119580Y337860D01*
D20*
X241300Y77800D03*
D21*
X241300Y277800D03*
D22*
X188550Y85300D03*
D23*
X196300Y74300D03*
X196300Y281300D03*
D22*
X264050Y87800D03*
X188550Y90300D03*
X264050Y92800D03*
X188550Y95300D03*
X264050Y97800D03*
X188550Y100300D03*
X264050Y102800D03*
X188550Y105300D03*
X264050Y107800D03*
X188550Y110300D03*
X264050Y112800D03*
X188550Y115300D03*
X264050Y117800D03*
X188550Y120300D03*
X264050Y122800D03*
X188550Y125300D03*
X264050Y127800D03*
X188550Y130300D03*
X264050Y132800D03*
X188550Y135300D03*
X264050Y137800D03*
X188550Y140300D03*
X264050Y162800D03*
X188550Y165300D03*
X264050Y167800D03*
X188550Y170300D03*
X264050Y172800D03*
X188550Y175300D03*
X264050Y177800D03*
X188550Y180300D03*
X264050Y182800D03*
X188550Y185300D03*
X264050Y187800D03*
X188550Y190300D03*
X264050Y192800D03*
X188550Y195300D03*
X264050Y197800D03*
X188550Y200300D03*
X264050Y202800D03*
X188550Y205300D03*
X264050Y207800D03*
X188550Y210300D03*
X264050Y212800D03*
X188550Y215300D03*
X264050Y217800D03*
X188550Y220300D03*
X264050Y222800D03*
X188550Y225300D03*
X264050Y227800D03*
X188550Y230300D03*
X264050Y232800D03*
X188550Y235300D03*
X264050Y237800D03*
X188550Y240300D03*
X264050Y242800D03*
X188550Y245300D03*
X264050Y247800D03*
X188550Y250300D03*
X264050Y252800D03*
X188550Y255300D03*
X264050Y257800D03*
X188550Y260300D03*
X264050Y262800D03*
X188550Y265300D03*
X264050Y267800D03*
X188550Y270300D03*
D24*
X353000Y14050D03*
X409000Y14050D03*
D25*
X366000Y50800D03*
X376000Y50800D03*
X386000Y50800D03*
X396000Y50800D03*
D26*
X75100Y244000D03*
X75100Y264000D03*
D27*
X23100Y220000D03*
X23100Y288000D03*
D28*
X103280Y108170D03*
X109780Y108170D03*
X116280Y108170D03*
X122780Y108170D03*
X122780Y135670D03*
X116280Y135670D03*
X109780Y135670D03*
X103280Y135670D03*
D29*
X113030Y121920D03*
D18*
X102380Y156210D03*
X119380Y156210D03*
X102380Y171450D03*
X119380Y171450D03*
D30*
X128300Y190500D03*
X100300Y190500D03*
D31*
X104140Y91440D03*
X104140Y66040D03*
D13*
X139700Y135500D03*
X139700Y118500D03*
D32*
X156210Y138500D03*
X156210Y115500D03*
D13*
X123190Y93200D03*
X123190Y76200D03*
X138430Y93200D03*
X138430Y76200D03*
X153670Y93200D03*
X153670Y76200D03*
D33*
X48500Y190500D03*
X78500Y190500D03*
D34*
X149200Y267001D03*
X139700Y267001D03*
X130200Y267001D03*
X130200Y240999D03*
X149200Y240999D03*
D13*
X171450Y262500D03*
X171450Y245500D03*
X129540Y283600D03*
X129540Y300600D03*
D18*
X131200Y223520D03*
X148200Y223520D03*
D32*
X114300Y242500D03*
X114300Y265500D03*
D19*
X119580Y314010D02*
X119580Y320990D01*
X126560Y320990D01*
X126560Y314010D01*
X119580Y314010D01*
X119580Y318810D02*
X126560Y318810D01*
X102040Y320990D02*
X102040Y314010D01*
X102040Y320990D02*
X109020Y320990D01*
X109020Y314010D01*
X102040Y314010D01*
X102040Y318810D02*
X109020Y318810D01*
D13*
X149860Y300600D03*
X149860Y283600D03*
D31*
X12700Y196850D03*
X12700Y171450D03*
D35*
X75000Y165100D03*
X52000Y165100D03*
D36*
X477060Y37970D03*
X467060Y37970D03*
X457060Y37970D03*
X447060Y37970D03*
D24*
X490060Y13720D03*
X434060Y13720D03*
D31*
X254000Y342900D03*
X279400Y342900D03*
X304800Y342900D03*
X330200Y342900D03*
X355600Y342900D03*
X381000Y342900D03*
X406400Y342900D03*
X431800Y342900D03*
D37*
X520700Y279400D03*
X723900Y279400D03*
X520700Y76200D03*
X723900Y76200D03*
X812800Y279400D03*
X1016000Y279400D03*
X812800Y76200D03*
X1016000Y76200D03*
M02*
