G04 EAGLE Gerber RS-274X export*
G75*
%MOMM*%
%FSLAX34Y34*%
%LPD*%
%INSoldermask Bottom*%
%IPPOS*%
%AMOC8*
5,1,8,0,0,1.08239X$1,22.5*%
G01*
%ADD10C,0.853200*%
%ADD11C,0.838200*%
%ADD12C,3.505200*%
%ADD13C,6.203200*%
%ADD14R,0.863600X1.473200*%
%ADD15C,1.303200*%
%ADD16C,1.803200*%
%ADD17R,0.838200X1.473200*%
%ADD18C,2.082800*%
%ADD19C,1.203200*%
%ADD20C,1.270000*%
%ADD21C,1.703200*%

G36*
X1150050Y768743D02*
X1150050Y768743D01*
X1150116Y768745D01*
X1150159Y768763D01*
X1150206Y768771D01*
X1150263Y768805D01*
X1150323Y768830D01*
X1150358Y768861D01*
X1150399Y768886D01*
X1150441Y768937D01*
X1150489Y768981D01*
X1150511Y769023D01*
X1150540Y769060D01*
X1150561Y769122D01*
X1150592Y769181D01*
X1150600Y769235D01*
X1150612Y769272D01*
X1150611Y769312D01*
X1150619Y769366D01*
X1150619Y774954D01*
X1150608Y775019D01*
X1150606Y775085D01*
X1150588Y775128D01*
X1150580Y775175D01*
X1150546Y775232D01*
X1150521Y775292D01*
X1150490Y775327D01*
X1150465Y775368D01*
X1150414Y775410D01*
X1150370Y775458D01*
X1150328Y775480D01*
X1150291Y775509D01*
X1150229Y775530D01*
X1150170Y775561D01*
X1150116Y775569D01*
X1150079Y775581D01*
X1150039Y775580D01*
X1149985Y775588D01*
X1146175Y775588D01*
X1146110Y775577D01*
X1146044Y775575D01*
X1146001Y775557D01*
X1145954Y775549D01*
X1145897Y775515D01*
X1145837Y775490D01*
X1145802Y775459D01*
X1145761Y775434D01*
X1145720Y775383D01*
X1145671Y775339D01*
X1145649Y775297D01*
X1145620Y775260D01*
X1145599Y775198D01*
X1145568Y775139D01*
X1145560Y775085D01*
X1145548Y775048D01*
X1145549Y775008D01*
X1145541Y774954D01*
X1145541Y769366D01*
X1145552Y769301D01*
X1145554Y769235D01*
X1145572Y769192D01*
X1145580Y769145D01*
X1145614Y769088D01*
X1145639Y769028D01*
X1145670Y768993D01*
X1145695Y768952D01*
X1145746Y768911D01*
X1145790Y768862D01*
X1145832Y768840D01*
X1145869Y768811D01*
X1145931Y768790D01*
X1145990Y768759D01*
X1146044Y768751D01*
X1146081Y768739D01*
X1146121Y768740D01*
X1146175Y768732D01*
X1149985Y768732D01*
X1150050Y768743D01*
G37*
G36*
X52770Y768743D02*
X52770Y768743D01*
X52836Y768745D01*
X52879Y768763D01*
X52926Y768771D01*
X52983Y768805D01*
X53043Y768830D01*
X53078Y768861D01*
X53119Y768886D01*
X53161Y768937D01*
X53209Y768981D01*
X53231Y769023D01*
X53260Y769060D01*
X53281Y769122D01*
X53312Y769181D01*
X53320Y769235D01*
X53332Y769272D01*
X53331Y769312D01*
X53339Y769366D01*
X53339Y774954D01*
X53328Y775019D01*
X53326Y775085D01*
X53308Y775128D01*
X53300Y775175D01*
X53266Y775232D01*
X53241Y775292D01*
X53210Y775327D01*
X53185Y775368D01*
X53134Y775410D01*
X53090Y775458D01*
X53048Y775480D01*
X53011Y775509D01*
X52949Y775530D01*
X52890Y775561D01*
X52836Y775569D01*
X52799Y775581D01*
X52759Y775580D01*
X52705Y775588D01*
X48895Y775588D01*
X48830Y775577D01*
X48764Y775575D01*
X48721Y775557D01*
X48674Y775549D01*
X48617Y775515D01*
X48557Y775490D01*
X48522Y775459D01*
X48481Y775434D01*
X48440Y775383D01*
X48391Y775339D01*
X48369Y775297D01*
X48340Y775260D01*
X48319Y775198D01*
X48288Y775139D01*
X48280Y775085D01*
X48268Y775048D01*
X48269Y775008D01*
X48261Y774954D01*
X48261Y769366D01*
X48272Y769301D01*
X48274Y769235D01*
X48292Y769192D01*
X48300Y769145D01*
X48334Y769088D01*
X48359Y769028D01*
X48390Y768993D01*
X48415Y768952D01*
X48466Y768911D01*
X48510Y768862D01*
X48552Y768840D01*
X48589Y768811D01*
X48651Y768790D01*
X48710Y768759D01*
X48764Y768751D01*
X48801Y768739D01*
X48841Y768740D01*
X48895Y768732D01*
X52705Y768732D01*
X52770Y768743D01*
G37*
G36*
X1150050Y420763D02*
X1150050Y420763D01*
X1150116Y420765D01*
X1150159Y420783D01*
X1150206Y420791D01*
X1150263Y420825D01*
X1150323Y420850D01*
X1150358Y420881D01*
X1150399Y420906D01*
X1150441Y420957D01*
X1150489Y421001D01*
X1150511Y421043D01*
X1150540Y421080D01*
X1150561Y421142D01*
X1150592Y421201D01*
X1150600Y421255D01*
X1150612Y421292D01*
X1150611Y421332D01*
X1150619Y421386D01*
X1150619Y426974D01*
X1150608Y427039D01*
X1150606Y427105D01*
X1150588Y427148D01*
X1150580Y427195D01*
X1150546Y427252D01*
X1150521Y427312D01*
X1150490Y427347D01*
X1150465Y427388D01*
X1150414Y427430D01*
X1150370Y427478D01*
X1150328Y427500D01*
X1150291Y427529D01*
X1150229Y427550D01*
X1150170Y427581D01*
X1150116Y427589D01*
X1150079Y427601D01*
X1150039Y427600D01*
X1149985Y427608D01*
X1146175Y427608D01*
X1146110Y427597D01*
X1146044Y427595D01*
X1146001Y427577D01*
X1145954Y427569D01*
X1145897Y427535D01*
X1145837Y427510D01*
X1145802Y427479D01*
X1145761Y427454D01*
X1145720Y427403D01*
X1145671Y427359D01*
X1145649Y427317D01*
X1145620Y427280D01*
X1145599Y427218D01*
X1145568Y427159D01*
X1145560Y427105D01*
X1145548Y427068D01*
X1145549Y427028D01*
X1145541Y426974D01*
X1145541Y421386D01*
X1145552Y421321D01*
X1145554Y421255D01*
X1145572Y421212D01*
X1145580Y421165D01*
X1145614Y421108D01*
X1145639Y421048D01*
X1145670Y421013D01*
X1145695Y420972D01*
X1145746Y420931D01*
X1145790Y420882D01*
X1145832Y420860D01*
X1145869Y420831D01*
X1145931Y420810D01*
X1145990Y420779D01*
X1146044Y420771D01*
X1146081Y420759D01*
X1146121Y420760D01*
X1146175Y420752D01*
X1149985Y420752D01*
X1150050Y420763D01*
G37*
G36*
X52770Y420763D02*
X52770Y420763D01*
X52836Y420765D01*
X52879Y420783D01*
X52926Y420791D01*
X52983Y420825D01*
X53043Y420850D01*
X53078Y420881D01*
X53119Y420906D01*
X53161Y420957D01*
X53209Y421001D01*
X53231Y421043D01*
X53260Y421080D01*
X53281Y421142D01*
X53312Y421201D01*
X53320Y421255D01*
X53332Y421292D01*
X53331Y421332D01*
X53339Y421386D01*
X53339Y426974D01*
X53328Y427039D01*
X53326Y427105D01*
X53308Y427148D01*
X53300Y427195D01*
X53266Y427252D01*
X53241Y427312D01*
X53210Y427347D01*
X53185Y427388D01*
X53134Y427430D01*
X53090Y427478D01*
X53048Y427500D01*
X53011Y427529D01*
X52949Y427550D01*
X52890Y427581D01*
X52836Y427589D01*
X52799Y427601D01*
X52759Y427600D01*
X52705Y427608D01*
X48895Y427608D01*
X48830Y427597D01*
X48764Y427595D01*
X48721Y427577D01*
X48674Y427569D01*
X48617Y427535D01*
X48557Y427510D01*
X48522Y427479D01*
X48481Y427454D01*
X48440Y427403D01*
X48391Y427359D01*
X48369Y427317D01*
X48340Y427280D01*
X48319Y427218D01*
X48288Y427159D01*
X48280Y427105D01*
X48268Y427068D01*
X48269Y427028D01*
X48261Y426974D01*
X48261Y421386D01*
X48272Y421321D01*
X48274Y421255D01*
X48292Y421212D01*
X48300Y421165D01*
X48334Y421108D01*
X48359Y421048D01*
X48390Y421013D01*
X48415Y420972D01*
X48466Y420931D01*
X48510Y420882D01*
X48552Y420860D01*
X48589Y420831D01*
X48651Y420810D01*
X48710Y420779D01*
X48764Y420771D01*
X48801Y420759D01*
X48841Y420760D01*
X48895Y420752D01*
X52705Y420752D01*
X52770Y420763D01*
G37*
G36*
X1150050Y72783D02*
X1150050Y72783D01*
X1150116Y72785D01*
X1150159Y72803D01*
X1150206Y72811D01*
X1150263Y72845D01*
X1150323Y72870D01*
X1150358Y72901D01*
X1150399Y72926D01*
X1150441Y72977D01*
X1150489Y73021D01*
X1150511Y73063D01*
X1150540Y73100D01*
X1150561Y73162D01*
X1150592Y73221D01*
X1150600Y73275D01*
X1150612Y73312D01*
X1150611Y73352D01*
X1150619Y73406D01*
X1150619Y78994D01*
X1150608Y79059D01*
X1150606Y79125D01*
X1150588Y79168D01*
X1150580Y79215D01*
X1150546Y79272D01*
X1150521Y79332D01*
X1150490Y79367D01*
X1150465Y79408D01*
X1150414Y79450D01*
X1150370Y79498D01*
X1150328Y79520D01*
X1150291Y79549D01*
X1150229Y79570D01*
X1150170Y79601D01*
X1150116Y79609D01*
X1150079Y79621D01*
X1150039Y79620D01*
X1149985Y79628D01*
X1146175Y79628D01*
X1146110Y79617D01*
X1146044Y79615D01*
X1146001Y79597D01*
X1145954Y79589D01*
X1145897Y79555D01*
X1145837Y79530D01*
X1145802Y79499D01*
X1145761Y79474D01*
X1145720Y79423D01*
X1145671Y79379D01*
X1145649Y79337D01*
X1145620Y79300D01*
X1145599Y79238D01*
X1145568Y79179D01*
X1145560Y79125D01*
X1145548Y79088D01*
X1145549Y79048D01*
X1145541Y78994D01*
X1145541Y73406D01*
X1145552Y73341D01*
X1145554Y73275D01*
X1145572Y73232D01*
X1145580Y73185D01*
X1145614Y73128D01*
X1145639Y73068D01*
X1145670Y73033D01*
X1145695Y72992D01*
X1145746Y72951D01*
X1145790Y72902D01*
X1145832Y72880D01*
X1145869Y72851D01*
X1145931Y72830D01*
X1145990Y72799D01*
X1146044Y72791D01*
X1146081Y72779D01*
X1146121Y72780D01*
X1146175Y72772D01*
X1149985Y72772D01*
X1150050Y72783D01*
G37*
G36*
X52770Y72783D02*
X52770Y72783D01*
X52836Y72785D01*
X52879Y72803D01*
X52926Y72811D01*
X52983Y72845D01*
X53043Y72870D01*
X53078Y72901D01*
X53119Y72926D01*
X53161Y72977D01*
X53209Y73021D01*
X53231Y73063D01*
X53260Y73100D01*
X53281Y73162D01*
X53312Y73221D01*
X53320Y73275D01*
X53332Y73312D01*
X53331Y73352D01*
X53339Y73406D01*
X53339Y78994D01*
X53328Y79059D01*
X53326Y79125D01*
X53308Y79168D01*
X53300Y79215D01*
X53266Y79272D01*
X53241Y79332D01*
X53210Y79367D01*
X53185Y79408D01*
X53134Y79450D01*
X53090Y79498D01*
X53048Y79520D01*
X53011Y79549D01*
X52949Y79570D01*
X52890Y79601D01*
X52836Y79609D01*
X52799Y79621D01*
X52759Y79620D01*
X52705Y79628D01*
X48895Y79628D01*
X48830Y79617D01*
X48764Y79615D01*
X48721Y79597D01*
X48674Y79589D01*
X48617Y79555D01*
X48557Y79530D01*
X48522Y79499D01*
X48481Y79474D01*
X48440Y79423D01*
X48391Y79379D01*
X48369Y79337D01*
X48340Y79300D01*
X48319Y79238D01*
X48288Y79179D01*
X48280Y79125D01*
X48268Y79088D01*
X48269Y79048D01*
X48261Y78994D01*
X48261Y73406D01*
X48272Y73341D01*
X48274Y73275D01*
X48292Y73232D01*
X48300Y73185D01*
X48334Y73128D01*
X48359Y73068D01*
X48390Y73033D01*
X48415Y72992D01*
X48466Y72951D01*
X48510Y72902D01*
X48552Y72880D01*
X48589Y72851D01*
X48651Y72830D01*
X48710Y72799D01*
X48764Y72791D01*
X48801Y72779D01*
X48841Y72780D01*
X48895Y72772D01*
X52705Y72772D01*
X52770Y72783D01*
G37*
G36*
X1124650Y252107D02*
X1124650Y252107D01*
X1124716Y252109D01*
X1124759Y252127D01*
X1124806Y252135D01*
X1124863Y252169D01*
X1124923Y252194D01*
X1124958Y252225D01*
X1124999Y252250D01*
X1125041Y252301D01*
X1125089Y252345D01*
X1125111Y252387D01*
X1125140Y252424D01*
X1125161Y252486D01*
X1125192Y252545D01*
X1125200Y252599D01*
X1125212Y252636D01*
X1125211Y252676D01*
X1125219Y252730D01*
X1125219Y255270D01*
X1125208Y255335D01*
X1125206Y255401D01*
X1125188Y255444D01*
X1125180Y255491D01*
X1125146Y255548D01*
X1125121Y255608D01*
X1125090Y255643D01*
X1125065Y255684D01*
X1125014Y255726D01*
X1124970Y255774D01*
X1124928Y255796D01*
X1124891Y255825D01*
X1124829Y255846D01*
X1124770Y255877D01*
X1124716Y255885D01*
X1124679Y255897D01*
X1124639Y255896D01*
X1124585Y255904D01*
X1120775Y255904D01*
X1120710Y255893D01*
X1120644Y255891D01*
X1120601Y255873D01*
X1120554Y255865D01*
X1120497Y255831D01*
X1120437Y255806D01*
X1120402Y255775D01*
X1120361Y255750D01*
X1120320Y255699D01*
X1120271Y255655D01*
X1120249Y255613D01*
X1120220Y255576D01*
X1120199Y255514D01*
X1120168Y255455D01*
X1120160Y255401D01*
X1120148Y255364D01*
X1120148Y255361D01*
X1120149Y255324D01*
X1120141Y255270D01*
X1120141Y252730D01*
X1120152Y252665D01*
X1120154Y252599D01*
X1120172Y252556D01*
X1120180Y252509D01*
X1120214Y252452D01*
X1120239Y252392D01*
X1120270Y252357D01*
X1120295Y252316D01*
X1120346Y252275D01*
X1120390Y252226D01*
X1120432Y252204D01*
X1120469Y252175D01*
X1120531Y252154D01*
X1120590Y252123D01*
X1120644Y252115D01*
X1120681Y252103D01*
X1120721Y252104D01*
X1120775Y252096D01*
X1124585Y252096D01*
X1124650Y252107D01*
G37*
G36*
X27370Y252107D02*
X27370Y252107D01*
X27436Y252109D01*
X27479Y252127D01*
X27526Y252135D01*
X27583Y252169D01*
X27643Y252194D01*
X27678Y252225D01*
X27719Y252250D01*
X27761Y252301D01*
X27809Y252345D01*
X27831Y252387D01*
X27860Y252424D01*
X27881Y252486D01*
X27912Y252545D01*
X27920Y252599D01*
X27932Y252636D01*
X27931Y252676D01*
X27939Y252730D01*
X27939Y255270D01*
X27928Y255335D01*
X27926Y255401D01*
X27908Y255444D01*
X27900Y255491D01*
X27866Y255548D01*
X27841Y255608D01*
X27810Y255643D01*
X27785Y255684D01*
X27734Y255726D01*
X27690Y255774D01*
X27648Y255796D01*
X27611Y255825D01*
X27549Y255846D01*
X27490Y255877D01*
X27436Y255885D01*
X27399Y255897D01*
X27359Y255896D01*
X27305Y255904D01*
X23495Y255904D01*
X23430Y255893D01*
X23364Y255891D01*
X23321Y255873D01*
X23274Y255865D01*
X23217Y255831D01*
X23157Y255806D01*
X23122Y255775D01*
X23081Y255750D01*
X23040Y255699D01*
X22991Y255655D01*
X22969Y255613D01*
X22940Y255576D01*
X22919Y255514D01*
X22888Y255455D01*
X22880Y255401D01*
X22868Y255364D01*
X22868Y255361D01*
X22869Y255324D01*
X22861Y255270D01*
X22861Y252730D01*
X22872Y252665D01*
X22874Y252599D01*
X22892Y252556D01*
X22900Y252509D01*
X22934Y252452D01*
X22959Y252392D01*
X22990Y252357D01*
X23015Y252316D01*
X23066Y252275D01*
X23110Y252226D01*
X23152Y252204D01*
X23189Y252175D01*
X23251Y252154D01*
X23310Y252123D01*
X23364Y252115D01*
X23401Y252103D01*
X23441Y252104D01*
X23495Y252096D01*
X27305Y252096D01*
X27370Y252107D01*
G37*
G36*
X1124650Y948067D02*
X1124650Y948067D01*
X1124716Y948069D01*
X1124759Y948087D01*
X1124806Y948095D01*
X1124863Y948129D01*
X1124923Y948154D01*
X1124958Y948185D01*
X1124999Y948210D01*
X1125041Y948261D01*
X1125089Y948305D01*
X1125111Y948347D01*
X1125140Y948384D01*
X1125161Y948446D01*
X1125192Y948505D01*
X1125200Y948559D01*
X1125212Y948596D01*
X1125211Y948636D01*
X1125219Y948690D01*
X1125219Y951230D01*
X1125208Y951295D01*
X1125206Y951361D01*
X1125188Y951404D01*
X1125180Y951451D01*
X1125146Y951508D01*
X1125121Y951568D01*
X1125090Y951603D01*
X1125065Y951644D01*
X1125014Y951686D01*
X1124970Y951734D01*
X1124928Y951756D01*
X1124891Y951785D01*
X1124829Y951806D01*
X1124770Y951837D01*
X1124716Y951845D01*
X1124679Y951857D01*
X1124639Y951856D01*
X1124585Y951864D01*
X1120775Y951864D01*
X1120710Y951853D01*
X1120644Y951851D01*
X1120601Y951833D01*
X1120554Y951825D01*
X1120497Y951791D01*
X1120437Y951766D01*
X1120402Y951735D01*
X1120361Y951710D01*
X1120320Y951659D01*
X1120271Y951615D01*
X1120249Y951573D01*
X1120220Y951536D01*
X1120199Y951474D01*
X1120168Y951415D01*
X1120160Y951361D01*
X1120148Y951324D01*
X1120148Y951321D01*
X1120149Y951284D01*
X1120141Y951230D01*
X1120141Y948690D01*
X1120152Y948625D01*
X1120154Y948559D01*
X1120172Y948516D01*
X1120180Y948469D01*
X1120214Y948412D01*
X1120239Y948352D01*
X1120270Y948317D01*
X1120295Y948276D01*
X1120346Y948235D01*
X1120390Y948186D01*
X1120432Y948164D01*
X1120469Y948135D01*
X1120531Y948114D01*
X1120590Y948083D01*
X1120644Y948075D01*
X1120681Y948063D01*
X1120721Y948064D01*
X1120775Y948056D01*
X1124585Y948056D01*
X1124650Y948067D01*
G37*
G36*
X27370Y948067D02*
X27370Y948067D01*
X27436Y948069D01*
X27479Y948087D01*
X27526Y948095D01*
X27583Y948129D01*
X27643Y948154D01*
X27678Y948185D01*
X27719Y948210D01*
X27761Y948261D01*
X27809Y948305D01*
X27831Y948347D01*
X27860Y948384D01*
X27881Y948446D01*
X27912Y948505D01*
X27920Y948559D01*
X27932Y948596D01*
X27931Y948636D01*
X27939Y948690D01*
X27939Y951230D01*
X27928Y951295D01*
X27926Y951361D01*
X27908Y951404D01*
X27900Y951451D01*
X27866Y951508D01*
X27841Y951568D01*
X27810Y951603D01*
X27785Y951644D01*
X27734Y951686D01*
X27690Y951734D01*
X27648Y951756D01*
X27611Y951785D01*
X27549Y951806D01*
X27490Y951837D01*
X27436Y951845D01*
X27399Y951857D01*
X27359Y951856D01*
X27305Y951864D01*
X23495Y951864D01*
X23430Y951853D01*
X23364Y951851D01*
X23321Y951833D01*
X23274Y951825D01*
X23217Y951791D01*
X23157Y951766D01*
X23122Y951735D01*
X23081Y951710D01*
X23040Y951659D01*
X22991Y951615D01*
X22969Y951573D01*
X22940Y951536D01*
X22919Y951474D01*
X22888Y951415D01*
X22880Y951361D01*
X22868Y951324D01*
X22868Y951321D01*
X22869Y951284D01*
X22861Y951230D01*
X22861Y948690D01*
X22872Y948625D01*
X22874Y948559D01*
X22892Y948516D01*
X22900Y948469D01*
X22934Y948412D01*
X22959Y948352D01*
X22990Y948317D01*
X23015Y948276D01*
X23066Y948235D01*
X23110Y948186D01*
X23152Y948164D01*
X23189Y948135D01*
X23251Y948114D01*
X23310Y948083D01*
X23364Y948075D01*
X23401Y948063D01*
X23441Y948064D01*
X23495Y948056D01*
X27305Y948056D01*
X27370Y948067D01*
G37*
G36*
X1251650Y871867D02*
X1251650Y871867D01*
X1251716Y871869D01*
X1251759Y871887D01*
X1251806Y871895D01*
X1251863Y871929D01*
X1251923Y871954D01*
X1251958Y871985D01*
X1251999Y872010D01*
X1252041Y872061D01*
X1252089Y872105D01*
X1252111Y872147D01*
X1252140Y872184D01*
X1252161Y872246D01*
X1252192Y872305D01*
X1252200Y872359D01*
X1252212Y872396D01*
X1252211Y872436D01*
X1252219Y872490D01*
X1252219Y875030D01*
X1252208Y875095D01*
X1252206Y875161D01*
X1252188Y875204D01*
X1252180Y875251D01*
X1252146Y875308D01*
X1252121Y875368D01*
X1252090Y875403D01*
X1252065Y875444D01*
X1252014Y875486D01*
X1251970Y875534D01*
X1251928Y875556D01*
X1251891Y875585D01*
X1251829Y875606D01*
X1251770Y875637D01*
X1251716Y875645D01*
X1251679Y875657D01*
X1251639Y875656D01*
X1251585Y875664D01*
X1247775Y875664D01*
X1247710Y875653D01*
X1247644Y875651D01*
X1247601Y875633D01*
X1247554Y875625D01*
X1247497Y875591D01*
X1247437Y875566D01*
X1247402Y875535D01*
X1247361Y875510D01*
X1247320Y875459D01*
X1247271Y875415D01*
X1247249Y875373D01*
X1247220Y875336D01*
X1247199Y875274D01*
X1247168Y875215D01*
X1247160Y875161D01*
X1247148Y875124D01*
X1247148Y875121D01*
X1247149Y875084D01*
X1247141Y875030D01*
X1247141Y872490D01*
X1247152Y872425D01*
X1247154Y872359D01*
X1247172Y872316D01*
X1247180Y872269D01*
X1247214Y872212D01*
X1247239Y872152D01*
X1247270Y872117D01*
X1247295Y872076D01*
X1247346Y872035D01*
X1247390Y871986D01*
X1247432Y871964D01*
X1247469Y871935D01*
X1247531Y871914D01*
X1247590Y871883D01*
X1247644Y871875D01*
X1247681Y871863D01*
X1247721Y871864D01*
X1247775Y871856D01*
X1251585Y871856D01*
X1251650Y871867D01*
G37*
G36*
X154370Y871867D02*
X154370Y871867D01*
X154436Y871869D01*
X154479Y871887D01*
X154526Y871895D01*
X154583Y871929D01*
X154643Y871954D01*
X154678Y871985D01*
X154719Y872010D01*
X154761Y872061D01*
X154809Y872105D01*
X154831Y872147D01*
X154860Y872184D01*
X154881Y872246D01*
X154912Y872305D01*
X154920Y872359D01*
X154932Y872396D01*
X154931Y872436D01*
X154939Y872490D01*
X154939Y875030D01*
X154928Y875095D01*
X154926Y875161D01*
X154908Y875204D01*
X154900Y875251D01*
X154866Y875308D01*
X154841Y875368D01*
X154810Y875403D01*
X154785Y875444D01*
X154734Y875486D01*
X154690Y875534D01*
X154648Y875556D01*
X154611Y875585D01*
X154549Y875606D01*
X154490Y875637D01*
X154436Y875645D01*
X154399Y875657D01*
X154359Y875656D01*
X154305Y875664D01*
X150495Y875664D01*
X150430Y875653D01*
X150364Y875651D01*
X150321Y875633D01*
X150274Y875625D01*
X150217Y875591D01*
X150157Y875566D01*
X150122Y875535D01*
X150081Y875510D01*
X150040Y875459D01*
X149991Y875415D01*
X149969Y875373D01*
X149940Y875336D01*
X149919Y875274D01*
X149888Y875215D01*
X149880Y875161D01*
X149868Y875124D01*
X149868Y875121D01*
X149869Y875084D01*
X149861Y875030D01*
X149861Y872490D01*
X149872Y872425D01*
X149874Y872359D01*
X149892Y872316D01*
X149900Y872269D01*
X149934Y872212D01*
X149959Y872152D01*
X149990Y872117D01*
X150015Y872076D01*
X150066Y872035D01*
X150110Y871986D01*
X150152Y871964D01*
X150189Y871935D01*
X150251Y871914D01*
X150310Y871883D01*
X150364Y871875D01*
X150401Y871863D01*
X150441Y871864D01*
X150495Y871856D01*
X154305Y871856D01*
X154370Y871867D01*
G37*
G36*
X1124650Y600087D02*
X1124650Y600087D01*
X1124716Y600089D01*
X1124759Y600107D01*
X1124806Y600115D01*
X1124863Y600149D01*
X1124923Y600174D01*
X1124958Y600205D01*
X1124999Y600230D01*
X1125041Y600281D01*
X1125089Y600325D01*
X1125111Y600367D01*
X1125140Y600404D01*
X1125161Y600466D01*
X1125192Y600525D01*
X1125200Y600579D01*
X1125212Y600616D01*
X1125211Y600656D01*
X1125219Y600710D01*
X1125219Y603250D01*
X1125208Y603315D01*
X1125206Y603381D01*
X1125188Y603424D01*
X1125180Y603471D01*
X1125146Y603528D01*
X1125121Y603588D01*
X1125090Y603623D01*
X1125065Y603664D01*
X1125014Y603706D01*
X1124970Y603754D01*
X1124928Y603776D01*
X1124891Y603805D01*
X1124829Y603826D01*
X1124770Y603857D01*
X1124716Y603865D01*
X1124679Y603877D01*
X1124639Y603876D01*
X1124585Y603884D01*
X1120775Y603884D01*
X1120710Y603873D01*
X1120644Y603871D01*
X1120601Y603853D01*
X1120554Y603845D01*
X1120497Y603811D01*
X1120437Y603786D01*
X1120402Y603755D01*
X1120361Y603730D01*
X1120320Y603679D01*
X1120271Y603635D01*
X1120249Y603593D01*
X1120220Y603556D01*
X1120199Y603494D01*
X1120168Y603435D01*
X1120160Y603381D01*
X1120148Y603344D01*
X1120148Y603341D01*
X1120149Y603304D01*
X1120141Y603250D01*
X1120141Y600710D01*
X1120152Y600645D01*
X1120154Y600579D01*
X1120172Y600536D01*
X1120180Y600489D01*
X1120214Y600432D01*
X1120239Y600372D01*
X1120270Y600337D01*
X1120295Y600296D01*
X1120346Y600255D01*
X1120390Y600206D01*
X1120432Y600184D01*
X1120469Y600155D01*
X1120531Y600134D01*
X1120590Y600103D01*
X1120644Y600095D01*
X1120681Y600083D01*
X1120721Y600084D01*
X1120775Y600076D01*
X1124585Y600076D01*
X1124650Y600087D01*
G37*
G36*
X27370Y600087D02*
X27370Y600087D01*
X27436Y600089D01*
X27479Y600107D01*
X27526Y600115D01*
X27583Y600149D01*
X27643Y600174D01*
X27678Y600205D01*
X27719Y600230D01*
X27761Y600281D01*
X27809Y600325D01*
X27831Y600367D01*
X27860Y600404D01*
X27881Y600466D01*
X27912Y600525D01*
X27920Y600579D01*
X27932Y600616D01*
X27931Y600656D01*
X27939Y600710D01*
X27939Y603250D01*
X27928Y603315D01*
X27926Y603381D01*
X27908Y603424D01*
X27900Y603471D01*
X27866Y603528D01*
X27841Y603588D01*
X27810Y603623D01*
X27785Y603664D01*
X27734Y603706D01*
X27690Y603754D01*
X27648Y603776D01*
X27611Y603805D01*
X27549Y603826D01*
X27490Y603857D01*
X27436Y603865D01*
X27399Y603877D01*
X27359Y603876D01*
X27305Y603884D01*
X23495Y603884D01*
X23430Y603873D01*
X23364Y603871D01*
X23321Y603853D01*
X23274Y603845D01*
X23217Y603811D01*
X23157Y603786D01*
X23122Y603755D01*
X23081Y603730D01*
X23040Y603679D01*
X22991Y603635D01*
X22969Y603593D01*
X22940Y603556D01*
X22919Y603494D01*
X22888Y603435D01*
X22880Y603381D01*
X22868Y603344D01*
X22868Y603341D01*
X22869Y603304D01*
X22861Y603250D01*
X22861Y600710D01*
X22872Y600645D01*
X22874Y600579D01*
X22892Y600536D01*
X22900Y600489D01*
X22934Y600432D01*
X22959Y600372D01*
X22990Y600337D01*
X23015Y600296D01*
X23066Y600255D01*
X23110Y600206D01*
X23152Y600184D01*
X23189Y600155D01*
X23251Y600134D01*
X23310Y600103D01*
X23364Y600095D01*
X23401Y600083D01*
X23441Y600084D01*
X23495Y600076D01*
X27305Y600076D01*
X27370Y600087D01*
G37*
G36*
X154370Y523887D02*
X154370Y523887D01*
X154436Y523889D01*
X154479Y523907D01*
X154526Y523915D01*
X154583Y523949D01*
X154643Y523974D01*
X154678Y524005D01*
X154719Y524030D01*
X154761Y524081D01*
X154809Y524125D01*
X154831Y524167D01*
X154860Y524204D01*
X154881Y524266D01*
X154912Y524325D01*
X154920Y524379D01*
X154932Y524416D01*
X154931Y524456D01*
X154939Y524510D01*
X154939Y527050D01*
X154928Y527115D01*
X154926Y527181D01*
X154908Y527224D01*
X154900Y527271D01*
X154866Y527328D01*
X154841Y527388D01*
X154810Y527423D01*
X154785Y527464D01*
X154734Y527506D01*
X154690Y527554D01*
X154648Y527576D01*
X154611Y527605D01*
X154549Y527626D01*
X154490Y527657D01*
X154436Y527665D01*
X154399Y527677D01*
X154359Y527676D01*
X154305Y527684D01*
X150495Y527684D01*
X150430Y527673D01*
X150364Y527671D01*
X150321Y527653D01*
X150274Y527645D01*
X150217Y527611D01*
X150157Y527586D01*
X150122Y527555D01*
X150081Y527530D01*
X150040Y527479D01*
X149991Y527435D01*
X149969Y527393D01*
X149940Y527356D01*
X149919Y527294D01*
X149888Y527235D01*
X149880Y527181D01*
X149868Y527144D01*
X149868Y527141D01*
X149869Y527104D01*
X149861Y527050D01*
X149861Y524510D01*
X149872Y524445D01*
X149874Y524379D01*
X149892Y524336D01*
X149900Y524289D01*
X149934Y524232D01*
X149959Y524172D01*
X149990Y524137D01*
X150015Y524096D01*
X150066Y524055D01*
X150110Y524006D01*
X150152Y523984D01*
X150189Y523955D01*
X150251Y523934D01*
X150310Y523903D01*
X150364Y523895D01*
X150401Y523883D01*
X150441Y523884D01*
X150495Y523876D01*
X154305Y523876D01*
X154370Y523887D01*
G37*
G36*
X1251650Y523887D02*
X1251650Y523887D01*
X1251716Y523889D01*
X1251759Y523907D01*
X1251806Y523915D01*
X1251863Y523949D01*
X1251923Y523974D01*
X1251958Y524005D01*
X1251999Y524030D01*
X1252041Y524081D01*
X1252089Y524125D01*
X1252111Y524167D01*
X1252140Y524204D01*
X1252161Y524266D01*
X1252192Y524325D01*
X1252200Y524379D01*
X1252212Y524416D01*
X1252211Y524456D01*
X1252219Y524510D01*
X1252219Y527050D01*
X1252208Y527115D01*
X1252206Y527181D01*
X1252188Y527224D01*
X1252180Y527271D01*
X1252146Y527328D01*
X1252121Y527388D01*
X1252090Y527423D01*
X1252065Y527464D01*
X1252014Y527506D01*
X1251970Y527554D01*
X1251928Y527576D01*
X1251891Y527605D01*
X1251829Y527626D01*
X1251770Y527657D01*
X1251716Y527665D01*
X1251679Y527677D01*
X1251639Y527676D01*
X1251585Y527684D01*
X1247775Y527684D01*
X1247710Y527673D01*
X1247644Y527671D01*
X1247601Y527653D01*
X1247554Y527645D01*
X1247497Y527611D01*
X1247437Y527586D01*
X1247402Y527555D01*
X1247361Y527530D01*
X1247320Y527479D01*
X1247271Y527435D01*
X1247249Y527393D01*
X1247220Y527356D01*
X1247199Y527294D01*
X1247168Y527235D01*
X1247160Y527181D01*
X1247148Y527144D01*
X1247148Y527141D01*
X1247149Y527104D01*
X1247141Y527050D01*
X1247141Y524510D01*
X1247152Y524445D01*
X1247154Y524379D01*
X1247172Y524336D01*
X1247180Y524289D01*
X1247214Y524232D01*
X1247239Y524172D01*
X1247270Y524137D01*
X1247295Y524096D01*
X1247346Y524055D01*
X1247390Y524006D01*
X1247432Y523984D01*
X1247469Y523955D01*
X1247531Y523934D01*
X1247590Y523903D01*
X1247644Y523895D01*
X1247681Y523883D01*
X1247721Y523884D01*
X1247775Y523876D01*
X1251585Y523876D01*
X1251650Y523887D01*
G37*
G36*
X1251650Y175907D02*
X1251650Y175907D01*
X1251716Y175909D01*
X1251759Y175927D01*
X1251806Y175935D01*
X1251863Y175969D01*
X1251923Y175994D01*
X1251958Y176025D01*
X1251999Y176050D01*
X1252041Y176101D01*
X1252089Y176145D01*
X1252111Y176187D01*
X1252140Y176224D01*
X1252161Y176286D01*
X1252192Y176345D01*
X1252200Y176399D01*
X1252212Y176436D01*
X1252211Y176476D01*
X1252219Y176530D01*
X1252219Y179070D01*
X1252208Y179135D01*
X1252206Y179201D01*
X1252188Y179244D01*
X1252180Y179291D01*
X1252146Y179348D01*
X1252121Y179408D01*
X1252090Y179443D01*
X1252065Y179484D01*
X1252014Y179526D01*
X1251970Y179574D01*
X1251928Y179596D01*
X1251891Y179625D01*
X1251829Y179646D01*
X1251770Y179677D01*
X1251716Y179685D01*
X1251679Y179697D01*
X1251639Y179696D01*
X1251585Y179704D01*
X1247775Y179704D01*
X1247710Y179693D01*
X1247644Y179691D01*
X1247601Y179673D01*
X1247554Y179665D01*
X1247497Y179631D01*
X1247437Y179606D01*
X1247402Y179575D01*
X1247361Y179550D01*
X1247320Y179499D01*
X1247271Y179455D01*
X1247249Y179413D01*
X1247220Y179376D01*
X1247199Y179314D01*
X1247168Y179255D01*
X1247160Y179201D01*
X1247148Y179164D01*
X1247148Y179161D01*
X1247149Y179124D01*
X1247141Y179070D01*
X1247141Y176530D01*
X1247152Y176465D01*
X1247154Y176399D01*
X1247172Y176356D01*
X1247180Y176309D01*
X1247214Y176252D01*
X1247239Y176192D01*
X1247270Y176157D01*
X1247295Y176116D01*
X1247346Y176075D01*
X1247390Y176026D01*
X1247432Y176004D01*
X1247469Y175975D01*
X1247531Y175954D01*
X1247590Y175923D01*
X1247644Y175915D01*
X1247681Y175903D01*
X1247721Y175904D01*
X1247775Y175896D01*
X1251585Y175896D01*
X1251650Y175907D01*
G37*
G36*
X154370Y175907D02*
X154370Y175907D01*
X154436Y175909D01*
X154479Y175927D01*
X154526Y175935D01*
X154583Y175969D01*
X154643Y175994D01*
X154678Y176025D01*
X154719Y176050D01*
X154761Y176101D01*
X154809Y176145D01*
X154831Y176187D01*
X154860Y176224D01*
X154881Y176286D01*
X154912Y176345D01*
X154920Y176399D01*
X154932Y176436D01*
X154931Y176476D01*
X154939Y176530D01*
X154939Y179070D01*
X154928Y179135D01*
X154926Y179201D01*
X154908Y179244D01*
X154900Y179291D01*
X154866Y179348D01*
X154841Y179408D01*
X154810Y179443D01*
X154785Y179484D01*
X154734Y179526D01*
X154690Y179574D01*
X154648Y179596D01*
X154611Y179625D01*
X154549Y179646D01*
X154490Y179677D01*
X154436Y179685D01*
X154399Y179697D01*
X154359Y179696D01*
X154305Y179704D01*
X150495Y179704D01*
X150430Y179693D01*
X150364Y179691D01*
X150321Y179673D01*
X150274Y179665D01*
X150217Y179631D01*
X150157Y179606D01*
X150122Y179575D01*
X150081Y179550D01*
X150040Y179499D01*
X149991Y179455D01*
X149969Y179413D01*
X149940Y179376D01*
X149919Y179314D01*
X149888Y179255D01*
X149880Y179201D01*
X149868Y179164D01*
X149868Y179161D01*
X149869Y179124D01*
X149861Y179070D01*
X149861Y176530D01*
X149872Y176465D01*
X149874Y176399D01*
X149892Y176356D01*
X149900Y176309D01*
X149934Y176252D01*
X149959Y176192D01*
X149990Y176157D01*
X150015Y176116D01*
X150066Y176075D01*
X150110Y176026D01*
X150152Y176004D01*
X150189Y175975D01*
X150251Y175954D01*
X150310Y175923D01*
X150364Y175915D01*
X150401Y175903D01*
X150441Y175904D01*
X150495Y175896D01*
X154305Y175896D01*
X154370Y175907D01*
G37*
D10*
X49050Y168600D03*
X49050Y110800D03*
D11*
X7620Y7620D03*
X1084580Y336550D03*
D12*
X1066800Y317500D03*
X25400Y317500D03*
X1066800Y25400D03*
X25400Y25400D03*
D13*
X454700Y150300D03*
D14*
X30607Y254000D03*
X20193Y254000D03*
D15*
X254000Y90500D03*
D16*
X254000Y290500D03*
D17*
X55880Y76200D03*
X45720Y76200D03*
D18*
X63500Y76200D03*
X38100Y76200D03*
D17*
X143764Y152400D03*
X135636Y152400D03*
X34036Y215900D03*
X42164Y215900D03*
D14*
X157607Y177800D03*
X147193Y177800D03*
D13*
X520700Y254000D03*
X520700Y50800D03*
X723900Y50800D03*
X723900Y254000D03*
X812800Y254000D03*
X1016000Y254000D03*
X1016000Y50800D03*
X812800Y50800D03*
D10*
X1146330Y168600D03*
X1146330Y110800D03*
D11*
X1104900Y7620D03*
X2181860Y336550D03*
D12*
X2164080Y317500D03*
X1122680Y317500D03*
X2164080Y25400D03*
X1122680Y25400D03*
D13*
X1551980Y150300D03*
D14*
X1127887Y254000D03*
X1117473Y254000D03*
D15*
X1351280Y90500D03*
D16*
X1351280Y290500D03*
D17*
X1153160Y76200D03*
X1143000Y76200D03*
D18*
X1160780Y76200D03*
X1135380Y76200D03*
D17*
X1241044Y152400D03*
X1232916Y152400D03*
X1131316Y215900D03*
X1139444Y215900D03*
D14*
X1254887Y177800D03*
X1244473Y177800D03*
D13*
X1617980Y254000D03*
X1617980Y50800D03*
X1821180Y50800D03*
X1821180Y254000D03*
X1910080Y254000D03*
X2113280Y254000D03*
X2113280Y50800D03*
X1910080Y50800D03*
D10*
X49050Y516580D03*
X49050Y458780D03*
D11*
X7620Y355600D03*
X1084580Y684530D03*
D12*
X1066800Y665480D03*
X25400Y665480D03*
X1066800Y373380D03*
X25400Y373380D03*
D13*
X454700Y498280D03*
D14*
X30607Y601980D03*
X20193Y601980D03*
D15*
X254000Y438480D03*
D16*
X254000Y638480D03*
D17*
X55880Y424180D03*
X45720Y424180D03*
D18*
X63500Y424180D03*
X38100Y424180D03*
D17*
X143764Y500380D03*
X135636Y500380D03*
X34036Y563880D03*
X42164Y563880D03*
D14*
X157607Y525780D03*
X147193Y525780D03*
D13*
X520700Y601980D03*
X520700Y398780D03*
X723900Y398780D03*
X723900Y601980D03*
X812800Y601980D03*
X1016000Y601980D03*
X1016000Y398780D03*
X812800Y398780D03*
D10*
X1146330Y516580D03*
X1146330Y458780D03*
D11*
X1104900Y355600D03*
X2181860Y684530D03*
D12*
X2164080Y665480D03*
X1122680Y665480D03*
X2164080Y373380D03*
X1122680Y373380D03*
D13*
X1551980Y498280D03*
D14*
X1127887Y601980D03*
X1117473Y601980D03*
D15*
X1351280Y438480D03*
D16*
X1351280Y638480D03*
D17*
X1153160Y424180D03*
X1143000Y424180D03*
D18*
X1160780Y424180D03*
X1135380Y424180D03*
D17*
X1241044Y500380D03*
X1232916Y500380D03*
X1131316Y563880D03*
X1139444Y563880D03*
D14*
X1254887Y525780D03*
X1244473Y525780D03*
D13*
X1617980Y601980D03*
X1617980Y398780D03*
X1821180Y398780D03*
X1821180Y601980D03*
X1910080Y601980D03*
X2113280Y601980D03*
X2113280Y398780D03*
X1910080Y398780D03*
D10*
X49050Y864560D03*
X49050Y806760D03*
D11*
X7620Y703580D03*
X1084580Y1032510D03*
D12*
X1066800Y1013460D03*
X25400Y1013460D03*
X1066800Y721360D03*
X25400Y721360D03*
D13*
X454700Y846260D03*
D14*
X30607Y949960D03*
X20193Y949960D03*
D15*
X254000Y786460D03*
D16*
X254000Y986460D03*
D17*
X55880Y772160D03*
X45720Y772160D03*
D18*
X63500Y772160D03*
X38100Y772160D03*
D17*
X143764Y848360D03*
X135636Y848360D03*
X34036Y911860D03*
X42164Y911860D03*
D14*
X157607Y873760D03*
X147193Y873760D03*
D13*
X520700Y949960D03*
X520700Y746760D03*
X723900Y746760D03*
X723900Y949960D03*
X812800Y949960D03*
X1016000Y949960D03*
X1016000Y746760D03*
X812800Y746760D03*
D10*
X1146330Y864560D03*
X1146330Y806760D03*
D11*
X1104900Y703580D03*
X2181860Y1032510D03*
D12*
X2164080Y1013460D03*
X1122680Y1013460D03*
X2164080Y721360D03*
X1122680Y721360D03*
D13*
X1551980Y846260D03*
D14*
X1127887Y949960D03*
X1117473Y949960D03*
D15*
X1351280Y786460D03*
D16*
X1351280Y986460D03*
D17*
X1153160Y772160D03*
X1143000Y772160D03*
D18*
X1160780Y772160D03*
X1135380Y772160D03*
D17*
X1241044Y848360D03*
X1232916Y848360D03*
X1131316Y911860D03*
X1139444Y911860D03*
D14*
X1254887Y873760D03*
X1244473Y873760D03*
D13*
X1617980Y949960D03*
X1617980Y746760D03*
X1821180Y746760D03*
X1821180Y949960D03*
X1910080Y949960D03*
X2113280Y949960D03*
X2113280Y746760D03*
X1910080Y746760D03*
D19*
X-26238Y1012190D03*
X2215718Y1012190D03*
D20*
X-35293Y63500D02*
X-35290Y63722D01*
X-35282Y63944D01*
X-35268Y64166D01*
X-35249Y64388D01*
X-35225Y64608D01*
X-35195Y64829D01*
X-35160Y65048D01*
X-35119Y65267D01*
X-35073Y65484D01*
X-35022Y65700D01*
X-34965Y65915D01*
X-34903Y66129D01*
X-34836Y66340D01*
X-34764Y66551D01*
X-34686Y66759D01*
X-34604Y66965D01*
X-34516Y67169D01*
X-34424Y67372D01*
X-34326Y67571D01*
X-34224Y67768D01*
X-34117Y67963D01*
X-34005Y68155D01*
X-33888Y68344D01*
X-33767Y68531D01*
X-33641Y68714D01*
X-33511Y68894D01*
X-33376Y69071D01*
X-33238Y69244D01*
X-33095Y69414D01*
X-32947Y69581D01*
X-32796Y69744D01*
X-32641Y69903D01*
X-32482Y70058D01*
X-32319Y70209D01*
X-32152Y70357D01*
X-31982Y70500D01*
X-31809Y70638D01*
X-31632Y70773D01*
X-31452Y70903D01*
X-31269Y71029D01*
X-31082Y71150D01*
X-30893Y71267D01*
X-30701Y71379D01*
X-30506Y71486D01*
X-30309Y71588D01*
X-30110Y71686D01*
X-29907Y71778D01*
X-29703Y71866D01*
X-29497Y71948D01*
X-29289Y72026D01*
X-29078Y72098D01*
X-28867Y72165D01*
X-28653Y72227D01*
X-28438Y72284D01*
X-28222Y72335D01*
X-28005Y72381D01*
X-27786Y72422D01*
X-27567Y72457D01*
X-27346Y72487D01*
X-27126Y72511D01*
X-26904Y72530D01*
X-26682Y72544D01*
X-26460Y72552D01*
X-26238Y72555D01*
X-26016Y72552D01*
X-25794Y72544D01*
X-25572Y72530D01*
X-25350Y72511D01*
X-25130Y72487D01*
X-24909Y72457D01*
X-24690Y72422D01*
X-24471Y72381D01*
X-24254Y72335D01*
X-24038Y72284D01*
X-23823Y72227D01*
X-23609Y72165D01*
X-23398Y72098D01*
X-23187Y72026D01*
X-22979Y71948D01*
X-22773Y71866D01*
X-22569Y71778D01*
X-22366Y71686D01*
X-22167Y71588D01*
X-21970Y71486D01*
X-21775Y71379D01*
X-21583Y71267D01*
X-21394Y71150D01*
X-21207Y71029D01*
X-21024Y70903D01*
X-20844Y70773D01*
X-20667Y70638D01*
X-20494Y70500D01*
X-20324Y70357D01*
X-20157Y70209D01*
X-19994Y70058D01*
X-19835Y69903D01*
X-19680Y69744D01*
X-19529Y69581D01*
X-19381Y69414D01*
X-19238Y69244D01*
X-19100Y69071D01*
X-18965Y68894D01*
X-18835Y68714D01*
X-18709Y68531D01*
X-18588Y68344D01*
X-18471Y68155D01*
X-18359Y67963D01*
X-18252Y67768D01*
X-18150Y67571D01*
X-18052Y67372D01*
X-17960Y67169D01*
X-17872Y66965D01*
X-17790Y66759D01*
X-17712Y66551D01*
X-17640Y66340D01*
X-17573Y66129D01*
X-17511Y65915D01*
X-17454Y65700D01*
X-17403Y65484D01*
X-17357Y65267D01*
X-17316Y65048D01*
X-17281Y64829D01*
X-17251Y64608D01*
X-17227Y64388D01*
X-17208Y64166D01*
X-17194Y63944D01*
X-17186Y63722D01*
X-17183Y63500D01*
X-17186Y63278D01*
X-17194Y63056D01*
X-17208Y62834D01*
X-17227Y62612D01*
X-17251Y62392D01*
X-17281Y62171D01*
X-17316Y61952D01*
X-17357Y61733D01*
X-17403Y61516D01*
X-17454Y61300D01*
X-17511Y61085D01*
X-17573Y60871D01*
X-17640Y60660D01*
X-17712Y60449D01*
X-17790Y60241D01*
X-17872Y60035D01*
X-17960Y59831D01*
X-18052Y59628D01*
X-18150Y59429D01*
X-18252Y59232D01*
X-18359Y59037D01*
X-18471Y58845D01*
X-18588Y58656D01*
X-18709Y58469D01*
X-18835Y58286D01*
X-18965Y58106D01*
X-19100Y57929D01*
X-19238Y57756D01*
X-19381Y57586D01*
X-19529Y57419D01*
X-19680Y57256D01*
X-19835Y57097D01*
X-19994Y56942D01*
X-20157Y56791D01*
X-20324Y56643D01*
X-20494Y56500D01*
X-20667Y56362D01*
X-20844Y56227D01*
X-21024Y56097D01*
X-21207Y55971D01*
X-21394Y55850D01*
X-21583Y55733D01*
X-21775Y55621D01*
X-21970Y55514D01*
X-22167Y55412D01*
X-22366Y55314D01*
X-22569Y55222D01*
X-22773Y55134D01*
X-22979Y55052D01*
X-23187Y54974D01*
X-23398Y54902D01*
X-23609Y54835D01*
X-23823Y54773D01*
X-24038Y54716D01*
X-24254Y54665D01*
X-24471Y54619D01*
X-24690Y54578D01*
X-24909Y54543D01*
X-25130Y54513D01*
X-25350Y54489D01*
X-25572Y54470D01*
X-25794Y54456D01*
X-26016Y54448D01*
X-26238Y54445D01*
X-26460Y54448D01*
X-26682Y54456D01*
X-26904Y54470D01*
X-27126Y54489D01*
X-27346Y54513D01*
X-27567Y54543D01*
X-27786Y54578D01*
X-28005Y54619D01*
X-28222Y54665D01*
X-28438Y54716D01*
X-28653Y54773D01*
X-28867Y54835D01*
X-29078Y54902D01*
X-29289Y54974D01*
X-29497Y55052D01*
X-29703Y55134D01*
X-29907Y55222D01*
X-30110Y55314D01*
X-30309Y55412D01*
X-30506Y55514D01*
X-30701Y55621D01*
X-30893Y55733D01*
X-31082Y55850D01*
X-31269Y55971D01*
X-31452Y56097D01*
X-31632Y56227D01*
X-31809Y56362D01*
X-31982Y56500D01*
X-32152Y56643D01*
X-32319Y56791D01*
X-32482Y56942D01*
X-32641Y57097D01*
X-32796Y57256D01*
X-32947Y57419D01*
X-33095Y57586D01*
X-33238Y57756D01*
X-33376Y57929D01*
X-33511Y58106D01*
X-33641Y58286D01*
X-33767Y58469D01*
X-33888Y58656D01*
X-34005Y58845D01*
X-34117Y59037D01*
X-34224Y59232D01*
X-34326Y59429D01*
X-34424Y59628D01*
X-34516Y59831D01*
X-34604Y60035D01*
X-34686Y60241D01*
X-34764Y60449D01*
X-34836Y60660D01*
X-34903Y60871D01*
X-34965Y61085D01*
X-35022Y61300D01*
X-35073Y61516D01*
X-35119Y61733D01*
X-35160Y61952D01*
X-35195Y62171D01*
X-35225Y62392D01*
X-35249Y62612D01*
X-35268Y62834D01*
X-35282Y63056D01*
X-35290Y63278D01*
X-35293Y63500D01*
D21*
X-26238Y63500D03*
M02*
