G04 EAGLE Gerber RS-274X export*
G75*
%MOMM*%
%FSLAX34Y34*%
%LPD*%
%IN*%
%IPPOS*%
%AMOC8*
5,1,8,0,0,1.08239X$1,22.5*%
G01*
%ADD10C,0.254000*%
%ADD11C,0.000000*%
%ADD12C,0.600000*%
%ADD13C,0.254000*%


D10*
X0Y0D02*
X0Y355600D01*
X1066800Y355600D01*
X1066800Y0D01*
X0Y0D01*
D11*
X44530Y135580D02*
X44532Y135693D01*
X44538Y135807D01*
X44548Y135920D01*
X44562Y136032D01*
X44579Y136144D01*
X44601Y136256D01*
X44627Y136366D01*
X44656Y136476D01*
X44689Y136584D01*
X44726Y136692D01*
X44767Y136797D01*
X44811Y136902D01*
X44859Y137005D01*
X44910Y137106D01*
X44965Y137205D01*
X45024Y137302D01*
X45086Y137397D01*
X45151Y137490D01*
X45219Y137581D01*
X45290Y137669D01*
X45365Y137755D01*
X45442Y137838D01*
X45522Y137918D01*
X45605Y137995D01*
X45691Y138070D01*
X45779Y138141D01*
X45870Y138209D01*
X45963Y138274D01*
X46058Y138336D01*
X46155Y138395D01*
X46254Y138450D01*
X46355Y138501D01*
X46458Y138549D01*
X46563Y138593D01*
X46668Y138634D01*
X46776Y138671D01*
X46884Y138704D01*
X46994Y138733D01*
X47104Y138759D01*
X47216Y138781D01*
X47328Y138798D01*
X47440Y138812D01*
X47553Y138822D01*
X47667Y138828D01*
X47780Y138830D01*
X47893Y138828D01*
X48007Y138822D01*
X48120Y138812D01*
X48232Y138798D01*
X48344Y138781D01*
X48456Y138759D01*
X48566Y138733D01*
X48676Y138704D01*
X48784Y138671D01*
X48892Y138634D01*
X48997Y138593D01*
X49102Y138549D01*
X49205Y138501D01*
X49306Y138450D01*
X49405Y138395D01*
X49502Y138336D01*
X49597Y138274D01*
X49690Y138209D01*
X49781Y138141D01*
X49869Y138070D01*
X49955Y137995D01*
X50038Y137918D01*
X50118Y137838D01*
X50195Y137755D01*
X50270Y137669D01*
X50341Y137581D01*
X50409Y137490D01*
X50474Y137397D01*
X50536Y137302D01*
X50595Y137205D01*
X50650Y137106D01*
X50701Y137005D01*
X50749Y136902D01*
X50793Y136797D01*
X50834Y136692D01*
X50871Y136584D01*
X50904Y136476D01*
X50933Y136366D01*
X50959Y136256D01*
X50981Y136144D01*
X50998Y136032D01*
X51012Y135920D01*
X51022Y135807D01*
X51028Y135693D01*
X51030Y135580D01*
X51028Y135467D01*
X51022Y135353D01*
X51012Y135240D01*
X50998Y135128D01*
X50981Y135016D01*
X50959Y134904D01*
X50933Y134794D01*
X50904Y134684D01*
X50871Y134576D01*
X50834Y134468D01*
X50793Y134363D01*
X50749Y134258D01*
X50701Y134155D01*
X50650Y134054D01*
X50595Y133955D01*
X50536Y133858D01*
X50474Y133763D01*
X50409Y133670D01*
X50341Y133579D01*
X50270Y133491D01*
X50195Y133405D01*
X50118Y133322D01*
X50038Y133242D01*
X49955Y133165D01*
X49869Y133090D01*
X49781Y133019D01*
X49690Y132951D01*
X49597Y132886D01*
X49502Y132824D01*
X49405Y132765D01*
X49306Y132710D01*
X49205Y132659D01*
X49102Y132611D01*
X48997Y132567D01*
X48892Y132526D01*
X48784Y132489D01*
X48676Y132456D01*
X48566Y132427D01*
X48456Y132401D01*
X48344Y132379D01*
X48232Y132362D01*
X48120Y132348D01*
X48007Y132338D01*
X47893Y132332D01*
X47780Y132330D01*
X47667Y132332D01*
X47553Y132338D01*
X47440Y132348D01*
X47328Y132362D01*
X47216Y132379D01*
X47104Y132401D01*
X46994Y132427D01*
X46884Y132456D01*
X46776Y132489D01*
X46668Y132526D01*
X46563Y132567D01*
X46458Y132611D01*
X46355Y132659D01*
X46254Y132710D01*
X46155Y132765D01*
X46058Y132824D01*
X45963Y132886D01*
X45870Y132951D01*
X45779Y133019D01*
X45691Y133090D01*
X45605Y133165D01*
X45522Y133242D01*
X45442Y133322D01*
X45365Y133405D01*
X45290Y133491D01*
X45219Y133579D01*
X45151Y133670D01*
X45086Y133763D01*
X45024Y133858D01*
X44965Y133955D01*
X44910Y134054D01*
X44859Y134155D01*
X44811Y134258D01*
X44767Y134363D01*
X44726Y134468D01*
X44689Y134576D01*
X44656Y134684D01*
X44627Y134794D01*
X44601Y134904D01*
X44579Y135016D01*
X44562Y135128D01*
X44548Y135240D01*
X44538Y135353D01*
X44532Y135467D01*
X44530Y135580D01*
X44530Y77780D02*
X44532Y77893D01*
X44538Y78007D01*
X44548Y78120D01*
X44562Y78232D01*
X44579Y78344D01*
X44601Y78456D01*
X44627Y78566D01*
X44656Y78676D01*
X44689Y78784D01*
X44726Y78892D01*
X44767Y78997D01*
X44811Y79102D01*
X44859Y79205D01*
X44910Y79306D01*
X44965Y79405D01*
X45024Y79502D01*
X45086Y79597D01*
X45151Y79690D01*
X45219Y79781D01*
X45290Y79869D01*
X45365Y79955D01*
X45442Y80038D01*
X45522Y80118D01*
X45605Y80195D01*
X45691Y80270D01*
X45779Y80341D01*
X45870Y80409D01*
X45963Y80474D01*
X46058Y80536D01*
X46155Y80595D01*
X46254Y80650D01*
X46355Y80701D01*
X46458Y80749D01*
X46563Y80793D01*
X46668Y80834D01*
X46776Y80871D01*
X46884Y80904D01*
X46994Y80933D01*
X47104Y80959D01*
X47216Y80981D01*
X47328Y80998D01*
X47440Y81012D01*
X47553Y81022D01*
X47667Y81028D01*
X47780Y81030D01*
X47893Y81028D01*
X48007Y81022D01*
X48120Y81012D01*
X48232Y80998D01*
X48344Y80981D01*
X48456Y80959D01*
X48566Y80933D01*
X48676Y80904D01*
X48784Y80871D01*
X48892Y80834D01*
X48997Y80793D01*
X49102Y80749D01*
X49205Y80701D01*
X49306Y80650D01*
X49405Y80595D01*
X49502Y80536D01*
X49597Y80474D01*
X49690Y80409D01*
X49781Y80341D01*
X49869Y80270D01*
X49955Y80195D01*
X50038Y80118D01*
X50118Y80038D01*
X50195Y79955D01*
X50270Y79869D01*
X50341Y79781D01*
X50409Y79690D01*
X50474Y79597D01*
X50536Y79502D01*
X50595Y79405D01*
X50650Y79306D01*
X50701Y79205D01*
X50749Y79102D01*
X50793Y78997D01*
X50834Y78892D01*
X50871Y78784D01*
X50904Y78676D01*
X50933Y78566D01*
X50959Y78456D01*
X50981Y78344D01*
X50998Y78232D01*
X51012Y78120D01*
X51022Y78007D01*
X51028Y77893D01*
X51030Y77780D01*
X51028Y77667D01*
X51022Y77553D01*
X51012Y77440D01*
X50998Y77328D01*
X50981Y77216D01*
X50959Y77104D01*
X50933Y76994D01*
X50904Y76884D01*
X50871Y76776D01*
X50834Y76668D01*
X50793Y76563D01*
X50749Y76458D01*
X50701Y76355D01*
X50650Y76254D01*
X50595Y76155D01*
X50536Y76058D01*
X50474Y75963D01*
X50409Y75870D01*
X50341Y75779D01*
X50270Y75691D01*
X50195Y75605D01*
X50118Y75522D01*
X50038Y75442D01*
X49955Y75365D01*
X49869Y75290D01*
X49781Y75219D01*
X49690Y75151D01*
X49597Y75086D01*
X49502Y75024D01*
X49405Y74965D01*
X49306Y74910D01*
X49205Y74859D01*
X49102Y74811D01*
X48997Y74767D01*
X48892Y74726D01*
X48784Y74689D01*
X48676Y74656D01*
X48566Y74627D01*
X48456Y74601D01*
X48344Y74579D01*
X48232Y74562D01*
X48120Y74548D01*
X48007Y74538D01*
X47893Y74532D01*
X47780Y74530D01*
X47667Y74532D01*
X47553Y74538D01*
X47440Y74548D01*
X47328Y74562D01*
X47216Y74579D01*
X47104Y74601D01*
X46994Y74627D01*
X46884Y74656D01*
X46776Y74689D01*
X46668Y74726D01*
X46563Y74767D01*
X46458Y74811D01*
X46355Y74859D01*
X46254Y74910D01*
X46155Y74965D01*
X46058Y75024D01*
X45963Y75086D01*
X45870Y75151D01*
X45779Y75219D01*
X45691Y75290D01*
X45605Y75365D01*
X45522Y75442D01*
X45442Y75522D01*
X45365Y75605D01*
X45290Y75691D01*
X45219Y75779D01*
X45151Y75870D01*
X45086Y75963D01*
X45024Y76058D01*
X44965Y76155D01*
X44910Y76254D01*
X44859Y76355D01*
X44811Y76458D01*
X44767Y76563D01*
X44726Y76668D01*
X44689Y76776D01*
X44656Y76884D01*
X44627Y76994D01*
X44601Y77104D01*
X44579Y77216D01*
X44562Y77328D01*
X44548Y77440D01*
X44538Y77553D01*
X44532Y77667D01*
X44530Y77780D01*
D12*
X47580Y149860D02*
X58580Y149860D01*
X58580Y63500D02*
X47580Y63500D01*
X14430Y149860D02*
X8230Y149860D01*
X8230Y63500D02*
X14430Y63500D01*
D11*
X1024890Y330200D02*
X1024895Y330605D01*
X1024910Y331010D01*
X1024935Y331415D01*
X1024970Y331818D01*
X1025014Y332221D01*
X1025069Y332623D01*
X1025133Y333023D01*
X1025207Y333421D01*
X1025291Y333817D01*
X1025385Y334212D01*
X1025488Y334603D01*
X1025601Y334993D01*
X1025723Y335379D01*
X1025855Y335762D01*
X1025996Y336142D01*
X1026147Y336518D01*
X1026306Y336891D01*
X1026475Y337259D01*
X1026653Y337623D01*
X1026839Y337983D01*
X1027035Y338338D01*
X1027239Y338688D01*
X1027451Y339033D01*
X1027672Y339372D01*
X1027902Y339707D01*
X1028139Y340035D01*
X1028384Y340357D01*
X1028638Y340674D01*
X1028898Y340984D01*
X1029167Y341287D01*
X1029443Y341584D01*
X1029726Y341874D01*
X1030016Y342157D01*
X1030313Y342433D01*
X1030616Y342702D01*
X1030926Y342962D01*
X1031243Y343216D01*
X1031565Y343461D01*
X1031893Y343698D01*
X1032228Y343928D01*
X1032567Y344149D01*
X1032912Y344361D01*
X1033262Y344565D01*
X1033617Y344761D01*
X1033977Y344947D01*
X1034341Y345125D01*
X1034709Y345294D01*
X1035082Y345453D01*
X1035458Y345604D01*
X1035838Y345745D01*
X1036221Y345877D01*
X1036607Y345999D01*
X1036997Y346112D01*
X1037388Y346215D01*
X1037783Y346309D01*
X1038179Y346393D01*
X1038577Y346467D01*
X1038977Y346531D01*
X1039379Y346586D01*
X1039782Y346630D01*
X1040185Y346665D01*
X1040590Y346690D01*
X1040995Y346705D01*
X1041400Y346710D01*
X1041805Y346705D01*
X1042210Y346690D01*
X1042615Y346665D01*
X1043018Y346630D01*
X1043421Y346586D01*
X1043823Y346531D01*
X1044223Y346467D01*
X1044621Y346393D01*
X1045017Y346309D01*
X1045412Y346215D01*
X1045803Y346112D01*
X1046193Y345999D01*
X1046579Y345877D01*
X1046962Y345745D01*
X1047342Y345604D01*
X1047718Y345453D01*
X1048091Y345294D01*
X1048459Y345125D01*
X1048823Y344947D01*
X1049183Y344761D01*
X1049538Y344565D01*
X1049888Y344361D01*
X1050233Y344149D01*
X1050572Y343928D01*
X1050907Y343698D01*
X1051235Y343461D01*
X1051557Y343216D01*
X1051874Y342962D01*
X1052184Y342702D01*
X1052487Y342433D01*
X1052784Y342157D01*
X1053074Y341874D01*
X1053357Y341584D01*
X1053633Y341287D01*
X1053902Y340984D01*
X1054162Y340674D01*
X1054416Y340357D01*
X1054661Y340035D01*
X1054898Y339707D01*
X1055128Y339372D01*
X1055349Y339033D01*
X1055561Y338688D01*
X1055765Y338338D01*
X1055961Y337983D01*
X1056147Y337623D01*
X1056325Y337259D01*
X1056494Y336891D01*
X1056653Y336518D01*
X1056804Y336142D01*
X1056945Y335762D01*
X1057077Y335379D01*
X1057199Y334993D01*
X1057312Y334603D01*
X1057415Y334212D01*
X1057509Y333817D01*
X1057593Y333421D01*
X1057667Y333023D01*
X1057731Y332623D01*
X1057786Y332221D01*
X1057830Y331818D01*
X1057865Y331415D01*
X1057890Y331010D01*
X1057905Y330605D01*
X1057910Y330200D01*
X1057905Y329795D01*
X1057890Y329390D01*
X1057865Y328985D01*
X1057830Y328582D01*
X1057786Y328179D01*
X1057731Y327777D01*
X1057667Y327377D01*
X1057593Y326979D01*
X1057509Y326583D01*
X1057415Y326188D01*
X1057312Y325797D01*
X1057199Y325407D01*
X1057077Y325021D01*
X1056945Y324638D01*
X1056804Y324258D01*
X1056653Y323882D01*
X1056494Y323509D01*
X1056325Y323141D01*
X1056147Y322777D01*
X1055961Y322417D01*
X1055765Y322062D01*
X1055561Y321712D01*
X1055349Y321367D01*
X1055128Y321028D01*
X1054898Y320693D01*
X1054661Y320365D01*
X1054416Y320043D01*
X1054162Y319726D01*
X1053902Y319416D01*
X1053633Y319113D01*
X1053357Y318816D01*
X1053074Y318526D01*
X1052784Y318243D01*
X1052487Y317967D01*
X1052184Y317698D01*
X1051874Y317438D01*
X1051557Y317184D01*
X1051235Y316939D01*
X1050907Y316702D01*
X1050572Y316472D01*
X1050233Y316251D01*
X1049888Y316039D01*
X1049538Y315835D01*
X1049183Y315639D01*
X1048823Y315453D01*
X1048459Y315275D01*
X1048091Y315106D01*
X1047718Y314947D01*
X1047342Y314796D01*
X1046962Y314655D01*
X1046579Y314523D01*
X1046193Y314401D01*
X1045803Y314288D01*
X1045412Y314185D01*
X1045017Y314091D01*
X1044621Y314007D01*
X1044223Y313933D01*
X1043823Y313869D01*
X1043421Y313814D01*
X1043018Y313770D01*
X1042615Y313735D01*
X1042210Y313710D01*
X1041805Y313695D01*
X1041400Y313690D01*
X1040995Y313695D01*
X1040590Y313710D01*
X1040185Y313735D01*
X1039782Y313770D01*
X1039379Y313814D01*
X1038977Y313869D01*
X1038577Y313933D01*
X1038179Y314007D01*
X1037783Y314091D01*
X1037388Y314185D01*
X1036997Y314288D01*
X1036607Y314401D01*
X1036221Y314523D01*
X1035838Y314655D01*
X1035458Y314796D01*
X1035082Y314947D01*
X1034709Y315106D01*
X1034341Y315275D01*
X1033977Y315453D01*
X1033617Y315639D01*
X1033262Y315835D01*
X1032912Y316039D01*
X1032567Y316251D01*
X1032228Y316472D01*
X1031893Y316702D01*
X1031565Y316939D01*
X1031243Y317184D01*
X1030926Y317438D01*
X1030616Y317698D01*
X1030313Y317967D01*
X1030016Y318243D01*
X1029726Y318526D01*
X1029443Y318816D01*
X1029167Y319113D01*
X1028898Y319416D01*
X1028638Y319726D01*
X1028384Y320043D01*
X1028139Y320365D01*
X1027902Y320693D01*
X1027672Y321028D01*
X1027451Y321367D01*
X1027239Y321712D01*
X1027035Y322062D01*
X1026839Y322417D01*
X1026653Y322777D01*
X1026475Y323141D01*
X1026306Y323509D01*
X1026147Y323882D01*
X1025996Y324258D01*
X1025855Y324638D01*
X1025723Y325021D01*
X1025601Y325407D01*
X1025488Y325797D01*
X1025385Y326188D01*
X1025291Y326583D01*
X1025207Y326979D01*
X1025133Y327377D01*
X1025069Y327777D01*
X1025014Y328179D01*
X1024970Y328582D01*
X1024935Y328985D01*
X1024910Y329390D01*
X1024895Y329795D01*
X1024890Y330200D01*
X8890Y330200D02*
X8895Y330605D01*
X8910Y331010D01*
X8935Y331415D01*
X8970Y331818D01*
X9014Y332221D01*
X9069Y332623D01*
X9133Y333023D01*
X9207Y333421D01*
X9291Y333817D01*
X9385Y334212D01*
X9488Y334603D01*
X9601Y334993D01*
X9723Y335379D01*
X9855Y335762D01*
X9996Y336142D01*
X10147Y336518D01*
X10306Y336891D01*
X10475Y337259D01*
X10653Y337623D01*
X10839Y337983D01*
X11035Y338338D01*
X11239Y338688D01*
X11451Y339033D01*
X11672Y339372D01*
X11902Y339707D01*
X12139Y340035D01*
X12384Y340357D01*
X12638Y340674D01*
X12898Y340984D01*
X13167Y341287D01*
X13443Y341584D01*
X13726Y341874D01*
X14016Y342157D01*
X14313Y342433D01*
X14616Y342702D01*
X14926Y342962D01*
X15243Y343216D01*
X15565Y343461D01*
X15893Y343698D01*
X16228Y343928D01*
X16567Y344149D01*
X16912Y344361D01*
X17262Y344565D01*
X17617Y344761D01*
X17977Y344947D01*
X18341Y345125D01*
X18709Y345294D01*
X19082Y345453D01*
X19458Y345604D01*
X19838Y345745D01*
X20221Y345877D01*
X20607Y345999D01*
X20997Y346112D01*
X21388Y346215D01*
X21783Y346309D01*
X22179Y346393D01*
X22577Y346467D01*
X22977Y346531D01*
X23379Y346586D01*
X23782Y346630D01*
X24185Y346665D01*
X24590Y346690D01*
X24995Y346705D01*
X25400Y346710D01*
X25805Y346705D01*
X26210Y346690D01*
X26615Y346665D01*
X27018Y346630D01*
X27421Y346586D01*
X27823Y346531D01*
X28223Y346467D01*
X28621Y346393D01*
X29017Y346309D01*
X29412Y346215D01*
X29803Y346112D01*
X30193Y345999D01*
X30579Y345877D01*
X30962Y345745D01*
X31342Y345604D01*
X31718Y345453D01*
X32091Y345294D01*
X32459Y345125D01*
X32823Y344947D01*
X33183Y344761D01*
X33538Y344565D01*
X33888Y344361D01*
X34233Y344149D01*
X34572Y343928D01*
X34907Y343698D01*
X35235Y343461D01*
X35557Y343216D01*
X35874Y342962D01*
X36184Y342702D01*
X36487Y342433D01*
X36784Y342157D01*
X37074Y341874D01*
X37357Y341584D01*
X37633Y341287D01*
X37902Y340984D01*
X38162Y340674D01*
X38416Y340357D01*
X38661Y340035D01*
X38898Y339707D01*
X39128Y339372D01*
X39349Y339033D01*
X39561Y338688D01*
X39765Y338338D01*
X39961Y337983D01*
X40147Y337623D01*
X40325Y337259D01*
X40494Y336891D01*
X40653Y336518D01*
X40804Y336142D01*
X40945Y335762D01*
X41077Y335379D01*
X41199Y334993D01*
X41312Y334603D01*
X41415Y334212D01*
X41509Y333817D01*
X41593Y333421D01*
X41667Y333023D01*
X41731Y332623D01*
X41786Y332221D01*
X41830Y331818D01*
X41865Y331415D01*
X41890Y331010D01*
X41905Y330605D01*
X41910Y330200D01*
X41905Y329795D01*
X41890Y329390D01*
X41865Y328985D01*
X41830Y328582D01*
X41786Y328179D01*
X41731Y327777D01*
X41667Y327377D01*
X41593Y326979D01*
X41509Y326583D01*
X41415Y326188D01*
X41312Y325797D01*
X41199Y325407D01*
X41077Y325021D01*
X40945Y324638D01*
X40804Y324258D01*
X40653Y323882D01*
X40494Y323509D01*
X40325Y323141D01*
X40147Y322777D01*
X39961Y322417D01*
X39765Y322062D01*
X39561Y321712D01*
X39349Y321367D01*
X39128Y321028D01*
X38898Y320693D01*
X38661Y320365D01*
X38416Y320043D01*
X38162Y319726D01*
X37902Y319416D01*
X37633Y319113D01*
X37357Y318816D01*
X37074Y318526D01*
X36784Y318243D01*
X36487Y317967D01*
X36184Y317698D01*
X35874Y317438D01*
X35557Y317184D01*
X35235Y316939D01*
X34907Y316702D01*
X34572Y316472D01*
X34233Y316251D01*
X33888Y316039D01*
X33538Y315835D01*
X33183Y315639D01*
X32823Y315453D01*
X32459Y315275D01*
X32091Y315106D01*
X31718Y314947D01*
X31342Y314796D01*
X30962Y314655D01*
X30579Y314523D01*
X30193Y314401D01*
X29803Y314288D01*
X29412Y314185D01*
X29017Y314091D01*
X28621Y314007D01*
X28223Y313933D01*
X27823Y313869D01*
X27421Y313814D01*
X27018Y313770D01*
X26615Y313735D01*
X26210Y313710D01*
X25805Y313695D01*
X25400Y313690D01*
X24995Y313695D01*
X24590Y313710D01*
X24185Y313735D01*
X23782Y313770D01*
X23379Y313814D01*
X22977Y313869D01*
X22577Y313933D01*
X22179Y314007D01*
X21783Y314091D01*
X21388Y314185D01*
X20997Y314288D01*
X20607Y314401D01*
X20221Y314523D01*
X19838Y314655D01*
X19458Y314796D01*
X19082Y314947D01*
X18709Y315106D01*
X18341Y315275D01*
X17977Y315453D01*
X17617Y315639D01*
X17262Y315835D01*
X16912Y316039D01*
X16567Y316251D01*
X16228Y316472D01*
X15893Y316702D01*
X15565Y316939D01*
X15243Y317184D01*
X14926Y317438D01*
X14616Y317698D01*
X14313Y317967D01*
X14016Y318243D01*
X13726Y318526D01*
X13443Y318816D01*
X13167Y319113D01*
X12898Y319416D01*
X12638Y319726D01*
X12384Y320043D01*
X12139Y320365D01*
X11902Y320693D01*
X11672Y321028D01*
X11451Y321367D01*
X11239Y321712D01*
X11035Y322062D01*
X10839Y322417D01*
X10653Y322777D01*
X10475Y323141D01*
X10306Y323509D01*
X10147Y323882D01*
X9996Y324258D01*
X9855Y324638D01*
X9723Y325021D01*
X9601Y325407D01*
X9488Y325797D01*
X9385Y326188D01*
X9291Y326583D01*
X9207Y326979D01*
X9133Y327377D01*
X9069Y327777D01*
X9014Y328179D01*
X8970Y328582D01*
X8935Y328985D01*
X8910Y329390D01*
X8895Y329795D01*
X8890Y330200D01*
X1024890Y25400D02*
X1024895Y25805D01*
X1024910Y26210D01*
X1024935Y26615D01*
X1024970Y27018D01*
X1025014Y27421D01*
X1025069Y27823D01*
X1025133Y28223D01*
X1025207Y28621D01*
X1025291Y29017D01*
X1025385Y29412D01*
X1025488Y29803D01*
X1025601Y30193D01*
X1025723Y30579D01*
X1025855Y30962D01*
X1025996Y31342D01*
X1026147Y31718D01*
X1026306Y32091D01*
X1026475Y32459D01*
X1026653Y32823D01*
X1026839Y33183D01*
X1027035Y33538D01*
X1027239Y33888D01*
X1027451Y34233D01*
X1027672Y34572D01*
X1027902Y34907D01*
X1028139Y35235D01*
X1028384Y35557D01*
X1028638Y35874D01*
X1028898Y36184D01*
X1029167Y36487D01*
X1029443Y36784D01*
X1029726Y37074D01*
X1030016Y37357D01*
X1030313Y37633D01*
X1030616Y37902D01*
X1030926Y38162D01*
X1031243Y38416D01*
X1031565Y38661D01*
X1031893Y38898D01*
X1032228Y39128D01*
X1032567Y39349D01*
X1032912Y39561D01*
X1033262Y39765D01*
X1033617Y39961D01*
X1033977Y40147D01*
X1034341Y40325D01*
X1034709Y40494D01*
X1035082Y40653D01*
X1035458Y40804D01*
X1035838Y40945D01*
X1036221Y41077D01*
X1036607Y41199D01*
X1036997Y41312D01*
X1037388Y41415D01*
X1037783Y41509D01*
X1038179Y41593D01*
X1038577Y41667D01*
X1038977Y41731D01*
X1039379Y41786D01*
X1039782Y41830D01*
X1040185Y41865D01*
X1040590Y41890D01*
X1040995Y41905D01*
X1041400Y41910D01*
X1041805Y41905D01*
X1042210Y41890D01*
X1042615Y41865D01*
X1043018Y41830D01*
X1043421Y41786D01*
X1043823Y41731D01*
X1044223Y41667D01*
X1044621Y41593D01*
X1045017Y41509D01*
X1045412Y41415D01*
X1045803Y41312D01*
X1046193Y41199D01*
X1046579Y41077D01*
X1046962Y40945D01*
X1047342Y40804D01*
X1047718Y40653D01*
X1048091Y40494D01*
X1048459Y40325D01*
X1048823Y40147D01*
X1049183Y39961D01*
X1049538Y39765D01*
X1049888Y39561D01*
X1050233Y39349D01*
X1050572Y39128D01*
X1050907Y38898D01*
X1051235Y38661D01*
X1051557Y38416D01*
X1051874Y38162D01*
X1052184Y37902D01*
X1052487Y37633D01*
X1052784Y37357D01*
X1053074Y37074D01*
X1053357Y36784D01*
X1053633Y36487D01*
X1053902Y36184D01*
X1054162Y35874D01*
X1054416Y35557D01*
X1054661Y35235D01*
X1054898Y34907D01*
X1055128Y34572D01*
X1055349Y34233D01*
X1055561Y33888D01*
X1055765Y33538D01*
X1055961Y33183D01*
X1056147Y32823D01*
X1056325Y32459D01*
X1056494Y32091D01*
X1056653Y31718D01*
X1056804Y31342D01*
X1056945Y30962D01*
X1057077Y30579D01*
X1057199Y30193D01*
X1057312Y29803D01*
X1057415Y29412D01*
X1057509Y29017D01*
X1057593Y28621D01*
X1057667Y28223D01*
X1057731Y27823D01*
X1057786Y27421D01*
X1057830Y27018D01*
X1057865Y26615D01*
X1057890Y26210D01*
X1057905Y25805D01*
X1057910Y25400D01*
X1057905Y24995D01*
X1057890Y24590D01*
X1057865Y24185D01*
X1057830Y23782D01*
X1057786Y23379D01*
X1057731Y22977D01*
X1057667Y22577D01*
X1057593Y22179D01*
X1057509Y21783D01*
X1057415Y21388D01*
X1057312Y20997D01*
X1057199Y20607D01*
X1057077Y20221D01*
X1056945Y19838D01*
X1056804Y19458D01*
X1056653Y19082D01*
X1056494Y18709D01*
X1056325Y18341D01*
X1056147Y17977D01*
X1055961Y17617D01*
X1055765Y17262D01*
X1055561Y16912D01*
X1055349Y16567D01*
X1055128Y16228D01*
X1054898Y15893D01*
X1054661Y15565D01*
X1054416Y15243D01*
X1054162Y14926D01*
X1053902Y14616D01*
X1053633Y14313D01*
X1053357Y14016D01*
X1053074Y13726D01*
X1052784Y13443D01*
X1052487Y13167D01*
X1052184Y12898D01*
X1051874Y12638D01*
X1051557Y12384D01*
X1051235Y12139D01*
X1050907Y11902D01*
X1050572Y11672D01*
X1050233Y11451D01*
X1049888Y11239D01*
X1049538Y11035D01*
X1049183Y10839D01*
X1048823Y10653D01*
X1048459Y10475D01*
X1048091Y10306D01*
X1047718Y10147D01*
X1047342Y9996D01*
X1046962Y9855D01*
X1046579Y9723D01*
X1046193Y9601D01*
X1045803Y9488D01*
X1045412Y9385D01*
X1045017Y9291D01*
X1044621Y9207D01*
X1044223Y9133D01*
X1043823Y9069D01*
X1043421Y9014D01*
X1043018Y8970D01*
X1042615Y8935D01*
X1042210Y8910D01*
X1041805Y8895D01*
X1041400Y8890D01*
X1040995Y8895D01*
X1040590Y8910D01*
X1040185Y8935D01*
X1039782Y8970D01*
X1039379Y9014D01*
X1038977Y9069D01*
X1038577Y9133D01*
X1038179Y9207D01*
X1037783Y9291D01*
X1037388Y9385D01*
X1036997Y9488D01*
X1036607Y9601D01*
X1036221Y9723D01*
X1035838Y9855D01*
X1035458Y9996D01*
X1035082Y10147D01*
X1034709Y10306D01*
X1034341Y10475D01*
X1033977Y10653D01*
X1033617Y10839D01*
X1033262Y11035D01*
X1032912Y11239D01*
X1032567Y11451D01*
X1032228Y11672D01*
X1031893Y11902D01*
X1031565Y12139D01*
X1031243Y12384D01*
X1030926Y12638D01*
X1030616Y12898D01*
X1030313Y13167D01*
X1030016Y13443D01*
X1029726Y13726D01*
X1029443Y14016D01*
X1029167Y14313D01*
X1028898Y14616D01*
X1028638Y14926D01*
X1028384Y15243D01*
X1028139Y15565D01*
X1027902Y15893D01*
X1027672Y16228D01*
X1027451Y16567D01*
X1027239Y16912D01*
X1027035Y17262D01*
X1026839Y17617D01*
X1026653Y17977D01*
X1026475Y18341D01*
X1026306Y18709D01*
X1026147Y19082D01*
X1025996Y19458D01*
X1025855Y19838D01*
X1025723Y20221D01*
X1025601Y20607D01*
X1025488Y20997D01*
X1025385Y21388D01*
X1025291Y21783D01*
X1025207Y22179D01*
X1025133Y22577D01*
X1025069Y22977D01*
X1025014Y23379D01*
X1024970Y23782D01*
X1024935Y24185D01*
X1024910Y24590D01*
X1024895Y24995D01*
X1024890Y25400D01*
X8890Y25400D02*
X8895Y25805D01*
X8910Y26210D01*
X8935Y26615D01*
X8970Y27018D01*
X9014Y27421D01*
X9069Y27823D01*
X9133Y28223D01*
X9207Y28621D01*
X9291Y29017D01*
X9385Y29412D01*
X9488Y29803D01*
X9601Y30193D01*
X9723Y30579D01*
X9855Y30962D01*
X9996Y31342D01*
X10147Y31718D01*
X10306Y32091D01*
X10475Y32459D01*
X10653Y32823D01*
X10839Y33183D01*
X11035Y33538D01*
X11239Y33888D01*
X11451Y34233D01*
X11672Y34572D01*
X11902Y34907D01*
X12139Y35235D01*
X12384Y35557D01*
X12638Y35874D01*
X12898Y36184D01*
X13167Y36487D01*
X13443Y36784D01*
X13726Y37074D01*
X14016Y37357D01*
X14313Y37633D01*
X14616Y37902D01*
X14926Y38162D01*
X15243Y38416D01*
X15565Y38661D01*
X15893Y38898D01*
X16228Y39128D01*
X16567Y39349D01*
X16912Y39561D01*
X17262Y39765D01*
X17617Y39961D01*
X17977Y40147D01*
X18341Y40325D01*
X18709Y40494D01*
X19082Y40653D01*
X19458Y40804D01*
X19838Y40945D01*
X20221Y41077D01*
X20607Y41199D01*
X20997Y41312D01*
X21388Y41415D01*
X21783Y41509D01*
X22179Y41593D01*
X22577Y41667D01*
X22977Y41731D01*
X23379Y41786D01*
X23782Y41830D01*
X24185Y41865D01*
X24590Y41890D01*
X24995Y41905D01*
X25400Y41910D01*
X25805Y41905D01*
X26210Y41890D01*
X26615Y41865D01*
X27018Y41830D01*
X27421Y41786D01*
X27823Y41731D01*
X28223Y41667D01*
X28621Y41593D01*
X29017Y41509D01*
X29412Y41415D01*
X29803Y41312D01*
X30193Y41199D01*
X30579Y41077D01*
X30962Y40945D01*
X31342Y40804D01*
X31718Y40653D01*
X32091Y40494D01*
X32459Y40325D01*
X32823Y40147D01*
X33183Y39961D01*
X33538Y39765D01*
X33888Y39561D01*
X34233Y39349D01*
X34572Y39128D01*
X34907Y38898D01*
X35235Y38661D01*
X35557Y38416D01*
X35874Y38162D01*
X36184Y37902D01*
X36487Y37633D01*
X36784Y37357D01*
X37074Y37074D01*
X37357Y36784D01*
X37633Y36487D01*
X37902Y36184D01*
X38162Y35874D01*
X38416Y35557D01*
X38661Y35235D01*
X38898Y34907D01*
X39128Y34572D01*
X39349Y34233D01*
X39561Y33888D01*
X39765Y33538D01*
X39961Y33183D01*
X40147Y32823D01*
X40325Y32459D01*
X40494Y32091D01*
X40653Y31718D01*
X40804Y31342D01*
X40945Y30962D01*
X41077Y30579D01*
X41199Y30193D01*
X41312Y29803D01*
X41415Y29412D01*
X41509Y29017D01*
X41593Y28621D01*
X41667Y28223D01*
X41731Y27823D01*
X41786Y27421D01*
X41830Y27018D01*
X41865Y26615D01*
X41890Y26210D01*
X41905Y25805D01*
X41910Y25400D01*
X41905Y24995D01*
X41890Y24590D01*
X41865Y24185D01*
X41830Y23782D01*
X41786Y23379D01*
X41731Y22977D01*
X41667Y22577D01*
X41593Y22179D01*
X41509Y21783D01*
X41415Y21388D01*
X41312Y20997D01*
X41199Y20607D01*
X41077Y20221D01*
X40945Y19838D01*
X40804Y19458D01*
X40653Y19082D01*
X40494Y18709D01*
X40325Y18341D01*
X40147Y17977D01*
X39961Y17617D01*
X39765Y17262D01*
X39561Y16912D01*
X39349Y16567D01*
X39128Y16228D01*
X38898Y15893D01*
X38661Y15565D01*
X38416Y15243D01*
X38162Y14926D01*
X37902Y14616D01*
X37633Y14313D01*
X37357Y14016D01*
X37074Y13726D01*
X36784Y13443D01*
X36487Y13167D01*
X36184Y12898D01*
X35874Y12638D01*
X35557Y12384D01*
X35235Y12139D01*
X34907Y11902D01*
X34572Y11672D01*
X34233Y11451D01*
X33888Y11239D01*
X33538Y11035D01*
X33183Y10839D01*
X32823Y10653D01*
X32459Y10475D01*
X32091Y10306D01*
X31718Y10147D01*
X31342Y9996D01*
X30962Y9855D01*
X30579Y9723D01*
X30193Y9601D01*
X29803Y9488D01*
X29412Y9385D01*
X29017Y9291D01*
X28621Y9207D01*
X28223Y9133D01*
X27823Y9069D01*
X27421Y9014D01*
X27018Y8970D01*
X26615Y8935D01*
X26210Y8910D01*
X25805Y8895D01*
X25400Y8890D01*
X24995Y8895D01*
X24590Y8910D01*
X24185Y8935D01*
X23782Y8970D01*
X23379Y9014D01*
X22977Y9069D01*
X22577Y9133D01*
X22179Y9207D01*
X21783Y9291D01*
X21388Y9385D01*
X20997Y9488D01*
X20607Y9601D01*
X20221Y9723D01*
X19838Y9855D01*
X19458Y9996D01*
X19082Y10147D01*
X18709Y10306D01*
X18341Y10475D01*
X17977Y10653D01*
X17617Y10839D01*
X17262Y11035D01*
X16912Y11239D01*
X16567Y11451D01*
X16228Y11672D01*
X15893Y11902D01*
X15565Y12139D01*
X15243Y12384D01*
X14926Y12638D01*
X14616Y12898D01*
X14313Y13167D01*
X14016Y13443D01*
X13726Y13726D01*
X13443Y14016D01*
X13167Y14313D01*
X12898Y14616D01*
X12638Y14926D01*
X12384Y15243D01*
X12139Y15565D01*
X11902Y15893D01*
X11672Y16228D01*
X11451Y16567D01*
X11239Y16912D01*
X11035Y17262D01*
X10839Y17617D01*
X10653Y17977D01*
X10475Y18341D01*
X10306Y18709D01*
X10147Y19082D01*
X9996Y19458D01*
X9855Y19838D01*
X9723Y20221D01*
X9601Y20607D01*
X9488Y20997D01*
X9385Y21388D01*
X9291Y21783D01*
X9207Y22179D01*
X9133Y22577D01*
X9069Y22977D01*
X9014Y23379D01*
X8970Y23782D01*
X8935Y24185D01*
X8910Y24590D01*
X8895Y24995D01*
X8890Y25400D01*
X235800Y77800D02*
X235802Y77948D01*
X235808Y78096D01*
X235818Y78244D01*
X235832Y78392D01*
X235850Y78539D01*
X235872Y78686D01*
X235898Y78832D01*
X235927Y78977D01*
X235961Y79122D01*
X235999Y79265D01*
X236040Y79408D01*
X236085Y79549D01*
X236135Y79689D01*
X236187Y79827D01*
X236244Y79965D01*
X236304Y80100D01*
X236368Y80234D01*
X236435Y80366D01*
X236506Y80496D01*
X236581Y80625D01*
X236659Y80751D01*
X236740Y80875D01*
X236824Y80997D01*
X236912Y81116D01*
X237003Y81233D01*
X237097Y81348D01*
X237195Y81460D01*
X237295Y81569D01*
X237398Y81676D01*
X237504Y81780D01*
X237612Y81881D01*
X237724Y81979D01*
X237838Y82074D01*
X237954Y82165D01*
X238073Y82254D01*
X238194Y82339D01*
X238318Y82421D01*
X238444Y82500D01*
X238571Y82575D01*
X238701Y82647D01*
X238833Y82716D01*
X238966Y82780D01*
X239101Y82841D01*
X239238Y82899D01*
X239376Y82953D01*
X239516Y83003D01*
X239657Y83049D01*
X239799Y83091D01*
X239942Y83130D01*
X240086Y83164D01*
X240232Y83195D01*
X240377Y83222D01*
X240524Y83245D01*
X240671Y83264D01*
X240819Y83279D01*
X240966Y83290D01*
X241115Y83297D01*
X241263Y83300D01*
X241411Y83299D01*
X241559Y83294D01*
X241707Y83285D01*
X241855Y83272D01*
X242003Y83255D01*
X242149Y83234D01*
X242296Y83209D01*
X242441Y83180D01*
X242586Y83148D01*
X242729Y83111D01*
X242872Y83071D01*
X243014Y83026D01*
X243154Y82978D01*
X243293Y82926D01*
X243430Y82871D01*
X243566Y82811D01*
X243701Y82748D01*
X243833Y82682D01*
X243964Y82612D01*
X244093Y82538D01*
X244219Y82461D01*
X244344Y82381D01*
X244466Y82297D01*
X244587Y82210D01*
X244704Y82120D01*
X244820Y82026D01*
X244932Y81930D01*
X245042Y81831D01*
X245150Y81728D01*
X245254Y81623D01*
X245356Y81515D01*
X245454Y81404D01*
X245550Y81291D01*
X245643Y81175D01*
X245732Y81057D01*
X245818Y80936D01*
X245901Y80813D01*
X245981Y80688D01*
X246057Y80561D01*
X246130Y80431D01*
X246199Y80300D01*
X246264Y80167D01*
X246327Y80033D01*
X246385Y79896D01*
X246440Y79758D01*
X246490Y79619D01*
X246538Y79478D01*
X246581Y79337D01*
X246621Y79194D01*
X246656Y79050D01*
X246688Y78905D01*
X246716Y78759D01*
X246740Y78613D01*
X246760Y78466D01*
X246776Y78318D01*
X246788Y78171D01*
X246796Y78022D01*
X246800Y77874D01*
X246800Y77726D01*
X246796Y77578D01*
X246788Y77429D01*
X246776Y77282D01*
X246760Y77134D01*
X246740Y76987D01*
X246716Y76841D01*
X246688Y76695D01*
X246656Y76550D01*
X246621Y76406D01*
X246581Y76263D01*
X246538Y76122D01*
X246490Y75981D01*
X246440Y75842D01*
X246385Y75704D01*
X246327Y75567D01*
X246264Y75433D01*
X246199Y75300D01*
X246130Y75169D01*
X246057Y75039D01*
X245981Y74912D01*
X245901Y74787D01*
X245818Y74664D01*
X245732Y74543D01*
X245643Y74425D01*
X245550Y74309D01*
X245454Y74196D01*
X245356Y74085D01*
X245254Y73977D01*
X245150Y73872D01*
X245042Y73769D01*
X244932Y73670D01*
X244820Y73574D01*
X244704Y73480D01*
X244587Y73390D01*
X244466Y73303D01*
X244344Y73219D01*
X244219Y73139D01*
X244093Y73062D01*
X243964Y72988D01*
X243833Y72918D01*
X243701Y72852D01*
X243566Y72789D01*
X243430Y72729D01*
X243293Y72674D01*
X243154Y72622D01*
X243014Y72574D01*
X242872Y72529D01*
X242729Y72489D01*
X242586Y72452D01*
X242441Y72420D01*
X242296Y72391D01*
X242149Y72366D01*
X242003Y72345D01*
X241855Y72328D01*
X241707Y72315D01*
X241559Y72306D01*
X241411Y72301D01*
X241263Y72300D01*
X241115Y72303D01*
X240966Y72310D01*
X240819Y72321D01*
X240671Y72336D01*
X240524Y72355D01*
X240377Y72378D01*
X240232Y72405D01*
X240086Y72436D01*
X239942Y72470D01*
X239799Y72509D01*
X239657Y72551D01*
X239516Y72597D01*
X239376Y72647D01*
X239238Y72701D01*
X239101Y72759D01*
X238966Y72820D01*
X238833Y72884D01*
X238701Y72953D01*
X238571Y73025D01*
X238444Y73100D01*
X238318Y73179D01*
X238194Y73261D01*
X238073Y73346D01*
X237954Y73435D01*
X237838Y73526D01*
X237724Y73621D01*
X237612Y73719D01*
X237504Y73820D01*
X237398Y73924D01*
X237295Y74031D01*
X237195Y74140D01*
X237097Y74252D01*
X237003Y74367D01*
X236912Y74484D01*
X236824Y74603D01*
X236740Y74725D01*
X236659Y74849D01*
X236581Y74975D01*
X236506Y75104D01*
X236435Y75234D01*
X236368Y75366D01*
X236304Y75500D01*
X236244Y75635D01*
X236187Y75773D01*
X236135Y75911D01*
X236085Y76051D01*
X236040Y76192D01*
X235999Y76335D01*
X235961Y76478D01*
X235927Y76623D01*
X235898Y76768D01*
X235872Y76914D01*
X235850Y77061D01*
X235832Y77208D01*
X235818Y77356D01*
X235808Y77504D01*
X235802Y77652D01*
X235800Y77800D01*
X233300Y277800D02*
X233302Y277996D01*
X233310Y278193D01*
X233322Y278389D01*
X233339Y278584D01*
X233360Y278779D01*
X233387Y278974D01*
X233418Y279168D01*
X233454Y279361D01*
X233494Y279553D01*
X233540Y279744D01*
X233590Y279934D01*
X233644Y280122D01*
X233704Y280309D01*
X233768Y280495D01*
X233836Y280679D01*
X233909Y280861D01*
X233986Y281042D01*
X234068Y281220D01*
X234154Y281397D01*
X234245Y281571D01*
X234339Y281743D01*
X234438Y281913D01*
X234541Y282080D01*
X234648Y282245D01*
X234759Y282406D01*
X234874Y282566D01*
X234993Y282722D01*
X235116Y282875D01*
X235242Y283025D01*
X235372Y283172D01*
X235506Y283316D01*
X235643Y283457D01*
X235784Y283594D01*
X235928Y283728D01*
X236075Y283858D01*
X236225Y283984D01*
X236378Y284107D01*
X236534Y284226D01*
X236694Y284341D01*
X236855Y284452D01*
X237020Y284559D01*
X237187Y284662D01*
X237357Y284761D01*
X237529Y284855D01*
X237703Y284946D01*
X237880Y285032D01*
X238058Y285114D01*
X238239Y285191D01*
X238421Y285264D01*
X238605Y285332D01*
X238791Y285396D01*
X238978Y285456D01*
X239166Y285510D01*
X239356Y285560D01*
X239547Y285606D01*
X239739Y285646D01*
X239932Y285682D01*
X240126Y285713D01*
X240321Y285740D01*
X240516Y285761D01*
X240711Y285778D01*
X240907Y285790D01*
X241104Y285798D01*
X241300Y285800D01*
X241496Y285798D01*
X241693Y285790D01*
X241889Y285778D01*
X242084Y285761D01*
X242279Y285740D01*
X242474Y285713D01*
X242668Y285682D01*
X242861Y285646D01*
X243053Y285606D01*
X243244Y285560D01*
X243434Y285510D01*
X243622Y285456D01*
X243809Y285396D01*
X243995Y285332D01*
X244179Y285264D01*
X244361Y285191D01*
X244542Y285114D01*
X244720Y285032D01*
X244897Y284946D01*
X245071Y284855D01*
X245243Y284761D01*
X245413Y284662D01*
X245580Y284559D01*
X245745Y284452D01*
X245906Y284341D01*
X246066Y284226D01*
X246222Y284107D01*
X246375Y283984D01*
X246525Y283858D01*
X246672Y283728D01*
X246816Y283594D01*
X246957Y283457D01*
X247094Y283316D01*
X247228Y283172D01*
X247358Y283025D01*
X247484Y282875D01*
X247607Y282722D01*
X247726Y282566D01*
X247841Y282406D01*
X247952Y282245D01*
X248059Y282080D01*
X248162Y281913D01*
X248261Y281743D01*
X248355Y281571D01*
X248446Y281397D01*
X248532Y281220D01*
X248614Y281042D01*
X248691Y280861D01*
X248764Y280679D01*
X248832Y280495D01*
X248896Y280309D01*
X248956Y280122D01*
X249010Y279934D01*
X249060Y279744D01*
X249106Y279553D01*
X249146Y279361D01*
X249182Y279168D01*
X249213Y278974D01*
X249240Y278779D01*
X249261Y278584D01*
X249278Y278389D01*
X249290Y278193D01*
X249298Y277996D01*
X249300Y277800D01*
X249298Y277604D01*
X249290Y277407D01*
X249278Y277211D01*
X249261Y277016D01*
X249240Y276821D01*
X249213Y276626D01*
X249182Y276432D01*
X249146Y276239D01*
X249106Y276047D01*
X249060Y275856D01*
X249010Y275666D01*
X248956Y275478D01*
X248896Y275291D01*
X248832Y275105D01*
X248764Y274921D01*
X248691Y274739D01*
X248614Y274558D01*
X248532Y274380D01*
X248446Y274203D01*
X248355Y274029D01*
X248261Y273857D01*
X248162Y273687D01*
X248059Y273520D01*
X247952Y273355D01*
X247841Y273194D01*
X247726Y273034D01*
X247607Y272878D01*
X247484Y272725D01*
X247358Y272575D01*
X247228Y272428D01*
X247094Y272284D01*
X246957Y272143D01*
X246816Y272006D01*
X246672Y271872D01*
X246525Y271742D01*
X246375Y271616D01*
X246222Y271493D01*
X246066Y271374D01*
X245906Y271259D01*
X245745Y271148D01*
X245580Y271041D01*
X245413Y270938D01*
X245243Y270839D01*
X245071Y270745D01*
X244897Y270654D01*
X244720Y270568D01*
X244542Y270486D01*
X244361Y270409D01*
X244179Y270336D01*
X243995Y270268D01*
X243809Y270204D01*
X243622Y270144D01*
X243434Y270090D01*
X243244Y270040D01*
X243053Y269994D01*
X242861Y269954D01*
X242668Y269918D01*
X242474Y269887D01*
X242279Y269860D01*
X242084Y269839D01*
X241889Y269822D01*
X241693Y269810D01*
X241496Y269802D01*
X241300Y269800D01*
X241104Y269802D01*
X240907Y269810D01*
X240711Y269822D01*
X240516Y269839D01*
X240321Y269860D01*
X240126Y269887D01*
X239932Y269918D01*
X239739Y269954D01*
X239547Y269994D01*
X239356Y270040D01*
X239166Y270090D01*
X238978Y270144D01*
X238791Y270204D01*
X238605Y270268D01*
X238421Y270336D01*
X238239Y270409D01*
X238058Y270486D01*
X237880Y270568D01*
X237703Y270654D01*
X237529Y270745D01*
X237357Y270839D01*
X237187Y270938D01*
X237020Y271041D01*
X236855Y271148D01*
X236694Y271259D01*
X236534Y271374D01*
X236378Y271493D01*
X236225Y271616D01*
X236075Y271742D01*
X235928Y271872D01*
X235784Y272006D01*
X235643Y272143D01*
X235506Y272284D01*
X235372Y272428D01*
X235242Y272575D01*
X235116Y272725D01*
X234993Y272878D01*
X234874Y273034D01*
X234759Y273194D01*
X234648Y273355D01*
X234541Y273520D01*
X234438Y273687D01*
X234339Y273857D01*
X234245Y274029D01*
X234154Y274203D01*
X234068Y274380D01*
X233986Y274558D01*
X233909Y274739D01*
X233836Y274921D01*
X233768Y275105D01*
X233704Y275291D01*
X233644Y275478D01*
X233590Y275666D01*
X233540Y275856D01*
X233494Y276047D01*
X233454Y276239D01*
X233418Y276432D01*
X233387Y276626D01*
X233360Y276821D01*
X233339Y277016D01*
X233322Y277211D01*
X233310Y277407D01*
X233302Y277604D01*
X233300Y277800D01*
D13*
X0Y0D02*
X1066800Y0D01*
X1066800Y355600D01*
X0Y355600D01*
X0Y0D01*
X47567Y132330D02*
X47145Y132386D01*
X46733Y132496D01*
X46339Y132659D01*
X45971Y132872D01*
X45633Y133131D01*
X45331Y133433D01*
X45072Y133771D01*
X44859Y134139D01*
X44696Y134533D01*
X44586Y134945D01*
X44530Y135367D01*
X44530Y135793D01*
X44586Y136215D01*
X44696Y136627D01*
X44859Y137021D01*
X45072Y137389D01*
X45331Y137727D01*
X45633Y138029D01*
X45971Y138288D01*
X46339Y138501D01*
X46733Y138664D01*
X47145Y138774D01*
X47567Y138830D01*
X47993Y138830D01*
X48415Y138774D01*
X48827Y138664D01*
X49221Y138501D01*
X49589Y138288D01*
X49927Y138029D01*
X50229Y137727D01*
X50488Y137389D01*
X50701Y137021D01*
X50864Y136627D01*
X50974Y136215D01*
X51030Y135793D01*
X51030Y135367D01*
X50974Y134945D01*
X50864Y134533D01*
X50701Y134139D01*
X50488Y133771D01*
X50229Y133433D01*
X49927Y133131D01*
X49589Y132872D01*
X49221Y132659D01*
X48827Y132496D01*
X48415Y132386D01*
X47993Y132330D01*
X47567Y132330D01*
X47567Y74530D02*
X47145Y74586D01*
X46733Y74696D01*
X46339Y74859D01*
X45971Y75072D01*
X45633Y75331D01*
X45331Y75633D01*
X45072Y75971D01*
X44859Y76339D01*
X44696Y76733D01*
X44586Y77145D01*
X44530Y77567D01*
X44530Y77993D01*
X44586Y78415D01*
X44696Y78827D01*
X44859Y79221D01*
X45072Y79589D01*
X45331Y79927D01*
X45633Y80229D01*
X45971Y80488D01*
X46339Y80701D01*
X46733Y80864D01*
X47145Y80974D01*
X47567Y81030D01*
X47993Y81030D01*
X48415Y80974D01*
X48827Y80864D01*
X49221Y80701D01*
X49589Y80488D01*
X49927Y80229D01*
X50229Y79927D01*
X50488Y79589D01*
X50701Y79221D01*
X50864Y78827D01*
X50974Y78415D01*
X51030Y77993D01*
X51030Y77567D01*
X50974Y77145D01*
X50864Y76733D01*
X50701Y76339D01*
X50488Y75971D01*
X50229Y75633D01*
X49927Y75331D01*
X49589Y75072D01*
X49221Y74859D01*
X48827Y74696D01*
X48415Y74586D01*
X47993Y74530D01*
X47567Y74530D01*
X1057910Y329660D02*
X1057839Y328581D01*
X1057698Y327509D01*
X1057487Y326449D01*
X1057208Y325405D01*
X1056860Y324381D01*
X1056446Y323383D01*
X1055968Y322413D01*
X1055428Y321477D01*
X1054827Y320578D01*
X1054169Y319721D01*
X1053457Y318908D01*
X1052692Y318144D01*
X1051879Y317431D01*
X1051022Y316773D01*
X1050123Y316172D01*
X1049187Y315632D01*
X1048217Y315154D01*
X1047219Y314740D01*
X1046195Y314392D01*
X1045151Y314113D01*
X1044091Y313902D01*
X1043019Y313761D01*
X1041940Y313690D01*
X1040860Y313690D01*
X1039781Y313761D01*
X1038709Y313902D01*
X1037649Y314113D01*
X1036605Y314392D01*
X1035581Y314740D01*
X1034583Y315154D01*
X1033613Y315632D01*
X1032677Y316172D01*
X1031778Y316773D01*
X1030921Y317431D01*
X1030108Y318144D01*
X1029344Y318908D01*
X1028631Y319721D01*
X1027973Y320578D01*
X1027372Y321477D01*
X1026832Y322413D01*
X1026354Y323383D01*
X1025940Y324381D01*
X1025592Y325405D01*
X1025313Y326449D01*
X1025102Y327509D01*
X1024961Y328581D01*
X1024890Y329660D01*
X1024890Y330740D01*
X1024961Y331819D01*
X1025102Y332891D01*
X1025313Y333951D01*
X1025592Y334995D01*
X1025940Y336019D01*
X1026354Y337017D01*
X1026832Y337987D01*
X1027372Y338923D01*
X1027973Y339822D01*
X1028631Y340679D01*
X1029344Y341492D01*
X1030108Y342257D01*
X1030921Y342969D01*
X1031778Y343627D01*
X1032677Y344228D01*
X1033613Y344768D01*
X1034583Y345246D01*
X1035581Y345660D01*
X1036605Y346008D01*
X1037649Y346287D01*
X1038709Y346498D01*
X1039781Y346639D01*
X1040860Y346710D01*
X1041940Y346710D01*
X1043019Y346639D01*
X1044091Y346498D01*
X1045151Y346287D01*
X1046195Y346008D01*
X1047219Y345660D01*
X1048217Y345246D01*
X1049187Y344768D01*
X1050123Y344228D01*
X1051022Y343627D01*
X1051879Y342969D01*
X1052692Y342257D01*
X1053457Y341492D01*
X1054169Y340679D01*
X1054827Y339822D01*
X1055428Y338923D01*
X1055968Y337987D01*
X1056446Y337017D01*
X1056860Y336019D01*
X1057208Y334995D01*
X1057487Y333951D01*
X1057698Y332891D01*
X1057839Y331819D01*
X1057910Y330740D01*
X1057910Y329660D01*
X41910Y329660D02*
X41839Y328581D01*
X41698Y327509D01*
X41487Y326449D01*
X41208Y325405D01*
X40860Y324381D01*
X40446Y323383D01*
X39968Y322413D01*
X39428Y321477D01*
X38827Y320578D01*
X38169Y319721D01*
X37457Y318908D01*
X36692Y318144D01*
X35879Y317431D01*
X35022Y316773D01*
X34123Y316172D01*
X33187Y315632D01*
X32217Y315154D01*
X31219Y314740D01*
X30195Y314392D01*
X29151Y314113D01*
X28091Y313902D01*
X27019Y313761D01*
X25940Y313690D01*
X24860Y313690D01*
X23781Y313761D01*
X22709Y313902D01*
X21649Y314113D01*
X20605Y314392D01*
X19581Y314740D01*
X18583Y315154D01*
X17613Y315632D01*
X16677Y316172D01*
X15778Y316773D01*
X14921Y317431D01*
X14108Y318144D01*
X13344Y318908D01*
X12631Y319721D01*
X11973Y320578D01*
X11372Y321477D01*
X10832Y322413D01*
X10354Y323383D01*
X9940Y324381D01*
X9592Y325405D01*
X9313Y326449D01*
X9102Y327509D01*
X8961Y328581D01*
X8890Y329660D01*
X8890Y330740D01*
X8961Y331819D01*
X9102Y332891D01*
X9313Y333951D01*
X9592Y334995D01*
X9940Y336019D01*
X10354Y337017D01*
X10832Y337987D01*
X11372Y338923D01*
X11973Y339822D01*
X12631Y340679D01*
X13344Y341492D01*
X14108Y342257D01*
X14921Y342969D01*
X15778Y343627D01*
X16677Y344228D01*
X17613Y344768D01*
X18583Y345246D01*
X19581Y345660D01*
X20605Y346008D01*
X21649Y346287D01*
X22709Y346498D01*
X23781Y346639D01*
X24860Y346710D01*
X25940Y346710D01*
X27019Y346639D01*
X28091Y346498D01*
X29151Y346287D01*
X30195Y346008D01*
X31219Y345660D01*
X32217Y345246D01*
X33187Y344768D01*
X34123Y344228D01*
X35022Y343627D01*
X35879Y342969D01*
X36692Y342257D01*
X37457Y341492D01*
X38169Y340679D01*
X38827Y339822D01*
X39428Y338923D01*
X39968Y337987D01*
X40446Y337017D01*
X40860Y336019D01*
X41208Y334995D01*
X41487Y333951D01*
X41698Y332891D01*
X41839Y331819D01*
X41910Y330740D01*
X41910Y329660D01*
X1057910Y24860D02*
X1057839Y23781D01*
X1057698Y22709D01*
X1057487Y21649D01*
X1057208Y20605D01*
X1056860Y19581D01*
X1056446Y18583D01*
X1055968Y17613D01*
X1055428Y16677D01*
X1054827Y15778D01*
X1054169Y14921D01*
X1053457Y14108D01*
X1052692Y13344D01*
X1051879Y12631D01*
X1051022Y11973D01*
X1050123Y11372D01*
X1049187Y10832D01*
X1048217Y10354D01*
X1047219Y9940D01*
X1046195Y9592D01*
X1045151Y9313D01*
X1044091Y9102D01*
X1043019Y8961D01*
X1041940Y8890D01*
X1040860Y8890D01*
X1039781Y8961D01*
X1038709Y9102D01*
X1037649Y9313D01*
X1036605Y9592D01*
X1035581Y9940D01*
X1034583Y10354D01*
X1033613Y10832D01*
X1032677Y11372D01*
X1031778Y11973D01*
X1030921Y12631D01*
X1030108Y13344D01*
X1029344Y14108D01*
X1028631Y14921D01*
X1027973Y15778D01*
X1027372Y16677D01*
X1026832Y17613D01*
X1026354Y18583D01*
X1025940Y19581D01*
X1025592Y20605D01*
X1025313Y21649D01*
X1025102Y22709D01*
X1024961Y23781D01*
X1024890Y24860D01*
X1024890Y25940D01*
X1024961Y27019D01*
X1025102Y28091D01*
X1025313Y29151D01*
X1025592Y30195D01*
X1025940Y31219D01*
X1026354Y32217D01*
X1026832Y33187D01*
X1027372Y34123D01*
X1027973Y35022D01*
X1028631Y35879D01*
X1029344Y36692D01*
X1030108Y37457D01*
X1030921Y38169D01*
X1031778Y38827D01*
X1032677Y39428D01*
X1033613Y39968D01*
X1034583Y40446D01*
X1035581Y40860D01*
X1036605Y41208D01*
X1037649Y41487D01*
X1038709Y41698D01*
X1039781Y41839D01*
X1040860Y41910D01*
X1041940Y41910D01*
X1043019Y41839D01*
X1044091Y41698D01*
X1045151Y41487D01*
X1046195Y41208D01*
X1047219Y40860D01*
X1048217Y40446D01*
X1049187Y39968D01*
X1050123Y39428D01*
X1051022Y38827D01*
X1051879Y38169D01*
X1052692Y37457D01*
X1053457Y36692D01*
X1054169Y35879D01*
X1054827Y35022D01*
X1055428Y34123D01*
X1055968Y33187D01*
X1056446Y32217D01*
X1056860Y31219D01*
X1057208Y30195D01*
X1057487Y29151D01*
X1057698Y28091D01*
X1057839Y27019D01*
X1057910Y25940D01*
X1057910Y24860D01*
X41910Y24860D02*
X41839Y23781D01*
X41698Y22709D01*
X41487Y21649D01*
X41208Y20605D01*
X40860Y19581D01*
X40446Y18583D01*
X39968Y17613D01*
X39428Y16677D01*
X38827Y15778D01*
X38169Y14921D01*
X37457Y14108D01*
X36692Y13344D01*
X35879Y12631D01*
X35022Y11973D01*
X34123Y11372D01*
X33187Y10832D01*
X32217Y10354D01*
X31219Y9940D01*
X30195Y9592D01*
X29151Y9313D01*
X28091Y9102D01*
X27019Y8961D01*
X25940Y8890D01*
X24860Y8890D01*
X23781Y8961D01*
X22709Y9102D01*
X21649Y9313D01*
X20605Y9592D01*
X19581Y9940D01*
X18583Y10354D01*
X17613Y10832D01*
X16677Y11372D01*
X15778Y11973D01*
X14921Y12631D01*
X14108Y13344D01*
X13344Y14108D01*
X12631Y14921D01*
X11973Y15778D01*
X11372Y16677D01*
X10832Y17613D01*
X10354Y18583D01*
X9940Y19581D01*
X9592Y20605D01*
X9313Y21649D01*
X9102Y22709D01*
X8961Y23781D01*
X8890Y24860D01*
X8890Y25940D01*
X8961Y27019D01*
X9102Y28091D01*
X9313Y29151D01*
X9592Y30195D01*
X9940Y31219D01*
X10354Y32217D01*
X10832Y33187D01*
X11372Y34123D01*
X11973Y35022D01*
X12631Y35879D01*
X13344Y36692D01*
X14108Y37457D01*
X14921Y38169D01*
X15778Y38827D01*
X16677Y39428D01*
X17613Y39968D01*
X18583Y40446D01*
X19581Y40860D01*
X20605Y41208D01*
X21649Y41487D01*
X22709Y41698D01*
X23781Y41839D01*
X24860Y41910D01*
X25940Y41910D01*
X27019Y41839D01*
X28091Y41698D01*
X29151Y41487D01*
X30195Y41208D01*
X31219Y40860D01*
X32217Y40446D01*
X33187Y39968D01*
X34123Y39428D01*
X35022Y38827D01*
X35879Y38169D01*
X36692Y37457D01*
X37457Y36692D01*
X38169Y35879D01*
X38827Y35022D01*
X39428Y34123D01*
X39968Y33187D01*
X40446Y32217D01*
X40860Y31219D01*
X41208Y30195D01*
X41487Y29151D01*
X41698Y28091D01*
X41839Y27019D01*
X41910Y25940D01*
X41910Y24860D01*
X240991Y72300D02*
X240377Y72369D01*
X239775Y72507D01*
X239192Y72711D01*
X238635Y72979D01*
X238112Y73307D01*
X237629Y73693D01*
X237193Y74129D01*
X236807Y74612D01*
X236479Y75135D01*
X236211Y75692D01*
X236007Y76275D01*
X235869Y76877D01*
X235800Y77491D01*
X235800Y78109D01*
X235869Y78723D01*
X236007Y79325D01*
X236211Y79908D01*
X236479Y80465D01*
X236807Y80988D01*
X237193Y81471D01*
X237629Y81908D01*
X238112Y82293D01*
X238635Y82621D01*
X239192Y82889D01*
X239775Y83093D01*
X240377Y83231D01*
X240991Y83300D01*
X241609Y83300D01*
X242223Y83231D01*
X242825Y83093D01*
X243408Y82889D01*
X243965Y82621D01*
X244488Y82293D01*
X244971Y81908D01*
X245408Y81471D01*
X245793Y80988D01*
X246121Y80465D01*
X246389Y79908D01*
X246593Y79325D01*
X246731Y78723D01*
X246800Y78109D01*
X246800Y77491D01*
X246731Y76877D01*
X246593Y76275D01*
X246389Y75692D01*
X246121Y75135D01*
X245793Y74612D01*
X245408Y74129D01*
X244971Y73693D01*
X244488Y73307D01*
X243965Y72979D01*
X243408Y72711D01*
X242825Y72507D01*
X242223Y72369D01*
X241609Y72300D01*
X240991Y72300D01*
X240907Y269800D02*
X240125Y269877D01*
X239354Y270030D01*
X238602Y270259D01*
X237875Y270559D01*
X237182Y270930D01*
X236529Y271367D01*
X235921Y271865D01*
X235365Y272421D01*
X234867Y273029D01*
X234430Y273682D01*
X234059Y274375D01*
X233759Y275102D01*
X233530Y275854D01*
X233377Y276625D01*
X233300Y277407D01*
X233300Y278193D01*
X233377Y278975D01*
X233530Y279746D01*
X233759Y280498D01*
X234059Y281225D01*
X234430Y281918D01*
X234867Y282571D01*
X235365Y283179D01*
X235921Y283735D01*
X236529Y284233D01*
X237182Y284670D01*
X237875Y285041D01*
X238602Y285341D01*
X239354Y285570D01*
X240125Y285723D01*
X240907Y285800D01*
X241693Y285800D01*
X242475Y285723D01*
X243246Y285570D01*
X243998Y285341D01*
X244725Y285041D01*
X245418Y284670D01*
X246071Y284233D01*
X246679Y283735D01*
X247235Y283179D01*
X247733Y282571D01*
X248170Y281918D01*
X248541Y281225D01*
X248841Y280498D01*
X249070Y279746D01*
X249223Y278975D01*
X249300Y278193D01*
X249300Y277407D01*
X249223Y276625D01*
X249070Y275854D01*
X248841Y275102D01*
X248541Y274375D01*
X248170Y273682D01*
X247733Y273029D01*
X247235Y272421D01*
X246679Y271865D01*
X246071Y271367D01*
X245418Y270930D01*
X244725Y270559D01*
X243998Y270259D01*
X243246Y270030D01*
X242475Y269877D01*
X241693Y269800D01*
X240907Y269800D01*
M02*
