M48
;GenerationSoftware,Autodesk,EAGLE,9.6.2*%
;CreationDate,2020-12-15T01:12:51Z*%
FMAT,2
ICI,OFF
METRIC,TZ,000.000
T10C0.305
T9C0.381
T8C0.400
T7C0.650
T6C1.016
T5C1.100
T4C1.600
T3C3.302
T2C3.800
T1C4.216
%
G90
M71
T1
X52070Y27940
X101600Y7620
X81280Y7620
X101600Y27940
X81280Y27940
X72390Y7620
X52070Y7620
X72390Y27940
T2
X44073Y13760
T3
X104140Y2540
X104140Y33020
X2540Y33020
X2540Y2540
T4
X24130Y27780
T5
X24130Y7780
T6
X10414Y9144
X43180Y34290
X10414Y6604
X40640Y34290
X1270Y19685
X1270Y17145
X25400Y34290
X27940Y34290
X30480Y34290
X33020Y34290
X35560Y34290
X38100Y34290
T7
X4778Y7778
X4778Y13558
T8
X5308Y14986
X5308Y6350
X1128Y6350
X1128Y14986
T9
X46736Y2286
X5207Y21336
X37719Y11049
X37592Y3429
T10
X36576Y3556
X20193Y21971
X20252Y23228
X21082Y23838
X17526Y27940
X3810Y24130
X16510Y21590
X14859Y19050
X8890Y15240
X20828Y22619
X8890Y7239
X15875Y1270
X17145Y7620
X20320Y10160
X20447Y16637
X24638Y17272
X23762Y9004
X23508Y26048
X7620Y11173
X16510Y9779
X17018Y9017
X6891Y10414
X3429Y19050
X11938Y22352
X10795Y29845
X25019Y10033
X21971Y9906
X17653Y32385
X10297Y14487
X7747Y21082
X13970Y10668
X24257Y11049
X15748Y15240
X1270Y26416
X41529Y7874
X38600Y7874
X30480Y13716
X29464Y10668
M30