G04 EAGLE Gerber RS-274X export*
G75*
%MOMM*%
%FSLAX34Y34*%
%LPD*%
%INSoldermask Bottom*%
%IPPOS*%
%AMOC8*
5,1,8,0,0,1.08239X$1,22.5*%
G01*
%ADD10C,0.853200*%
%ADD11C,0.838200*%
%ADD12C,3.505200*%
%ADD13C,6.203200*%
%ADD14R,0.863600X1.473200*%
%ADD15C,1.303200*%
%ADD16C,1.803200*%
%ADD17R,1.473200X0.838200*%
%ADD18C,2.082800*%
%ADD19R,0.838200X1.473200*%
%ADD20C,1.473200*%
%ADD21C,6.400800*%
%ADD22C,1.203200*%
%ADD23C,1.270000*%
%ADD24C,1.703200*%

G36*
X1204279Y1158252D02*
X1204279Y1158252D01*
X1204345Y1158254D01*
X1204388Y1158272D01*
X1204435Y1158280D01*
X1204492Y1158314D01*
X1204552Y1158339D01*
X1204587Y1158370D01*
X1204628Y1158395D01*
X1204670Y1158446D01*
X1204718Y1158490D01*
X1204740Y1158532D01*
X1204769Y1158569D01*
X1204790Y1158631D01*
X1204821Y1158690D01*
X1204829Y1158744D01*
X1204841Y1158781D01*
X1204840Y1158821D01*
X1204848Y1158875D01*
X1204848Y1162685D01*
X1204837Y1162750D01*
X1204835Y1162816D01*
X1204817Y1162859D01*
X1204809Y1162906D01*
X1204775Y1162963D01*
X1204750Y1163023D01*
X1204719Y1163058D01*
X1204694Y1163099D01*
X1204643Y1163141D01*
X1204599Y1163189D01*
X1204557Y1163211D01*
X1204520Y1163240D01*
X1204458Y1163261D01*
X1204399Y1163292D01*
X1204345Y1163300D01*
X1204308Y1163312D01*
X1204268Y1163311D01*
X1204214Y1163319D01*
X1198626Y1163319D01*
X1198561Y1163308D01*
X1198495Y1163306D01*
X1198452Y1163288D01*
X1198405Y1163280D01*
X1198348Y1163246D01*
X1198288Y1163221D01*
X1198253Y1163190D01*
X1198212Y1163165D01*
X1198171Y1163114D01*
X1198122Y1163070D01*
X1198100Y1163028D01*
X1198071Y1162991D01*
X1198050Y1162929D01*
X1198019Y1162870D01*
X1198011Y1162816D01*
X1197999Y1162779D01*
X1197999Y1162775D01*
X1197999Y1162774D01*
X1198000Y1162739D01*
X1197992Y1162685D01*
X1197992Y1158875D01*
X1198003Y1158810D01*
X1198005Y1158744D01*
X1198023Y1158701D01*
X1198031Y1158654D01*
X1198065Y1158597D01*
X1198090Y1158537D01*
X1198121Y1158502D01*
X1198146Y1158461D01*
X1198197Y1158420D01*
X1198241Y1158371D01*
X1198283Y1158349D01*
X1198320Y1158320D01*
X1198382Y1158299D01*
X1198441Y1158268D01*
X1198495Y1158260D01*
X1198532Y1158248D01*
X1198572Y1158249D01*
X1198626Y1158241D01*
X1204214Y1158241D01*
X1204279Y1158252D01*
G37*
G36*
X106999Y1158252D02*
X106999Y1158252D01*
X107065Y1158254D01*
X107108Y1158272D01*
X107155Y1158280D01*
X107212Y1158314D01*
X107272Y1158339D01*
X107307Y1158370D01*
X107348Y1158395D01*
X107390Y1158446D01*
X107438Y1158490D01*
X107460Y1158532D01*
X107489Y1158569D01*
X107510Y1158631D01*
X107541Y1158690D01*
X107549Y1158744D01*
X107561Y1158781D01*
X107560Y1158821D01*
X107568Y1158875D01*
X107568Y1162685D01*
X107557Y1162750D01*
X107555Y1162816D01*
X107537Y1162859D01*
X107529Y1162906D01*
X107495Y1162963D01*
X107470Y1163023D01*
X107439Y1163058D01*
X107414Y1163099D01*
X107363Y1163141D01*
X107319Y1163189D01*
X107277Y1163211D01*
X107240Y1163240D01*
X107178Y1163261D01*
X107119Y1163292D01*
X107065Y1163300D01*
X107028Y1163312D01*
X106988Y1163311D01*
X106934Y1163319D01*
X101346Y1163319D01*
X101281Y1163308D01*
X101215Y1163306D01*
X101172Y1163288D01*
X101125Y1163280D01*
X101068Y1163246D01*
X101008Y1163221D01*
X100973Y1163190D01*
X100932Y1163165D01*
X100891Y1163114D01*
X100842Y1163070D01*
X100820Y1163028D01*
X100791Y1162991D01*
X100770Y1162929D01*
X100739Y1162870D01*
X100731Y1162816D01*
X100719Y1162779D01*
X100719Y1162775D01*
X100719Y1162774D01*
X100720Y1162739D01*
X100712Y1162685D01*
X100712Y1158875D01*
X100723Y1158810D01*
X100725Y1158744D01*
X100743Y1158701D01*
X100751Y1158654D01*
X100785Y1158597D01*
X100810Y1158537D01*
X100841Y1158502D01*
X100866Y1158461D01*
X100917Y1158420D01*
X100961Y1158371D01*
X101003Y1158349D01*
X101040Y1158320D01*
X101102Y1158299D01*
X101161Y1158268D01*
X101215Y1158260D01*
X101252Y1158248D01*
X101292Y1158249D01*
X101346Y1158241D01*
X106934Y1158241D01*
X106999Y1158252D01*
G37*
G36*
X106999Y797572D02*
X106999Y797572D01*
X107065Y797574D01*
X107108Y797592D01*
X107155Y797600D01*
X107212Y797634D01*
X107272Y797659D01*
X107307Y797690D01*
X107348Y797715D01*
X107390Y797766D01*
X107438Y797810D01*
X107460Y797852D01*
X107489Y797889D01*
X107510Y797951D01*
X107541Y798010D01*
X107549Y798064D01*
X107561Y798101D01*
X107560Y798141D01*
X107568Y798195D01*
X107568Y802005D01*
X107557Y802070D01*
X107555Y802136D01*
X107537Y802179D01*
X107529Y802226D01*
X107495Y802283D01*
X107470Y802343D01*
X107439Y802378D01*
X107414Y802419D01*
X107363Y802461D01*
X107319Y802509D01*
X107277Y802531D01*
X107240Y802560D01*
X107178Y802581D01*
X107119Y802612D01*
X107065Y802620D01*
X107028Y802632D01*
X106988Y802631D01*
X106934Y802639D01*
X101346Y802639D01*
X101281Y802628D01*
X101215Y802626D01*
X101172Y802608D01*
X101125Y802600D01*
X101068Y802566D01*
X101008Y802541D01*
X100973Y802510D01*
X100932Y802485D01*
X100891Y802434D01*
X100842Y802390D01*
X100820Y802348D01*
X100791Y802311D01*
X100770Y802249D01*
X100739Y802190D01*
X100731Y802136D01*
X100719Y802099D01*
X100719Y802095D01*
X100719Y802094D01*
X100720Y802059D01*
X100712Y802005D01*
X100712Y798195D01*
X100723Y798130D01*
X100725Y798064D01*
X100743Y798021D01*
X100751Y797974D01*
X100785Y797917D01*
X100810Y797857D01*
X100841Y797822D01*
X100866Y797781D01*
X100917Y797740D01*
X100961Y797691D01*
X101003Y797669D01*
X101040Y797640D01*
X101102Y797619D01*
X101161Y797588D01*
X101215Y797580D01*
X101252Y797568D01*
X101292Y797569D01*
X101346Y797561D01*
X106934Y797561D01*
X106999Y797572D01*
G37*
G36*
X1204279Y797572D02*
X1204279Y797572D01*
X1204345Y797574D01*
X1204388Y797592D01*
X1204435Y797600D01*
X1204492Y797634D01*
X1204552Y797659D01*
X1204587Y797690D01*
X1204628Y797715D01*
X1204670Y797766D01*
X1204718Y797810D01*
X1204740Y797852D01*
X1204769Y797889D01*
X1204790Y797951D01*
X1204821Y798010D01*
X1204829Y798064D01*
X1204841Y798101D01*
X1204840Y798141D01*
X1204848Y798195D01*
X1204848Y802005D01*
X1204837Y802070D01*
X1204835Y802136D01*
X1204817Y802179D01*
X1204809Y802226D01*
X1204775Y802283D01*
X1204750Y802343D01*
X1204719Y802378D01*
X1204694Y802419D01*
X1204643Y802461D01*
X1204599Y802509D01*
X1204557Y802531D01*
X1204520Y802560D01*
X1204458Y802581D01*
X1204399Y802612D01*
X1204345Y802620D01*
X1204308Y802632D01*
X1204268Y802631D01*
X1204214Y802639D01*
X1198626Y802639D01*
X1198561Y802628D01*
X1198495Y802626D01*
X1198452Y802608D01*
X1198405Y802600D01*
X1198348Y802566D01*
X1198288Y802541D01*
X1198253Y802510D01*
X1198212Y802485D01*
X1198171Y802434D01*
X1198122Y802390D01*
X1198100Y802348D01*
X1198071Y802311D01*
X1198050Y802249D01*
X1198019Y802190D01*
X1198011Y802136D01*
X1197999Y802099D01*
X1197999Y802095D01*
X1197999Y802094D01*
X1198000Y802059D01*
X1197992Y802005D01*
X1197992Y798195D01*
X1198003Y798130D01*
X1198005Y798064D01*
X1198023Y798021D01*
X1198031Y797974D01*
X1198065Y797917D01*
X1198090Y797857D01*
X1198121Y797822D01*
X1198146Y797781D01*
X1198197Y797740D01*
X1198241Y797691D01*
X1198283Y797669D01*
X1198320Y797640D01*
X1198382Y797619D01*
X1198441Y797588D01*
X1198495Y797580D01*
X1198532Y797568D01*
X1198572Y797569D01*
X1198626Y797561D01*
X1204214Y797561D01*
X1204279Y797572D01*
G37*
G36*
X1204279Y436892D02*
X1204279Y436892D01*
X1204345Y436894D01*
X1204388Y436912D01*
X1204435Y436920D01*
X1204492Y436954D01*
X1204552Y436979D01*
X1204587Y437010D01*
X1204628Y437035D01*
X1204670Y437086D01*
X1204718Y437130D01*
X1204740Y437172D01*
X1204769Y437209D01*
X1204790Y437271D01*
X1204821Y437330D01*
X1204829Y437384D01*
X1204841Y437421D01*
X1204840Y437461D01*
X1204848Y437515D01*
X1204848Y441325D01*
X1204837Y441390D01*
X1204835Y441456D01*
X1204817Y441499D01*
X1204809Y441546D01*
X1204775Y441603D01*
X1204750Y441663D01*
X1204719Y441698D01*
X1204694Y441739D01*
X1204643Y441781D01*
X1204599Y441829D01*
X1204557Y441851D01*
X1204520Y441880D01*
X1204458Y441901D01*
X1204399Y441932D01*
X1204345Y441940D01*
X1204308Y441952D01*
X1204268Y441951D01*
X1204214Y441959D01*
X1198626Y441959D01*
X1198561Y441948D01*
X1198495Y441946D01*
X1198452Y441928D01*
X1198405Y441920D01*
X1198348Y441886D01*
X1198288Y441861D01*
X1198253Y441830D01*
X1198212Y441805D01*
X1198171Y441754D01*
X1198122Y441710D01*
X1198100Y441668D01*
X1198071Y441631D01*
X1198050Y441569D01*
X1198019Y441510D01*
X1198011Y441456D01*
X1197999Y441419D01*
X1197999Y441415D01*
X1197999Y441414D01*
X1198000Y441379D01*
X1197992Y441325D01*
X1197992Y437515D01*
X1198003Y437450D01*
X1198005Y437384D01*
X1198023Y437341D01*
X1198031Y437294D01*
X1198065Y437237D01*
X1198090Y437177D01*
X1198121Y437142D01*
X1198146Y437101D01*
X1198197Y437060D01*
X1198241Y437011D01*
X1198283Y436989D01*
X1198320Y436960D01*
X1198382Y436939D01*
X1198441Y436908D01*
X1198495Y436900D01*
X1198532Y436888D01*
X1198572Y436889D01*
X1198626Y436881D01*
X1204214Y436881D01*
X1204279Y436892D01*
G37*
G36*
X106999Y436892D02*
X106999Y436892D01*
X107065Y436894D01*
X107108Y436912D01*
X107155Y436920D01*
X107212Y436954D01*
X107272Y436979D01*
X107307Y437010D01*
X107348Y437035D01*
X107390Y437086D01*
X107438Y437130D01*
X107460Y437172D01*
X107489Y437209D01*
X107510Y437271D01*
X107541Y437330D01*
X107549Y437384D01*
X107561Y437421D01*
X107560Y437461D01*
X107568Y437515D01*
X107568Y441325D01*
X107557Y441390D01*
X107555Y441456D01*
X107537Y441499D01*
X107529Y441546D01*
X107495Y441603D01*
X107470Y441663D01*
X107439Y441698D01*
X107414Y441739D01*
X107363Y441781D01*
X107319Y441829D01*
X107277Y441851D01*
X107240Y441880D01*
X107178Y441901D01*
X107119Y441932D01*
X107065Y441940D01*
X107028Y441952D01*
X106988Y441951D01*
X106934Y441959D01*
X101346Y441959D01*
X101281Y441948D01*
X101215Y441946D01*
X101172Y441928D01*
X101125Y441920D01*
X101068Y441886D01*
X101008Y441861D01*
X100973Y441830D01*
X100932Y441805D01*
X100891Y441754D01*
X100842Y441710D01*
X100820Y441668D01*
X100791Y441631D01*
X100770Y441569D01*
X100739Y441510D01*
X100731Y441456D01*
X100719Y441419D01*
X100719Y441415D01*
X100719Y441414D01*
X100720Y441379D01*
X100712Y441325D01*
X100712Y437515D01*
X100723Y437450D01*
X100725Y437384D01*
X100743Y437341D01*
X100751Y437294D01*
X100785Y437237D01*
X100810Y437177D01*
X100841Y437142D01*
X100866Y437101D01*
X100917Y437060D01*
X100961Y437011D01*
X101003Y436989D01*
X101040Y436960D01*
X101102Y436939D01*
X101161Y436908D01*
X101215Y436900D01*
X101252Y436888D01*
X101292Y436889D01*
X101346Y436881D01*
X106934Y436881D01*
X106999Y436892D01*
G37*
G36*
X1204279Y76212D02*
X1204279Y76212D01*
X1204345Y76214D01*
X1204388Y76232D01*
X1204435Y76240D01*
X1204492Y76274D01*
X1204552Y76299D01*
X1204587Y76330D01*
X1204628Y76355D01*
X1204670Y76406D01*
X1204718Y76450D01*
X1204740Y76492D01*
X1204769Y76529D01*
X1204790Y76591D01*
X1204821Y76650D01*
X1204829Y76704D01*
X1204841Y76741D01*
X1204840Y76781D01*
X1204848Y76835D01*
X1204848Y80645D01*
X1204837Y80710D01*
X1204835Y80776D01*
X1204817Y80819D01*
X1204809Y80866D01*
X1204775Y80923D01*
X1204750Y80983D01*
X1204719Y81018D01*
X1204694Y81059D01*
X1204643Y81101D01*
X1204599Y81149D01*
X1204557Y81171D01*
X1204520Y81200D01*
X1204458Y81221D01*
X1204399Y81252D01*
X1204345Y81260D01*
X1204308Y81272D01*
X1204268Y81271D01*
X1204214Y81279D01*
X1198626Y81279D01*
X1198561Y81268D01*
X1198495Y81266D01*
X1198452Y81248D01*
X1198405Y81240D01*
X1198348Y81206D01*
X1198288Y81181D01*
X1198253Y81150D01*
X1198212Y81125D01*
X1198171Y81074D01*
X1198122Y81030D01*
X1198100Y80988D01*
X1198071Y80951D01*
X1198050Y80889D01*
X1198019Y80830D01*
X1198011Y80776D01*
X1197999Y80739D01*
X1197999Y80735D01*
X1197999Y80734D01*
X1198000Y80699D01*
X1197992Y80645D01*
X1197992Y76835D01*
X1198003Y76770D01*
X1198005Y76704D01*
X1198023Y76661D01*
X1198031Y76614D01*
X1198065Y76557D01*
X1198090Y76497D01*
X1198121Y76462D01*
X1198146Y76421D01*
X1198197Y76380D01*
X1198241Y76331D01*
X1198283Y76309D01*
X1198320Y76280D01*
X1198382Y76259D01*
X1198441Y76228D01*
X1198495Y76220D01*
X1198532Y76208D01*
X1198572Y76209D01*
X1198626Y76201D01*
X1204214Y76201D01*
X1204279Y76212D01*
G37*
G36*
X106999Y76212D02*
X106999Y76212D01*
X107065Y76214D01*
X107108Y76232D01*
X107155Y76240D01*
X107212Y76274D01*
X107272Y76299D01*
X107307Y76330D01*
X107348Y76355D01*
X107390Y76406D01*
X107438Y76450D01*
X107460Y76492D01*
X107489Y76529D01*
X107510Y76591D01*
X107541Y76650D01*
X107549Y76704D01*
X107561Y76741D01*
X107560Y76781D01*
X107568Y76835D01*
X107568Y80645D01*
X107557Y80710D01*
X107555Y80776D01*
X107537Y80819D01*
X107529Y80866D01*
X107495Y80923D01*
X107470Y80983D01*
X107439Y81018D01*
X107414Y81059D01*
X107363Y81101D01*
X107319Y81149D01*
X107277Y81171D01*
X107240Y81200D01*
X107178Y81221D01*
X107119Y81252D01*
X107065Y81260D01*
X107028Y81272D01*
X106988Y81271D01*
X106934Y81279D01*
X101346Y81279D01*
X101281Y81268D01*
X101215Y81266D01*
X101172Y81248D01*
X101125Y81240D01*
X101068Y81206D01*
X101008Y81181D01*
X100973Y81150D01*
X100932Y81125D01*
X100891Y81074D01*
X100842Y81030D01*
X100820Y80988D01*
X100791Y80951D01*
X100770Y80889D01*
X100739Y80830D01*
X100731Y80776D01*
X100719Y80739D01*
X100719Y80735D01*
X100719Y80734D01*
X100720Y80699D01*
X100712Y80645D01*
X100712Y76835D01*
X100723Y76770D01*
X100725Y76704D01*
X100743Y76661D01*
X100751Y76614D01*
X100785Y76557D01*
X100810Y76497D01*
X100841Y76462D01*
X100866Y76421D01*
X100917Y76380D01*
X100961Y76331D01*
X101003Y76309D01*
X101040Y76280D01*
X101102Y76259D01*
X101161Y76228D01*
X101215Y76220D01*
X101252Y76208D01*
X101292Y76209D01*
X101346Y76201D01*
X106934Y76201D01*
X106999Y76212D01*
G37*
G36*
X1251650Y695337D02*
X1251650Y695337D01*
X1251716Y695339D01*
X1251759Y695357D01*
X1251806Y695365D01*
X1251863Y695399D01*
X1251923Y695424D01*
X1251958Y695455D01*
X1251999Y695480D01*
X1252041Y695531D01*
X1252089Y695575D01*
X1252111Y695617D01*
X1252140Y695654D01*
X1252161Y695716D01*
X1252192Y695775D01*
X1252200Y695829D01*
X1252212Y695866D01*
X1252211Y695906D01*
X1252219Y695960D01*
X1252219Y698500D01*
X1252208Y698565D01*
X1252206Y698631D01*
X1252188Y698674D01*
X1252180Y698721D01*
X1252146Y698778D01*
X1252121Y698838D01*
X1252090Y698873D01*
X1252065Y698914D01*
X1252014Y698956D01*
X1251970Y699004D01*
X1251928Y699026D01*
X1251891Y699055D01*
X1251829Y699076D01*
X1251770Y699107D01*
X1251716Y699115D01*
X1251679Y699127D01*
X1251639Y699126D01*
X1251585Y699134D01*
X1247775Y699134D01*
X1247710Y699123D01*
X1247644Y699121D01*
X1247601Y699103D01*
X1247554Y699095D01*
X1247497Y699061D01*
X1247437Y699036D01*
X1247402Y699005D01*
X1247361Y698980D01*
X1247320Y698929D01*
X1247271Y698885D01*
X1247249Y698843D01*
X1247220Y698806D01*
X1247199Y698744D01*
X1247168Y698685D01*
X1247160Y698631D01*
X1247148Y698594D01*
X1247148Y698591D01*
X1247149Y698554D01*
X1247141Y698500D01*
X1247141Y695960D01*
X1247152Y695895D01*
X1247154Y695829D01*
X1247172Y695786D01*
X1247180Y695739D01*
X1247214Y695682D01*
X1247239Y695622D01*
X1247270Y695587D01*
X1247295Y695546D01*
X1247346Y695505D01*
X1247390Y695456D01*
X1247432Y695434D01*
X1247469Y695405D01*
X1247531Y695384D01*
X1247590Y695353D01*
X1247644Y695345D01*
X1247681Y695333D01*
X1247721Y695334D01*
X1247775Y695326D01*
X1251585Y695326D01*
X1251650Y695337D01*
G37*
G36*
X154370Y695337D02*
X154370Y695337D01*
X154436Y695339D01*
X154479Y695357D01*
X154526Y695365D01*
X154583Y695399D01*
X154643Y695424D01*
X154678Y695455D01*
X154719Y695480D01*
X154761Y695531D01*
X154809Y695575D01*
X154831Y695617D01*
X154860Y695654D01*
X154881Y695716D01*
X154912Y695775D01*
X154920Y695829D01*
X154932Y695866D01*
X154931Y695906D01*
X154939Y695960D01*
X154939Y698500D01*
X154928Y698565D01*
X154926Y698631D01*
X154908Y698674D01*
X154900Y698721D01*
X154866Y698778D01*
X154841Y698838D01*
X154810Y698873D01*
X154785Y698914D01*
X154734Y698956D01*
X154690Y699004D01*
X154648Y699026D01*
X154611Y699055D01*
X154549Y699076D01*
X154490Y699107D01*
X154436Y699115D01*
X154399Y699127D01*
X154359Y699126D01*
X154305Y699134D01*
X150495Y699134D01*
X150430Y699123D01*
X150364Y699121D01*
X150321Y699103D01*
X150274Y699095D01*
X150217Y699061D01*
X150157Y699036D01*
X150122Y699005D01*
X150081Y698980D01*
X150040Y698929D01*
X149991Y698885D01*
X149969Y698843D01*
X149940Y698806D01*
X149919Y698744D01*
X149888Y698685D01*
X149880Y698631D01*
X149868Y698594D01*
X149868Y698591D01*
X149869Y698554D01*
X149861Y698500D01*
X149861Y695960D01*
X149872Y695895D01*
X149874Y695829D01*
X149892Y695786D01*
X149900Y695739D01*
X149934Y695682D01*
X149959Y695622D01*
X149990Y695587D01*
X150015Y695546D01*
X150066Y695505D01*
X150110Y695456D01*
X150152Y695434D01*
X150189Y695405D01*
X150251Y695384D01*
X150310Y695353D01*
X150364Y695345D01*
X150401Y695333D01*
X150441Y695334D01*
X150495Y695326D01*
X154305Y695326D01*
X154370Y695337D01*
G37*
G36*
X1251650Y1416697D02*
X1251650Y1416697D01*
X1251716Y1416699D01*
X1251759Y1416717D01*
X1251806Y1416725D01*
X1251863Y1416759D01*
X1251923Y1416784D01*
X1251958Y1416815D01*
X1251999Y1416840D01*
X1252041Y1416891D01*
X1252089Y1416935D01*
X1252111Y1416977D01*
X1252140Y1417014D01*
X1252161Y1417076D01*
X1252192Y1417135D01*
X1252200Y1417189D01*
X1252212Y1417226D01*
X1252211Y1417266D01*
X1252219Y1417320D01*
X1252219Y1419860D01*
X1252208Y1419925D01*
X1252206Y1419991D01*
X1252188Y1420034D01*
X1252180Y1420081D01*
X1252146Y1420138D01*
X1252121Y1420198D01*
X1252090Y1420233D01*
X1252065Y1420274D01*
X1252014Y1420316D01*
X1251970Y1420364D01*
X1251928Y1420386D01*
X1251891Y1420415D01*
X1251829Y1420436D01*
X1251770Y1420467D01*
X1251716Y1420475D01*
X1251679Y1420487D01*
X1251639Y1420486D01*
X1251585Y1420494D01*
X1247775Y1420494D01*
X1247710Y1420483D01*
X1247644Y1420481D01*
X1247601Y1420463D01*
X1247554Y1420455D01*
X1247497Y1420421D01*
X1247437Y1420396D01*
X1247402Y1420365D01*
X1247361Y1420340D01*
X1247320Y1420289D01*
X1247271Y1420245D01*
X1247249Y1420203D01*
X1247220Y1420166D01*
X1247199Y1420104D01*
X1247168Y1420045D01*
X1247160Y1419991D01*
X1247148Y1419954D01*
X1247148Y1419951D01*
X1247149Y1419914D01*
X1247141Y1419860D01*
X1247141Y1417320D01*
X1247152Y1417255D01*
X1247154Y1417189D01*
X1247172Y1417146D01*
X1247180Y1417099D01*
X1247214Y1417042D01*
X1247239Y1416982D01*
X1247270Y1416947D01*
X1247295Y1416906D01*
X1247346Y1416865D01*
X1247390Y1416816D01*
X1247432Y1416794D01*
X1247469Y1416765D01*
X1247531Y1416744D01*
X1247590Y1416713D01*
X1247644Y1416705D01*
X1247681Y1416693D01*
X1247721Y1416694D01*
X1247775Y1416686D01*
X1251585Y1416686D01*
X1251650Y1416697D01*
G37*
G36*
X154370Y1416697D02*
X154370Y1416697D01*
X154436Y1416699D01*
X154479Y1416717D01*
X154526Y1416725D01*
X154583Y1416759D01*
X154643Y1416784D01*
X154678Y1416815D01*
X154719Y1416840D01*
X154761Y1416891D01*
X154809Y1416935D01*
X154831Y1416977D01*
X154860Y1417014D01*
X154881Y1417076D01*
X154912Y1417135D01*
X154920Y1417189D01*
X154932Y1417226D01*
X154931Y1417266D01*
X154939Y1417320D01*
X154939Y1419860D01*
X154928Y1419925D01*
X154926Y1419991D01*
X154908Y1420034D01*
X154900Y1420081D01*
X154866Y1420138D01*
X154841Y1420198D01*
X154810Y1420233D01*
X154785Y1420274D01*
X154734Y1420316D01*
X154690Y1420364D01*
X154648Y1420386D01*
X154611Y1420415D01*
X154549Y1420436D01*
X154490Y1420467D01*
X154436Y1420475D01*
X154399Y1420487D01*
X154359Y1420486D01*
X154305Y1420494D01*
X150495Y1420494D01*
X150430Y1420483D01*
X150364Y1420481D01*
X150321Y1420463D01*
X150274Y1420455D01*
X150217Y1420421D01*
X150157Y1420396D01*
X150122Y1420365D01*
X150081Y1420340D01*
X150040Y1420289D01*
X149991Y1420245D01*
X149969Y1420203D01*
X149940Y1420166D01*
X149919Y1420104D01*
X149888Y1420045D01*
X149880Y1419991D01*
X149868Y1419954D01*
X149868Y1419951D01*
X149869Y1419914D01*
X149861Y1419860D01*
X149861Y1417320D01*
X149872Y1417255D01*
X149874Y1417189D01*
X149892Y1417146D01*
X149900Y1417099D01*
X149934Y1417042D01*
X149959Y1416982D01*
X149990Y1416947D01*
X150015Y1416906D01*
X150066Y1416865D01*
X150110Y1416816D01*
X150152Y1416794D01*
X150189Y1416765D01*
X150251Y1416744D01*
X150310Y1416713D01*
X150364Y1416705D01*
X150401Y1416693D01*
X150441Y1416694D01*
X150495Y1416686D01*
X154305Y1416686D01*
X154370Y1416697D01*
G37*
G36*
X154370Y1056017D02*
X154370Y1056017D01*
X154436Y1056019D01*
X154479Y1056037D01*
X154526Y1056045D01*
X154583Y1056079D01*
X154643Y1056104D01*
X154678Y1056135D01*
X154719Y1056160D01*
X154761Y1056211D01*
X154809Y1056255D01*
X154831Y1056297D01*
X154860Y1056334D01*
X154881Y1056396D01*
X154912Y1056455D01*
X154920Y1056509D01*
X154932Y1056546D01*
X154931Y1056586D01*
X154939Y1056640D01*
X154939Y1059180D01*
X154928Y1059245D01*
X154926Y1059311D01*
X154908Y1059354D01*
X154900Y1059401D01*
X154866Y1059458D01*
X154841Y1059518D01*
X154810Y1059553D01*
X154785Y1059594D01*
X154734Y1059636D01*
X154690Y1059684D01*
X154648Y1059706D01*
X154611Y1059735D01*
X154549Y1059756D01*
X154490Y1059787D01*
X154436Y1059795D01*
X154399Y1059807D01*
X154359Y1059806D01*
X154305Y1059814D01*
X150495Y1059814D01*
X150430Y1059803D01*
X150364Y1059801D01*
X150321Y1059783D01*
X150274Y1059775D01*
X150217Y1059741D01*
X150157Y1059716D01*
X150122Y1059685D01*
X150081Y1059660D01*
X150040Y1059609D01*
X149991Y1059565D01*
X149969Y1059523D01*
X149940Y1059486D01*
X149919Y1059424D01*
X149888Y1059365D01*
X149880Y1059311D01*
X149868Y1059274D01*
X149868Y1059271D01*
X149869Y1059234D01*
X149861Y1059180D01*
X149861Y1056640D01*
X149872Y1056575D01*
X149874Y1056509D01*
X149892Y1056466D01*
X149900Y1056419D01*
X149934Y1056362D01*
X149959Y1056302D01*
X149990Y1056267D01*
X150015Y1056226D01*
X150066Y1056185D01*
X150110Y1056136D01*
X150152Y1056114D01*
X150189Y1056085D01*
X150251Y1056064D01*
X150310Y1056033D01*
X150364Y1056025D01*
X150401Y1056013D01*
X150441Y1056014D01*
X150495Y1056006D01*
X154305Y1056006D01*
X154370Y1056017D01*
G37*
G36*
X1251650Y1056017D02*
X1251650Y1056017D01*
X1251716Y1056019D01*
X1251759Y1056037D01*
X1251806Y1056045D01*
X1251863Y1056079D01*
X1251923Y1056104D01*
X1251958Y1056135D01*
X1251999Y1056160D01*
X1252041Y1056211D01*
X1252089Y1056255D01*
X1252111Y1056297D01*
X1252140Y1056334D01*
X1252161Y1056396D01*
X1252192Y1056455D01*
X1252200Y1056509D01*
X1252212Y1056546D01*
X1252211Y1056586D01*
X1252219Y1056640D01*
X1252219Y1059180D01*
X1252208Y1059245D01*
X1252206Y1059311D01*
X1252188Y1059354D01*
X1252180Y1059401D01*
X1252146Y1059458D01*
X1252121Y1059518D01*
X1252090Y1059553D01*
X1252065Y1059594D01*
X1252014Y1059636D01*
X1251970Y1059684D01*
X1251928Y1059706D01*
X1251891Y1059735D01*
X1251829Y1059756D01*
X1251770Y1059787D01*
X1251716Y1059795D01*
X1251679Y1059807D01*
X1251639Y1059806D01*
X1251585Y1059814D01*
X1247775Y1059814D01*
X1247710Y1059803D01*
X1247644Y1059801D01*
X1247601Y1059783D01*
X1247554Y1059775D01*
X1247497Y1059741D01*
X1247437Y1059716D01*
X1247402Y1059685D01*
X1247361Y1059660D01*
X1247320Y1059609D01*
X1247271Y1059565D01*
X1247249Y1059523D01*
X1247220Y1059486D01*
X1247199Y1059424D01*
X1247168Y1059365D01*
X1247160Y1059311D01*
X1247148Y1059274D01*
X1247148Y1059271D01*
X1247149Y1059234D01*
X1247141Y1059180D01*
X1247141Y1056640D01*
X1247152Y1056575D01*
X1247154Y1056509D01*
X1247172Y1056466D01*
X1247180Y1056419D01*
X1247214Y1056362D01*
X1247239Y1056302D01*
X1247270Y1056267D01*
X1247295Y1056226D01*
X1247346Y1056185D01*
X1247390Y1056136D01*
X1247432Y1056114D01*
X1247469Y1056085D01*
X1247531Y1056064D01*
X1247590Y1056033D01*
X1247644Y1056025D01*
X1247681Y1056013D01*
X1247721Y1056014D01*
X1247775Y1056006D01*
X1251585Y1056006D01*
X1251650Y1056017D01*
G37*
G36*
X1251650Y334657D02*
X1251650Y334657D01*
X1251716Y334659D01*
X1251759Y334677D01*
X1251806Y334685D01*
X1251863Y334719D01*
X1251923Y334744D01*
X1251958Y334775D01*
X1251999Y334800D01*
X1252041Y334851D01*
X1252089Y334895D01*
X1252111Y334937D01*
X1252140Y334974D01*
X1252161Y335036D01*
X1252192Y335095D01*
X1252200Y335149D01*
X1252212Y335186D01*
X1252211Y335226D01*
X1252219Y335280D01*
X1252219Y337820D01*
X1252208Y337885D01*
X1252206Y337951D01*
X1252188Y337994D01*
X1252180Y338041D01*
X1252146Y338098D01*
X1252121Y338158D01*
X1252090Y338193D01*
X1252065Y338234D01*
X1252014Y338276D01*
X1251970Y338324D01*
X1251928Y338346D01*
X1251891Y338375D01*
X1251829Y338396D01*
X1251770Y338427D01*
X1251716Y338435D01*
X1251679Y338447D01*
X1251639Y338446D01*
X1251585Y338454D01*
X1247775Y338454D01*
X1247710Y338443D01*
X1247644Y338441D01*
X1247601Y338423D01*
X1247554Y338415D01*
X1247497Y338381D01*
X1247437Y338356D01*
X1247402Y338325D01*
X1247361Y338300D01*
X1247320Y338249D01*
X1247271Y338205D01*
X1247249Y338163D01*
X1247220Y338126D01*
X1247199Y338064D01*
X1247168Y338005D01*
X1247160Y337951D01*
X1247148Y337914D01*
X1247148Y337911D01*
X1247149Y337874D01*
X1247141Y337820D01*
X1247141Y335280D01*
X1247152Y335215D01*
X1247154Y335149D01*
X1247172Y335106D01*
X1247180Y335059D01*
X1247214Y335002D01*
X1247239Y334942D01*
X1247270Y334907D01*
X1247295Y334866D01*
X1247346Y334825D01*
X1247390Y334776D01*
X1247432Y334754D01*
X1247469Y334725D01*
X1247531Y334704D01*
X1247590Y334673D01*
X1247644Y334665D01*
X1247681Y334653D01*
X1247721Y334654D01*
X1247775Y334646D01*
X1251585Y334646D01*
X1251650Y334657D01*
G37*
G36*
X154370Y334657D02*
X154370Y334657D01*
X154436Y334659D01*
X154479Y334677D01*
X154526Y334685D01*
X154583Y334719D01*
X154643Y334744D01*
X154678Y334775D01*
X154719Y334800D01*
X154761Y334851D01*
X154809Y334895D01*
X154831Y334937D01*
X154860Y334974D01*
X154881Y335036D01*
X154912Y335095D01*
X154920Y335149D01*
X154932Y335186D01*
X154931Y335226D01*
X154939Y335280D01*
X154939Y337820D01*
X154928Y337885D01*
X154926Y337951D01*
X154908Y337994D01*
X154900Y338041D01*
X154866Y338098D01*
X154841Y338158D01*
X154810Y338193D01*
X154785Y338234D01*
X154734Y338276D01*
X154690Y338324D01*
X154648Y338346D01*
X154611Y338375D01*
X154549Y338396D01*
X154490Y338427D01*
X154436Y338435D01*
X154399Y338447D01*
X154359Y338446D01*
X154305Y338454D01*
X150495Y338454D01*
X150430Y338443D01*
X150364Y338441D01*
X150321Y338423D01*
X150274Y338415D01*
X150217Y338381D01*
X150157Y338356D01*
X150122Y338325D01*
X150081Y338300D01*
X150040Y338249D01*
X149991Y338205D01*
X149969Y338163D01*
X149940Y338126D01*
X149919Y338064D01*
X149888Y338005D01*
X149880Y337951D01*
X149868Y337914D01*
X149868Y337911D01*
X149869Y337874D01*
X149861Y337820D01*
X149861Y335280D01*
X149872Y335215D01*
X149874Y335149D01*
X149892Y335106D01*
X149900Y335059D01*
X149934Y335002D01*
X149959Y334942D01*
X149990Y334907D01*
X150015Y334866D01*
X150066Y334825D01*
X150110Y334776D01*
X150152Y334754D01*
X150189Y334725D01*
X150251Y334704D01*
X150310Y334673D01*
X150364Y334665D01*
X150401Y334653D01*
X150441Y334654D01*
X150495Y334646D01*
X154305Y334646D01*
X154370Y334657D01*
G37*
D10*
X47780Y135580D03*
X47780Y77780D03*
D11*
X7620Y7620D03*
X1084580Y349250D03*
D12*
X1066800Y330200D03*
X25400Y330200D03*
X1066800Y25400D03*
X25400Y25400D03*
D13*
X440730Y137600D03*
D14*
X157607Y336550D03*
X147193Y336550D03*
D15*
X241300Y77800D03*
D16*
X241300Y277800D03*
D17*
X104140Y83820D03*
X104140Y73660D03*
D18*
X104140Y91440D03*
X104140Y66040D03*
D19*
X169164Y165100D03*
X161036Y165100D03*
X60706Y215900D03*
X68834Y215900D03*
D20*
X368300Y88900D03*
X393700Y127000D03*
D18*
X12700Y196850D03*
X12700Y171450D03*
D21*
X520700Y279400D03*
X723900Y279400D03*
X520700Y76200D03*
X723900Y76200D03*
D18*
X228600Y342900D03*
X254000Y342900D03*
X279400Y342900D03*
X304800Y342900D03*
X330200Y342900D03*
X355600Y342900D03*
X381000Y342900D03*
X406400Y342900D03*
X431800Y342900D03*
D21*
X825500Y279400D03*
X1028700Y279400D03*
X825500Y76200D03*
X1028700Y76200D03*
D10*
X1145060Y135580D03*
X1145060Y77780D03*
D11*
X1104900Y7620D03*
X2181860Y349250D03*
D12*
X2164080Y330200D03*
X1122680Y330200D03*
X2164080Y25400D03*
X1122680Y25400D03*
D13*
X1538010Y137600D03*
D14*
X1254887Y336550D03*
X1244473Y336550D03*
D15*
X1338580Y77800D03*
D16*
X1338580Y277800D03*
D17*
X1201420Y83820D03*
X1201420Y73660D03*
D18*
X1201420Y91440D03*
X1201420Y66040D03*
D19*
X1266444Y165100D03*
X1258316Y165100D03*
X1157986Y215900D03*
X1166114Y215900D03*
D20*
X1465580Y88900D03*
X1490980Y127000D03*
D18*
X1109980Y196850D03*
X1109980Y171450D03*
D21*
X1617980Y279400D03*
X1821180Y279400D03*
X1617980Y76200D03*
X1821180Y76200D03*
D18*
X1325880Y342900D03*
X1351280Y342900D03*
X1376680Y342900D03*
X1402080Y342900D03*
X1427480Y342900D03*
X1452880Y342900D03*
X1478280Y342900D03*
X1503680Y342900D03*
X1529080Y342900D03*
D21*
X1922780Y279400D03*
X2125980Y279400D03*
X1922780Y76200D03*
X2125980Y76200D03*
D10*
X47780Y496260D03*
X47780Y438460D03*
D11*
X7620Y368300D03*
X1084580Y709930D03*
D12*
X1066800Y690880D03*
X25400Y690880D03*
X1066800Y386080D03*
X25400Y386080D03*
D13*
X440730Y498280D03*
D14*
X157607Y697230D03*
X147193Y697230D03*
D15*
X241300Y438480D03*
D16*
X241300Y638480D03*
D17*
X104140Y444500D03*
X104140Y434340D03*
D18*
X104140Y452120D03*
X104140Y426720D03*
D19*
X169164Y525780D03*
X161036Y525780D03*
X60706Y576580D03*
X68834Y576580D03*
D20*
X368300Y449580D03*
X393700Y487680D03*
D18*
X12700Y557530D03*
X12700Y532130D03*
D21*
X520700Y640080D03*
X723900Y640080D03*
X520700Y436880D03*
X723900Y436880D03*
D18*
X228600Y703580D03*
X254000Y703580D03*
X279400Y703580D03*
X304800Y703580D03*
X330200Y703580D03*
X355600Y703580D03*
X381000Y703580D03*
X406400Y703580D03*
X431800Y703580D03*
D21*
X825500Y640080D03*
X1028700Y640080D03*
X825500Y436880D03*
X1028700Y436880D03*
D10*
X1145060Y496260D03*
X1145060Y438460D03*
D11*
X1104900Y368300D03*
X2181860Y709930D03*
D12*
X2164080Y690880D03*
X1122680Y690880D03*
X2164080Y386080D03*
X1122680Y386080D03*
D13*
X1538010Y498280D03*
D14*
X1254887Y697230D03*
X1244473Y697230D03*
D15*
X1338580Y438480D03*
D16*
X1338580Y638480D03*
D17*
X1201420Y444500D03*
X1201420Y434340D03*
D18*
X1201420Y452120D03*
X1201420Y426720D03*
D19*
X1266444Y525780D03*
X1258316Y525780D03*
X1157986Y576580D03*
X1166114Y576580D03*
D20*
X1465580Y449580D03*
X1490980Y487680D03*
D18*
X1109980Y557530D03*
X1109980Y532130D03*
D21*
X1617980Y640080D03*
X1821180Y640080D03*
X1617980Y436880D03*
X1821180Y436880D03*
D18*
X1325880Y703580D03*
X1351280Y703580D03*
X1376680Y703580D03*
X1402080Y703580D03*
X1427480Y703580D03*
X1452880Y703580D03*
X1478280Y703580D03*
X1503680Y703580D03*
X1529080Y703580D03*
D21*
X1922780Y640080D03*
X2125980Y640080D03*
X1922780Y436880D03*
X2125980Y436880D03*
D10*
X47780Y856940D03*
X47780Y799140D03*
D11*
X7620Y728980D03*
X1084580Y1070610D03*
D12*
X1066800Y1051560D03*
X25400Y1051560D03*
X1066800Y746760D03*
X25400Y746760D03*
D13*
X440730Y858960D03*
D14*
X157607Y1057910D03*
X147193Y1057910D03*
D15*
X241300Y799160D03*
D16*
X241300Y999160D03*
D17*
X104140Y805180D03*
X104140Y795020D03*
D18*
X104140Y812800D03*
X104140Y787400D03*
D19*
X169164Y886460D03*
X161036Y886460D03*
X60706Y937260D03*
X68834Y937260D03*
D20*
X368300Y810260D03*
X393700Y848360D03*
D18*
X12700Y918210D03*
X12700Y892810D03*
D21*
X520700Y1000760D03*
X723900Y1000760D03*
X520700Y797560D03*
X723900Y797560D03*
D18*
X228600Y1064260D03*
X254000Y1064260D03*
X279400Y1064260D03*
X304800Y1064260D03*
X330200Y1064260D03*
X355600Y1064260D03*
X381000Y1064260D03*
X406400Y1064260D03*
X431800Y1064260D03*
D21*
X825500Y1000760D03*
X1028700Y1000760D03*
X825500Y797560D03*
X1028700Y797560D03*
D10*
X1145060Y856940D03*
X1145060Y799140D03*
D11*
X1104900Y728980D03*
X2181860Y1070610D03*
D12*
X2164080Y1051560D03*
X1122680Y1051560D03*
X2164080Y746760D03*
X1122680Y746760D03*
D13*
X1538010Y858960D03*
D14*
X1254887Y1057910D03*
X1244473Y1057910D03*
D15*
X1338580Y799160D03*
D16*
X1338580Y999160D03*
D17*
X1201420Y805180D03*
X1201420Y795020D03*
D18*
X1201420Y812800D03*
X1201420Y787400D03*
D19*
X1266444Y886460D03*
X1258316Y886460D03*
X1157986Y937260D03*
X1166114Y937260D03*
D20*
X1465580Y810260D03*
X1490980Y848360D03*
D18*
X1109980Y918210D03*
X1109980Y892810D03*
D21*
X1617980Y1000760D03*
X1821180Y1000760D03*
X1617980Y797560D03*
X1821180Y797560D03*
D18*
X1325880Y1064260D03*
X1351280Y1064260D03*
X1376680Y1064260D03*
X1402080Y1064260D03*
X1427480Y1064260D03*
X1452880Y1064260D03*
X1478280Y1064260D03*
X1503680Y1064260D03*
X1529080Y1064260D03*
D21*
X1922780Y1000760D03*
X2125980Y1000760D03*
X1922780Y797560D03*
X2125980Y797560D03*
D10*
X47780Y1217620D03*
X47780Y1159820D03*
D11*
X7620Y1089660D03*
X1084580Y1431290D03*
D12*
X1066800Y1412240D03*
X25400Y1412240D03*
X1066800Y1107440D03*
X25400Y1107440D03*
D13*
X440730Y1219640D03*
D14*
X157607Y1418590D03*
X147193Y1418590D03*
D15*
X241300Y1159840D03*
D16*
X241300Y1359840D03*
D17*
X104140Y1165860D03*
X104140Y1155700D03*
D18*
X104140Y1173480D03*
X104140Y1148080D03*
D19*
X169164Y1247140D03*
X161036Y1247140D03*
X60706Y1297940D03*
X68834Y1297940D03*
D20*
X368300Y1170940D03*
X393700Y1209040D03*
D18*
X12700Y1278890D03*
X12700Y1253490D03*
D21*
X520700Y1361440D03*
X723900Y1361440D03*
X520700Y1158240D03*
X723900Y1158240D03*
D18*
X228600Y1424940D03*
X254000Y1424940D03*
X279400Y1424940D03*
X304800Y1424940D03*
X330200Y1424940D03*
X355600Y1424940D03*
X381000Y1424940D03*
X406400Y1424940D03*
X431800Y1424940D03*
D21*
X825500Y1361440D03*
X1028700Y1361440D03*
X825500Y1158240D03*
X1028700Y1158240D03*
D10*
X1145060Y1217620D03*
X1145060Y1159820D03*
D11*
X1104900Y1089660D03*
X2181860Y1431290D03*
D12*
X2164080Y1412240D03*
X1122680Y1412240D03*
X2164080Y1107440D03*
X1122680Y1107440D03*
D13*
X1538010Y1219640D03*
D14*
X1254887Y1418590D03*
X1244473Y1418590D03*
D15*
X1338580Y1159840D03*
D16*
X1338580Y1359840D03*
D17*
X1201420Y1165860D03*
X1201420Y1155700D03*
D18*
X1201420Y1173480D03*
X1201420Y1148080D03*
D19*
X1266444Y1247140D03*
X1258316Y1247140D03*
X1157986Y1297940D03*
X1166114Y1297940D03*
D20*
X1465580Y1170940D03*
X1490980Y1209040D03*
D18*
X1109980Y1278890D03*
X1109980Y1253490D03*
D21*
X1617980Y1361440D03*
X1821180Y1361440D03*
X1617980Y1158240D03*
X1821180Y1158240D03*
D18*
X1325880Y1424940D03*
X1351280Y1424940D03*
X1376680Y1424940D03*
X1402080Y1424940D03*
X1427480Y1424940D03*
X1452880Y1424940D03*
X1478280Y1424940D03*
X1503680Y1424940D03*
X1529080Y1424940D03*
D21*
X1922780Y1361440D03*
X2125980Y1361440D03*
X1922780Y1158240D03*
X2125980Y1158240D03*
D22*
X-26238Y1410970D03*
X2215718Y1410970D03*
D23*
X-35293Y63500D02*
X-35290Y63722D01*
X-35282Y63944D01*
X-35268Y64166D01*
X-35249Y64388D01*
X-35225Y64608D01*
X-35195Y64829D01*
X-35160Y65048D01*
X-35119Y65267D01*
X-35073Y65484D01*
X-35022Y65700D01*
X-34965Y65915D01*
X-34903Y66129D01*
X-34836Y66340D01*
X-34764Y66551D01*
X-34686Y66759D01*
X-34604Y66965D01*
X-34516Y67169D01*
X-34424Y67372D01*
X-34326Y67571D01*
X-34224Y67768D01*
X-34117Y67963D01*
X-34005Y68155D01*
X-33888Y68344D01*
X-33767Y68531D01*
X-33641Y68714D01*
X-33511Y68894D01*
X-33376Y69071D01*
X-33238Y69244D01*
X-33095Y69414D01*
X-32947Y69581D01*
X-32796Y69744D01*
X-32641Y69903D01*
X-32482Y70058D01*
X-32319Y70209D01*
X-32152Y70357D01*
X-31982Y70500D01*
X-31809Y70638D01*
X-31632Y70773D01*
X-31452Y70903D01*
X-31269Y71029D01*
X-31082Y71150D01*
X-30893Y71267D01*
X-30701Y71379D01*
X-30506Y71486D01*
X-30309Y71588D01*
X-30110Y71686D01*
X-29907Y71778D01*
X-29703Y71866D01*
X-29497Y71948D01*
X-29289Y72026D01*
X-29078Y72098D01*
X-28867Y72165D01*
X-28653Y72227D01*
X-28438Y72284D01*
X-28222Y72335D01*
X-28005Y72381D01*
X-27786Y72422D01*
X-27567Y72457D01*
X-27346Y72487D01*
X-27126Y72511D01*
X-26904Y72530D01*
X-26682Y72544D01*
X-26460Y72552D01*
X-26238Y72555D01*
X-26016Y72552D01*
X-25794Y72544D01*
X-25572Y72530D01*
X-25350Y72511D01*
X-25130Y72487D01*
X-24909Y72457D01*
X-24690Y72422D01*
X-24471Y72381D01*
X-24254Y72335D01*
X-24038Y72284D01*
X-23823Y72227D01*
X-23609Y72165D01*
X-23398Y72098D01*
X-23187Y72026D01*
X-22979Y71948D01*
X-22773Y71866D01*
X-22569Y71778D01*
X-22366Y71686D01*
X-22167Y71588D01*
X-21970Y71486D01*
X-21775Y71379D01*
X-21583Y71267D01*
X-21394Y71150D01*
X-21207Y71029D01*
X-21024Y70903D01*
X-20844Y70773D01*
X-20667Y70638D01*
X-20494Y70500D01*
X-20324Y70357D01*
X-20157Y70209D01*
X-19994Y70058D01*
X-19835Y69903D01*
X-19680Y69744D01*
X-19529Y69581D01*
X-19381Y69414D01*
X-19238Y69244D01*
X-19100Y69071D01*
X-18965Y68894D01*
X-18835Y68714D01*
X-18709Y68531D01*
X-18588Y68344D01*
X-18471Y68155D01*
X-18359Y67963D01*
X-18252Y67768D01*
X-18150Y67571D01*
X-18052Y67372D01*
X-17960Y67169D01*
X-17872Y66965D01*
X-17790Y66759D01*
X-17712Y66551D01*
X-17640Y66340D01*
X-17573Y66129D01*
X-17511Y65915D01*
X-17454Y65700D01*
X-17403Y65484D01*
X-17357Y65267D01*
X-17316Y65048D01*
X-17281Y64829D01*
X-17251Y64608D01*
X-17227Y64388D01*
X-17208Y64166D01*
X-17194Y63944D01*
X-17186Y63722D01*
X-17183Y63500D01*
X-17186Y63278D01*
X-17194Y63056D01*
X-17208Y62834D01*
X-17227Y62612D01*
X-17251Y62392D01*
X-17281Y62171D01*
X-17316Y61952D01*
X-17357Y61733D01*
X-17403Y61516D01*
X-17454Y61300D01*
X-17511Y61085D01*
X-17573Y60871D01*
X-17640Y60660D01*
X-17712Y60449D01*
X-17790Y60241D01*
X-17872Y60035D01*
X-17960Y59831D01*
X-18052Y59628D01*
X-18150Y59429D01*
X-18252Y59232D01*
X-18359Y59037D01*
X-18471Y58845D01*
X-18588Y58656D01*
X-18709Y58469D01*
X-18835Y58286D01*
X-18965Y58106D01*
X-19100Y57929D01*
X-19238Y57756D01*
X-19381Y57586D01*
X-19529Y57419D01*
X-19680Y57256D01*
X-19835Y57097D01*
X-19994Y56942D01*
X-20157Y56791D01*
X-20324Y56643D01*
X-20494Y56500D01*
X-20667Y56362D01*
X-20844Y56227D01*
X-21024Y56097D01*
X-21207Y55971D01*
X-21394Y55850D01*
X-21583Y55733D01*
X-21775Y55621D01*
X-21970Y55514D01*
X-22167Y55412D01*
X-22366Y55314D01*
X-22569Y55222D01*
X-22773Y55134D01*
X-22979Y55052D01*
X-23187Y54974D01*
X-23398Y54902D01*
X-23609Y54835D01*
X-23823Y54773D01*
X-24038Y54716D01*
X-24254Y54665D01*
X-24471Y54619D01*
X-24690Y54578D01*
X-24909Y54543D01*
X-25130Y54513D01*
X-25350Y54489D01*
X-25572Y54470D01*
X-25794Y54456D01*
X-26016Y54448D01*
X-26238Y54445D01*
X-26460Y54448D01*
X-26682Y54456D01*
X-26904Y54470D01*
X-27126Y54489D01*
X-27346Y54513D01*
X-27567Y54543D01*
X-27786Y54578D01*
X-28005Y54619D01*
X-28222Y54665D01*
X-28438Y54716D01*
X-28653Y54773D01*
X-28867Y54835D01*
X-29078Y54902D01*
X-29289Y54974D01*
X-29497Y55052D01*
X-29703Y55134D01*
X-29907Y55222D01*
X-30110Y55314D01*
X-30309Y55412D01*
X-30506Y55514D01*
X-30701Y55621D01*
X-30893Y55733D01*
X-31082Y55850D01*
X-31269Y55971D01*
X-31452Y56097D01*
X-31632Y56227D01*
X-31809Y56362D01*
X-31982Y56500D01*
X-32152Y56643D01*
X-32319Y56791D01*
X-32482Y56942D01*
X-32641Y57097D01*
X-32796Y57256D01*
X-32947Y57419D01*
X-33095Y57586D01*
X-33238Y57756D01*
X-33376Y57929D01*
X-33511Y58106D01*
X-33641Y58286D01*
X-33767Y58469D01*
X-33888Y58656D01*
X-34005Y58845D01*
X-34117Y59037D01*
X-34224Y59232D01*
X-34326Y59429D01*
X-34424Y59628D01*
X-34516Y59831D01*
X-34604Y60035D01*
X-34686Y60241D01*
X-34764Y60449D01*
X-34836Y60660D01*
X-34903Y60871D01*
X-34965Y61085D01*
X-35022Y61300D01*
X-35073Y61516D01*
X-35119Y61733D01*
X-35160Y61952D01*
X-35195Y62171D01*
X-35225Y62392D01*
X-35249Y62612D01*
X-35268Y62834D01*
X-35282Y63056D01*
X-35290Y63278D01*
X-35293Y63500D01*
D24*
X-26238Y63500D03*
M02*
