M48
;GenerationSoftware,Autodesk,EAGLE,9.6.2*%
;CreationDate,2021-01-22T05:47:44Z*%
FMAT,2
ICI,OFF
METRIC,TZ,000.000
T10C0.305
T9C0.381
T8C0.400
T7C0.650
T6C1.016
T5C1.100
T4C1.600
T3C3.302
T2C3.800
T1C4.216
%
G90
M71
T1
X161798Y136144
X102870Y27940
X82550Y7620
X102870Y7620
X102870Y64008
X82550Y64008
X72390Y43688
X52070Y43688
X192278Y115824
X212598Y136144
X192278Y136144
X192278Y64008
X182118Y115824
X161798Y115824
X182118Y136144
X182118Y79756
X182118Y43688
X102870Y115824
X82550Y115824
X102870Y136144
X82550Y136144
X72390Y115824
X52070Y115824
X72390Y136144
X52070Y136144
X161798Y43688
X212598Y79756
X192278Y79756
X212598Y100076
X192278Y100076
X182118Y64008
X161798Y79756
X182118Y100076
X161798Y100076
X161798Y64008
X102870Y79756
X102870Y43688
X82550Y43688
X212598Y27940
X212598Y7620
X52070Y27940
X72390Y27940
X82550Y79756
X102870Y100076
X52070Y7620
X192278Y43688
X72390Y7620
X72390Y64008
X161798Y27940
X182118Y27940
X82550Y100076
X72390Y79756
X161798Y7620
X212598Y115824
X182118Y7620
X52070Y64008
X192278Y27940
X82550Y27940
X52070Y79756
X72390Y100076
X192278Y7620
X52070Y100076
X212598Y43688
X212598Y64008
T2
X44073Y85896
X153801Y121964
X44073Y121964
X44073Y13760
X153801Y85896
X44073Y49828
X153801Y13760
X153801Y49828
T3
X216408Y74676
X106680Y2540
X106680Y33020
X2540Y33020
X216408Y105156
X2540Y2540
X112268Y74676
X106680Y141224
X216408Y33020
X216408Y2540
X112268Y2540
X2540Y141224
X106680Y69088
X2540Y69088
X106680Y38608
X2540Y38608
X112268Y141224
X2540Y110744
X112268Y69088
X216408Y141224
X2540Y105156
X216408Y110744
X112268Y110744
X106680Y105156
X106680Y74676
X2540Y74676
X112268Y33020
X106680Y110744
X216408Y38608
X216408Y69088
X112268Y38608
X112268Y105156
T4
X24130Y27780
X133858Y135984
X24130Y135984
X133858Y99916
X133858Y63848
X24130Y63848
X133858Y27780
X24130Y99916
T5
X24130Y7780
X133858Y7780
X24130Y115984
X24130Y43848
X133858Y115984
X24130Y79916
X133858Y43848
X133858Y79916
T6
X137668Y142494
X140208Y142494
X142748Y142494
X145288Y142494
X147828Y142494
X150368Y142494
X152908Y142494
X10414Y9144
X10414Y6604
X1270Y19685
X1270Y17145
X22860Y34290
X25400Y34290
X27940Y34290
X30480Y34290
X35560Y34290
X38100Y34290
X40640Y34290
X43180Y34290
X120142Y9144
X120142Y6604
X110998Y19685
X110998Y17145
X132588Y34290
X135128Y34290
X137668Y34290
X140208Y34290
X142748Y34290
X145288Y34290
X147828Y34290
X150368Y34290
X152908Y34290
X33020Y34290
X10414Y45212
X10414Y42672
X1270Y55753
X1270Y53213
X22860Y70358
X25400Y70358
X27940Y70358
X30480Y70358
X33020Y70358
X35560Y70358
X38100Y70358
X40640Y70358
X43180Y70358
X120142Y45212
X120142Y42672
X110998Y55753
X110998Y53213
X132588Y70358
X135128Y70358
X137668Y70358
X140208Y70358
X142748Y70358
X145288Y70358
X147828Y70358
X150368Y70358
X152908Y70358
X10414Y81280
X10414Y78740
X1270Y91821
X1270Y89281
X22860Y106426
X25400Y106426
X27940Y106426
X30480Y106426
X33020Y106426
X35560Y106426
X38100Y106426
X40640Y106426
X43180Y106426
X22860Y142494
X120142Y81280
X120142Y78740
X110998Y91821
X110998Y89281
X132588Y106426
X135128Y106426
X137668Y106426
X140208Y106426
X142748Y106426
X145288Y106426
X147828Y106426
X150368Y106426
X152908Y106426
X10414Y117348
X10414Y114808
X1270Y127889
X1270Y125349
X25400Y142494
X27940Y142494
X30480Y142494
X33020Y142494
X35560Y142494
X38100Y142494
X40640Y142494
X43180Y142494
X120142Y117348
X120142Y114808
X110998Y127889
X110998Y125349
X132588Y142494
X135128Y142494
T7
X114506Y13558
X114506Y79914
X114506Y85694
X114506Y43846
X4778Y49626
X114506Y49626
X4778Y85694
X4778Y79914
X4778Y115982
X114506Y121762
X114506Y7778
X114506Y115982
X4778Y43846
X4778Y13558
X4778Y7778
X4778Y121762
T8
X115036Y51054
X115036Y14986
X110856Y6350
X110856Y14986
X5308Y14986
X5308Y6350
X115036Y78486
X110856Y51054
X110856Y42418
X115036Y42418
X115036Y87122
X110856Y78486
X1128Y87122
X5308Y78486
X5308Y87122
X1128Y123190
X1128Y114554
X5308Y114554
X5308Y123190
X1128Y6350
X115036Y6350
X5308Y42418
X1128Y42418
X5308Y51054
X1128Y78486
X110856Y87122
X1128Y51054
X1128Y14986
X110856Y123190
X110856Y114554
X115036Y114554
X115036Y123190
T9
X147320Y39497
X156464Y38354
X114935Y21336
X37719Y11049
X46736Y110490
X5207Y57404
X114935Y129540
X147447Y119253
X37719Y47117
X37592Y39497
X5207Y129540
X147320Y3429
X46736Y74422
X156464Y74422
X114935Y57404
X46736Y2286
X37592Y3429
X37719Y119253
X5207Y21336
X147447Y83185
X156464Y2286
X147320Y75565
X147447Y11049
X147320Y111633
X37592Y111633
X37719Y83185
X46736Y38354
X156464Y110490
X147447Y47117
X5207Y93472
X114935Y93472
X37592Y75565
T10
X17526Y27940
X134366Y125476
X133490Y117208
X133236Y134252
X3810Y24130
X16510Y21590
X117348Y119377
X126238Y117983
X126746Y117221
X116619Y118618
X113157Y127254
X121666Y130556
X120523Y138049
X134747Y118237
X131699Y118110
X127381Y140589
X117475Y129286
X123698Y118872
X120024Y122691
X133985Y119253
X125476Y123444
X110998Y134620
X151257Y116078
X148328Y116078
X14859Y19050
X140208Y121920
X139192Y118872
X130556Y130823
X129921Y130175
X129980Y131432
X130810Y132042
X8890Y15240
X8890Y7239
X15875Y1270
X17145Y7620
X20320Y10160
X36576Y3556
X20447Y16637
X24638Y17272
X23762Y9004
X23508Y26048
X7620Y11173
X16510Y9779
X17018Y9017
X6891Y10414
X3429Y19050
X11938Y22352
X10795Y29845
X25019Y10033
X21971Y9906
X17653Y32385
X7747Y21082
X13970Y10668
X10297Y14487
X24257Y11049
X15748Y15240
X1270Y26416
X41529Y7874
X38600Y7874
X30480Y13716
X29464Y10668
X20828Y22619
X20193Y21971
X20252Y23228
X21082Y23838
X127254Y27940
X113538Y24130
X126238Y21590
X124587Y19050
X118618Y15240
X118618Y7239
X125603Y1270
X126873Y7620
X130048Y10160
X146304Y3556
X130175Y16637
X130175Y124841
X134366Y17272
X133490Y9004
X133236Y26048
X117348Y11173
X126238Y9779
X126746Y9017
X116619Y10414
X113157Y19050
X121666Y22352
X120523Y29845
X134747Y10033
X131699Y9906
X127381Y32385
X117475Y21082
X123698Y10668
X120024Y14487
X133985Y11049
X125476Y15240
X110998Y26416
X151257Y7874
X148328Y7874
X140208Y13716
X139192Y10668
X130556Y22619
X129921Y21971
X129980Y23228
X130810Y23838
X17526Y64008
X3810Y60198
X16510Y57658
X14859Y55118
X8890Y51308
X8890Y43307
X15875Y37338
X17145Y43688
X20320Y46228
X36576Y39624
X20447Y52705
X24638Y53340
X23762Y45072
X23508Y62116
X7620Y47241
X16510Y45847
X17018Y45085
X6891Y46482
X3429Y55118
X11938Y58420
X10795Y65913
X25019Y46101
X21971Y45974
X17653Y68453
X7747Y57150
X13970Y46736
X10297Y50555
X24257Y47117
X15748Y51308
X1270Y62484
X41529Y43942
X38600Y43942
X30480Y49784
X29464Y46736
X20828Y58687
X20193Y58039
X20252Y59296
X21082Y59906
X127254Y64008
X113538Y60198
X126238Y57658
X124587Y55118
X118618Y51308
X118618Y43307
X125603Y37338
X126873Y43688
X130048Y46228
X146304Y39624
X130175Y52705
X134366Y53340
X133490Y45072
X133236Y62116
X117348Y47241
X126238Y45847
X126746Y45085
X116619Y46482
X113157Y55118
X121666Y58420
X120523Y65913
X134747Y46101
X131699Y45974
X127381Y68453
X117475Y57150
X123698Y46736
X120024Y50555
X133985Y47117
X125476Y51308
X110998Y62484
X151257Y43942
X148328Y43942
X140208Y49784
X139192Y46736
X130556Y58687
X129921Y58039
X129980Y59296
X130810Y59906
X17526Y100076
X3810Y96266
X16510Y93726
X14859Y91186
X8890Y87376
X8890Y79375
X15875Y73406
X17145Y79756
X20320Y82296
X36576Y75692
X20447Y88773
X24638Y89408
X23762Y81140
X23508Y98184
X7620Y83309
X16510Y81915
X17018Y81153
X6891Y82550
X3429Y91186
X11938Y94488
X10795Y101981
X25019Y82169
X21971Y82042
X17653Y104521
X7747Y93218
X13970Y82804
X10297Y86624
X24257Y83185
X15748Y87376
X1270Y98552
X41529Y80010
X38600Y80010
X30480Y85852
X29464Y82804
X20828Y94755
X20193Y94107
X20252Y95364
X21082Y95974
X127254Y100076
X113538Y96266
X126238Y93726
X124587Y91186
X118618Y87376
X118618Y79375
X125603Y73406
X126873Y79756
X130048Y82296
X126746Y81153
X146304Y75692
X130175Y88773
X134366Y89408
X133490Y81140
X133236Y98184
X117348Y83309
X126238Y81915
X116619Y82550
X113157Y91186
X121666Y94488
X120523Y101981
X134747Y82169
X131699Y82042
X127381Y104521
X117475Y93218
X123698Y82804
X120024Y86624
X133985Y83185
X125476Y87376
X110998Y98552
X151257Y80010
X148328Y80010
X140208Y85852
X139192Y82804
X130556Y94755
X129921Y94107
X129980Y95364
X130810Y95974
X17526Y136144
X3810Y132334
X16510Y129794
X14859Y127254
X8890Y123444
X8890Y115443
X15875Y109474
X17145Y115824
X20320Y118364
X36576Y111760
X20447Y124841
X24638Y125476
X23762Y117208
X23508Y134252
X7620Y119377
X16510Y117983
X17018Y117221
X6891Y118618
X3429Y127254
X11938Y130556
X10795Y138049
X25019Y118237
X21971Y118110
X17653Y140589
X7747Y129286
X13970Y118872
X10297Y122691
X24257Y119253
X15748Y123444
X1270Y134620
X41529Y116078
X38600Y116078
X30480Y121920
X29464Y118872
X20828Y130823
X20193Y130175
X20252Y131432
X21082Y132042
X127254Y136144
X113538Y132334
X126238Y129794
X124587Y127254
X118618Y123444
X118618Y115443
X125603Y109474
X126873Y115824
X130048Y118364
X146304Y111760
M30